<svg width="861" height="725" viewBox="0 0 861 725" fill="none" xmlns="http://www.w3.org/2000/svg">
<g opacity="0.03">
<path fill-rule="evenodd" clip-rule="evenodd" d="M254.987 63.6895C259.98 68.092 258.482 82.026 258.104 89.8478C255.532 143.723 258.618 191.228 259.662 244.09C259.738 248.159 261.009 262.26 255.366 259.325C253.217 258.205 254.049 253.651 254.186 249.96C255.441 218.718 252.642 185.01 253.021 155.07C239.828 154.706 223.337 165.025 213.186 155.463C226.983 155.705 241.492 154.722 252.627 151.166C254.11 122.844 249.329 91.2548 254.186 64.8695C254.518 64.5518 254.428 63.7954 254.972 63.7046L254.987 63.6895Z" fill="#3E3E3E"/>
<path fill-rule="evenodd" clip-rule="evenodd" d="M491.608 86.7312H492.394C497.357 108.547 497.856 142.528 497.856 169.896C497.856 180.547 500.685 191.849 495.511 199.564C490.337 194.844 493.166 184.299 493.166 177.688C493.166 170.305 492.53 162.77 491.214 154.646C487.568 132.315 491.744 110.484 488.869 89.0459C489.384 88.6526 490.049 88.3954 490.427 87.8659C490.654 87.3061 491.048 86.9127 491.608 86.7009V86.7312Z" fill="#3E3E3E"/>
<path fill-rule="evenodd" clip-rule="evenodd" d="M394.765 155.054C396.778 154.994 395.658 158.065 397.11 158.564C402.996 158.428 412.678 157.762 411.559 162.468C410.636 166.386 402.723 162.952 397.882 164.026C397.428 169.941 397.337 176.22 395.93 181.213C399.94 182.937 407.141 181.455 411.937 182.378C409.895 183.709 406.143 183.361 404.902 185.509C373.66 188.626 332.176 187.068 296.35 187.068C291.781 187.068 281.63 189.761 281.115 183.164C312.478 181.228 348.395 182.438 381.074 181.591C378.335 171.273 380.09 153.072 394.75 155.039L394.765 155.054ZM387.337 172.619C388.578 169.956 390.03 167.506 390.469 164.026C385.476 160.879 387.019 169.291 387.337 172.619Z" fill="#3E3E3E"/>
<path fill-rule="evenodd" clip-rule="evenodd" d="M682.536 167.158C682.884 168.368 685.26 167.551 686.046 168.323C685.819 169.79 683.323 168.988 682.915 170.274C684.866 172.876 688.755 173.542 691.901 174.964C693.898 180.017 689.768 187.295 693.066 191.364C693.959 195.192 696.501 201.002 694.246 205.419C685.714 202.772 695.139 185.146 685.26 181.999C676.621 188.974 668.814 196.796 660.66 204.254C659.586 205.737 661.28 207.643 660.266 208.944C658.859 208.006 660.463 205.676 659.48 203.876C653.383 203.347 649.298 200.79 650.493 192.938C648.102 191.304 646.287 189.065 643.08 188.263C646.907 185.494 649.343 190.472 654.396 189.049C660.221 180.804 667.574 174.102 676.258 168.746C672.43 166.204 667.211 165.04 663.761 162.104C662.763 162.286 663.111 163.784 662.203 164.056C618.026 162.377 576.98 162.452 537.645 157.808C583.123 151.923 635.742 158.655 680.555 162.104C680.933 164.071 682.975 164.374 682.506 167.173L682.536 167.158ZM657.15 195.661C657.8 196.311 659.434 195.979 660.66 196.054C667.18 188.384 674.609 181.636 684.473 177.309C684.897 174.147 681.598 174.707 682.521 171.061H679.011C671.522 179.064 662.521 185.555 657.135 195.661H657.15Z" fill="#3E3E3E"/>
<path fill-rule="evenodd" clip-rule="evenodd" d="M379.152 163.648C363.978 168.262 338.788 166.386 323.311 163.254C334.385 161.03 350.407 161.681 363.524 160.909C368.32 160.637 377.473 158.322 379.137 163.648H379.152Z" fill="#3E3E3E"/>
<path fill-rule="evenodd" clip-rule="evenodd" d="M245.214 162.483C242.627 168.308 204.093 172.211 213.201 160.925C222.308 164.465 234.124 160.864 245.214 162.483Z" fill="#3E3E3E"/>
<path fill-rule="evenodd" clip-rule="evenodd" d="M248.345 161.697H246C246.076 161.122 248.557 160.123 248.345 161.697Z" fill="#3E3E3E"/>
<path fill-rule="evenodd" clip-rule="evenodd" d="M304.959 162.483C302.992 169.049 293.445 163.33 288.559 163.27C292.295 161.515 300.178 161.893 304.959 162.483Z" fill="#3E3E3E"/>
<path fill-rule="evenodd" clip-rule="evenodd" d="M751.267 173.8C756.275 184.663 754.52 202.303 759.074 213.62C757.834 214.074 756.275 214.21 755.958 215.587C752.16 248.462 759.921 284.757 757.138 316.71C750.723 316.135 752.054 307.073 752.054 302.655C752.054 276.708 751.252 244.165 751.267 217.916C743.794 217.22 738.559 222.107 729.406 221.033C728.347 244.74 734.398 266.799 732.522 291.323C730.692 291.55 729.557 291.883 727.832 291.323C726.925 266.92 727.167 243.394 724.322 220.64C723.536 218.703 721.387 218.113 720.812 215.95C722.038 213.453 722.068 211.547 720.812 208.93C726.274 205.026 724.398 193.77 726.274 186.281C727.227 192.999 729.073 198.839 729.012 206.585C735.397 207.477 743.446 206.721 750.481 206.978C751.479 196.66 750.345 184.178 751.252 173.785L751.267 173.8ZM741.903 212.848C742.962 215.042 747.667 213.589 750.496 214.013C751.086 213.302 751.086 210.821 750.496 210.11C746.381 209.762 745.866 213.03 741.903 212.848Z" fill="#3E3E3E"/>
<path fill-rule="evenodd" clip-rule="evenodd" d="M536.118 181.999C570.158 181.802 603.503 182.287 633.731 185.902C633.217 187.597 630.372 186.961 629.828 188.626C606.514 189.851 578.146 190.002 554.469 187.461C547.616 186.719 539.204 189.004 534.166 185.116C534.211 183.467 535.316 182.892 536.118 181.999Z" fill="#3E3E3E"/>
<path fill-rule="evenodd" clip-rule="evenodd" d="M430.681 198.006H432.239C438.049 207.234 432.345 217.87 433.419 230.412C435.492 254.785 438.714 291.67 431.074 309.689C425.9 277.071 427.61 233.605 429.894 199.186C429.894 198.52 430.182 198.172 430.681 198.006Z" fill="#3E3E3E"/>
<path fill-rule="evenodd" clip-rule="evenodd" d="M204.214 211.289C202.837 212.394 199.978 212 197.572 212.076C197.89 210.094 202.731 210.866 204.214 211.289Z" fill="#3E3E3E"/>
<path fill-rule="evenodd" clip-rule="evenodd" d="M661.069 210.897H661.856C666.561 223.061 666.243 239.763 667.711 257.358C668.089 262.018 669.027 280.869 664.973 280.385C661.372 279.961 663.051 261.988 662.628 258.523C660.631 242.214 659.087 225.073 661.069 210.882V210.897Z" fill="#3E3E3E"/>
<path fill-rule="evenodd" clip-rule="evenodd" d="M499.806 239.006C497.718 239.657 496.795 241.472 495.509 242.91C492.468 241.639 489.745 240.08 485.736 239.778C489.019 242.955 493.679 246.556 492.377 253.046C484.51 264.393 458.049 249.793 474.419 242.123C469.82 240.852 462.513 245.255 460.364 238.991C454.207 220.776 483.315 204.966 479.881 230.398H481.454C481.318 224.936 483.451 220.08 483.799 216.343C496.251 214.21 499.882 226.162 499.806 238.991V239.006ZM485.358 223C486.038 228.961 488.792 232.849 491.213 237.055C492.408 236.767 492.635 237.448 493.558 237.448C494.526 236.737 494.617 235.118 496.281 235.103C497.537 228.128 494.117 225.814 492.377 221.82C489.609 220.609 487.037 221.23 485.342 222.985L485.358 223ZM463.874 237.055C472.483 241.321 476.9 230.746 474.813 221.82C466.416 220.624 464.177 228.855 463.874 237.055ZM476.764 238.613C477.49 239.188 478.625 239.354 478.323 240.958C480.259 241.079 481.908 240.897 483.391 240.565C483.966 239.097 483.966 236.177 483.391 234.71C480.274 232.728 476.341 234.694 476.764 238.613ZM472.861 251.896C479.291 252.607 483.527 251.11 487.703 249.551V246.813C483.043 242.758 467.187 243.878 472.861 251.896Z" fill="#3E3E3E"/>
<path fill-rule="evenodd" clip-rule="evenodd" d="M692.31 217.538C696.698 235.587 696.168 266.98 693.869 285.483C690.238 277.237 691.13 264.514 691.13 253.076C691.13 241.638 690.979 229.051 691.917 218.718C692.114 218.4 692.325 218.082 692.31 217.553V217.538Z" fill="#3E3E3E"/>
<path fill-rule="evenodd" clip-rule="evenodd" d="M379.924 233.152C394.584 235.799 405.507 242.184 420.53 244.468C421.242 245.058 420.455 247.146 422.104 246.813C410.863 251.034 391.77 240.519 381.104 242.91C378.986 243.379 374.81 246.843 373.297 247.978C365.823 253.606 359.121 262.956 352.994 271.02C352.752 271.565 351.496 271.08 351.436 271.807C346.473 283.244 343.841 297.012 343.614 313.2C342.071 314.229 340.558 315.273 338.546 313.972C339.09 284.712 349.832 265.649 361.587 247.6C361.103 246.238 358.97 245.149 360.801 243.697C354.915 244.574 353.297 249.733 349.484 252.683C349.923 253.682 352.51 252.532 353.009 253.47V256.98C351.769 256.919 350.649 256.98 350.271 257.752C348.682 257.388 348.047 256.072 346.761 255.407C343.115 259.068 338.939 264.227 338.954 270.248C340.497 269.446 340.83 267.434 343.629 267.903C344.976 269.855 344.749 272.336 343.629 274.545C340.074 276.209 339.166 273.093 337.774 271.428C332.494 282.155 329.65 295.317 329.181 310.87C327.789 310.9 327.774 312.322 326.442 312.428C320.981 302.216 328.454 286.921 329.574 275.725C338.273 258.917 345.732 240.867 361.587 231.215C359.091 228.915 355.687 231.926 353.387 232.38C329.892 248.977 318.802 277.964 316.684 315.938C314.475 317.814 311.525 318.329 310.829 313.987C309.18 303.578 314.294 284.197 317.077 277.677C318.152 269.643 322.418 264.787 324.491 257.767C328.681 250.111 333.931 243.53 338.939 236.677C315.035 231.427 288.256 229.036 263.581 224.573C263.838 223.151 262.749 223.076 262.809 221.835C291.902 221.139 316.124 230.277 344.809 230.035C351.617 223.045 378.577 217.19 379.954 233.152H379.924ZM364.689 244.09C366.005 242.532 367.836 241.518 368.985 239.793C368.335 239.143 366.686 239.476 365.476 239.4C366.035 241.412 362.041 242.532 364.689 244.09Z" fill="#3E3E3E"/>
<path fill-rule="evenodd" clip-rule="evenodd" d="M199.129 221.835C199.916 224.059 202.231 224.725 202.261 227.69C203.35 228.038 204.183 228.628 205.378 228.87C204.228 235.603 208.101 241.412 206.936 246.435C203.139 238.991 197.677 232.471 199.114 221.835H199.129Z" fill="#3E3E3E"/>
<path fill-rule="evenodd" clip-rule="evenodd" d="M414.296 264.393C414.75 264.333 414.992 264.484 415.083 264.786C411.392 274.499 409.985 286.512 404.145 294.076C401.21 282.457 409.077 271.746 414.296 264.408V264.393Z" fill="#3E3E3E"/>
<path fill-rule="evenodd" clip-rule="evenodd" d="M296.759 283.91C286.139 285.741 279.527 280.37 272.553 277.268C281.267 277.102 297.955 274.167 296.759 283.91Z" fill="#3E3E3E"/>
<path fill-rule="evenodd" clip-rule="evenodd" d="M242.098 278.841C242.9 279.068 244.654 278.357 244.836 279.234C244.776 280.475 243.293 280.293 242.098 280.399V278.841Z" fill="#3E3E3E"/>
<path fill-rule="evenodd" clip-rule="evenodd" d="M241.704 280.793C242.098 282.578 239.707 282.714 239.753 281.186C240.206 280.854 240.796 280.672 241.704 280.793Z" fill="#3E3E3E"/>
<path fill-rule="evenodd" clip-rule="evenodd" d="M245.606 280.793C246.62 280.687 247.558 280.657 247.165 281.973C246.136 282.079 245.485 281.822 245.606 280.793Z" fill="#3E3E3E"/>
<path fill-rule="evenodd" clip-rule="evenodd" d="M567.737 285.877C568.781 289.069 566.3 291.943 563.047 292.125C562.26 289.069 564.197 285.861 567.737 285.877Z" fill="#3E3E3E"/>
<path fill-rule="evenodd" clip-rule="evenodd" d="M333.462 289.386C334.581 289.432 336.018 289.174 336.593 289.78C337.214 292.745 335.383 293.259 333.855 294.076C333.068 293.244 332.645 290.597 333.462 289.386Z" fill="#3E3E3E"/>
<path fill-rule="evenodd" clip-rule="evenodd" d="M610.687 295.241V296.406C609.87 296.573 609.658 296.149 609.129 296.013C609.22 295.332 609.795 295.12 610.687 295.226V295.241Z" fill="#3E3E3E"/>
<path fill-rule="evenodd" clip-rule="evenodd" d="M609.13 296.406C605.469 302.624 604.697 311.762 597.42 314.364C598.6 305.65 603.562 300.733 609.13 296.406Z" fill="#3E3E3E"/>
<path fill-rule="evenodd" clip-rule="evenodd" d="M415.069 306.179C415.1 307.768 413.526 307.768 413.496 309.296C395.704 309.16 384.1 303.774 368.199 301.096C383.601 296.361 402.467 301.141 415.054 306.179H415.069Z" fill="#3E3E3E"/>
<path fill-rule="evenodd" clip-rule="evenodd" d="M555.634 301.868H556.798C558.311 304.652 555.089 305.802 554.453 307.723C553.092 307.526 553.879 305.181 553.667 303.82C555.407 304.259 555.074 302.625 555.618 301.868H555.634Z" fill="#3E3E3E"/>
<path fill-rule="evenodd" clip-rule="evenodd" d="M540.02 305.393C540.716 305.498 540.913 306.073 540.807 306.966H539.627C539.461 306.149 539.899 305.937 540.02 305.393Z" fill="#3E3E3E"/>
<path fill-rule="evenodd" clip-rule="evenodd" d="M670.433 305.787H671.991C672.445 307.148 669.813 307.602 670.433 305.787Z" fill="#3E3E3E"/>
<path fill-rule="evenodd" clip-rule="evenodd" d="M394.371 314.365H395.536C394.764 318.661 399.757 324.91 395.142 326.861C391.829 324.804 394.719 318.344 394.356 314.365H394.371Z" fill="#3E3E3E"/>
<path fill-rule="evenodd" clip-rule="evenodd" d="M548.614 321.792C550.369 321.369 550.369 326.119 548.614 325.696C548.009 324.985 548.009 322.503 548.614 321.792Z" fill="#3E3E3E"/>
<path fill-rule="evenodd" clip-rule="evenodd" d="M658.723 324.138C657.467 325.878 657.452 328.843 654.426 328.828C653.639 327.663 654.214 325.152 654.033 323.366C656.045 322.126 657.588 322.02 658.723 324.153V324.138Z" fill="#3E3E3E"/>
<path fill-rule="evenodd" clip-rule="evenodd" d="M841.862 327.648C839.926 331.96 831.257 329.524 826.234 330.765C826.794 335.757 823.465 345.349 827.414 347.951C832.785 351.491 853.239 347.331 861.001 351.068C833.556 355.849 795.749 354.2 767.291 351.461C767.487 343.246 779.394 348.314 786.429 348.329C795.249 348.329 805.628 348.511 813.374 347.936C813.722 343.503 812.27 334.501 815.326 331.536C797.277 326.271 766.746 338.919 757.926 323.729C769.545 327.164 803.328 329.131 818.836 324.516C823.042 323.26 838.564 324.773 841.878 327.648H841.862ZM818.821 331.158C819.048 334.184 818.14 338.344 820.001 339.751C820.243 336.226 822.436 334.653 822.346 330.765C821.12 330.84 819.471 330.507 818.836 331.158H818.821Z" fill="#3E3E3E"/>
<path fill-rule="evenodd" clip-rule="evenodd" d="M644.669 338.586C645.123 341.234 643.716 342.051 642.717 343.276C641.023 343.534 641.673 341.461 641.537 340.145C643.081 340.13 643.065 338.556 644.669 338.586Z" fill="#3E3E3E"/>
<path fill-rule="evenodd" clip-rule="evenodd" d="M737.607 347.952C724.233 342.929 707.984 342.142 689.572 342.868C694.595 339.116 710.98 338.314 722.372 340.13C728.969 341.189 737.622 342.323 737.607 347.936V347.952Z" fill="#3E3E3E"/>
<path fill-rule="evenodd" clip-rule="evenodd" d="M98.0062 363.186C97.6885 367.559 95.9335 370.494 92.9228 372.173C90.1995 383.248 90.956 397.787 88.2328 408.876C90.2903 427.969 89.7608 456.079 89.3977 479.167C89.3069 485.793 90.8501 497.836 85.4944 496.731C81.5608 495.93 83.9209 481.89 83.9209 476.822C83.9209 454.203 86.0844 432.327 83.9209 410.435C82.0449 391.448 84.0722 375.396 94.0726 363.58C95.0106 362.294 96.3117 363.156 97.9759 363.186H98.0062Z" fill="#3E3E3E"/>
<path fill-rule="evenodd" clip-rule="evenodd" d="M594.304 407.697H589.614C589.417 406.728 588.66 406.305 588.055 405.745C582.896 405.14 579.674 406.471 578.297 409.648C549.718 425.837 519.112 440.013 492.787 458.455C490.881 464.567 493.513 477.019 485.374 475.642C482.045 468.788 489.428 456.049 483.029 450.664C481.047 449.983 482.121 452.358 480.684 452.222C481.107 441.616 495.631 438.621 504.89 434.264C524.558 421.131 546.813 410.601 566.194 397.182C577.752 390.359 597.375 389.148 594.319 407.727L594.304 407.697ZM578.675 395.2C578.433 398.574 580.672 399.451 581.807 401.448C581.852 400.45 583.123 400.677 584.152 400.662C584.046 399.391 584.621 398.771 585.71 398.71C586.648 395.427 584.031 395.699 584.152 393.248H581.035C580.581 394.217 580.627 395.699 578.69 395.2H578.675ZM562.668 406.91C563.137 407.878 565.059 407.379 564.62 409.255C569.628 407.606 576.92 406.229 574.772 398.71C570.611 401.312 565.422 402.886 562.668 406.91ZM538.462 419.407C539.173 420.526 541.881 419.634 541.2 422.145C548.508 419.028 556.965 417.092 560.323 410.042C558.901 410.163 558.765 408.998 558.372 408.09C551.806 411.948 544.362 414.913 538.462 419.422V419.407ZM522.455 428.378C525.118 437.062 532.698 426.88 537.297 425.655C537.13 423.87 537.69 421.358 536.919 420.178C531.714 422.523 526.661 425.035 522.47 428.378H522.455ZM505.662 442.055C511.638 441.389 514.573 437.683 519.323 435.807C518.431 427.062 503.952 437.425 505.662 442.055ZM486.917 448.303C488.475 449.756 490.472 450.724 492 452.207C494.633 450.285 497.522 448.621 500.2 446.745C500.321 445.323 500.14 444.203 499.807 443.235C495.692 445.096 489.05 444.461 486.917 448.319V448.303Z" fill="#3E3E3E"/>
<path fill-rule="evenodd" clip-rule="evenodd" d="M691.522 391.297C692.294 392.689 691.341 393.385 691.522 395.2C689.722 395.2 687.71 395.382 686.439 394.807C686.091 391.6 688.572 391.206 691.522 391.297Z" fill="#3E3E3E"/>
<path fill-rule="evenodd" clip-rule="evenodd" d="M709.088 402.613C708.165 405.321 706.788 408.831 702.84 407.303C702.582 405.881 702.295 404.459 702.446 402.613C704.458 401.388 707.56 400.223 709.088 402.613Z" fill="#3E3E3E"/>
<path fill-rule="evenodd" clip-rule="evenodd" d="M650.13 439.71C641.809 436.836 639.131 428.333 629.434 426.82C639.343 424.99 647.074 432.07 650.13 439.71Z" fill="#3E3E3E"/>
<path fill-rule="evenodd" clip-rule="evenodd" d="M716.123 427.605C717.076 430.253 716.577 434.111 714.171 434.641C711.236 434.398 710.994 430.435 711.826 427.605C713.263 427.333 714.791 426.925 716.123 427.605Z" fill="#3E3E3E"/>
<path fill-rule="evenodd" clip-rule="evenodd" d="M670.433 472.116H671.613C671.401 472.676 672.067 474.128 671.22 474.068C669.903 474.476 670.615 472.858 670.433 472.116Z" fill="#3E3E3E"/>
<path fill-rule="evenodd" clip-rule="evenodd" d="M697.772 472.903C692.9 478.698 686.97 483.448 680.978 488.138V512.738C671.235 520.227 674.836 501.997 675.124 493.993C663.308 500.015 652.188 508.79 639.979 513.117C644.351 505.915 655.077 499.924 664.185 495.158C672.219 490.968 676.288 485.279 671.992 474.477C674.791 476.232 676.455 479.121 677.453 482.677C685.593 484.038 690.162 473.342 697.757 472.903H697.772Z" fill="#3E3E3E"/>
<path fill-rule="evenodd" clip-rule="evenodd" d="M797.337 479.923C795.84 482.601 795.431 486.338 793.827 488.91C794.13 490.438 794.251 492.117 796.172 492.042C801.574 488.199 804.115 481.497 811.408 479.545C813.072 480.997 811.695 483.948 811.408 485.793C796.944 497.76 783.827 511.059 772.359 526.022C765.188 530.439 759.711 536.536 755.172 543.587C744.537 547.52 742.146 559.714 731.359 563.497C726.699 570.002 713.416 569.594 699.739 568.958C682.552 568.172 660.282 566.84 648.588 565.055C648.209 560.123 652.536 559.881 657.181 559.972C658.089 558.277 656.878 554.464 658.739 553.723C658.119 553.042 657.287 552.573 656.394 552.165C656.213 550.939 657.589 551.272 657.181 549.82C676.743 547.944 702.417 553.027 721.223 549.426C741.254 532.24 759.953 513.707 779.016 495.536C784.599 490.06 789.304 481.618 797.368 479.908L797.337 479.923ZM779.379 501.407C779.182 502.647 780.075 502.783 779.772 504.145C785.476 505.128 790.151 499.122 791.876 493.6C786.142 490.544 783.903 499.515 779.394 501.407H779.379ZM768.047 514.69C769.288 515.265 770.347 516.021 771.557 516.642C772.601 514.039 775.521 513.328 775.461 509.607C772.072 508.895 769.227 511.921 768.032 514.69H768.047ZM764.144 521.332C763.085 516.339 755.309 527.066 752.827 528.352C753.069 529.668 754.219 530.091 754.386 531.468H757.124C758.455 527.217 765.067 525.674 764.144 521.317V521.332ZM738.379 543.193C742.01 548.942 745.626 541.62 748.924 540.077C749.106 537.883 749.378 537.066 748.924 534.993C744.158 534.993 742.192 540.954 738.379 543.193ZM728.621 559.2C729.589 557.959 730.754 556.915 732.524 556.462C732.857 555.357 733.099 554.177 734.476 554.117C734.627 552.271 734.355 550.849 734.082 549.426C729.15 549.971 721.313 556.749 728.621 559.185V559.2ZM663.414 553.345C662.779 555.297 663.081 557.566 663.414 559.593C667.045 560.214 673.066 560.214 676.682 559.593C676.516 557.732 677.378 556.9 677.076 554.903C672.855 554.086 667.938 552.619 663.414 553.33V553.345ZM681.372 559.593C685.548 561.832 693.082 562.649 699.331 561.545C699.89 559.548 699.527 558.943 700.102 556.855C693.461 558.111 681.947 550.243 681.372 559.593ZM704.414 561.938C708.65 562.937 713.552 561.53 718.076 561.545C717.803 560.093 718.741 559.866 718.469 558.428C714.793 557.49 701.267 552.573 704.414 561.938Z" fill="#3E3E3E"/>
<path fill-rule="evenodd" clip-rule="evenodd" d="M559.158 486.958C569.234 490.423 580.596 494.674 581.807 505.703C580.006 505.552 579.28 504.326 577.117 504.538C571.201 498.607 564.695 493.267 559.158 486.958Z" fill="#3E3E3E"/>
<path fill-rule="evenodd" clip-rule="evenodd" d="M585.711 492.041C586.013 493.978 586.331 495.702 585.317 497.109C583.85 496.882 583.865 495.173 582.186 495.158V492.434C582.836 491.769 584.485 492.117 585.696 492.041H585.711Z" fill="#3E3E3E"/>
<path fill-rule="evenodd" clip-rule="evenodd" d="M126.117 515.068C120.489 522.466 125.738 534.085 126.117 543.571C139.99 545.129 156.178 542.27 170.248 544.342C157.616 553.027 138.159 545.644 121.835 547.852C99.4288 550.893 65.4033 550.682 39.8351 552.542C33.0875 553.042 25.2354 552.936 18.3517 552.936C12.0882 552.936 3.78229 555.009 0 549.819C6.6417 545.326 17.3985 547.898 26.1583 547.474C51.9989 546.249 80.245 544.6 108.552 545.523C105.707 536.823 106.661 521.286 112.848 515.854C88.2181 514.296 65.4639 515.93 39.4417 517.019C31.1358 517.367 18.5483 520.363 16.4 512.723C62.3624 506.731 125.859 513.086 171.413 508.426C174.908 508.078 181.852 506.898 181.958 511.558C182.079 517.488 161.126 515.068 155.8 515.068H126.132H126.117ZM114.407 517.019C114.225 526.929 110.11 541.755 119.49 544.751C115.647 536.203 116.57 522.632 122.228 515.461C119.309 514.19 115.738 515.416 114.407 517.019Z" fill="#3E3E3E"/>
<path fill-rule="evenodd" clip-rule="evenodd" d="M514.255 509.607C513.135 510.136 510.245 509.607 508.793 509.229C509.186 508.094 514.436 507.701 514.255 509.607Z" fill="#3E3E3E"/>
<path fill-rule="evenodd" clip-rule="evenodd" d="M514.256 510C522.002 510.574 526.662 514.266 529.491 519.758C522.834 522.557 519.733 512.223 514.256 510Z" fill="#3E3E3E"/>
<path fill-rule="evenodd" clip-rule="evenodd" d="M604.833 522.496C607.117 525.537 604.379 528.608 603.274 530.696C600.717 529.606 597.328 529.349 598.206 524.841C599.613 523.252 601.202 521.845 604.833 522.496Z" fill="#3E3E3E"/>
<path fill-rule="evenodd" clip-rule="evenodd" d="M478.323 558.02C456.975 544.736 431.831 533.374 397.109 535.765C413.04 527.777 443.949 532.436 457.626 540.455C467.399 543.208 477.551 547.535 478.323 558.02Z" fill="#3E3E3E"/>
<path fill-rule="evenodd" clip-rule="evenodd" d="M438.111 549.033C427.641 551.651 418.428 543.345 406.869 543.178C417.898 540.289 433.148 542.089 438.111 549.033Z" fill="#3E3E3E"/>
<path fill-rule="evenodd" clip-rule="evenodd" d="M449.033 550.606H445.916C443.193 544.403 451.62 544.585 449.033 550.606Z" fill="#3E3E3E"/>
<path fill-rule="evenodd" clip-rule="evenodd" d="M607.179 549.032C606.377 549.789 604.622 549.29 604.062 548.654C604.244 547.398 607.799 546.703 607.179 549.032Z" fill="#3E3E3E"/>
<path fill-rule="evenodd" clip-rule="evenodd" d="M555.634 551C559.643 553.496 559.356 560.289 562.669 563.497C569.341 559.745 574.213 554.222 583.759 553.345C578.373 560.849 570.082 565.448 562.669 570.91C561.958 579.367 565.241 585.691 563.849 593.558C562.23 594.012 560.778 594.012 559.159 593.558C556.36 589.065 558.085 580.048 556.421 574.435C548.629 578.626 541.534 583.497 532.607 586.538C540.702 575.101 563.047 573.194 555.649 551H555.634Z" fill="#3E3E3E"/>
<path fill-rule="evenodd" clip-rule="evenodd" d="M471.697 559.971H475.6C476.417 560.727 476.251 562.452 477.946 562.316V565.447C476.932 565.342 475.994 565.311 476.387 566.612C471.561 567.066 469.624 563.239 471.697 559.971Z" fill="#3E3E3E"/>
<path fill-rule="evenodd" clip-rule="evenodd" d="M135.89 563.103C140.534 586.538 137.16 624.195 137.055 652.123C135.118 648.205 135.708 641.745 132.365 639.233C133.983 615.722 129.369 583.164 134.71 563.875C134.377 563.073 135.723 562.12 135.89 563.103Z" fill="#3E3E3E"/>
<path fill-rule="evenodd" clip-rule="evenodd" d="M86.2971 656.42C82.1668 629.656 84.2546 594.738 83.952 565.448C85.3439 565.524 86.1911 563.012 87.0686 563.89C91.5923 563.179 89.6255 576.674 89.4137 581.848C88.4 607.341 91.1989 636.888 86.2971 656.42Z" fill="#3E3E3E"/>
<path fill-rule="evenodd" clip-rule="evenodd" d="M775.082 582.621C770.134 586.524 761.813 587.053 752.827 586.917C751.707 598.839 753.22 611.502 755.958 620.882C761.692 622.698 770.498 621.457 773.917 625.572C709.346 632.153 638.042 620.685 574 625.966C568.206 621.911 575.12 617.811 581.807 619.324C581.746 611.714 584.152 606.57 586.497 601.366C587.541 604.997 586.86 608.991 588.055 613.862C590.294 609.46 591.747 604.286 593.91 599.807C595.272 605.859 597.344 611.2 597.027 618.946C614.077 619.853 632.822 619.082 650.523 619.339C646.802 609.021 648.662 592.606 655.213 585.752C650.856 584.133 647.906 587.28 643.11 586.524C636.998 576.463 668.527 579.731 679.42 580.276C701.947 581.395 736.881 582.575 754.778 580.276C760.467 582.121 769.665 580.487 775.082 582.621ZM666.923 584.966C662.506 593.65 663.504 611.714 667.317 620.111C690.903 621.291 718.695 622.289 741.888 621.291C736.835 610.549 738.757 596.721 743.447 586.932C717.833 586.615 692.794 583.725 666.908 584.966H666.923ZM656.772 597.462C657.861 591.91 662.339 589.761 664.578 585.359C663.519 584.587 661.159 585.132 659.495 584.966C658.618 588.718 655.138 593.801 656.757 597.462H656.772ZM746.578 597.84C746.23 593.075 749.846 592.258 749.317 587.295C748.863 586.978 748.273 586.781 747.365 586.917C746.624 589.671 744.46 594.784 746.578 597.84Z" fill="#3E3E3E"/>
<path fill-rule="evenodd" clip-rule="evenodd" d="M369.393 604.89C373.508 627.221 374.461 655.195 374.461 682.593C374.461 690.582 376.534 709.629 369.393 707.587C364.899 706.301 367.396 689.023 367.441 682.987C367.638 659.143 365.414 625.647 369.393 604.89Z" fill="#3E3E3E"/>
<path fill-rule="evenodd" clip-rule="evenodd" d="M463.497 632.213C459.579 640.534 448.383 641.562 442.014 647.433H439.275C445.978 641.472 452.619 631.411 463.482 632.213H463.497Z" fill="#3E3E3E"/>
<path fill-rule="evenodd" clip-rule="evenodd" d="M458.414 560.365C477.114 565.478 480.714 585.706 484.194 606.055C487.114 605.782 488.703 604.723 490.836 606.448C491.441 611.486 487.689 612.152 485.374 614.255C487.038 619.368 487.28 625.889 487.719 632.213C488.733 632.531 491.229 631.245 492.787 632.591C493.544 634.331 493.105 637.009 492.394 638.446C490.352 638.537 491.002 635.935 488.097 636.888C487.19 642.092 487.961 648.991 487.704 654.846C490.291 655.209 490.261 652.97 492.394 652.895C496.449 636.056 493.725 612.984 492.787 594.315C488.809 583.058 482.863 571.712 480.291 560.35C496.797 577.945 498.234 610.609 500.594 642.35C511.699 595.994 495.632 543.511 455.691 534.585C441.137 526.536 421.121 525.991 402.194 526.778C407.005 519.879 418.912 520.061 427.581 517.02C431.817 503.767 427.883 479.106 431.484 463.916C430.909 462.933 429.865 462.403 429.926 460.785C429.548 459.105 431.847 460.104 431.877 458.833C428.337 433.915 432.377 403.218 428.368 378.391C421.438 380.948 412.043 381.447 403.374 384.246C393.374 387.469 384.115 395.018 374.871 392.053C374.281 389.632 376.55 390.086 376.429 388.149C391.362 384.216 405.855 379.828 418.594 373.701C422.437 362.566 419.154 344.82 409.214 341.294C392.179 346.121 376.293 352.112 360.407 358.088C367.594 365.108 379.001 369.919 377.579 384.246C372.889 385.789 372.405 380.857 372.511 376.439C365.566 360.63 340.165 360.584 326.821 370.585C312.902 387.181 328.137 420.723 320.572 443.991C320.572 456.896 325.595 464.748 324.082 479.136C334.99 482.011 350.195 482.102 361.179 479.136C361.935 477.154 362.949 475.445 365.476 475.233C367.321 451.404 363.872 422.583 367.427 399.875C368.698 396.879 373.146 394.095 376.021 397.151C377.14 402.068 373.418 407.394 372.511 411.206C369.787 422.523 375.355 439.059 372.117 451.42C371.406 454.128 369.288 455.913 368.986 458.061C368.259 463.523 372.405 469.998 370.544 476.413C372.344 479.439 375.552 482.661 374.054 487.745C368.955 489.938 364.069 497.972 357.26 493.6C349.363 497.624 332.887 495.037 325.247 493.993C319.211 522.058 325.247 554.495 324.082 586.145C326.518 589.7 331.722 590.487 334.627 593.573C332.282 594.042 330.663 592.923 329.166 594.345C337.789 599.685 355.052 596.659 365.097 594.345C367.185 593.679 366.459 595.843 368.214 595.525C369.091 595.358 368.365 593.603 368.607 592.802C359.848 592.847 352.283 594.678 344.007 591.622C350.861 588.853 358.229 586.568 366.656 585.373C365.748 557.384 364.492 522.224 367.836 494.402C376.641 518.986 369.001 556.976 372.526 583.815C378.229 586.644 374.75 592.877 374.477 599.035C373.282 600.714 370.181 600.472 370.181 603.331C363.721 602.984 355.838 606.599 349.091 604.118C348.834 602.439 351.527 603.695 351.042 601.773C346.458 600.896 340.134 601.743 335.429 601.002C334.536 606.1 329.347 606.887 322.932 606.463C323.053 637.13 326.442 676.012 322.539 706.815H318.636C315.413 675.165 321.268 631.547 316.684 599.837C314.021 596.705 313.9 589.367 318.242 588.127C315.171 557.702 318.348 523.465 318.242 493.63C309.331 492.616 308.348 482.465 315.504 478.788C315.141 459.135 320.103 447.032 314.732 429.588C310.617 428.469 306.381 425.473 301.842 426.078C302.236 459.393 309.346 494.931 307.697 531.12C306.2 531.317 306.457 533.268 304.959 533.465C306.396 535.81 306.684 540.939 304.959 543.223C307.455 558.383 307.334 572.634 304.566 585.388C302.281 595.933 306.215 608.536 299.104 614.285V623.257C286.638 639.944 288.12 670.596 270.601 682.215C269.103 689.416 268.619 696.512 268.649 704.47C272.477 708.767 284.156 711.127 283.097 718.918C281.509 730.507 255.819 721.778 244.049 722.822C243.943 721.233 243.383 720.098 243.262 718.525C240.6 716.891 237.74 715.454 235.062 713.835C231.885 706.074 239.041 704.152 237.801 697.041C236.802 691.307 226.484 688.69 227.256 682.593C227.664 679.31 232.929 678.312 230.766 673.622C232.475 672.729 234.17 671.821 235.834 670.883C242.324 647.04 244.594 618.99 257.695 601.773C255.456 588.444 253.096 573.134 249.889 559.608C246.954 565.388 244.821 571.969 243.247 579.125C235.713 597.023 231.038 621.486 223.731 640.822C225.198 657.464 212.762 666.405 213.186 684.56C211.083 686.875 209.146 689.356 206.166 690.808C205.727 694.152 204.895 697.087 202.656 698.615C211.188 725.409 183.986 727.375 160.884 723.215C160.324 721.172 158.388 720.522 157.374 718.933C153.909 705.166 165.045 704.47 166.361 693.547C169.326 691.504 174.288 687.858 170.264 683.395C174.773 675.8 176.921 665.845 180.794 657.615C181.097 620.7 187.784 590.275 189.781 558.05C193.729 554.858 190.265 549.381 191.732 543.995C192.262 542.058 194.032 542.3 195.242 540.485C200.053 533.223 198.193 523.328 200.311 513.147C202.308 503.57 206.423 491.92 207.346 480.74C204.986 479.03 204.789 474.779 205.787 471.753C207.815 470.921 209.449 469.681 211.249 468.637C211.718 453.311 209.691 430.269 214.759 417.092C216.65 416.895 217.528 415.7 218.269 414.353C212.52 396.924 199.025 387.257 196.786 366.318C199.221 362.627 202.141 359.449 202.247 353.428C207.104 343.458 216.771 338.284 228.799 335.47C229.525 334.259 229.253 331.279 228.799 330.008C216.665 319.508 220.629 277.344 239.344 284.318C232.914 290.234 223.685 295.045 227.634 310.083C232.838 311.46 243.746 310.93 251.447 310.476C249.344 304.758 239.026 308.873 236.212 308.525C236.212 306.966 238.814 308.01 239.329 306.966C239.783 304.833 236.923 305.983 236.984 304.228C240.403 303.351 241.749 300.4 246.349 300.718C246.5 302.034 244.624 301.338 245.169 303.063C246.273 304.621 250.918 303.85 252.204 303.063C250.297 296.391 250.131 287.949 247.514 281.973C250.676 282.578 251.326 285.725 253.369 287.435C255.472 285.786 252.052 283.789 252.597 281.186C251.387 280.43 249.722 280.142 247.907 280.006C248.769 277.661 253.051 278.312 255.32 278.448C255.759 278.917 256.44 279.159 256.107 280.4C272.522 282.2 274.625 298.328 279.149 312.035C277.53 314.183 275.397 315.832 272.114 316.331C271.781 321.082 273.929 323.366 274.459 327.27C297.833 319.312 325.58 321.914 352.555 326.876C357.518 333.367 357.684 344.668 363.872 349.918C385.068 343.897 403.904 335.545 426.34 330.78C428.095 326.649 425.962 316.649 432.195 318.298C434.117 319.236 433.209 323.003 434.934 324.153C436.885 366.454 436.976 411.857 437.279 456.911C446.053 460.83 459.715 459.937 470.865 459.65C470.941 393.188 472.893 325.379 471.259 262.85C446.976 256.662 448.444 211.774 472.424 206.236C472.136 202.878 473.135 198.233 471.652 196.085C458.217 199.625 419.381 200.382 429.865 183.982C428.11 130.999 424.737 70.5733 427.914 16.8648C429.517 16.5623 429.926 17.47 431.424 17.2582C434.389 41.48 433.511 73.7051 434.934 105.113C436.038 129.396 436.28 157.884 433.375 176.568C432.286 177.688 431.378 179.004 431.802 181.636C441.409 184.95 462.514 188.581 472.408 182.817C474.965 123.601 464.072 56.5789 473.589 0.464844C481.713 66.7154 473.755 135.326 478.279 204.678C480.548 205.541 484.361 204.845 487.265 205.072C513.469 212.591 515.058 255.497 488.445 264.423C484.603 264.484 480.911 264.696 478.294 265.982C479.186 282.699 473.543 296.784 476.342 312.837C486.811 311.853 495.798 309.387 497.825 299.946C497.175 288.6 496.963 277.48 497.825 265.982C499.263 265.603 499.928 264.453 502.122 264.801C508.204 273.803 503.575 290.96 503.68 299.946C510.927 297.571 522.91 296.845 525.935 304.637C529.763 264.938 523.137 226.434 523.212 189.443C523.273 159.487 514.679 126.249 522.032 98.0782C530.247 166.386 531.2 241.972 533.742 315.968C530.051 331.415 520.428 342.989 504.059 344.472C510.534 341.052 513.666 334.29 519.294 330.023C517.735 318.041 512.228 310.007 501.335 307.375C495.39 313.548 483.226 313.472 476.342 318.691C480.941 326.423 488.975 334.577 486.1 347.195C491.698 348.087 497.145 343.443 503.665 345.243C497.114 351.053 487.992 354.29 478.672 357.346C471.123 387.469 480.366 425.549 475.934 458.47C483.271 463.402 477.265 474.9 478.672 483.857C490.306 478.834 501.608 470.089 514.21 464.718C514.649 457.834 518.083 452.736 524.362 450.663H536.859C563.819 434.687 591.551 419.452 612.61 397.545C601.158 385.835 577.995 385.82 559.9 380.751C556.088 385.532 544.892 384.579 537.252 384.261C529.264 368.557 499.051 375.093 485.314 365.123C501.502 363.882 520.338 364.034 531.775 369.813C533.424 362.369 527.721 353.02 532.169 346.393C533.243 337.315 531.427 325.348 537.63 321.4C537.691 321.853 538.341 321.732 538.81 321.793C540.021 324.486 538.19 330.22 539.975 332.338C543.349 321.263 543.591 307.057 551.292 300.325C549.93 314.077 542.078 326.74 543.485 343.276C544.272 342.626 543.773 340.72 545.044 340.538C546.103 340.916 547.041 341.4 548.16 341.718C547.994 344.683 546.36 346.166 544.257 347.18C545.18 350.16 543.969 355.274 545.437 357.725C546.103 356.953 545.709 355.138 547.782 355.758C549.038 357.604 547.782 359.767 545.83 359.661C544.862 367.665 549.628 369.919 550.127 376.455C551.216 377.166 551.942 374.806 553.637 374.896C550.233 352.883 548.72 319.009 559.492 304.228C556.133 323.109 552.684 352.233 558.705 373.731C567.056 374.155 576.058 379.556 582.912 377.635C592.186 383.202 607.421 382.809 616.892 388.18C619.267 361.658 620.947 328.994 641.099 320.235C634.548 336.12 623.503 351.522 625.879 373.731C631.31 345.455 638.905 317.254 665.699 311.641C643.171 324.516 630.735 349.57 630.947 383.883C634.048 382.824 635.501 380.116 637.967 378.421C635.576 371.87 638.042 364.866 636.015 359.283C638.451 358.421 637.286 361.144 638.754 361.235C639.177 358.148 641.189 356.635 642.657 354.593C643.746 360.282 642.354 368.436 643.444 374.11C644.245 374.866 645.032 373.414 646.167 373.338C647.196 366.167 652.945 363.716 655.154 357.725C655.91 362.899 653.807 365.229 653.989 369.828C656.455 370.085 657.332 368.754 659.057 368.27C678.71 366.197 689.179 373.308 702.795 377.256C730.951 389.057 742.827 422.099 736.382 462.766C765.143 443.28 772.193 371.901 747.699 342.111C746.549 344.729 751.466 351.31 748.092 355.001C741.556 348.133 740.875 335.409 731.299 331.566C737.002 331.339 741.526 335.651 744.582 339.373C740.225 324.199 724.233 317.285 711.389 309.311C681.009 309.826 664.14 330.144 646.969 346.408C652.173 334.184 661.568 326.135 672.34 319.463C672.522 317.557 670.313 317.632 671.947 316.331C673.672 316.044 673.551 317.602 674.685 317.89C677.348 315.212 681.266 313.805 684.444 311.641C684.08 309.932 680.328 311.581 679.375 310.461C679.875 307.965 681.978 307.072 684.444 306.558C682.749 304.107 676.365 306.316 673.52 305C679.375 301.217 687.454 299.674 695.004 297.571C676.531 291.746 656.561 310.007 642.294 315.923C647.876 304.969 659.208 299.78 670.026 294.046C660.403 289.22 646.757 288.418 636.832 283.894C625.198 283.244 612.338 279.431 600.916 276.859C584.364 273.153 578.797 283.683 570.854 290.914C569.538 290.672 569.84 288.811 569.674 287.404C572.73 283.698 575.362 279.552 578.645 276.088C570.854 273.047 567.994 284.545 560.687 285.846C562.049 280.959 565.271 277.934 567.329 273.743C555.377 278.72 548.75 292.397 541.564 303.411C542.29 289.175 549.718 281.64 557.177 274.136C554.061 269.824 537.797 274.303 538.039 267.888C538.266 261.791 560.006 267.071 566.149 267.494C574.47 261.458 588.041 265.603 593.487 271.398C594.818 271.504 596.649 271.095 597.39 271.791C609.63 278.297 629.616 277.041 643.08 282.336C660.403 282.336 674.473 293.259 691.1 287.798C697.742 290.521 706.26 291.383 707.5 299.508C731.117 311.944 752.434 326.68 759.439 355.728C767.563 378.542 770.922 411.01 759.439 431.086C753.221 441.949 749.605 461.269 741.481 470.528C739.135 473.206 735.625 475.218 734.839 477.956C732.342 486.565 732.161 492.041 724.294 494.356C724.188 495.672 723.674 496.595 723.9 498.259C716.169 501.86 712.644 509.652 703.204 511.543C672.007 530.984 645.879 555.493 616.135 576.356C616.635 580.895 614.456 582.756 614.184 586.508C611.022 591.561 601.944 590.653 595.439 590.411C590.522 594.209 583.835 596.236 580.219 601.35C552.396 618.551 521.124 632.334 503.302 659.536C503.332 667.252 496.524 668.13 491.986 671.246H482.999C481.335 671.473 482.242 669.128 480.261 669.688C467.31 679.386 453.179 687.903 440.441 697.798C438.746 697.798 436.931 697.919 435.751 697.405C437.687 688.236 448.777 684.953 456.054 679.84C463.679 673.682 471.531 667.721 479.489 661.881C485.858 637.66 480.427 605.45 474.799 584.571C469.958 576.114 464.027 566.704 458.399 560.365H458.414ZM433.436 188.641C434.48 189.292 437.052 188.414 436.552 190.593C437.914 191.062 441.348 191.561 441.621 189.806C440.668 188.944 438.837 188.959 436.931 189.02C436.885 186.448 433.935 186.796 432.241 185.903C432.059 187.386 434.041 186.69 433.421 188.626L433.436 188.641ZM442.801 191.38C450.305 193.346 463.815 192.847 470.911 191.38C462.136 191.259 451.939 190.684 442.801 191.38ZM462.317 249.173C465.782 255.21 473.104 257.388 479.504 260.49C483.468 261.065 484.118 258.341 488.097 258.931C508.34 252.093 507.296 216.963 486.917 210.518C482.5 210.775 477.038 209.989 473.256 210.911C459.791 214.86 454.238 235.012 462.317 249.173ZM259.662 288.6C264.065 293.002 258.21 309.145 270.586 305C270.782 296.724 265.366 290.687 260.041 286.648C260.373 287.752 259.496 287.662 259.647 288.6H259.662ZM501.744 305.393C508.098 305.832 514.225 308.525 519.309 308.903C518.613 303.744 503.953 297.798 501.744 305.393ZM243.656 305.015C244.019 303.608 242.112 304.47 241.311 304.228C240.932 305.635 242.839 304.773 243.656 305.015ZM685.669 310.476C686.698 310.476 687.969 310.688 688.014 309.705C687.212 309.947 685.306 309.069 685.669 310.476ZM241.704 312.821C240.6 316.014 239.919 319.63 238.981 322.973C234.85 322.549 236.031 316.8 233.897 314.38C232.006 315.303 231.492 316.634 229.601 314.773C227.649 320.068 231.371 322.474 234.291 324.138C234.563 340.508 246.212 348.814 264.746 344.441C269.753 337.769 269.874 321.384 266.304 312.806C257.363 312.852 250.01 312.715 241.704 312.806V312.821ZM422.891 334.305C423.148 336.256 424.237 337.391 426.007 337.815C426.491 336.604 427.051 335.213 426.401 333.911C424.797 333.609 424.404 334.517 422.891 334.305ZM328.016 355.395C331.299 355.017 333.402 353.473 336.216 352.656C337.229 353.988 335.974 357.573 337.003 358.905C339.59 358.632 339.741 355.924 341.299 354.608C345.929 357.573 349.635 353.912 354.189 353.443C354.068 351.87 352.934 351.31 352.238 350.327C350.089 350.523 349.802 352.566 347.941 353.065C349.787 345.258 349.469 336.589 340.134 341.34C340.573 338.359 341.239 336.12 339.363 334.305C329.12 334.698 329.952 347.951 328.046 355.395H328.016ZM308.877 335.863C308.741 338.057 305.836 337.497 304.974 338.98C307.909 339.948 310.148 341.612 312.403 343.276C314.884 338.707 326.851 341.612 327.244 336.241C321.329 333.76 315.822 335.561 308.893 335.848L308.877 335.863ZM540.429 366.711C541.413 357.498 539.128 344.865 538.084 335.092C536.526 344.88 535.921 359.646 540.429 366.711ZM413.919 338.601C418.806 345.954 425.553 351.431 427.581 361.628C427.702 351.159 424.827 335.485 413.919 338.601ZM292.477 348.36C292.417 351.416 288.998 354.85 286.622 353.05C287.727 351.734 289.119 345.606 287.016 344.835C285.942 346.06 287.576 347.906 287.016 349.918C279.527 352.687 271.327 366 277.257 374.518C282.326 362.521 290.738 365.819 299.512 372.566C299.558 373.777 299.331 374.73 298.726 375.305C294.066 376.636 293.521 373.429 288.181 373.747C280.404 395.063 289.815 423.582 313.946 421.782C314.4 420.163 314.4 418.71 313.946 417.092C301.283 410.465 289.3 399.088 294.429 377.256C296.32 376.682 295.246 379.042 296.774 378.815C296.426 376.016 300.783 377.574 302.236 377.65C305.488 383.717 306.759 394.595 303.794 401.463C306.426 403.385 308.772 405.593 313.159 405.76C314.339 392.265 310.935 378.951 319.014 372.566C314.914 365.637 325.353 364.427 329.166 361.628C324.718 359.132 317.289 354.109 322.131 347.18C318.787 346.59 318.273 348.783 315.096 348.36C315.943 361.492 312.085 378.845 300.254 372.96C303.174 364.699 310.073 360.387 313.522 352.656C307.41 350.962 307.349 343.216 299.467 343.292C299.286 347.134 296.835 348.723 292.432 348.36H292.477ZM279.587 346.801C278.15 343.337 283.657 346.211 279.587 346.801V346.801ZM262.401 351.492C262.113 354.245 265.956 352.883 266.304 355.001C260.963 361.235 251.341 363.201 239.359 362.808C236.726 365.91 233.534 368.451 227.649 368.27C225.243 372.249 222.959 379.632 216.711 377.256C216.257 366.379 226.06 362.521 234.276 360.085C229.707 353.882 220.175 347.755 209.676 352.263C207.119 355.818 208.057 362.884 204.986 365.94C203.942 365.94 202.746 365.789 202.247 366.333C202.913 380.645 211.294 390.6 222.944 395.23C242.929 392.189 255.487 381.689 268.241 371.417C268.119 365.304 268.558 359.767 269.012 354.245C267.091 352.399 265.548 347.921 262.37 351.507L262.401 351.492ZM274.504 352.278C275.533 352.399 275.503 351.461 275.684 350.72C275.185 350.705 275.139 350.221 274.504 350.342C274.232 351.537 274.232 351.083 274.504 352.293V352.278ZM258.104 353.458C259.284 353.08 262.068 354.29 262.007 352.672C261.19 351.885 258.089 352.127 258.104 353.458ZM245.214 356.197H243.656C243.353 357.694 245.517 357.694 245.214 356.197ZM661.069 376.5C675.744 379.919 691.675 382.083 700.511 391.342C693.582 393.596 683.46 386.546 675.911 384.307C668.286 383.58 659.359 382.143 651.311 383.127C652.022 384.231 651.311 386.773 652.097 387.817C658.663 389.208 666.364 386.576 671.614 386.652C671.659 387.786 671.402 389.209 672.007 389.783C706.033 400.737 716.548 441.949 711.842 486.61C715.943 479.651 720.633 473.281 720.436 462.01C719.422 461.042 718.514 462.388 716.926 462.01C714.52 460.089 714.203 454.748 718.106 454.203C720.058 454.582 717.652 459.347 719.664 459.665C724.339 439.362 713.007 419.421 714.203 402.658C727.183 420.798 726.714 459.695 722.796 484.658C732.116 473.932 728.333 446.73 730.996 428.045C721.45 397.938 703.582 368.542 661.099 376.5H661.069ZM700.117 418.68C694.126 410.737 690.283 400.661 676.304 400.722C660.358 390.948 624.608 393.914 613.049 405.019C608.677 414.701 598.147 418.226 589.629 423.764C576.406 434.868 558.66 441.465 544.726 451.889C550.883 456.79 563.516 455.232 568.161 461.647C589.992 469.756 607.24 482.434 617.754 501.86C627.21 518.578 627.709 551.287 616.589 566.674C647.68 547.384 672.219 521.558 703.279 502.254C711.373 475.263 709.513 443.341 700.148 418.695L700.117 418.68ZM223.352 407.742C223.579 405.109 224.26 402.931 225.697 401.493C225.486 400.54 225.364 399.481 224.139 399.542C223.897 402.31 220.372 405.261 223.352 407.742ZM224.911 412.81C225.682 411.63 226.015 409.27 225.304 407.742H223.746C223.7 409.86 223.882 411.781 224.926 412.81H224.911ZM276.849 426.865C278.09 425.186 281.191 421.948 278.029 420.223C277.242 421.797 273.732 425.065 276.849 426.865ZM236.636 425.7C237.846 425.882 238.376 425.367 238.194 424.142C237.664 424.021 237.453 423.582 236.636 423.748V425.7ZM527.146 457.32C530.232 457.305 532.986 458.228 535.346 456.927C533.47 456.639 528.341 455.716 527.146 457.32ZM293.642 461.223H296.759V459.665C295.579 460.043 293.582 459.604 293.642 461.223ZM289.739 462.403C290.586 463.039 292.22 463.644 292.084 461.632C291.04 461.632 289.784 461.42 289.739 462.403ZM444.752 465.913C452.983 467.048 463.482 465.928 470.911 467.865C461.606 472.918 446.583 472.373 435.372 470.603C434.57 483.509 435.176 498.396 437.324 509.652C445.766 500.62 472.439 495.914 474.814 483.493C475.903 477.759 473.725 468.773 474.814 463.583C467.855 460.376 455.282 466.428 444.752 465.928V465.913ZM444.359 464.748C443.482 461.844 437.218 464.34 435.766 462.01C435.811 465.535 441.137 465.686 444.359 464.748ZM555.256 463.568V464.748C564.515 469.681 572.079 476.307 585.317 477.245C579.22 469.03 567.162 464.688 555.256 463.568ZM514.256 470.21C524.18 470.422 537.645 466.988 540.807 477.245C533.213 477.82 526.843 474.113 520.504 472.177C516.449 472.237 512.924 471.33 509.187 472.177C483.271 486.988 461.394 505.869 431.877 517.08C440.35 526.959 462.877 522.784 467.809 536.219C501.184 551.696 514.831 588.853 512.713 638.522C519.506 634.77 524.286 629.006 531.851 626.025C541.458 617.659 552.941 611.199 563.093 603.377C566.618 602.726 567.51 599.458 571.293 599.08C571.762 596.705 574.409 596.478 576.361 595.57C581.172 589.246 591.46 587.234 594.319 579.564C600.28 563.602 590.204 543.753 593.139 526.46C591.974 525.341 589.765 521.483 592.352 520.212C600.568 533.798 600.462 557.551 600.552 578.005C610.78 566.628 609.706 542.3 609.146 521.392C599.039 505.204 594.38 483.569 574.001 477.654C568.146 477.124 564.908 473.992 558.766 473.75C557.949 475.535 557.828 478.017 556.027 478.819C555.014 477.865 553.198 477.744 552.124 476.867C551.534 473.281 554.348 473.1 555.256 471.012C548.508 468.122 542.865 464.143 532.214 465.157C531.533 466.034 532.365 468.425 531.034 468.667C528.114 461.965 516.797 466.201 514.241 470.225L514.256 470.21ZM265.911 473.72C267 474.325 270.51 474.582 270.207 472.555C269.148 471.768 265.578 471.799 265.911 473.72ZM293.249 480.755C294.989 480.452 295.594 481.269 297.152 481.133C297.515 481.814 297.152 483.221 298.332 483.085C299.664 482.344 298.922 479.499 299.119 477.608C296.562 476.746 295.11 479.666 293.264 480.74L293.249 480.755ZM587.662 479.968C602.428 496.444 615.016 515.098 615.379 545.962C619.403 514.024 605.363 491.466 587.662 479.968ZM363.539 485.823C365.203 488.138 366.746 484.628 368.622 484.643C368.925 483.72 369.394 481.95 368.622 481.133H367.442C366.928 483.478 364.991 484.416 363.539 485.823ZM333.084 486.61C331.253 484.628 321.011 480.725 323.719 486.61C328.031 496.005 355.763 491.497 363.161 487.003C353.917 486.096 342.994 486.882 333.099 486.61H333.084ZM259.284 485.052V486.232C260.903 488.426 270.101 488.698 272.174 486.625C270.54 483.675 263.021 484.613 259.284 485.067V485.052ZM275.684 487.397C278.407 488.592 281.781 487.321 282.719 485.445C279.875 484.038 277.772 486.731 275.684 487.397ZM210.477 525.658C217.981 513.767 225.213 501.618 235.471 492.48C231.34 492.42 226.197 491.391 224.154 490.529C223.095 490.256 224.426 492.374 223.367 492.102C221.174 492.208 220.387 490.907 219.071 490.15C217.588 502.844 210.629 514.236 210.477 525.674V525.658ZM711.449 493.645C713.34 493.585 713.34 491.618 714.566 490.907C714.399 490.029 712.644 490.755 711.827 490.513C711.585 491.451 711.268 492.299 711.434 493.645H711.449ZM232.732 502.617C232.505 506.036 229.086 506.263 229.222 510.045C226.681 510.378 226.393 512.935 225.712 515.129H224.154C224.336 517.489 221.718 518.79 222.596 520.59C224.305 520.741 222.959 517.837 225.334 518.638C230.327 507.745 240.206 501.754 246.818 492.48C237.377 490.075 237.861 499.561 232.763 502.632L232.732 502.617ZM209.691 551.045C207.194 561.212 196.15 568.973 199.539 581.107C211.309 560.471 224.548 541.302 239.752 524.1C244.079 523.223 244.185 518.109 250.297 519.032C253.005 507.806 265.396 506.278 274.111 501.074V497.564C266.728 497.261 258.739 497.564 254.987 493.66H251.084C236.848 512.36 222.641 531.075 209.691 551.06V551.045ZM272.946 517.065C276.773 509.697 282.235 503.978 286.607 497.155C277.742 497.412 274.413 510.726 272.946 517.065ZM269.436 550.258C270.449 549.578 269.466 546.915 271.781 547.535C276.259 535.871 282.991 526.46 289.739 517.08C289.3 514.009 290.662 509.137 288.952 507.322C281.221 520.167 272.416 534.01 269.421 550.273L269.436 550.258ZM271.387 520.197C271.977 519.607 272.023 518.487 272.174 517.458C271.675 517.428 271.629 516.959 271.009 517.065C270.661 517.443 269.92 520.454 271.403 520.197H271.387ZM220.629 522.542C221.885 522.875 221.855 521.937 222.187 521.362C221.658 521.241 221.446 520.802 220.629 520.968V522.542ZM269.042 522.92C270.253 523.51 270.253 520.378 269.042 520.968V522.92ZM281.539 552.982C281.705 554.253 281.025 556.355 282.326 556.492C284.232 551.756 286.986 547.883 289.739 543.995C289.603 542.3 290.178 539.895 288.952 539.305C285.639 543.027 284.641 549.063 281.524 552.982H281.539ZM218.284 568.988C217.543 574.329 210.311 579.11 212.429 583.437C213.836 582.105 214.381 579.911 216.726 579.533C216.938 576.628 219.676 576.235 221.022 574.465C237.407 575.433 230.766 555.493 236.257 545.962C235.758 545.931 235.713 545.462 235.077 545.568C229.51 553.405 224.366 561.666 218.284 569.003V568.988ZM295.594 592.015C296.547 592.363 297.288 592.923 298.726 592.802C300.012 591.364 299.346 587.945 299.512 585.373C295.821 583.83 295.17 588.172 295.609 592.015H295.594ZM324.097 598.657C324.37 598.959 326.427 599.67 326.049 598.263C325.883 597.401 323.901 597.885 324.097 598.657ZM351.436 600.608C352.601 601.38 355.384 601.788 356.126 600.215C354.719 599.035 352.646 599.64 351.436 600.608ZM292.871 611.94H295.609C296.608 610.17 297.122 608.218 296.003 606.085C295.261 606.176 295.14 605.646 294.444 605.692C293.733 607.552 291.751 609.444 292.886 611.94H292.871ZM269.451 620.533C270.828 619.61 271.009 616.706 269.057 616.237C269.133 617.326 267.666 620.261 269.451 620.533ZM289.361 625.223C290.269 623.574 293.355 622.288 291.706 619.368C287.273 618.294 285.185 624.391 289.361 625.223Z" fill="#3E3E3E"/>
<path fill-rule="evenodd" clip-rule="evenodd" d="M593.909 356.151C593.591 360.841 598.403 365.637 597.419 370.993C596.965 370.932 596.723 371.084 596.632 371.386C590.172 369.525 589.537 361.825 588.826 354.215C580.248 353.821 574.241 350.841 566.177 349.918C566.51 348.284 565.118 348.36 564.619 347.573C570.625 341.173 582.593 349.676 590.777 349.918C591.67 348.859 591.216 346.453 591.957 345.228C593.349 346.696 592.669 350.236 593.909 351.855C598.614 352.354 600.793 355.395 605.226 356.151C602.956 357.936 597.782 354.048 593.909 356.151Z" fill="#3E3E3E"/>
<path fill-rule="evenodd" clip-rule="evenodd" d="M202.655 83.5999C206.044 85.4154 205.106 91.5578 207.739 94.1449C207.814 131.771 206.483 164.541 207.739 201.138C246.742 197.659 245.97 266.678 210.084 260.883C208.616 261.609 208.888 263.939 209.297 265.573C215.681 270.384 232.354 264.893 238.194 270.263C231.174 278.6 216.483 268.342 207.739 272.215C210.628 277.873 219.902 274.878 224.139 278.857C224.502 281.035 221.854 280.218 221.794 281.973C215.697 282.336 213.336 278.978 208.132 278.463C207.633 287.374 207.224 301.339 207.739 312.822C207.966 317.966 209.131 324.184 205.787 327.27C201.551 308.101 200.583 279.341 201.884 261.67C186.225 256.677 171.958 235.27 183.139 216.767C180.688 214.603 159.386 215.571 159.719 210.912C160.006 206.721 166.481 210.17 168.312 210.518C172.473 211.32 182.231 213.665 185.484 212.863C188.177 212.213 190.764 207.341 193.684 205.435C197.405 203.014 200.219 204.436 202.277 201.532C203.76 160.834 202.746 121.922 202.655 83.5999ZM223.352 253.062C234.442 241.609 235.758 217.493 223.352 206.993C214.88 207.114 209.07 203.907 200.704 205.042C196.089 207.84 190.824 210.004 188.207 214.8V216.358C190.824 215.072 193.003 211.275 197.178 212.848C185 224.815 189.221 255.981 213.578 249.945C218.147 245.936 223.186 242.38 223.337 233.938C218.768 233.802 216.302 235.754 211.627 235.497C209.705 231.82 206.649 229.278 204.607 225.738C206.135 221.684 207.239 217.175 208.51 212.848C207.829 211.971 205.742 212.485 205.394 211.29C211.929 204.648 221.506 215.753 225.697 220.277C229.086 230.61 230.448 244.12 221.794 249.552C214.804 253.228 198.343 256.723 192.125 249.945C194.607 260.112 215.802 259.431 223.367 253.062H223.352ZM190.159 249.552H191.732C191.914 248.326 191.399 247.812 190.159 247.993V249.552Z" fill="#3E3E3E"/>
<path fill-rule="evenodd" clip-rule="evenodd" d="M112.848 217.931C113.211 226.631 115.283 235.285 111.274 241.745C116.236 243.424 117.432 248.871 124.951 247.993C125.586 249.445 127.25 249.854 127.296 251.896H134.709C144.044 265.074 158.583 273.062 162.819 291.338C170.974 299.326 174.877 311.551 178.826 323.745C177.146 331.612 171.246 339.252 162.819 337.8V337.028C167.539 333.019 170.701 327.482 173.364 321.4C168.856 303.532 156.45 293.547 149.944 277.676C142.455 272.018 136.01 265.316 129.248 258.931C128.415 260.52 128.582 262.109 128.854 264C120.246 272.805 130.987 287.253 128.854 300.703C134.497 310.28 143.197 316.816 151.109 324.138C148.477 331.355 140.035 340.357 133.151 338.193C131.774 339.948 128.37 339.676 128.461 342.883C103.861 344.82 90.3354 357.861 80.4409 374.518C76.235 392.749 79.5634 412.613 79.6542 433.476C79.7449 452.706 75.5088 477.457 80.0475 493.993C78.6708 510 51.8468 503.54 39.4409 504.538C37.2925 497.276 40.8176 489.575 39.0475 482.268C40.6663 481.027 40.3638 477.85 42.5575 477.2C43.3291 445.292 41.1807 408.513 48.0191 381.538C36.1578 383.096 32.4512 368.709 39.0324 362.021C31.4678 352.929 14.4173 353.322 12.4807 338.602C8.87998 337.255 9.09179 332.096 5.44566 330.78C4.8405 326.952 4.34123 322.761 5.0523 318.676C22.1634 295.952 34.297 268.281 59.3206 253.47C64.994 253.152 67.2331 249.4 70.259 246.435C71.3785 246.389 72.8158 246.647 73.3907 246.041C74.7674 243.772 76.7948 242.153 78.459 240.186C78.111 232.213 72.4527 229.535 69.4722 224.18C68.9125 216.343 70.0169 210.155 71.8173 204.663C76.704 194.859 88.4593 185.464 102.666 190.986C106.191 191.773 106.614 195.132 108.914 198.808C113.907 206.781 131.245 213.045 112.817 217.947L112.848 217.931ZM74.9641 224.573C76.2198 225.451 78.6405 224.785 80.0324 224.573C74.3287 209.595 85.8117 200.487 92.9224 193.331C80.5014 194.239 73.7387 207.432 74.9641 224.573ZM110.881 207.78C108.899 206.131 107.643 203.71 106.977 200.745C95.8726 186.811 82.0143 211.517 88.2324 224.558C96.8258 221.441 104.315 217.22 110.881 212.061C110.881 209.837 111.183 209.701 110.881 207.765V207.78ZM101.894 224.966V231.215C100.472 231.472 99.6398 232.334 99.1708 233.56C98.3689 233.045 98.4597 231.669 96.8258 231.986C96.2962 233.802 94.8287 234.679 94.8741 237.07C97.4612 238.174 100.699 236.374 103.467 237.463C105.434 233.272 109.262 228.718 106.977 222.621C105.51 223.03 105.858 221.653 104.632 221.835C103.71 222.863 103.528 224.649 101.894 224.966ZM85.8874 245.663C87.8844 246.525 91.6062 245.663 92.9073 247.221C90.759 255.754 76.4619 252.123 69.8656 256.208C71.8324 268.826 73.7841 281.459 73.7689 296.028C84.2534 298.721 99.6852 297.072 110.079 294.076C114.33 283.35 112.923 266.98 114.376 253.47C109.625 250.55 98.5505 253.939 96.4173 248.386C99.8667 247.796 103.861 247.751 105.404 245.27C100.82 240.852 90.9859 243.727 85.8874 245.663ZM58.1556 273.773C59.2298 267.948 63.6173 265.437 64.404 259.325C57.3841 257.116 55.5534 268.856 58.1556 273.773ZM60.894 295.65C68.7007 289.825 67.4752 276.935 64.7973 265.966C64.4645 276.587 58.6095 283.728 60.894 295.65ZM17.549 310.083C12.163 321.052 13.7667 330.402 22.6173 336.241C23.2981 339.222 21.6339 340.674 23.0106 343.276C34.1305 345.122 38.2003 355.819 49.9556 355.758C54.2674 343.14 39.7888 337.497 37.0656 326.861C33.2379 326.498 29.2287 328.268 26.9139 326.075V324.123C27.9276 321.49 32.6933 322.61 34.3272 320.613C32.3453 318.555 26.566 317.027 29.259 312.791C36.8538 313.26 45.1899 312.413 49.5623 308.495C50.6516 296.679 49.184 284.182 47.2173 274.136C37.0505 285.831 23.873 294.515 17.5339 310.053L17.549 310.083ZM58.1556 305.393C58.7003 304.637 59.3206 302.776 58.549 301.883H57.3689C57.0815 302.821 56.8091 305.045 58.1556 305.393ZM51.5139 335.455C49.7287 330.341 50.1977 322.973 49.5623 316.71H48.3973C44.0704 322.701 42.8147 333.367 51.5139 335.455ZM136.631 331.945C138.643 329.645 142.425 327.996 141.321 323.745C138.204 322.958 137.009 320.25 134.679 318.676C134.255 322.807 133.711 329.917 136.631 331.945ZM69.8656 372.173C71.8929 372.37 71.5903 370.252 73.3756 370.221C73.1032 368.255 74.1623 367.377 73.3756 365.925C70.7431 366.333 68.6401 369.178 69.8656 372.173ZM54.6305 396.773C57.8682 388.422 65.2966 384.276 64.3889 371.78C55.0239 373.262 53.8287 389.027 54.6305 396.773ZM68.6855 391.311C68.9579 390.389 69.5933 387.817 68.6855 387.015C68.1863 387.711 67.9291 390.661 68.6855 391.311ZM67.1272 403.808C67.339 401.599 68.3981 396.334 66.7339 394.821C66.2346 396.97 65.7505 402.25 67.1272 403.808ZM52.2855 425.276C59.5173 421.252 62.5885 411.206 62.0438 400.676H60.8789C57.6564 408.317 52.225 415.624 52.2855 425.276ZM50.7272 436.215C52.2855 436.048 52.1342 432.644 51.5139 431.525H50.3339C50.3793 432.675 48.9571 435.852 50.7272 436.215ZM48.3822 442.07C50.228 442.388 49.9254 437.622 48.7756 437.38C48.6545 438.862 47.4593 440.769 48.3822 442.07ZM59.6988 443.628C60.0468 443.159 60.8032 439.921 59.3055 440.118C59.4114 441.676 58.3221 442.872 59.6988 443.628ZM49.1538 469.786C50.0615 465.611 52.0888 462.57 53.0571 458.455C51.5442 457.638 50.1523 456.669 48.3671 456.11C48.0947 459.847 46.9298 467.275 49.1387 469.786H49.1538Z" fill="#3E3E3E"/>
<path fill-rule="evenodd" clip-rule="evenodd" d="M187.42 345.228C187.632 347.059 187.98 348.179 187.42 349.918C181.504 351.552 172.714 350.312 165.558 350.69C160.929 361.099 157.525 379.329 161.262 392.083C171.201 393.309 205.424 385.381 196.407 398.71C179.644 399.784 158.327 396.289 145.255 401.055C145.421 410.148 149.416 418.756 148.372 430.345C162.003 434.748 163.001 460.165 156.178 472.903C159.824 483.025 162.351 497.065 148.75 497.11C145.285 494.341 138.719 499.41 134.695 495.93C130.413 500.998 128.144 498.835 128.84 492.027C130.307 477.548 128.885 456.291 127.282 438.53C125.89 423.128 128.87 406.32 135.482 399.482C132.925 397.863 127.751 398.876 124.543 397.923C132.562 396.425 140.217 394.595 147.978 392.84C143.712 383.278 142.471 360.902 149.93 352.626C138.477 351.462 124.165 353.141 113.227 351.446C132.123 343.7 164.03 341.552 187.42 345.198V345.228ZM154.227 352.248C152.774 359.949 150.354 368.618 151.095 377.242C155.165 368.679 157.086 357.967 162.805 351.083C159.386 349.434 157.01 351.991 154.211 352.248H154.227ZM142.91 479.152C146.042 473.584 152.199 473.478 153.848 466.655C155.558 459.544 153.273 452.509 152.29 444.007C149.476 438.893 147.101 433.31 142.925 429.558C140.55 429.256 136.601 428.711 134.332 429.558C134.528 431.707 133.893 434.672 134.725 436.2C136.843 436.503 137.569 435.398 139.022 435.035C149.476 440.073 141.442 447.986 137.463 454.173C135.966 453.977 134.967 454.279 134.347 454.945C134.347 455.868 135.013 456.095 134.74 457.29C140.656 455.913 141.927 449.892 148.402 449.09C150.913 460.755 147.857 474.855 136.299 473.69C135.497 474.976 136.087 477.639 135.905 479.545C138.477 479.636 140.837 479.53 142.94 479.152H142.91Z" fill="#3E3E3E"/>
</g>
</svg>
