<svg width="40" height="55" viewBox="0 0 40 55" fill="none" xmlns="http://www.w3.org/2000/svg">
<path d="M25.0161 35.3963C24.9879 35.3543 24.9598 35.3128 24.9318 35.2721M25.0161 35.3963L24.6012 35.6753M25.0161 35.3963C25.0161 35.3963 25.0161 35.3963 25.0161 35.3963L24.6012 35.6753M25.0161 35.3963C26.5086 37.616 27.1311 39.6603 27.348 40.4522C27.6673 41.6179 28.334 44.1563 27.7632 47.3853M24.9318 35.2721L24.6012 35.6753M24.9318 35.2721C25.4607 35.827 25.9915 36.4089 26.5072 37.0094M24.9318 35.2721L26.5072 37.0094M24.6012 35.6753C26.0515 37.8323 26.6562 39.8191 26.8658 40.5842C27.181 41.7353 27.8281 44.2045 27.2628 47.3436M27.7632 47.3853C27.7579 47.4005 27.7526 47.4156 27.7473 47.4309L27.2628 47.3436M27.7632 47.3853C27.7605 47.4009 27.7577 47.4166 27.7548 47.4322C27.5834 48.3845 27.3313 49.2452 27.0445 50.0081C27.0152 50.0861 26.9855 50.1631 26.9555 50.239M27.7632 47.3853C28.0326 46.6104 28.1961 45.9081 28.2989 45.3301L29.2653 45.2591C30.0715 47.6701 29.3522 50.9133 27.5093 53.8711M27.2628 47.3436L27.7473 47.4309M27.2628 47.3436L27.7473 47.4309M27.7473 47.4309C27.4897 48.1632 27.1373 48.9589 26.6523 49.7749L26.6522 49.775C26.6041 49.856 26.5556 49.9356 26.5068 50.0138L27.7473 47.4309ZM26.9555 50.239C26.4217 51.1016 25.8531 51.8038 25.3368 52.3589L26.9555 50.239ZM26.9555 50.239L27.0821 50.0304C27.8261 48.7786 28.2693 47.5733 28.5387 46.5589C28.4937 46.2128 28.4199 45.8841 28.3169 45.5762L28.7911 45.4176L29.2834 45.5052C29.2252 45.8327 29.1487 46.1979 29.0468 46.5923C29.3026 48.8165 28.4692 51.5965 26.7297 54.1522C26.9965 54.0614 27.2563 53.9676 27.5093 53.8711M27.5093 53.8711C32.4073 52.0017 34.7362 49.11 35.621 47.8529L35.621 47.8529C36.288 46.9051 36.8456 45.8745 37.3045 44.7985C36.1215 46.3629 34.6455 47.7583 32.8475 48.635L32.0158 49.0405L32.1323 48.1225C32.4045 45.9799 32.3167 43.7923 31.8784 41.6775C31.5688 42.3148 31.1906 42.9189 30.7512 43.4752L30.1089 44.2886L29.8721 43.2796C29.7309 42.6783 29.4885 41.8253 29.0576 40.8569L29.0576 40.8569C28.3786 39.3306 27.5536 38.2398 26.6311 37.1551L26.5072 37.0094M27.5093 53.8711C27.3626 54.1065 27.2088 54.3401 27.0481 54.5714C32.5017 52.6737 35.0678 49.5077 36.0298 48.1407C37.1151 46.5988 37.915 44.8522 38.4774 43.0536C38.2447 43.4396 38.0007 43.8201 37.7425 44.1929M26.5072 37.0094L37.7425 44.1929M37.7425 44.1929L37.5909 44.088M37.7425 44.1929C37.7425 44.1929 37.7426 44.1929 37.7426 44.1929L37.5909 44.0879C37.5909 44.0879 37.5909 44.0879 37.5909 44.088M37.5909 44.088L37.3315 43.9083" stroke="#FC5828"/>
<path d="M22.767 25.0129C22.9501 24.4727 23.1394 23.8133 23.2937 23.0439C23.3957 21.6219 23.3305 20.1887 23.0952 18.7839C23.0853 18.7378 22.4407 15.7419 21.5717 13.7366C20.6954 11.7154 19.5542 8.94627 19.2893 7.65266C19.0244 6.35904 19.0244 5.22705 19.0244 5.22705C19.0244 5.22705 19.2487 7.12722 20.1251 8.94627C20.7562 10.2559 21.4021 11.5587 22.0301 12.8701C22.5464 13.948 22.944 15.0764 23.3416 16.2016C23.6587 17.0994 23.9795 18.1128 24.838 18.6499C25.5447 19.0918 26.4702 19.0758 27.2525 18.7839C28.1117 18.4631 28.878 17.8498 29.5085 17.1984C30.1071 16.5801 30.5735 15.8458 30.8163 15.0579C31.0252 14.3801 31.0695 13.6629 30.8876 12.947C30.989 13.0754 31.0873 13.2057 31.1838 13.3378C33.6665 16.7258 34.487 21.2691 33.315 25.2968C33.248 25.5254 33.1755 25.7522 33.0999 25.9784C32.8326 27.0329 32.5198 28.0844 32.5124 29.166C32.5094 29.6195 32.5966 30.1358 32.9801 30.3834C33.162 30.5008 33.3857 30.5377 33.6032 30.5463C34.42 30.577 35.2435 30.2212 35.7763 29.6073C37.0146 28.1803 36.5401 25.8069 37.808 24.4057C38.0464 24.1421 38.3346 23.9295 38.621 23.7181C38.1398 24.3228 37.8577 25.0713 37.7883 25.8382C37.6082 27.8116 38.3475 29.4247 38.5675 29.8733C39.6 31.9794 39.9939 36.5239 38.9971 41.0882C38.4956 42.0604 37.9542 43.0098 37.3317 43.9089C36.1118 45.6708 34.5539 47.2471 32.6286 48.1861C32.9746 45.4625 32.7533 42.6675 31.9833 40.0318C31.6472 41.1668 31.0928 42.2367 30.3591 43.1659C30.2128 42.5428 29.9615 41.6585 29.5147 40.6543C28.808 39.0657 27.9488 37.9331 27.0123 36.8318C24.7372 34.1567 22.1481 31.8344 20.6861 30.5807C20.5546 30.3859 20.4225 30.1849 20.2898 29.9778C21.219 28.5306 22.1604 26.8043 22.7676 25.0135L22.767 25.0129Z" fill="#FC5828"/>
<path d="M11.9393 37.3312H11.9133L12.6139 36.5073C14.8587 33.8676 17.3998 31.5741 18.8863 30.2943C19.022 30.0917 19.159 29.8826 19.2963 29.6672C20.213 28.2278 21.1327 26.5253 21.7218 24.7719L21.7219 24.7717C21.8964 24.2527 22.0768 23.6187 22.2259 22.8791C22.3319 21.3611 22.2444 19.8303 21.9614 18.3374C21.8377 17.6849 21.6771 17.0396 21.4779 16.4063C21.3643 16.0452 21.239 15.6871 21.1047 15.3306L21.1046 15.3302C20.7745 14.4518 20.4057 13.6153 20.0306 12.7641C19.7719 12.1773 19.5102 11.5836 19.256 10.9644L19.2559 10.9641C19.1829 10.786 19.1098 10.6053 19.0388 10.4232C18.2414 8.3774 17.6404 6.10096 17.9732 3.82956C17.9747 3.81928 17.9763 3.80902 17.9778 3.79876C17.5686 4.59294 17.2528 5.42391 17.0677 6.28525L17.0677 6.28528C16.8135 7.46725 16.8218 8.71301 17.1436 9.85125L17.1525 9.88293L17.1572 9.91552C17.2469 10.5341 17.4005 11.1439 17.6217 11.7342C17.8853 12.4363 18.1179 13.1797 18.2517 13.9401C18.2517 13.9403 18.2518 13.9405 18.2518 13.9407L17.7594 14.0273C17.827 14.4089 17.8657 14.7875 17.8645 15.1544L11.9393 37.3312ZM11.9393 37.3312C11.2432 38.2188 10.5942 39.1974 10.0368 40.4504C9.78646 41.013 9.59539 41.5393 9.44876 42.006C9.0433 41.3456 8.72442 40.632 8.50441 39.8891L8.02172 38.2593L7.54505 39.8909C6.84621 42.283 6.5884 44.802 6.78467 47.2862C5.32321 46.3809 4.09442 45.0779 3.08772 43.6237L3.08762 43.6235C2.48612 42.7553 1.95962 41.8337 1.46803 40.882C1.00183 38.6622 0.864182 36.4533 0.966458 34.5446C1.07033 32.6062 1.41933 31.0195 1.89101 30.0496L11.9393 37.3312ZM16.9844 18.2437L17.4008 18.5205C17.6736 18.1102 17.8536 17.6342 17.9973 17.2314L17.5265 17.0631M16.9844 18.2437L17.8675 15.6964L18.3669 15.7218C18.3387 16.2761 18.1532 16.795 17.9985 17.2281L17.9974 17.2311L17.5265 17.0631M16.9844 18.2437C17.2198 17.8897 17.3827 17.4663 17.5265 17.0631M16.9844 18.2437L17.5265 17.0631M8.50809 13.6155C8.61055 13.4614 8.71624 13.3093 8.82513 13.1595C8.92161 13.0268 9.01994 12.8953 9.12134 12.7656C9.07605 12.9459 9.0448 13.1262 9.02665 13.306C9.02665 13.306 9.02665 13.306 9.02665 13.306C9.01107 13.4605 9.00515 13.6145 9.00832 13.7678C8.85628 13.9907 8.71134 14.2185 8.57358 14.4505C8.5263 14.1766 8.50339 13.8975 8.50809 13.6155ZM18.3615 15.3308C18.3607 15.3204 18.3599 15.3101 18.359 15.2998L17.8608 15.3418L18.3604 15.3616C18.3608 15.3513 18.3612 15.341 18.3615 15.3308ZM14.7874 19.0524L14.7259 19.5486C14.7261 19.5486 14.7262 19.5486 14.7263 19.5487L14.7874 19.0524Z" stroke="#FC5828"/>
<path d="M2.6764 43.9075C3.89627 45.6694 5.45414 47.2457 7.37951 48.1847C7.03352 45.4611 7.25475 42.6661 8.02478 40.0303C8.36093 41.1654 8.91525 42.2353 9.64902 43.1645C9.79528 42.5414 10.0466 41.657 10.4934 40.6529C11.2001 39.0643 12.0593 37.9317 12.9958 36.8304C15.2414 34.1897 17.793 31.8931 19.2648 30.6284C18.1476 32.2901 17.1342 33.4799 16.8576 33.8038C16.5245 34.1946 16.012 34.7729 15.4073 35.68C13.9576 37.8548 13.3523 39.8583 13.1427 40.6295C12.8274 41.7898 12.1797 44.2793 12.7457 47.4442C13.1433 49.6707 13.9902 51.384 14.6717 52.5007C14.1137 51.8966 13.4955 51.1198 12.9264 50.1531C11.8774 48.3734 11.4263 46.6871 11.2173 45.5022C10.368 48.063 11.3458 51.7724 13.7708 54.9988C13.7708 54.9988 13.7714 54.9994 13.772 55C13.7566 54.9951 13.7413 54.9902 13.7259 54.9853C7.74393 53.1134 4.98463 49.6891 3.97862 48.2474C2.48343 46.1057 1.53028 43.5726 0.993164 41.0499C1.49955 42.035 2.04649 42.9967 2.67702 43.9069L2.6764 43.9075Z" fill="#FC5828"/>
</svg>
