<svg width="1320" height="104" viewBox="0 0 1320 104" fill="none" xmlns="http://www.w3.org/2000/svg">
<path opacity="0.04" fill-rule="evenodd" clip-rule="evenodd" d="M1184.83 61.1815V54.7138C1188.93 56.8712 1193.03 59.0241 1197.14 61.1815H1184.83ZM1196.93 58.8975C1193.25 56.9752 1189.58 55.0575 1185.91 53.1353C1189.02 51.4573 1192.14 49.7792 1195.25 48.0967C1195.81 51.697 1196.37 55.2972 1196.93 58.8975ZM1194.65 44.2251C1191.75 42.4159 1188.85 40.6022 1185.95 38.7886C1188.34 37.3322 1190.74 35.8758 1193.13 34.4194C1193.63 37.6895 1194.14 40.9596 1194.65 44.2251H1194.65ZM1192.39 29.6839C1190.07 27.8838 1187.74 26.0837 1185.42 24.2836C1187.24 22.8362 1189.06 21.3889 1190.89 19.9415C1191.39 23.189 1191.89 26.4365 1192.39 29.6884V29.6839ZM1190.14 15.1518C1188.43 13.2883 1186.72 11.4294 1185.01 9.56597C1186.23 8.28599 1187.46 7.00148 1188.68 5.72149C1189.17 8.86492 1189.66 12.0084 1190.14 15.1518ZM1187.44 4.38271C1186.57 5.328 1185.7 6.27329 1184.83 7.21858V4.38271H1187.44ZM1183.09 4.38271V7.48091C1182.15 6.44968 1181.2 5.41846 1180.25 4.38271H1183.09ZM1179.27 5.39584C1180.47 6.71654 1181.66 8.03723 1182.86 9.35792C1181.18 11.1852 1179.5 13.0079 1177.82 14.8352C1178.3 11.6872 1178.79 8.54379 1179.27 5.39584ZM1177.01 20.0275C1178.84 21.4613 1180.66 22.8905 1182.49 24.3243C1180.14 26.2601 1177.8 28.1959 1175.46 30.1317C1175.98 26.7621 1176.49 23.3971 1177.01 20.0275ZM1174.91 45.5096H1183.09V40.5299C1180.37 42.1898 1177.64 43.8497 1174.91 45.5096ZM1184.83 45.5096H1192.76C1190.12 43.7773 1187.47 42.0451 1184.83 40.3128V45.5096ZM1193.29 47.2509H1184.83V51.9005C1187.65 50.3491 1190.47 48.8023 1193.29 47.2509ZM1176.5 31.3619H1183.09V26.1289C1180.9 27.8748 1178.7 29.6206 1176.5 31.3619ZM1184.83 31.3619H1191.46C1189.25 29.6296 1187.04 27.8928 1184.83 26.1606V31.3619ZM1191.28 33.1032H1184.83V37.2055C1186.98 35.8396 1189.13 34.4737 1191.28 33.1032ZM1183.09 33.1032H1176.84C1178.93 34.4058 1181.01 35.7084 1183.09 37.0065V33.1032ZM1178.12 16.78H1183.09V11.5696C1181.44 13.3064 1179.78 15.0432 1178.12 16.78ZM1184.83 16.78H1189.58C1188 15.0297 1186.41 13.2793 1184.83 11.5334V16.78ZM1189.51 18.5214H1184.83V22.3884C1186.39 21.0994 1187.95 19.8104 1189.51 18.5214ZM1183.09 18.5214H1177.97C1179.68 19.842 1181.38 21.1627 1183.09 22.4834V18.5214ZM1121.38 35.5999L1121.35 52.3437L1112.39 58.997V42.9089C1112.39 40.358 1110.46 38.2368 1108.34 37.8704V35.4099L1121.37 35.5954L1121.38 35.5999ZM1133.03 44.7905L1132.65 35.4054H1143.59C1144.04 35.4054 1144.16 35.618 1144.16 35.9889V44.7498L1133.04 44.7905H1133.03ZM1215.61 53.8906H1226.46C1225.85 44.1166 1225.24 34.338 1224.63 24.564H1217.61C1216.94 34.338 1216.28 44.1166 1215.61 53.8906H1215.61ZM1244.59 53.8906H1255.45C1254.84 44.1166 1254.24 34.338 1253.63 24.564H1246.59C1245.92 34.338 1245.26 44.1166 1244.59 53.8906ZM1173.24 44.605L1174.89 33.8043C1177.4 35.4461 1179.91 37.0925 1182.41 38.7343L1173.24 44.605ZM1175.01 47.4364C1175.06 47.3776 1175.1 47.3188 1175.13 47.2509H1183.09V51.6608L1175.01 47.4364ZM1034.15 73.2125H1021.84L1023.88 70.3811H1029.73V68.4499H1031.35V70.3811H1032.11L1034.15 73.2125H1034.15ZM1065.49 70.1279H1036.48L1041.28 63.4611H1055.08V58.9155H1058.88V63.4611H1060.68L1065.48 70.1279H1065.49ZM1174.52 57.5587L1174.26 53.0358H1171.93L1172.67 48.2957L1182.22 53.3343L1174.52 57.5632V57.5587ZM1174.73 61.177L1174.61 59.2276L1183.1 54.6504V61.177H1174.73ZM1005.19 76.1298C1005.51 76.2836 1005.91 76.3378 1006.26 76.3876C1006.2 75.1212 1006.18 76.3107 1005.51 76.0665C1005.42 76.0303 1005.3 76.0619 1005.19 76.1298ZM1007.8 79.6305C1007.78 79.1963 1007.75 78.6807 1007.7 78.0701C1007.69 77.3781 1007.65 76.7449 1007.7 76.3514C1008.25 76.2474 1008.72 76.6816 1008.85 76.6182C1010.07 76.0484 1011.13 76.0619 1012.35 76.5414C1012.51 75.4559 1012.46 76.2655 1013.27 75.8222C1013.77 75.5463 1013.49 74.8498 1014.15 74.3885C1013.91 73.8276 1013.86 73.8321 1014.43 74.0809C1014.37 73.4522 1014.76 72.4662 1015.38 72.231C1015.08 71.6837 1015.07 71.6837 1015.3 71.1003C1015.41 71.2179 1015.52 71.34 1015.64 71.4621C1015.8 70.5394 1015.97 69.5218 1015.38 68.667C1015.16 68.3323 1014.74 68.5177 1014.74 68.5177C1014.56 67.7171 1014.29 67.3372 1015.05 68.0564C1015.05 68.0564 1015.54 67.7217 1015.67 67.4367C1015.69 65.7497 1016.82 65.718 1016.82 65.5642C1016.82 65.4105 1016.2 64.8587 1016.57 64.2707C1016.57 64.0762 1016.11 63.6917 1015.79 63.5108C1014.97 62.9907 1014.68 63.14 1015.12 61.9957C1014.98 61.1001 1013.81 61.4846 1015.02 60.8423C1015.02 60.8423 1015.28 60.4036 1015.28 60.2769C1015.28 59.8246 1014.71 59.9784 1014.71 59.2548C1014.71 59.2276 1014.71 59.2548 1014.28 58.8206C1013.77 58.314 1012.87 58.8703 1013.74 58.3547C1013.74 58.3547 1013.32 58.0245 1013.12 57.7939C1012.42 57.0385 1011.65 58.513 1011.94 56.9978C1011.94 56.9978 1011.63 56.3058 1011.63 56.0254C1011.63 55.053 1009.79 55.944 1011.35 54.8178C1010.95 54.7635 1010.54 54.7002 1010.14 54.6414C1010.14 54.6414 1009.91 54.5147 1009.91 54.3067C1009.91 54.0986 1009.19 53.1986 1009.06 53.0493C1008.94 52.9001 1007.49 53.1262 1007.22 53.3343C1006.73 53.678 1007.47 54.8178 1006.81 54.0308C1006.6 54.7816 1006.66 54.7364 1005.91 54.5916C1006.06 55.2067 1005.88 54.9535 1005.39 54.7454C1005.07 55.4872 1005.12 55.4012 1004.36 55.1299C1004.36 55.1299 1003.52 54.6685 1003.16 54.6685C1002.8 54.6685 1001.92 55.3651 1001.72 55.5641C1001.23 56.0661 1002.18 57.6129 1001.26 56.645C1001.14 57.0385 1001.18 57.6536 1000.88 57.129C1000.65 57.6582 1000.69 57.6039 1000.16 57.4139C1000.03 57.9657 1000.11 59.0603 1000.57 59.4402C1000.35 59.9739 1000.4 60.1593 1000.18 59.5442C1000.16 60.0779 1000.32 61.9414 999.949 60.4398C999.712 61.1408 999.694 61.8645 999.9 62.5655C999.9 62.5655 999.515 62.9545 999.233 63.1038C998.722 63.3842 998.946 64.7094 998.642 63.7234C998.642 63.7234 997.997 64.4652 997.997 64.9536C997.997 65.4421 998.203 66.0572 998.203 66.0572C998.718 66.0572 998.825 66.2743 999.206 66.6271C999.121 66.8668 999.036 67.1065 998.946 67.3463C999.645 67.5453 999.345 70.1957 998.588 70.0555C998.942 70.9013 999.161 71.5074 999.255 72.4165C1000.22 72.6155 999.976 72.7783 999.976 73.7507C1000.24 74.0221 1000.5 74.298 1000.75 74.5694C1001.6 74.7548 1002.45 75.9805 1002.7 75.9262C1003.61 75.7679 1003.61 76.1886 1004.35 77.0072C1004.88 76.2474 1005.55 77.0524 1006.33 77.3102C1006.33 77.8213 1006.33 78.7395 1006.26 79.6396H990V104H1320V79.6396H1312.11V64.0898H1298.75V68.1197H1293.28V61.3308H1282.68V71.236H1277.5V65.4873H1273.24V71.236H1267.27L1267.16 72.127H1265.41V55.6093H1207.55V59.7025L1199.68 59.6844V61.186H1199C1196 41.6742 1193.01 22.1623 1190.02 2.65043H1191.71V0.900061H1189.99V0H1177.93V0.900061H1176.21V2.64138H1177.9C1174.81 22.8272 1171.95 41.5385 1168.94 61.177H1166.25L1165.79 53.0358H1163.21L1162.68 61.5931H1157.36L1157.34 44.7226L1146.29 44.7452L1146.3 35.3828C1146.3 34.0259 1145.6 33.3656 1144.15 33.3656H1132.56L1130.71 2.80421H1122.27L1121.47 33.5555L1094 33.3611C1092.74 33.3611 1091.86 34.0576 1091.86 35.4145V37.8433C1089.68 38.3046 1087.79 40.2902 1087.79 42.8818V58.997H1083.84V67.6041L1081.92 64.9446H1080.89V62.3394H1078.71V64.9446H1070.81L1068.06 68.7665H1083.84V69.5218H1068.38V79.6305H1064.87V70.8244H1037.08V79.6305H1033.91V73.7733H1022.07V79.6305H1007.79H1007.8ZM1094 35.9889V37.8433C1096.04 38.2594 1098.06 40.1228 1098.06 42.7959L1098.07 58.997H1102.13V42.8637C1102.13 40.5661 1104.02 38.2187 1106.19 37.8523V35.4235L1094.66 35.4145C1094.17 35.4145 1094 35.5547 1094 35.9889Z" fill="white"/>
<path opacity="0.04" fill-rule="evenodd" clip-rule="evenodd" d="M524.832 61.1815V54.7138C528.933 56.8712 533.035 59.0241 537.136 61.1815H524.832ZM536.926 58.8975C533.254 56.9752 529.582 55.0575 525.911 53.1353C529.023 51.4573 532.139 49.7792 535.251 48.0967C535.811 51.697 536.366 55.2972 536.926 58.8975ZM534.651 44.2251C531.749 42.4159 528.853 40.6022 525.951 38.7886C528.342 37.3322 530.738 35.8758 533.129 34.4194C533.635 37.6895 534.141 40.9596 534.646 44.2251H534.651ZM532.394 29.6839C530.066 27.8838 527.742 26.0837 525.418 24.2836C527.241 22.8362 529.063 21.3889 530.885 19.9415C531.387 23.189 531.893 26.4365 532.394 29.6884V29.6839ZM530.142 15.1518C528.432 13.2883 526.721 11.4294 525.011 9.56597C526.233 8.28599 527.456 7.00148 528.682 5.72149C529.17 8.86492 529.658 12.0084 530.142 15.1518ZM527.442 4.38271C526.569 5.328 525.7 6.27329 524.827 7.21858V4.38271H527.442ZM523.094 4.38271V7.48091C522.145 6.44968 521.196 5.41846 520.247 4.38271H523.094ZM519.271 5.39584C520.466 6.71654 521.662 8.03723 522.862 9.35792C521.178 11.1852 519.499 13.0079 517.815 14.8352C518.299 11.6872 518.787 8.54379 519.271 5.39584ZM517.014 20.0275C518.841 21.4613 520.663 22.8905 522.49 24.3243C520.144 26.2601 517.802 28.1959 515.456 30.1317C515.975 26.7621 516.494 23.3971 517.014 20.0275ZM514.914 45.5096H523.094V40.5299C520.368 42.1898 517.641 43.8497 514.914 45.5096ZM524.827 45.5096H532.761C530.115 43.7773 527.473 42.0451 524.827 40.3128V45.5096ZM533.294 47.2509H524.827V51.9005C527.648 50.3491 530.469 48.8023 533.294 47.2509ZM516.503 31.3619H523.09V26.1289C520.896 27.8748 518.697 29.6206 516.503 31.3619ZM524.827 31.3619H531.458C529.247 29.6296 527.039 27.8928 524.827 26.1606V31.3619ZM531.284 33.1032H524.827V37.2055C526.976 35.8396 529.13 34.4737 531.284 33.1032ZM523.094 33.1032H516.844C518.926 34.4058 521.008 35.7084 523.094 37.0065V33.1032ZM518.12 16.78H523.094V11.5696C521.438 13.3064 519.777 15.0432 518.12 16.78ZM524.827 16.78H529.582C527.997 15.0297 526.412 13.2793 524.827 11.5334V16.78ZM529.511 18.5214H524.827V22.3884C526.39 21.0994 527.953 19.8104 529.511 18.5214ZM523.09 18.5214H517.972C519.678 19.842 521.384 21.1627 523.09 22.4834V18.5214ZM461.376 35.5999L461.349 52.3437L452.389 58.997V42.9089C452.389 40.358 450.46 38.2368 448.342 37.8704V35.4099L461.371 35.5954L461.376 35.5999ZM473.031 44.7905L472.646 35.4054H483.593C484.041 35.4054 484.162 35.618 484.162 35.9889V44.7498L473.035 44.7905H473.031ZM555.61 53.8906H566.459C565.851 44.1166 565.242 34.338 564.633 24.564H557.612C556.945 34.338 556.282 44.1166 555.615 53.8906H555.61ZM584.589 53.8906H595.447C594.843 44.1166 594.238 34.338 593.629 24.564H586.586C585.919 34.338 585.256 44.1166 584.589 53.8906ZM513.239 44.605L514.887 33.8043C517.399 35.4461 519.906 37.0925 522.414 38.7343L513.239 44.605ZM515.012 47.4364C515.057 47.3776 515.097 47.3188 515.129 47.2509H523.09V51.6608L515.012 47.4364ZM374.153 73.2125H361.84L363.877 70.3811H369.734V68.4499H371.346V70.3811H372.111L374.149 73.2125H374.153ZM405.487 70.1279H376.481L381.281 63.4611H395.081V58.9155H398.883V63.4611H400.683L405.483 70.1279H405.487ZM514.52 57.5587L514.265 53.0358H511.927L512.671 48.2957L522.217 53.3343L514.52 57.5632V57.5587ZM514.726 61.177L514.614 59.2276L523.099 54.6504V61.177H514.726ZM345.188 76.1298C345.515 76.2836 345.909 76.3378 346.258 76.3876C346.195 75.1212 346.182 76.3107 345.515 76.0665C345.421 76.0303 345.304 76.0619 345.188 76.1298ZM347.798 79.6305C347.776 79.1963 347.749 78.6807 347.704 78.0701C347.686 77.3781 347.646 76.7449 347.704 76.3514C348.255 76.2474 348.721 76.6816 348.855 76.6182C350.068 76.0484 351.134 76.0619 352.347 76.5414C352.513 75.4559 352.464 76.2655 353.27 75.8222C353.767 75.5463 353.489 74.8498 354.147 74.3885C353.915 73.8276 353.856 73.8321 354.43 74.0809C354.371 73.4522 354.761 72.4662 355.383 72.231C355.079 71.6837 355.065 71.6837 355.303 71.1003C355.415 71.2179 355.522 71.34 355.638 71.4621C355.8 70.5394 355.97 69.5218 355.383 68.667C355.159 68.3323 354.738 68.5177 354.738 68.5177C354.559 67.7171 354.291 67.3372 355.047 68.0564C355.047 68.0564 355.54 67.7217 355.665 67.4367C355.692 65.7497 356.821 65.718 356.821 65.5642C356.821 65.4105 356.203 64.8587 356.57 64.2707C356.57 64.0762 356.113 63.6917 355.791 63.5108C354.971 62.9907 354.68 63.14 355.124 61.9957C354.98 61.1001 353.812 61.4846 355.021 60.8423C355.021 60.8423 355.28 60.4036 355.28 60.2769C355.28 59.8247 354.712 59.9784 354.712 59.2548C354.712 59.2276 354.707 59.2548 354.277 58.8206C353.771 58.314 352.871 58.8703 353.735 58.3547C353.735 58.3547 353.324 58.0245 353.118 57.7939C352.424 57.0385 351.653 58.513 351.94 56.9978C351.94 56.9978 351.631 56.3058 351.631 56.0254C351.631 55.053 349.786 55.944 351.349 54.8178C350.946 54.7635 350.543 54.7002 350.14 54.6414C350.14 54.6414 349.907 54.5147 349.907 54.3067C349.907 54.0986 349.186 53.1986 349.061 53.0493C348.94 52.9001 347.494 53.1262 347.216 53.3343C346.733 53.678 347.471 54.8178 346.809 54.0308C346.598 54.7816 346.661 54.7364 345.909 54.5916C346.056 55.2067 345.882 54.9535 345.389 54.7454C345.067 55.4872 345.121 55.4012 344.364 55.1299C344.364 55.1299 343.518 54.6685 343.16 54.6685C342.801 54.6685 341.919 55.3651 341.722 55.5641C341.225 56.0661 342.183 57.6129 341.261 56.645C341.14 57.0385 341.18 57.6536 340.876 57.129C340.652 57.6582 340.692 57.6039 340.16 57.4139C340.034 57.9657 340.106 59.0603 340.567 59.4402C340.348 59.9739 340.397 60.1593 340.182 59.5442C340.16 60.0779 340.321 61.9414 339.949 60.4398C339.712 61.1408 339.694 61.8645 339.9 62.5655C339.9 62.5655 339.515 62.9545 339.233 63.1038C338.722 63.3842 338.946 64.7094 338.642 63.7234C338.642 63.7234 337.997 64.4652 337.997 64.9536C337.997 65.4421 338.203 66.0572 338.203 66.0572C338.718 66.0572 338.825 66.2743 339.206 66.6271C339.121 66.8668 339.036 67.1065 338.946 67.3463C339.645 67.5453 339.345 70.1957 338.588 70.0555C338.942 70.9013 339.161 71.5073 339.255 72.4165C340.218 72.6155 339.976 72.7783 339.976 73.7507C340.236 74.0221 340.495 74.298 340.746 74.5694C341.597 74.7548 342.448 75.9805 342.703 75.9262C343.612 75.7679 343.612 76.1886 344.351 77.0072C344.879 76.2474 345.546 77.0524 346.33 77.3102C346.33 77.8213 346.334 78.7395 346.258 79.6396H330V104H660V79.6396H652.106V64.0898H638.75V68.1197H633.282V61.3308H622.68V71.236H617.504V65.4873H613.236V71.236H607.272L607.16 72.127H605.414V55.6093H547.546V59.7025L539.684 59.6844V61.186H538.999C536.003 41.6742 533.012 22.1623 530.017 2.65043H531.709V0.900061H529.985V0H517.932V0.900061H516.208V2.64138H517.9C514.811 22.8272 511.95 41.5385 508.941 61.177H506.254L505.793 53.0358H503.21L502.677 61.5931H497.357L497.344 44.7226L486.289 44.7452L486.298 35.3828C486.298 34.0259 485.599 33.3656 484.153 33.3656H472.556L470.712 2.80421H462.271L461.465 33.5555L434 33.3611C432.742 33.3611 431.855 34.0576 431.855 35.4145V37.8433C429.684 38.3046 427.79 40.2902 427.79 42.8818V58.997H423.836V67.6041L421.92 64.9446H420.89V62.3394H418.714V64.9446H410.806L408.057 68.7665H423.841V69.5218H408.375V79.6305H404.874V70.8244H377.081V79.6305H373.911V73.7733H362.068V79.6305H347.789H347.798ZM434 35.9889V37.8433C436.042 38.2594 438.057 40.1228 438.057 42.7959L438.066 58.997H442.131V42.8637C442.131 40.5661 444.016 38.2187 446.188 37.8523V35.4235L434.663 35.4145C434.17 35.4145 434 35.5547 434 35.9889Z" fill="white"/>
<path opacity="0.04" fill-rule="evenodd" clip-rule="evenodd" d="M854.832 61.1815V54.7138C858.933 56.8712 863.035 59.0241 867.136 61.1815H854.832ZM866.926 58.8975C863.254 56.9752 859.582 55.0575 855.911 53.1353C859.023 51.4573 862.139 49.7792 865.251 48.0967C865.811 51.697 866.366 55.2972 866.926 58.8975ZM864.651 44.2251C861.749 42.4159 858.853 40.6022 855.951 38.7886C858.342 37.3322 860.738 35.8758 863.129 34.4194C863.635 37.6895 864.141 40.9596 864.646 44.2251H864.651ZM862.394 29.6839C860.066 27.8838 857.742 26.0837 855.418 24.2836C857.241 22.8362 859.063 21.3889 860.885 19.9415C861.387 23.189 861.893 26.4365 862.394 29.6884V29.6839ZM860.142 15.1518C858.432 13.2883 856.721 11.4294 855.011 9.56597C856.233 8.28599 857.456 7.00148 858.682 5.72149C859.17 8.86492 859.658 12.0084 860.142 15.1518ZM857.442 4.38271C856.569 5.328 855.7 6.27329 854.827 7.21858V4.38271H857.442ZM853.094 4.38271V7.48091C852.145 6.44968 851.196 5.41846 850.247 4.38271H853.094ZM849.271 5.39584C850.466 6.71654 851.662 8.03723 852.862 9.35792C851.178 11.1852 849.499 13.0079 847.815 14.8352C848.299 11.6872 848.787 8.54379 849.271 5.39584ZM847.014 20.0275C848.841 21.4613 850.663 22.8905 852.49 24.3243C850.144 26.2601 847.802 28.1959 845.456 30.1317C845.975 26.7621 846.494 23.3971 847.014 20.0275ZM844.914 45.5096H853.094V40.5299C850.368 42.1898 847.641 43.8497 844.914 45.5096ZM854.827 45.5096H862.761C860.115 43.7773 857.473 42.0451 854.827 40.3128V45.5096ZM863.294 47.2509H854.827V51.9005C857.648 50.3491 860.469 48.8023 863.294 47.2509ZM846.503 31.3619H853.09V26.1289C850.896 27.8748 848.697 29.6206 846.503 31.3619ZM854.827 31.3619H861.458C859.247 29.6296 857.039 27.8928 854.827 26.1606V31.3619ZM861.284 33.1032H854.827V37.2055C856.976 35.8396 859.13 34.4737 861.284 33.1032ZM853.094 33.1032H846.844C848.926 34.4058 851.008 35.7084 853.094 37.0065V33.1032ZM848.12 16.78H853.094V11.5696C851.438 13.3064 849.777 15.0432 848.12 16.78ZM854.827 16.78H859.582C857.997 15.0297 856.412 13.2793 854.827 11.5334V16.78ZM859.511 18.5214H854.827V22.3884C856.39 21.0994 857.953 19.8104 859.511 18.5214ZM853.09 18.5214H847.972C849.678 19.842 851.384 21.1627 853.09 22.4834V18.5214ZM791.376 35.5999L791.349 52.3437L782.389 58.997V42.9089C782.389 40.358 780.46 38.2368 778.342 37.8704V35.4099L791.371 35.5954L791.376 35.5999ZM803.031 44.7905L802.646 35.4054H813.593C814.041 35.4054 814.162 35.618 814.162 35.9889V44.7498L803.035 44.7905H803.031ZM885.61 53.8906H896.459C895.851 44.1166 895.242 34.338 894.633 24.564H887.612C886.945 34.338 886.282 44.1166 885.615 53.8906H885.61ZM914.589 53.8906H925.447C924.843 44.1166 924.238 34.338 923.629 24.564H916.586C915.919 34.338 915.256 44.1166 914.589 53.8906ZM843.239 44.605L844.887 33.8043C847.399 35.4461 849.906 37.0925 852.414 38.7343L843.239 44.605ZM845.012 47.4364C845.057 47.3776 845.097 47.3188 845.129 47.2509H853.09V51.6608L845.012 47.4364ZM704.153 73.2125H691.84L693.877 70.3811H699.734V68.4499H701.346V70.3811H702.111L704.149 73.2125H704.153ZM735.487 70.1279H706.481L711.281 63.4611H725.081V58.9155H728.883V63.4611H730.683L735.483 70.1279H735.487ZM844.52 57.5587L844.265 53.0358H841.927L842.671 48.2957L852.217 53.3343L844.52 57.5632V57.5587ZM844.726 61.177L844.614 59.2276L853.099 54.6504V61.177H844.726ZM675.188 76.1298C675.515 76.2836 675.909 76.3378 676.258 76.3876C676.195 75.1212 676.182 76.3107 675.515 76.0665C675.421 76.0303 675.304 76.0619 675.188 76.1298ZM677.798 79.6305C677.776 79.1963 677.749 78.6807 677.704 78.0701C677.686 77.3781 677.646 76.7449 677.704 76.3514C678.255 76.2474 678.721 76.6816 678.855 76.6182C680.068 76.0484 681.134 76.0619 682.347 76.5414C682.513 75.4559 682.464 76.2655 683.27 75.8222C683.767 75.5463 683.489 74.8498 684.147 74.3885C683.915 73.8276 683.856 73.8321 684.43 74.0809C684.371 73.4522 684.761 72.4662 685.383 72.231C685.079 71.6837 685.065 71.6837 685.303 71.1003C685.415 71.2179 685.522 71.34 685.638 71.4621C685.8 70.5394 685.97 69.5218 685.383 68.667C685.159 68.3323 684.738 68.5177 684.738 68.5177C684.559 67.7171 684.291 67.3372 685.047 68.0564C685.047 68.0564 685.54 67.7217 685.665 67.4367C685.692 65.7497 686.821 65.718 686.821 65.5642C686.821 65.4105 686.203 64.8587 686.57 64.2707C686.57 64.0762 686.113 63.6917 685.791 63.5108C684.971 62.9907 684.68 63.14 685.124 61.9957C684.98 61.1001 683.812 61.4846 685.021 60.8423C685.021 60.8423 685.28 60.4036 685.28 60.2769C685.28 59.8247 684.712 59.9784 684.712 59.2548C684.712 59.2276 684.707 59.2548 684.277 58.8206C683.771 58.314 682.871 58.8703 683.735 58.3547C683.735 58.3547 683.324 58.0245 683.118 57.7939C682.424 57.0385 681.653 58.513 681.94 56.9978C681.94 56.9978 681.631 56.3058 681.631 56.0254C681.631 55.053 679.786 55.944 681.349 54.8178C680.946 54.7635 680.543 54.7002 680.14 54.6414C680.14 54.6414 679.907 54.5147 679.907 54.3067C679.907 54.0986 679.186 53.1986 679.061 53.0493C678.94 52.9001 677.494 53.1262 677.216 53.3343C676.733 53.678 677.471 54.8178 676.809 54.0308C676.598 54.7816 676.661 54.7364 675.909 54.5916C676.056 55.2067 675.882 54.9535 675.389 54.7454C675.067 55.4872 675.121 55.4012 674.364 55.1299C674.364 55.1299 673.518 54.6685 673.16 54.6685C672.801 54.6685 671.919 55.3651 671.722 55.5641C671.225 56.0661 672.183 57.6129 671.261 56.645C671.14 57.0385 671.18 57.6536 670.876 57.129C670.652 57.6582 670.692 57.6039 670.16 57.4139C670.034 57.9657 670.106 59.0603 670.567 59.4402C670.348 59.9739 670.397 60.1593 670.182 59.5442C670.16 60.0779 670.321 61.9414 669.949 60.4398C669.712 61.1408 669.694 61.8645 669.9 62.5655C669.9 62.5655 669.515 62.9545 669.233 63.1038C668.722 63.3842 668.946 64.7094 668.642 63.7234C668.642 63.7234 667.997 64.4652 667.997 64.9536C667.997 65.4421 668.203 66.0572 668.203 66.0572C668.718 66.0572 668.825 66.2743 669.206 66.6271C669.121 66.8668 669.036 67.1065 668.946 67.3463C669.645 67.5453 669.345 70.1957 668.588 70.0555C668.942 70.9013 669.161 71.5073 669.255 72.4165C670.218 72.6155 669.976 72.7783 669.976 73.7507C670.236 74.0221 670.495 74.298 670.746 74.5694C671.597 74.7548 672.448 75.9805 672.703 75.9262C673.612 75.7679 673.612 76.1886 674.351 77.0072C674.879 76.2474 675.546 77.0524 676.33 77.3102C676.33 77.8213 676.334 78.7395 676.258 79.6396H660V104H990V79.6396H982.106V64.0898H968.75V68.1197H963.282V61.3308H952.68V71.236H947.504V65.4873H943.236V71.236H937.272L937.16 72.127H935.414V55.6093H877.546V59.7025L869.684 59.6844V61.186H868.999C866.003 41.6742 863.012 22.1623 860.017 2.65043H861.709V0.900061H859.985V0H847.932V0.900061H846.208V2.64138H847.9C844.811 22.8272 841.95 41.5385 838.941 61.177H836.254L835.793 53.0358H833.21L832.677 61.5931H827.357L827.344 44.7226L816.289 44.7452L816.298 35.3828C816.298 34.0259 815.599 33.3656 814.153 33.3656H802.556L800.712 2.80421H792.271L791.465 33.5555L764 33.3611C762.742 33.3611 761.855 34.0576 761.855 35.4145V37.8433C759.684 38.3046 757.79 40.2902 757.79 42.8818V58.997H753.836V67.6041L751.92 64.9446H750.89V62.3394H748.714V64.9446H740.806L738.057 68.7665H753.841V69.5218H738.375V79.6305H734.874V70.8244H707.081V79.6305H703.911V73.7733H692.068V79.6305H677.789H677.798ZM764 35.9889V37.8433C766.042 38.2594 768.057 40.1228 768.057 42.7959L768.066 58.997H772.131V42.8637C772.131 40.5661 774.016 38.2187 776.188 37.8523V35.4235L764.663 35.4145C764.17 35.4145 764 35.5547 764 35.9889Z" fill="white"/>
<path opacity="0.04" fill-rule="evenodd" clip-rule="evenodd" d="M194.832 61.1815V54.7138C198.933 56.8712 203.035 59.0241 207.136 61.1815H194.832ZM206.926 58.8975C203.254 56.9752 199.582 55.0575 195.911 53.1353C199.023 51.4573 202.139 49.7792 205.251 48.0967C205.811 51.697 206.366 55.2972 206.926 58.8975ZM204.651 44.2251C201.749 42.4159 198.853 40.6022 195.951 38.7886C198.342 37.3322 200.738 35.8758 203.129 34.4194C203.635 37.6895 204.141 40.9596 204.646 44.2251H204.651ZM202.394 29.6839C200.066 27.8838 197.742 26.0837 195.418 24.2836C197.241 22.8362 199.063 21.3889 200.885 19.9415C201.387 23.189 201.893 26.4365 202.394 29.6884V29.6839ZM200.142 15.1518C198.432 13.2883 196.721 11.4294 195.011 9.56597C196.233 8.28599 197.456 7.00148 198.682 5.72149C199.17 8.86492 199.658 12.0084 200.142 15.1518ZM197.442 4.38271C196.569 5.328 195.7 6.27329 194.827 7.21858V4.38271H197.442ZM193.094 4.38271V7.48091C192.145 6.44968 191.196 5.41846 190.247 4.38271H193.094ZM189.271 5.39584C190.466 6.71654 191.662 8.03723 192.862 9.35792C191.178 11.1852 189.499 13.0079 187.815 14.8352C188.299 11.6872 188.787 8.54379 189.271 5.39584ZM187.014 20.0275C188.841 21.4613 190.663 22.8905 192.49 24.3243C190.144 26.2601 187.802 28.1959 185.456 30.1317C185.975 26.7621 186.494 23.3971 187.014 20.0275ZM184.914 45.5096H193.094V40.5299C190.368 42.1898 187.641 43.8497 184.914 45.5096ZM194.827 45.5096H202.761C200.115 43.7773 197.473 42.0451 194.827 40.3128V45.5096ZM203.294 47.2509H194.827V51.9005C197.648 50.3491 200.469 48.8023 203.294 47.2509ZM186.503 31.3619H193.09V26.1289C190.896 27.8748 188.697 29.6206 186.503 31.3619ZM194.827 31.3619H201.458C199.247 29.6296 197.039 27.8928 194.827 26.1606V31.3619ZM201.284 33.1032H194.827V37.2055C196.976 35.8396 199.13 34.4737 201.284 33.1032ZM193.094 33.1032H186.844C188.926 34.4058 191.008 35.7084 193.094 37.0065V33.1032ZM188.12 16.78H193.094V11.5696C191.438 13.3064 189.777 15.0432 188.12 16.78ZM194.827 16.78H199.582C197.997 15.0297 196.412 13.2793 194.827 11.5334V16.78ZM199.511 18.5214H194.827V22.3884C196.39 21.0994 197.953 19.8104 199.511 18.5214ZM193.09 18.5214H187.972C189.678 19.842 191.384 21.1627 193.09 22.4834V18.5214ZM131.376 35.5999L131.349 52.3437L122.389 58.997V42.9089C122.389 40.358 120.46 38.2368 118.342 37.8704V35.4099L131.371 35.5954L131.376 35.5999ZM143.031 44.7905L142.646 35.4054H153.593C154.041 35.4054 154.162 35.618 154.162 35.9889V44.7498L143.035 44.7905H143.031ZM225.61 53.8906H236.459C235.851 44.1166 235.242 34.338 234.633 24.564H227.612C226.945 34.338 226.282 44.1166 225.615 53.8906H225.61ZM254.589 53.8906H265.447C264.843 44.1166 264.238 34.338 263.629 24.564H256.586C255.919 34.338 255.256 44.1166 254.589 53.8906ZM183.239 44.605L184.887 33.8043C187.399 35.4461 189.906 37.0925 192.414 38.7343L183.239 44.605ZM185.012 47.4364C185.057 47.3776 185.097 47.3188 185.129 47.2509H193.09V51.6608L185.012 47.4364ZM44.1531 73.2125H31.8399L33.8772 70.3811H39.7338V68.4499H41.3457V70.3811H42.1114L44.1487 73.2125H44.1531ZM75.487 70.1279H46.4815L51.2814 63.4611H65.0812V58.9155H68.8826V63.4611H70.6826L75.4826 70.1279H75.487ZM184.52 57.5587L184.265 53.0358H181.927L182.671 48.2957L192.217 53.3343L184.52 57.5632V57.5587ZM184.726 61.177L184.614 59.2276L193.099 54.6504V61.177H184.726ZM15.1879 76.1298C15.5147 76.2836 15.9087 76.3378 16.258 76.3876C16.1953 75.1212 16.1819 76.3107 15.5147 76.0665C15.4207 76.0303 15.3043 76.0619 15.1879 76.1298ZM17.7983 79.6305C17.7759 79.1963 17.749 78.6807 17.7042 78.0701C17.6863 77.3781 17.646 76.7449 17.7042 76.3514C18.255 76.2474 18.7206 76.6816 18.855 76.6182C20.0684 76.0484 21.134 76.0619 22.3475 76.5414C22.5131 75.4559 22.4639 76.2655 23.2698 75.8222C23.7668 75.5463 23.4892 74.8498 24.1474 74.3885C23.9146 73.8276 23.8564 73.8321 24.4295 74.0809C24.3713 73.4522 24.7609 72.4662 25.3832 72.231C25.0788 71.6837 25.0653 71.6837 25.3026 71.1003C25.4146 71.2179 25.522 71.34 25.6385 71.4621C25.7996 70.5394 25.9698 69.5218 25.3832 68.667C25.1594 68.3323 24.7385 68.5177 24.7385 68.5177C24.5594 67.7171 24.2907 67.3372 25.0474 68.0564C25.0474 68.0564 25.54 67.7217 25.6653 67.4367C25.6922 65.7497 26.8205 65.718 26.8205 65.5642C26.8205 65.4105 26.2026 64.8587 26.5698 64.2707C26.5698 64.0762 26.1131 63.6917 25.7907 63.5108C24.9713 62.9907 24.6803 63.14 25.1235 61.9957C24.9803 61.1001 23.8116 61.4846 25.0206 60.8423C25.0206 60.8423 25.2803 60.4036 25.2803 60.2769C25.2803 59.8247 24.7116 59.9784 24.7116 59.2548C24.7116 59.2276 24.7071 59.2548 24.2773 58.8206C23.7713 58.314 22.8713 58.8703 23.7355 58.3547C23.7355 58.3547 23.3236 58.0245 23.1176 57.7939C22.4236 57.0385 21.6534 58.513 21.94 56.9978C21.94 56.9978 21.6311 56.3058 21.6311 56.0254C21.6311 55.053 19.7863 55.944 21.349 54.8178C20.946 54.7635 20.543 54.7002 20.14 54.6414C20.14 54.6414 19.9072 54.5147 19.9072 54.3067C19.9072 54.0986 19.1863 53.1986 19.0609 53.0493C18.94 52.9001 17.4938 53.1262 17.2162 53.3343C16.7326 53.678 17.4714 54.8178 16.8087 54.0308C16.5983 54.7816 16.661 54.7364 15.9087 54.5916C16.0565 55.2067 15.8819 54.9535 15.3893 54.7454C15.067 55.4872 15.1207 55.4012 14.364 55.1299C14.364 55.1299 13.5177 54.6685 13.1595 54.6685C12.8013 54.6685 11.9192 55.3651 11.7222 55.5641C11.2252 56.0661 12.1834 57.6129 11.261 56.645C11.1401 57.0385 11.1804 57.6536 10.876 57.129C10.6521 57.6582 10.6924 57.6039 10.1596 57.4139C10.0342 57.9657 10.1058 59.0603 10.567 59.4402C10.3476 59.9739 10.3969 60.1593 10.182 59.5442C10.1596 60.0779 10.3208 61.9414 9.94912 60.4398C9.71181 61.1408 9.6939 61.8645 9.89987 62.5655C9.89987 62.5655 9.5148 62.9545 9.23271 63.1038C8.72227 63.3842 8.94615 64.7094 8.64167 63.7234C8.64167 63.7234 7.99691 64.4652 7.99691 64.9536C7.99691 65.4421 8.20287 66.0572 8.20287 66.0572C8.71779 66.0572 8.82525 66.2743 9.20584 66.6271C9.12077 66.8668 9.0357 67.1065 8.94615 67.3463C9.64464 67.5453 9.34465 70.1957 8.58794 70.0555C8.94167 70.9013 9.16107 71.5073 9.2551 72.4165C10.2178 72.6155 9.97598 72.7783 9.97598 73.7507C10.2357 74.0221 10.4954 74.298 10.7461 74.5694C11.5969 74.7548 12.4476 75.9805 12.7028 75.9262C13.6118 75.7679 13.6118 76.1886 14.3506 77.0072C14.8789 76.2474 15.5461 77.0524 16.3296 77.3102C16.3296 77.8213 16.3341 78.7395 16.258 79.6396H0V104H330V79.6396H322.106V64.0898H308.75V68.1197H303.282V61.3308H292.68V71.236H287.504V65.4873H283.236V71.236H277.272L277.16 72.127H275.414V55.6093H217.546V59.7025L209.684 59.6844V61.186H208.999C206.003 41.6742 203.012 22.1623 200.017 2.65043H201.709V0.900061H199.985V0H187.932V0.900061H186.208V2.64138H187.9C184.811 22.8272 181.95 41.5385 178.941 61.177H176.254L175.793 53.0358H173.21L172.677 61.5931H167.357L167.344 44.7226L156.289 44.7452L156.298 35.3828C156.298 34.0259 155.599 33.3656 154.153 33.3656H142.556L140.712 2.80421H132.271L131.465 33.5555L104 33.3611C102.742 33.3611 101.855 34.0576 101.855 35.4145V37.8433C99.6837 38.3046 97.7897 40.2902 97.7897 42.8818V58.997H93.836V67.6041L91.9196 64.9446H90.8898V62.3394H88.7137V64.9446H80.8064L78.0571 68.7665H93.8405V69.5218H78.375V79.6305H74.8736V70.8244H47.0814V79.6305H43.9113V73.7733H32.0682V79.6305H17.7893H17.7983ZM104 35.9889V37.8433C106.042 38.2594 108.057 40.1228 108.057 42.7959L108.066 58.997H112.131V42.8637C112.131 40.5661 114.016 38.2187 116.188 37.8523V35.4235L104.663 35.4145C104.17 35.4145 104 35.5547 104 35.9889Z" fill="white"/>
</svg>
