<svg width="304" height="200" viewBox="0 0 304 200" fill="none" xmlns="http://www.w3.org/2000/svg">
<g opacity="0.1">
<path fill-rule="evenodd" clip-rule="evenodd" d="M285.085 172.605C284.796 173.341 284.506 174.076 284.219 174.812C283.728 174.194 283.22 173.586 282.751 172.946C282.315 172.344 281.907 171.178 281.506 171.187C280.371 171.209 280.897 172.43 280.612 173.111C280.306 173.844 279.937 175.168 279.605 175.163C278.408 175.152 278.719 173.885 278.428 173.102C278.184 172.44 277.937 171.309 277.563 171.25C276.429 171.075 276.702 172.335 276.318 172.964C275.903 173.639 275.333 174.863 274.98 174.812C273.84 174.648 274.371 173.483 274.22 172.705C274.071 171.976 273.841 171.261 273.651 170.539C273.143 171.075 272.641 171.622 272.116 172.147C271.558 172.708 270.981 173.248 270.411 173.797C270.3 173.012 270.172 172.229 270.077 171.441C269.99 170.703 269.942 169.963 269.872 169.224C269.288 169.684 268.665 170.109 268.117 170.616C267.527 171.165 267.175 172.325 266.178 171.781C265.885 171.621 266.162 170.381 266.207 169.638C266.259 168.856 267.402 168.016 266.389 167.393C266.05 167.183 265.074 168.056 264.375 168.397C263.703 168.72 263.01 168.998 262.328 169.295C262.458 168.56 262.559 167.814 262.729 167.087C262.906 166.326 263.569 165.189 263.296 164.9C262.473 164.03 261.901 165.344 261.143 165.544C260.426 165.736 259.689 165.881 258.961 166.044C259.219 165.35 259.446 164.642 259.743 163.965C260.065 163.248 260.948 162.238 260.734 161.921C260.019 160.856 259.207 162.072 258.401 162.195C258.273 162.215 258.157 162.342 258.032 162.345C257.443 162.353 256.861 162.336 256.273 162.329C256.519 161.763 256.665 161.126 257.031 160.654C257.407 160.17 258.03 159.889 258.464 159.442C258.672 159.225 258.883 158.709 258.772 158.545C258.592 158.282 258.134 158.045 257.82 158.073C257.062 158.138 256.323 158.457 255.572 158.492C255.109 158.512 254.633 158.199 254.162 158.037C254.398 157.638 254.552 157.141 254.891 156.866C255.405 156.447 256.091 156.239 256.613 155.829C256.946 155.568 257.111 155.099 257.352 154.724C256.935 154.541 256.534 154.246 256.101 154.201C255.487 154.134 254.831 154.358 254.23 154.257C253.772 154.18 253.369 153.788 252.946 153.535C253.241 153.187 253.478 152.723 253.854 152.519C254.479 152.18 255.229 152.077 255.863 151.747C256.188 151.576 256.369 151.13 256.621 150.808C256.318 150.581 256.049 150.236 255.717 150.154C254.98 149.97 254.185 150.006 253.462 149.788C253.07 149.671 252.779 149.215 252.441 148.912C252.794 148.612 253.105 148.201 253.511 148.042C254.043 147.833 254.681 147.904 255.222 147.708C255.704 147.534 256.113 147.162 256.554 146.88C256.137 146.549 255.753 146.154 255.29 145.903C254.865 145.671 254.297 145.681 253.898 145.424C253.457 145.14 253.14 144.669 252.766 144.279C253.258 144.051 253.733 143.717 254.249 143.622C254.856 143.511 255.514 143.682 256.128 143.588C256.502 143.529 256.835 143.205 257.187 142.998C256.962 142.657 256.807 142.211 256.491 141.994C255.868 141.566 255.11 141.328 254.501 140.884C254.195 140.664 254.098 140.163 253.906 139.789C254.29 139.623 254.68 139.3 255.059 139.319C255.861 139.354 256.648 139.623 257.447 139.682C257.783 139.705 258.306 139.52 258.43 139.273C258.546 139.046 258.346 138.503 258.108 138.28C257.532 137.724 256.803 137.318 256.235 136.751C255.967 136.482 255.932 135.979 255.793 135.581C256.194 135.464 256.627 135.189 256.989 135.264C257.726 135.413 258.413 135.809 259.152 135.987C259.532 136.077 259.97 135.918 260.381 135.871C260.276 135.442 260.276 134.945 260.042 134.604C259.612 133.978 258.978 133.494 258.567 132.861C258.372 132.555 258.367 131.985 258.524 131.655C258.605 131.488 259.298 131.448 259.61 131.584C260.346 131.905 261.004 132.411 261.735 132.749C262.044 132.892 262.464 132.803 262.835 132.822C262.842 132.418 262.984 131.953 262.835 131.623C262.478 130.851 261.939 130.168 261.57 129.402C261.442 129.135 261.479 128.546 261.648 128.433C261.924 128.261 262.468 128.219 262.734 128.385C263.411 128.812 263.96 129.439 264.635 129.873C264.978 130.094 265.482 130.072 265.913 130.161C265.942 129.755 266.077 129.322 265.983 128.951C265.825 128.348 265.412 127.803 265.303 127.201C265.212 126.696 265.401 126.139 265.471 125.605C265.969 125.819 266.549 125.942 266.946 126.276C267.45 126.702 267.769 127.351 268.251 127.807C268.492 128.031 269.037 128.219 269.256 128.094C269.502 127.955 269.673 127.428 269.638 127.096C269.551 126.253 269.272 125.427 269.196 124.581C269.171 124.263 269.432 123.707 269.681 123.631C269.954 123.549 270.48 123.795 270.68 124.061C271.159 124.703 271.467 125.476 271.944 126.122C272.169 126.423 272.629 126.55 272.984 126.754C273.16 126.385 273.457 126.026 273.492 125.646C273.56 124.845 273.428 124.026 273.508 123.224C273.541 122.899 273.867 122.391 274.117 122.357C274.404 122.316 274.894 122.636 275.046 122.928C275.408 123.641 275.573 124.457 275.926 125.178C276.102 125.526 276.519 125.751 276.824 126.032C277.071 125.699 277.437 125.402 277.536 125.029C277.723 124.34 277.672 123.586 277.875 122.905C278.002 122.493 278.422 122.171 278.709 121.809C279.023 122.14 279.467 122.423 279.619 122.819C279.844 123.394 279.784 124.073 279.981 124.662C280.131 125.119 280.488 125.509 280.751 125.929C281.084 125.576 281.506 125.271 281.723 124.856C282.01 124.307 282.05 123.626 282.347 123.085C282.561 122.7 283.022 122.45 283.377 122.14C283.61 122.534 283.984 122.907 284.051 123.329C284.154 124.031 283.997 124.771 284.084 125.477C284.13 125.864 284.455 126.214 284.65 126.581C284.997 126.361 285.451 126.212 285.663 125.902C286.101 125.281 286.351 124.528 286.797 123.917C287.022 123.61 287.507 123.492 287.875 123.289C288.051 123.664 288.37 124.041 288.365 124.415C288.36 125.125 288.098 125.83 288.067 126.543C288.054 126.979 288.275 127.424 288.389 127.866C288.793 127.674 289.272 127.563 289.578 127.271C290.032 126.845 290.301 126.222 290.771 125.815C291.128 125.501 291.669 125.393 292.133 125.195C292.216 125.676 292.431 126.181 292.36 126.644C292.268 127.253 291.889 127.814 291.759 128.421C291.672 128.849 291.796 129.317 291.823 129.769C292.294 129.63 292.82 129.584 293.206 129.327C293.799 128.935 294.257 128.337 294.849 127.944C295.134 127.758 295.721 127.673 295.937 127.844C296.154 128.014 296.232 128.616 296.108 128.923C295.807 129.666 295.299 130.323 294.985 131.063C294.836 131.41 294.947 131.87 294.944 132.275C295.345 132.25 295.805 132.338 296.146 132.178C296.872 131.836 297.508 131.305 298.239 130.977C298.537 130.841 299.133 130.905 299.313 131.119C299.495 131.325 299.449 131.922 299.267 132.195C298.831 132.866 298.204 133.416 297.762 134.084C297.551 134.393 297.586 134.864 297.508 135.262C297.913 135.311 298.355 135.481 298.72 135.384C299.451 135.186 300.125 134.767 300.859 134.586C301.216 134.499 301.658 134.744 302.061 134.84C301.951 135.246 301.953 135.755 301.704 136.039C301.2 136.602 300.51 136.996 299.99 137.549C299.736 137.82 299.684 138.285 299.541 138.663C299.936 138.783 300.345 139.03 300.718 138.994C301.473 138.924 302.209 138.618 302.962 138.566C303.338 138.538 303.736 138.86 304.124 139.023C303.937 139.401 303.842 139.895 303.544 140.128C302.948 140.593 302.2 140.862 301.595 141.317C301.292 141.544 301.162 142.004 300.951 142.356C301.321 142.535 301.682 142.833 302.06 142.865C302.819 142.928 303.596 142.773 304.345 142.857C304.719 142.9 305.049 143.275 305.398 143.501C305.152 143.845 304.983 144.324 304.648 144.5C303.981 144.855 303.197 144.986 302.52 145.321C302.171 145.493 301.952 145.91 301.675 146.214C302 146.463 302.295 146.83 302.663 146.93C303.394 147.127 304.187 147.102 304.912 147.314C305.277 147.419 305.548 147.84 305.857 148.119C305.562 148.417 305.32 148.845 304.963 148.979C304.387 149.196 303.712 149.143 303.125 149.344C302.632 149.514 302.207 149.882 301.75 150.162C302.194 150.517 302.599 150.943 303.095 151.207C303.602 151.476 304.232 151.516 304.734 151.799C305.073 151.991 305.273 152.428 305.533 152.756C305.194 153.001 304.883 153.387 304.515 153.455C303.863 153.573 303.163 153.432 302.503 153.523C302.03 153.59 301.588 153.863 301.13 154.043C301.458 154.455 301.734 154.937 302.137 155.255C302.587 155.611 303.215 155.746 303.654 156.111C303.991 156.389 304.162 156.871 304.404 157.263C303.941 157.445 303.483 157.762 303.012 157.774C302.403 157.793 301.78 157.499 301.16 157.472C300.732 157.454 300.291 157.661 299.855 157.768C300.064 158.202 300.182 158.719 300.499 159.052C301.019 159.599 301.707 159.987 302.242 160.522C302.448 160.734 302.607 161.306 302.483 161.463C302.274 161.718 301.777 161.938 301.468 161.871C300.689 161.699 299.958 161.292 299.174 161.117C298.773 161.026 298.311 161.229 297.875 161.298C297.984 161.692 297.999 162.152 298.222 162.465C298.633 163.046 299.248 163.491 299.626 164.09C299.849 164.439 299.786 164.972 299.849 165.422C299.394 165.43 298.883 165.569 298.487 165.414C297.826 165.159 297.261 164.656 296.606 164.377C296.261 164.232 295.813 164.343 295.41 164.338C295.437 164.744 295.35 165.207 295.512 165.551C295.854 166.276 296.389 166.913 296.717 167.644C296.85 167.941 296.795 168.535 296.587 168.717C296.384 168.896 295.782 168.852 295.51 168.674C294.806 168.207 294.211 167.567 293.512 167.089C293.239 166.902 292.681 166.8 292.462 166.954C292.248 167.108 292.167 167.67 292.256 167.987C292.448 168.675 292.878 169.3 293.033 169.99C293.138 170.449 292.936 170.978 292.868 171.475C292.403 171.31 291.864 171.241 291.491 170.955C291.041 170.607 290.785 170.015 290.349 169.638C289.986 169.322 289.49 169.165 289.055 168.937C288.95 169.414 288.735 169.894 288.762 170.362C288.801 171.072 289.071 171.77 289.109 172.479C289.125 172.815 288.898 173.363 288.654 173.452C288.388 173.551 287.858 173.313 287.641 173.056C287.219 172.543 286.986 171.872 286.571 171.351C286.249 170.946 285.764 170.669 285.35 170.336C285.171 170.834 284.962 171.327 284.808 171.835C284.749 172.042 284.801 172.282 284.801 172.507C284.898 172.539 284.987 172.573 285.082 172.604L285.085 172.605ZM288.624 164.04C286.363 160.925 284.166 157.872 281.92 154.848C281.747 154.615 281.265 154.537 280.921 154.526C279.723 154.483 278.525 154.48 277.332 154.507C277.02 154.515 276.581 154.588 276.424 154.798C274.163 157.849 271.938 160.929 269.712 163.994C274.175 167.682 283.499 167.715 288.624 164.04ZM261.572 144.302C259.441 149.725 262.598 159.485 267.328 162.18C269.277 159.502 271.194 156.79 273.206 154.149C273.972 153.143 274.441 152.333 273.545 151.108C273.109 150.511 273.163 149.567 272.944 148.795C272.844 148.454 272.673 147.95 272.422 147.864C268.81 146.641 265.188 145.477 261.574 144.302H261.572ZM291.026 162.248C296.736 157.928 298.594 149.075 296.685 144.325C293.447 145.372 290.217 146.453 286.955 147.449C285.916 147.769 285.266 148.118 285.253 149.405C285.245 150.242 284.659 151.067 284.392 151.915C284.283 152.249 284.167 152.747 284.329 152.975C286.533 156.085 288.782 159.162 291.028 162.247L291.026 162.248ZM262.445 141.445C266.114 142.639 269.69 143.822 273.283 144.94C273.586 145.033 274.063 144.755 274.383 144.538C275.197 143.994 275.905 143.259 276.776 142.844C277.477 142.503 277.656 142.117 277.647 141.414C277.623 138.403 277.639 135.393 277.639 132.381V130.418C271.092 130.785 264.562 135.526 262.445 141.445ZM295.878 141.436C293.596 135.36 286.054 129.978 280.671 130.56C280.671 133.95 280.714 137.359 280.649 140.761C280.624 141.909 280.816 142.659 282.04 143.089C282.752 143.337 283.283 144.088 283.943 144.547C284.251 144.767 284.738 145.037 285.039 144.944C288.632 143.822 292.205 142.636 295.876 141.436H295.878Z" fill="white"/>
<path fill-rule="evenodd" clip-rule="evenodd" d="M267.079 88.6458C264.574 88.76 262.049 88.7295 259.574 89.0504C258.499 89.1893 257.519 90.0503 256.498 90.5826C257.107 91.5532 257.519 92.7814 258.372 93.4322C259.653 94.4142 261.426 94.7746 262.652 95.8028C263.868 96.8288 264.675 98.352 265.66 99.6559C264.108 100.102 262.565 100.871 261.003 100.906C259.276 100.943 257.544 100.121 255.802 100.045C254.844 100.004 253.374 100.483 253.022 101.178C252.7 101.814 253.306 103.314 253.961 103.976C255.281 105.307 257.123 106.142 258.357 107.533C259.318 108.62 259.695 110.233 260.325 111.614C258.848 111.819 257.331 112.318 255.896 112.149C254.44 111.973 253.1 110.93 251.635 110.66C250.319 110.416 248.906 110.701 247.533 110.752C248.013 112.149 248.332 113.633 249.019 114.917C249.533 115.883 250.755 116.481 251.244 117.452C252.029 119.007 252.466 120.737 253.05 122.393C251.214 122.184 249.362 122.059 247.552 121.717C246.863 121.586 246.314 120.781 245.616 120.577C243.964 120.093 242.251 119.784 240.564 119.402C240.924 121.058 241.097 122.789 241.698 124.35C242.286 125.854 243.585 127.1 244.07 128.621C244.384 129.624 244.109 131.134 243.5 131.974C243.205 132.38 241.374 132.02 240.48 131.545C239.284 130.909 238.411 129.672 237.228 128.981C235.634 128.05 233.882 127.39 232.198 126.616C232.361 128.556 232.398 130.518 232.734 132.426C232.953 133.643 233.866 134.751 234.004 135.961C234.131 137.081 233.641 138.272 233.424 139.431C232.198 139.102 230.662 139.118 229.799 138.369C228.205 136.98 227.105 135.037 225.587 133.536C224.902 132.861 223.713 132.698 222.752 132.304C222.34 133.369 221.52 134.47 221.606 135.492C221.809 137.735 222.686 139.925 222.835 142.165C222.905 143.17 222.104 144.547 221.262 145.159C220.865 145.449 219.127 144.575 218.557 143.812C217.214 141.999 216.358 139.827 215.003 138.026C214.388 137.207 213.064 136.92 212.062 136.392C211.591 137.329 210.817 138.241 210.725 139.215C210.573 140.957 211.134 142.791 210.835 144.487C210.562 146.034 209.549 147.449 208.865 148.923C207.787 147.832 206.518 146.868 205.7 145.612C204.969 144.483 204.93 142.907 204.222 141.752C203.464 140.512 202.278 139.536 201.279 138.444C200.551 139.76 199.606 141.008 199.156 142.412C198.702 143.826 199.024 145.516 198.477 146.869C197.982 148.093 196.772 149.027 195.881 150.088C195.044 149.112 193.858 148.259 193.452 147.129C192.828 145.374 192.935 143.363 192.348 141.591C191.972 140.464 190.898 139.566 190.136 138.565C189.275 139.516 188.141 140.336 187.613 141.444C186.812 143.136 186.663 145.156 185.78 146.789C185.223 147.818 183.828 148.397 182.813 149.178C182.182 148.173 181.151 147.223 181.01 146.153C180.73 144.047 181.137 141.851 180.877 139.74C180.753 138.713 179.764 137.792 179.163 136.822C178.302 137.396 177.197 137.797 176.629 138.583C175.681 139.898 175.304 141.661 174.257 142.862C173.15 144.138 171.538 144.975 170.144 146.003C169.77 144.407 169.126 142.817 169.097 141.215C169.069 139.613 169.884 137.998 169.892 136.388C169.9 135.329 169.132 134.265 168.706 133.204C167.742 133.612 166.532 133.778 165.868 134.469C164.39 136.007 163.357 137.991 161.799 139.425C160.952 140.204 159.408 140.226 158.177 140.592C157.936 139.432 157.318 138.195 157.535 137.127C157.903 135.298 159.013 133.62 159.389 131.789C159.647 130.519 159.203 129.105 159.07 127.754C157.78 128.216 156.337 128.44 155.247 129.187C153.593 130.315 152.296 131.966 150.628 133.064C149.859 133.572 148.213 133.752 147.622 133.268C147.021 132.782 146.837 131.143 147.172 130.278C147.89 128.418 149.224 126.799 149.977 124.947C150.475 123.718 150.392 122.256 150.572 120.899C149.227 121.055 147.768 120.935 146.566 121.434C144.958 122.101 143.645 123.483 142.03 124.116C140.893 124.559 139.468 124.267 138.175 124.306C138.386 122.934 138.229 121.351 138.887 120.242C139.893 118.533 141.591 117.242 142.723 115.59C143.27 114.796 143.192 113.579 143.392 112.553C142.282 112.352 141.08 111.776 140.08 112.024C138.261 112.475 136.626 113.715 134.809 114.054C133.409 114.312 131.844 113.698 130.352 113.473C130.91 112.177 131.24 110.706 132.08 109.633C132.995 108.473 134.568 107.841 135.505 106.693C136.417 105.579 136.885 104.102 137.546 102.785C136.195 102.558 134.833 102.083 133.501 102.161C131.758 102.264 130.034 103.064 128.308 103.062C127.123 103.06 125.942 102.201 124.761 101.723C125.417 100.605 125.839 99.1915 126.784 98.4413C128.347 97.204 130.341 96.5215 131.971 95.352C132.77 94.7769 133.16 93.6334 133.736 92.7475C132.753 92.1396 131.822 91.1215 130.794 91.0097C128.936 90.8063 126.979 91.4402 125.147 91.1622C123.719 90.9486 122.426 89.8831 121.07 89.1984C122.034 88.16 122.821 86.8176 123.994 86.1566C125.621 85.2481 127.622 85.0289 129.287 84.1668C130.231 83.6752 130.817 82.4945 131.566 81.6244C130.627 80.934 129.779 79.8979 128.731 79.6278C126.545 79.0617 124.209 79.0775 122.04 78.4843C121.16 78.2436 119.977 77.0244 119.98 76.2561C119.986 75.4708 121.142 74.2583 122.025 73.9928C124.183 73.3442 126.518 73.3013 128.682 72.6753C129.714 72.3759 130.515 71.3002 131.419 70.5759C130.634 69.7397 129.997 68.5804 129.034 68.1329C127.104 67.2335 124.902 66.9115 122.996 65.9748C122.048 65.507 121.513 64.2076 120.787 63.2833C121.749 62.629 122.653 61.559 123.687 61.4166C125.787 61.1251 127.984 61.5194 130.096 61.2618C131.149 61.133 132.11 60.1985 133.111 59.6268C132.481 58.6652 132.041 57.4517 131.182 56.8008C129.892 55.8245 128.111 55.4697 126.904 54.4347C125.693 53.4031 124.924 51.8596 123.966 50.5387C125.547 50.1285 127.123 49.4178 128.715 49.3862C130.443 49.3523 132.18 50.1387 133.922 50.1941C134.864 50.2234 136.367 49.6856 136.635 49.0122C136.916 48.3139 136.269 46.8811 135.589 46.2235C133.962 44.6551 131.921 43.5026 130.365 41.8789C129.653 41.1354 129.686 39.6766 129.385 38.5444C130.417 38.2789 131.53 37.6382 132.472 37.8314C134.427 38.2359 136.246 39.2857 138.204 39.6721C139.479 39.9229 140.89 39.4755 142.238 39.3422C141.854 38.1523 141.688 36.8122 141.02 35.8077C140.122 34.462 138.572 33.5218 137.787 32.1343C137.072 30.8801 137.005 29.2563 136.655 27.7965C138.179 27.8857 139.809 27.671 141.198 28.1501C142.833 28.7117 144.185 30.0699 145.806 30.706C146.794 31.0936 148.062 30.7671 149.202 30.7614C149.11 29.619 149.302 28.349 148.861 27.3626C148.143 25.7682 146.733 24.4643 146.143 22.8451C145.645 21.4971 145.91 19.8711 145.837 18.3683C147.324 18.7468 148.885 18.9468 150.264 19.5592C151.257 20.001 151.899 21.1931 152.88 21.6982C154.377 22.4722 156.037 22.9468 157.628 23.5456C157.525 21.9434 157.612 20.2993 157.268 18.7524C156.919 17.1717 155.903 15.7231 155.636 14.1412C155.457 13.0779 156.072 11.879 156.332 10.7434C157.466 11.0655 158.899 11.0632 159.677 11.7785C161.334 13.3005 162.542 15.305 164.158 16.8847C164.821 17.5344 166.318 18.1084 166.968 17.7818C167.65 17.4417 168.156 15.9412 168.064 15.0135C167.839 12.7672 167.021 10.5762 166.848 8.32877C166.772 7.28131 167.633 6.15703 168.069 5.06777C169.13 5.55703 170.501 5.78076 171.175 6.59205C172.369 8.02255 172.978 9.93215 174.13 11.4045C174.956 12.4632 176.266 13.14 177.363 13.9852C177.908 12.5999 178.742 11.2497 178.928 9.81463C179.145 8.09374 178.579 6.26776 178.817 4.54913C178.961 3.47456 179.958 2.51637 180.574 1.50395C181.604 2.26326 182.984 2.81241 183.577 3.82597C184.508 5.43387 184.738 7.43499 185.594 9.10164C186.158 10.1898 187.304 10.9762 188.188 11.8982C188.954 10.7547 190.067 9.7039 190.413 8.44628C191.169 5.68697 191.539 2.82145 192.069 0H195.099C195.795 2.91298 196.385 5.86098 197.251 8.72312C197.571 9.77735 198.543 10.6327 199.217 11.5762C200.133 10.731 201.308 10.0338 201.892 9.00221C202.625 7.71747 202.637 6.0203 203.383 4.75026C204.201 3.35591 205.509 2.24406 206.6 1.01016C207.304 2.46778 208.319 3.861 208.636 5.39545C208.978 7.08697 208.512 8.93102 208.737 10.6666C208.865 11.6304 209.677 12.5061 210.18 13.4214C211.163 12.8474 212.468 12.4994 213.056 11.6553C214.415 9.70277 215.305 7.42934 216.638 5.45647C217.103 4.76494 218.606 4.01241 219.101 4.27907C219.9 4.70732 220.734 5.97398 220.706 6.86098C220.639 9.10503 219.913 11.3276 219.83 13.5762C219.783 14.7434 220.531 15.9457 220.92 17.1321C221.954 16.627 223.17 16.3208 223.977 15.5717C225.065 14.557 225.647 12.966 226.792 12.053C228.119 10.9943 229.814 10.4033 231.348 9.61012C231.435 11.3626 231.757 13.1457 231.524 14.8587C231.33 16.3129 230.282 17.6451 230.019 19.1038C229.827 20.1716 230.299 21.3615 230.474 22.4959C231.583 22.2315 232.896 22.2564 233.763 21.6428C235.596 20.3389 237.093 18.5524 238.948 17.2756C239.722 16.7434 241.382 16.5671 242.024 17.0485C242.614 17.4937 242.796 19.2033 242.441 20.0586C241.578 22.1355 240.145 23.9739 239.249 26.0394C238.82 27.0111 239.097 28.288 239.053 29.4292C240.19 29.3885 241.431 29.6179 242.445 29.2428C243.71 28.7727 244.714 27.5659 245.989 27.1208C247.74 26.5072 249.644 26.3117 251.481 25.9366C250.859 27.8021 250.413 29.7535 249.554 31.4993C248.961 32.7004 247.624 33.5185 246.933 34.6925C246.435 35.5343 246.449 36.6812 246.235 37.6891C247.342 37.906 248.553 38.5173 249.53 38.2563C251.58 37.7071 253.448 36.4529 255.505 35.9783C256.626 35.7218 257.974 36.4687 259.223 36.7614C258.862 37.8891 258.773 39.2484 258.072 40.0924C256.963 41.4246 255.262 42.2619 254.136 43.5862C253.207 44.6766 252.751 46.1681 252.089 47.4811C253.457 47.7116 254.84 48.1862 256.189 48.1116C257.8 48.0201 259.394 47.1636 260.986 47.1907C262.294 47.2144 263.585 48.0461 264.888 48.5195C264.238 49.6415 263.824 51.0347 262.893 51.8212C261.572 52.9409 259.736 53.4404 258.382 54.5342C257.362 55.3624 256.757 56.7082 255.967 57.8234C257.15 58.2969 258.314 59.0923 259.522 59.1759C262.024 59.3488 264.558 59.1443 267.076 59.0957V63.6437C264.718 64.4708 262.295 65.168 260.026 66.1996C259.167 66.5895 258.12 67.7906 258.163 68.5578C258.206 69.2821 259.495 70.3409 260.383 70.5262C262.571 70.9793 264.842 71.0154 267.076 71.2177V76.5216C264.867 76.9069 262.614 77.1329 260.472 77.7498C259.59 78.0041 258.364 79.0741 258.347 79.7996C258.328 80.5589 259.427 81.7125 260.288 82.0572C262.476 82.9295 264.805 83.4425 267.076 84.1012V88.6447L267.079 88.6458ZM168.34 118.512C183.014 129.565 209.536 128.391 221.151 118.298C219.556 116.091 217.947 113.871 216.217 111.483C209.337 115.132 202.231 117.787 194.709 117.022C187.45 116.283 180.325 114.259 172.535 112.68C171.515 114.094 169.923 116.309 168.338 118.512H168.34ZM145.529 63.3251C139.151 77.3227 147.876 104.569 161.552 113.536C163.201 111.225 164.855 108.903 166.455 106.657C153.754 90.5814 153.042 88.3871 153.367 67.8177C153.378 66.9827 152.589 65.7002 151.85 65.3691C149.822 64.472 147.619 63.9691 145.528 63.3251H145.529ZM228.216 113.682C245.373 100.044 249.104 74.6685 243.992 63.3477C242.801 63.6968 241.615 64.1544 240.389 64.3861C236.997 65.0256 235.851 66.4245 236.423 70.3171C237.714 79.1419 236.155 87.7441 231.506 95.4786C229.132 99.4277 226.156 103.011 223.317 106.944C224.822 109.014 226.441 111.241 228.217 113.683L228.216 113.682ZM241.644 55.1907C236.513 39.0597 214.827 23.4439 198.911 24.5049C198.911 25.9354 199.055 27.4258 198.882 28.8755C198.505 32.0315 199.686 33.1151 202.894 34.1207C208.813 35.9795 215.04 38.1083 219.894 41.7738C225.363 45.9048 229.462 51.8551 234.604 57.5059C236.204 56.9805 238.808 56.124 241.645 55.1895L241.644 55.1907ZM148.098 55.1545C149.595 55.6867 151.166 56.1217 152.624 56.7963C155.239 58.011 156.732 57.5251 158.171 54.7409C161.59 48.1218 166.559 42.6427 173.222 39.2563C178.634 36.5037 184.487 34.6134 190.317 32.2721V24.3761C173.606 24.2756 152.116 39.9602 148.098 55.1534V55.1545ZM181.05 101.014C190.574 105.319 199.287 105.61 208.414 100.885C206.725 98.4876 205.214 96.4944 203.87 94.3938C202.525 92.2887 201.204 91.3441 198.347 92.0899C195.791 92.7554 192.876 91.9995 190.122 92.0006C189.124 92.0006 187.712 92.0311 187.204 92.6436C185.13 95.1339 183.327 97.8548 181.05 101.013V101.014ZM166.693 69.6731C163.901 78.3837 167.698 90.2074 173.981 95.0831C184.426 89.6922 177.901 81.6696 177.303 74.4798C173.855 72.916 170.403 71.3533 166.693 69.6731ZM223.026 70.1454C220.684 70.8911 218.354 71.7793 215.946 72.36C213.46 72.9634 212.244 73.9883 212.048 76.8877C211.861 79.5329 210.293 82.0662 209.497 84.6967C209.21 85.6312 208.98 86.9713 209.433 87.6752C211.171 90.4063 213.191 92.9543 215.116 95.5825C222.071 89.8391 225.758 78.0685 223.026 70.1454ZM220.544 62.0708C216.718 53.4121 207.088 46.6178 198.922 46.7738C198.922 48.8619 199.122 50.9907 198.874 53.0652C198.473 56.4641 199.316 58.6245 202.924 59.8313C204.917 60.4991 206.399 62.611 208.243 63.8844C209.145 64.5115 210.46 65.2324 211.375 65.0143C214.394 64.281 217.316 63.142 220.543 62.0697L220.544 62.0708ZM169.249 61.133C177.485 69.4098 183.168 61.5488 189.593 58.4166C190.072 54.5093 190.554 50.6031 191.111 46.0777C180.59 48.1365 173.706 53.1511 169.249 61.1341V61.133Z" fill="white"/>
<path fill-rule="evenodd" clip-rule="evenodd" d="M117.523 74.9643C116.538 74.9248 115.555 74.8344 114.571 74.8683C114.193 74.8807 113.827 75.1801 113.456 75.3485C113.654 75.7033 113.786 76.1214 114.063 76.3914C114.375 76.6976 114.878 76.8061 115.186 77.1089C115.687 77.5971 116.098 78.1767 116.553 78.718C115.865 78.8197 115.181 78.9892 114.494 78.9971C114.014 79.0027 113.538 78.7146 113.056 78.6931C112.701 78.675 112.339 78.8739 111.982 78.9756C112.104 79.3598 112.123 79.8366 112.372 80.1089C112.878 80.6705 113.574 81.0637 114.055 81.6422C114.309 81.9519 114.282 82.4987 114.385 82.9417C113.97 83.0027 113.518 83.197 113.153 83.0976C112.465 82.9112 111.848 82.4829 111.166 82.292C110.768 82.1812 110.299 82.3338 109.859 82.3699C109.964 82.8016 109.975 83.292 110.198 83.6501C110.593 84.2919 111.181 84.8196 111.565 85.4671C111.735 85.7473 111.77 86.3405 111.592 86.5405C111.405 86.745 110.82 86.7801 110.52 86.6479C109.87 86.3609 109.321 85.8558 108.675 85.5563C108.245 85.3552 107.72 85.3518 107.238 85.2614C107.277 85.7428 107.211 86.2648 107.374 86.7032C107.634 87.4083 108.116 88.0366 108.359 88.7473C108.46 89.0399 108.297 89.5541 108.07 89.7857C107.938 89.9224 107.358 89.8128 107.122 89.6286C106.453 89.11 105.887 88.4558 105.216 87.9405C104.948 87.7337 104.509 87.7484 104.149 87.6625C104.06 88.0569 103.837 88.4784 103.914 88.8388C104.065 89.5767 104.469 90.2682 104.591 91.0083C104.659 91.4128 104.368 91.8783 104.242 92.3145C103.852 92.1507 103.357 92.0829 103.086 91.8026C102.564 91.2591 102.201 90.5631 101.691 89.9981C101.461 89.7439 101.039 89.6569 100.706 89.4953C100.539 89.8648 100.233 90.2354 100.238 90.6026C100.246 91.3122 100.531 92.0207 100.514 92.7235C100.503 93.1766 100.157 93.6207 99.9592 94.0716C99.5806 93.8139 99.0925 93.6297 98.8439 93.2795C98.4383 92.6998 98.2484 91.9687 97.8417 91.3868C97.636 91.0863 97.1626 90.971 96.81 90.7733C96.6315 91.0987 96.3366 91.4094 96.2982 91.7507C96.2032 92.5484 96.2982 93.3687 96.1874 94.1597C96.1411 94.4941 95.7377 95.0523 95.5535 95.0297C95.1942 94.9834 94.7174 94.6772 94.5705 94.3529C94.2372 93.6264 94.1287 92.8015 93.8236 92.0603C93.6937 91.7461 93.3038 91.536 93.0304 91.2795C92.7592 91.5755 92.3558 91.8286 92.2394 92.1778C91.9874 92.936 91.9445 93.7631 91.6925 94.5224C91.5897 94.8456 91.1841 95.0704 90.9208 95.3382C90.6315 95.0433 90.1931 94.7891 90.0925 94.4377C89.8925 93.7134 89.9468 92.9213 89.757 92.1913C89.6485 91.7902 89.2586 91.4648 88.9965 91.1032C88.6959 91.3846 88.3118 91.6185 88.1163 91.9608C87.8541 92.4185 87.8236 93.0252 87.5321 93.4512C87.1909 93.9506 86.6654 94.328 86.2214 94.7586C86.0123 94.2105 85.7039 93.6727 85.6315 93.1088C85.5558 92.5461 85.792 91.9439 85.7321 91.3744C85.6937 90.9959 85.3852 90.6433 85.1931 90.2806C84.844 90.4874 84.3943 90.6185 84.1649 90.9179C83.6722 91.5529 83.3502 92.3122 82.8496 92.9405C82.6496 93.1959 82.1028 93.4275 81.853 93.3258C81.6011 93.223 81.3819 92.6738 81.4169 92.3439C81.4926 91.5495 81.783 90.7733 81.8666 89.9789C81.9095 89.6015 81.6802 89.197 81.5773 88.8027C81.1954 88.9303 80.7355 88.9642 80.4587 89.2072C79.9547 89.6445 79.6248 90.2795 79.1163 90.6987C78.7423 91.0004 78.1988 91.0874 77.7322 91.2704C77.6757 90.7371 77.4858 90.1778 77.592 89.6784C77.7276 89.0343 78.1491 88.4569 78.3389 87.8185C78.4395 87.4919 78.2983 87.0953 78.2711 86.7304C77.87 86.7722 77.3943 86.6953 77.0881 86.8852C76.4486 87.284 75.9423 87.9032 75.2904 88.2806C74.9378 88.4863 74.4022 88.3834 73.9525 88.4185C73.9638 88.0004 73.8384 87.5213 74.0011 87.1767C74.3265 86.4942 74.8655 85.9179 75.2 85.24C75.3627 84.9089 75.2678 84.449 75.2892 84.0501C74.8836 84.0547 74.4339 83.9462 74.0847 84.0886C73.3457 84.3891 72.6768 84.8818 71.9322 85.171C71.626 85.2919 71.0203 85.223 70.8655 85.0083C70.6972 84.7812 70.774 84.1903 70.9684 83.9213C71.4361 83.2761 72.0836 82.7575 72.5627 82.1157C72.7898 81.8151 72.7932 81.3485 72.8983 80.9564C72.4972 80.8784 72.0757 80.6694 71.7119 80.7451C70.9265 80.9089 70.1876 81.2818 69.4057 81.4411C69.0836 81.5044 68.5074 81.336 68.391 81.0999C68.2667 80.8434 68.4237 80.2728 68.6565 80.0456C69.2305 79.4875 69.9582 79.0954 70.5356 78.5417C70.8068 78.2829 70.8689 77.8084 71.026 77.4321C70.6768 77.301 70.3243 77.0513 69.9751 77.0649C69.2689 77.0942 68.5616 77.3587 67.8531 77.3394C67.3955 77.327 66.9435 76.9892 66.4882 76.7948C66.748 76.4118 66.9345 75.944 67.2791 75.6649C67.6848 75.3361 68.278 75.2344 68.6927 74.9146C69.1288 74.5756 69.4588 74.0931 69.8328 73.6728C69.3379 73.4762 68.8554 73.1994 68.3379 73.1033C67.774 72.9994 67.1571 73.1519 66.6023 73.0163C66.1876 72.9157 65.8362 72.5429 65.4543 72.2909C65.7684 71.9553 66.0283 71.4954 66.4158 71.309C67.0554 71.0061 67.8045 70.9406 68.4542 70.6513C68.8011 70.4965 69.0339 70.0864 69.3153 69.7949C68.9955 69.5327 68.7198 69.153 68.3537 69.0378C67.5932 68.7915 66.7673 68.744 66.0068 68.492C65.6983 68.3881 65.2949 67.9519 65.3028 67.6807C65.3108 67.4118 65.7526 67.0062 66.0723 66.9282C66.8441 66.7361 67.6746 66.761 68.452 66.5745C68.8226 66.4864 69.1209 66.1124 69.4486 65.8706C69.1887 65.5565 68.9876 65.1305 68.652 64.9542C67.9424 64.5836 67.1356 64.396 66.4317 64.0164C66.1447 63.8627 65.8283 63.3621 65.8791 63.0909C65.9367 62.8209 66.4238 62.4785 66.748 62.4525C67.452 62.387 68.1751 62.5712 68.8836 62.5192C69.3571 62.4808 69.8124 62.2164 70.2757 62.0525C70.0079 61.6503 69.8158 61.1576 69.4576 60.8627C68.9107 60.4096 68.2091 60.1452 67.6656 59.691C67.4079 59.474 67.1729 58.9441 67.2644 58.6729C67.3514 58.4311 67.9141 58.1915 68.2362 58.2232C69.035 58.3034 69.8068 58.6006 70.6056 58.6887C70.9797 58.7305 71.3876 58.4932 71.7808 58.3825C71.6373 57.996 71.591 57.5237 71.339 57.2424C70.8 56.6503 70.104 56.1983 69.574 55.6028C69.3571 55.3588 69.2215 54.7769 69.3684 54.5486C69.5119 54.317 70.0915 54.1735 70.4056 54.2627C71.2181 54.4932 71.9729 54.9204 72.7796 55.1678C73.096 55.2673 73.6542 55.2141 73.8169 55.0062C73.9819 54.7961 73.8983 54.2469 73.7277 53.9588C73.4407 53.4616 72.9152 53.1 72.6531 52.5972C72.3684 52.0571 72.2746 51.4164 72.0983 50.8209C72.7017 50.908 73.3469 50.8978 73.9039 51.1091C74.4316 51.3091 74.8429 51.8006 75.3627 52.0514C75.6745 52.2017 76.0915 52.1407 76.4599 52.1735C76.487 51.7678 76.6497 51.308 76.5107 50.9645C76.2045 50.178 75.7017 49.4718 75.3785 48.6876C75.2678 48.4164 75.3435 47.83 75.5299 47.7283C75.809 47.5713 76.3559 47.5645 76.6101 47.7475C77.2926 48.2424 77.8497 48.908 78.5186 49.4277C78.7864 49.6368 79.2146 49.6413 79.5717 49.7373C79.6723 49.3464 79.9208 48.9249 79.8451 48.5701C79.6915 47.8323 79.296 47.1453 79.1412 46.4052C79.0632 46.0289 79.2903 45.5848 79.3796 45.1735C79.8124 45.3057 80.3706 45.3125 80.6598 45.5961C81.2011 46.1181 81.548 46.8334 82.0542 47.395C82.2813 47.6458 82.7118 47.717 83.0474 47.8707C83.2101 47.5035 83.5129 47.1317 83.4994 46.7713C83.47 45.9713 83.2067 45.1792 83.1965 44.3837C83.1886 44.021 83.4915 43.5442 83.7977 43.3385C83.9434 43.2425 84.5479 43.5781 84.74 43.8583C85.1457 44.4391 85.3604 45.1566 85.7717 45.7362C86.0349 46.117 86.5027 46.352 86.8813 46.6526C87.0756 46.2018 87.3739 45.769 87.453 45.2989C87.5558 44.6425 87.4202 43.9442 87.5445 43.2956C87.618 42.9182 87.9965 42.6029 88.2428 42.2583C88.5649 42.5238 89.0225 42.7261 89.1773 43.0673C89.4971 43.7521 89.5863 44.5374 89.8835 45.2334C90.0383 45.5893 90.4383 45.8413 90.7253 46.1407C90.9931 45.8311 91.3863 45.5622 91.505 45.204C91.74 44.4865 91.7592 43.6956 92.0033 42.9826C92.1253 42.6221 92.5445 42.3645 92.8315 42.0605C93.1343 42.3961 93.592 42.6899 93.7038 43.0809C93.9038 43.8063 93.8338 44.604 94.0157 45.3374C94.0993 45.6922 94.5027 45.9701 94.7569 46.2831C95.036 46.0368 95.4202 45.8447 95.5773 45.5351C95.9185 44.8583 96.0643 44.0797 96.4462 43.43C96.6462 43.0797 97.1659 42.9125 97.5456 42.6628C97.7411 43.0323 98.0789 43.3927 98.1083 43.7747C98.1626 44.5272 97.9806 45.2978 98.0303 46.0504C98.0575 46.421 98.3931 46.7701 98.5885 47.1294C98.9049 46.9385 99.314 46.8153 99.5253 46.5407C99.9094 46.0537 100.105 45.4029 100.524 44.9588C100.906 44.5566 101.48 44.3374 101.967 44.0379C102.081 44.5645 102.283 45.0967 102.27 45.6198C102.262 46.1441 101.95 46.6594 101.926 47.1848C101.911 47.6492 102.107 48.1238 102.211 48.5972C102.626 48.4063 103.102 48.2978 103.427 48.0097C103.963 47.5419 104.339 46.8933 104.887 46.4447C105.174 46.2108 105.674 46.2413 106.078 46.1509C106.153 46.5622 106.287 46.9724 106.276 47.3814C106.264 47.6752 106.024 47.9566 105.956 48.2594C105.788 49.0605 104.616 49.8854 105.634 50.5871C105.961 50.8153 107.061 49.9532 107.792 49.5611C108.065 49.4142 108.277 49.0955 108.556 49.0323C108.951 48.9419 109.44 48.9023 109.774 49.0695C109.925 49.143 109.923 49.839 109.768 50.1407C109.411 50.8571 108.874 51.482 108.501 52.1927C108.344 52.4933 108.414 52.9159 108.385 53.282C108.791 53.3102 109.246 53.474 109.587 53.3384C110.291 53.0582 110.895 52.5351 111.604 52.2808C111.986 52.143 112.495 52.3498 112.947 52.4029C112.865 52.8142 112.898 53.3102 112.671 53.6187C112.202 54.2661 111.558 54.7848 111.063 55.4153C110.873 55.6492 110.73 56.1972 110.86 56.3373C111.077 56.5735 111.556 56.752 111.866 56.6808C112.646 56.5079 113.377 56.0978 114.162 55.9509C114.564 55.8763 115.031 56.1656 115.468 56.291C115.313 56.6831 115.248 57.1576 114.981 57.4514C114.599 57.8751 114.009 58.1079 113.621 58.5271C113.243 58.9339 113.01 59.4751 112.714 59.9565C113.236 60.0604 113.756 60.239 114.279 60.2435C114.81 60.2503 115.351 59.9768 115.868 60.0243C116.335 60.0661 116.783 60.3746 117.235 60.5655C116.988 60.9542 116.807 61.4254 116.469 61.7045C116.065 62.0356 115.475 62.1407 115.061 62.4638C114.619 62.8051 114.289 63.2875 113.91 63.709C114.409 63.8955 114.894 64.1542 115.405 64.2559C116.101 64.3915 116.816 64.4017 117.525 64.4672V66.0819C116.71 66.3067 115.877 66.4875 115.086 66.7802C114.81 66.8819 114.419 67.3033 114.463 67.4988C114.527 67.805 114.869 68.1836 115.173 68.2807C115.931 68.5192 116.74 68.6175 117.525 68.7711V70.6525C116.775 70.7078 116.02 70.6988 115.291 70.8446C114.926 70.918 114.62 71.2739 114.284 71.5011C114.574 71.8333 114.804 72.2875 115.173 72.4683C115.917 72.8378 116.738 73.0592 117.525 73.3429V74.9564L117.523 74.9643ZM106.512 68.4898C106.512 68.7124 106.514 68.9372 106.512 69.161C106.49 70.9643 107.202 71.7429 108.938 71.8073C110.161 71.8536 110.746 71.1383 110.782 69.3994C110.892 64.0887 109.168 59.4627 105.499 55.5938C104.108 54.126 103.03 54.2921 102.012 56.0187C101.422 57.0164 101.706 57.761 102.443 58.5328C105.107 61.3113 106.436 64.6502 106.512 68.4886V68.4898ZM93.7468 85.0411C93.7276 86.832 94.6044 87.5496 96.4643 87.0592C101.807 85.6513 105.821 82.5134 108.504 77.6818C109.192 76.4423 109.031 75.5575 108.092 75.0039C106.758 74.2107 105.515 74.3937 104.836 75.6005C102.678 79.44 99.497 81.9157 95.2247 82.9835C94.1987 83.2377 93.7276 83.8761 93.7468 85.04V85.0411ZM90.5841 85.1631C90.6134 84.2558 90.2643 83.3631 89.0168 83.0931C84.8259 82.1846 81.5909 79.9202 79.2915 76.2852C78.5197 75.0626 77.383 74.9801 76.035 75.9361C75.0113 76.6581 75.087 77.5643 75.6915 78.518C78.6723 83.2162 82.8609 86.188 88.3298 87.2931C89.7377 87.5767 90.5716 86.8354 90.5852 85.1631H90.5841ZM91.7264 49.4481C91.705 49.5577 91.6801 49.665 91.6564 49.7735C88.7942 49.8097 86.079 50.4763 83.5039 51.726C82.6022 52.1611 82.0474 52.8051 82.3751 53.8593C82.8655 55.4537 84.2101 56.0367 85.7378 55.3689C86.1491 55.1915 86.5581 55.0119 86.9807 54.865C90.3649 53.691 93.7355 53.7769 97.1061 54.9588C98.4032 55.4153 99.4529 54.7599 99.932 53.2548C100.314 52.056 99.6801 51.3193 98.6021 51.0413C96.3253 50.4548 94.0213 49.9735 91.7253 49.4492L91.7264 49.4481ZM72.9367 68.9146C72.9661 69.3192 72.9989 70.0344 73.0723 70.7463C73.2079 72.1214 73.8599 72.8592 74.8757 72.8129C76.3921 72.7451 77.3932 71.7722 77.2745 70.37C76.9197 66.2593 77.9672 62.5881 80.5423 59.3429C81.4135 58.248 81.1434 57.1283 79.8677 56.1249C79.0203 55.456 78.1129 55.648 77.2305 56.7283C74.4181 60.1825 73.026 64.1587 72.9367 68.9146ZM89.0835 74.2547C91.5987 75.7722 94.9727 74.8502 96.6891 72.327C98.5897 69.5338 97.5151 65.6141 95.4191 64.526C93.3129 67.761 91.201 71.0073 89.0835 74.2547ZM94.314 63.648C91.149 62.2514 87.905 63.3407 86.3762 66.135C85.0056 68.6434 85.6779 71.9677 87.9298 73.4694C90.0417 70.2276 92.1479 66.987 94.314 63.648Z" fill="white"/>
<path fill-rule="evenodd" clip-rule="evenodd" d="M136.833 164.567C135.119 164.499 133.409 164.341 131.699 164.4C131.04 164.422 130.404 164.943 129.759 165.236C130.103 165.853 130.333 166.58 130.814 167.049C131.357 167.582 132.232 167.771 132.768 168.297C133.639 169.146 134.355 170.154 135.147 171.095C133.95 171.272 132.758 171.567 131.563 171.581C130.73 171.591 129.9 171.09 129.063 171.052C128.446 171.021 127.815 171.367 127.194 171.543C127.406 172.212 127.439 173.041 127.872 173.514C128.752 174.491 129.963 175.175 130.801 176.181C131.243 176.719 131.196 177.671 131.375 178.441C130.653 178.547 129.867 178.885 129.232 178.712C128.035 178.388 126.962 177.643 125.774 177.311C125.083 177.118 124.267 177.384 123.5 177.447C123.683 178.197 123.703 179.05 124.09 179.673C124.778 180.789 125.8 181.707 126.468 182.833C126.765 183.32 126.826 184.352 126.516 184.7C126.191 185.055 125.173 185.116 124.65 184.886C123.52 184.387 122.565 183.509 121.442 182.988C120.693 182.638 119.779 182.632 118.942 182.475C119.009 183.312 118.895 184.22 119.178 184.983C119.63 186.209 120.469 187.301 120.892 188.537C121.067 189.046 120.784 189.94 120.389 190.343C120.159 190.581 119.15 190.39 118.739 190.07C117.576 189.168 116.591 188.03 115.423 187.134C114.957 186.775 114.195 186.8 113.568 186.651C113.412 187.337 113.025 188.07 113.159 188.697C113.422 189.98 114.124 191.182 114.336 192.469C114.454 193.173 113.949 193.983 113.729 194.741C113.051 194.456 112.19 194.338 111.718 193.851C110.81 192.906 110.179 191.695 109.292 190.713C108.891 190.271 108.158 190.119 107.578 189.838C107.287 190.481 106.755 191.125 106.765 191.764C106.778 192.998 107.274 194.23 107.244 195.452C107.225 196.24 106.623 197.013 106.279 197.797C105.621 197.349 104.771 197.028 104.339 196.419C103.633 195.411 103.303 194.14 102.595 193.128C102.238 192.605 101.414 192.405 100.801 192.061C100.49 192.627 99.9772 193.167 99.9104 193.76C99.7452 195.148 99.9104 196.574 99.7177 197.95C99.6371 198.532 98.9354 199.502 98.615 199.463C97.9899 199.383 97.1604 198.85 96.9049 198.286C96.325 197.022 96.1363 195.588 95.6056 194.299C95.3795 193.753 94.7014 193.387 94.2257 192.941C93.7539 193.456 93.0522 193.896 92.8497 194.503C92.4114 195.822 92.3367 197.26 91.8983 198.581C91.7195 199.143 91.0138 199.534 90.5558 200C90.0526 199.487 89.2899 199.045 89.115 198.433C88.7671 197.174 88.8614 195.796 88.5312 194.527C88.3425 193.829 87.6643 193.263 87.2083 192.635C86.6854 193.124 86.0171 193.531 85.677 194.126C85.221 194.922 85.1679 195.977 84.6608 196.718C84.0672 197.586 83.1531 198.243 82.3806 198.991C82.017 198.038 81.4804 197.103 81.3546 196.122C81.2229 195.144 81.6337 194.097 81.5295 193.106C81.4627 192.448 80.9261 191.835 80.5919 191.204C79.9845 191.564 79.2022 191.791 78.8031 192.312C77.9461 193.417 77.3859 194.737 76.5151 195.83C76.1672 196.274 75.2158 196.677 74.7814 196.5C74.3431 196.321 73.9617 195.366 74.0227 194.792C74.1544 193.411 74.6595 192.061 74.805 190.679C74.8797 190.023 74.4807 189.319 74.3018 188.634C73.6374 188.856 72.8374 188.915 72.3558 189.337C71.4791 190.098 70.9051 191.202 70.0206 191.931C69.37 192.456 68.4245 192.607 67.6127 192.925C67.5144 191.998 67.1841 191.025 67.3689 190.157C67.6048 189.036 68.338 188.032 68.6682 186.922C68.8432 186.354 68.5975 185.664 68.5503 185.03C67.8525 185.102 67.0249 184.969 66.4922 185.299C65.3797 185.993 64.4991 187.069 63.3649 187.726C62.7516 188.083 61.8199 187.905 61.0375 187.966C61.0572 187.238 60.839 186.405 61.1221 185.806C61.6882 184.619 62.6258 183.617 63.2076 182.438C63.4907 181.862 63.3256 181.062 63.3629 180.369C62.6572 180.376 61.8749 180.188 61.2675 180.435C59.982 180.958 58.8183 181.815 57.5229 182.318C56.9903 182.528 55.9367 182.408 55.6674 182.035C55.3745 181.64 55.5081 180.612 55.8462 180.145C56.66 179.022 57.7863 178.121 58.6198 177.004C59.0149 176.482 59.0208 175.67 59.2036 174.988C58.5058 174.853 57.7726 174.489 57.1396 174.621C55.7735 174.906 54.488 175.554 53.1277 175.831C52.5675 175.941 51.565 175.648 51.3626 175.238C51.1464 174.792 51.4196 173.799 51.8245 173.404C52.8231 172.434 54.0889 171.752 55.0934 170.789C55.5651 170.339 55.6733 169.514 55.9465 168.859C55.3391 168.631 54.7258 168.197 54.1184 168.221C52.8899 168.272 51.6594 168.731 50.4269 168.698C49.6308 168.676 48.8446 168.089 48.0524 167.751C48.5045 167.085 48.8289 166.271 49.4284 165.786C50.134 165.214 51.166 165.037 51.8874 164.481C52.6461 163.891 53.2201 163.052 53.8708 162.321C53.0098 161.979 52.1705 161.498 51.2702 161.331C50.2893 161.15 49.2161 161.415 48.2509 161.18C47.5295 161.005 46.9182 160.356 46.2538 159.918C46.8003 159.334 47.2524 158.535 47.9266 158.21C49.0392 157.684 50.3424 157.57 51.4727 157.067C52.0761 156.798 52.481 156.084 52.9705 155.577C52.4142 155.121 51.9346 154.461 51.2977 154.261C49.9748 153.832 48.5379 153.75 47.215 153.312C46.6784 153.131 45.9767 152.372 45.9904 151.901C46.0042 151.433 46.7728 150.727 47.329 150.592C48.6716 150.258 50.1164 150.301 51.4687 149.977C52.1135 149.824 52.6324 149.173 53.2024 148.753C52.7503 148.206 52.4004 147.465 51.8166 147.159C50.5822 146.514 49.1787 146.188 47.9541 145.528C47.4549 145.261 46.9045 144.39 46.9929 143.919C47.0932 143.449 47.9404 142.853 48.5045 142.808C49.7291 142.694 50.9871 143.015 52.2196 142.924C53.0432 142.857 53.8354 142.398 54.6413 142.113C54.1754 141.413 53.8413 140.556 53.2182 140.043C52.2668 139.255 51.0461 138.796 50.1006 138.006C49.6525 137.628 49.2436 136.707 49.4028 136.235C49.5542 135.815 50.5331 135.398 51.0933 135.453C52.483 135.593 53.8256 136.109 55.2153 136.263C55.8659 136.335 56.5755 135.923 57.2595 135.73C57.0099 135.058 56.9293 134.237 56.491 133.747C55.5534 132.718 54.3425 131.932 53.4206 130.896C53.0432 130.472 52.8073 129.46 53.0629 129.063C53.3125 128.66 54.3209 128.41 54.8673 128.565C56.2807 128.966 57.5937 129.709 58.9972 130.139C59.5476 130.312 60.5186 130.22 60.8017 129.858C61.0886 129.493 60.9432 128.538 60.6464 128.037C60.1471 127.172 59.2331 126.543 58.777 125.669C58.2817 124.73 58.1185 123.615 57.8119 122.58C58.8616 122.731 59.984 122.714 60.953 123.081C61.871 123.429 62.5865 124.284 63.4907 124.72C64.0332 124.981 64.7585 124.875 65.3993 124.932C65.4465 124.227 65.7296 123.427 65.4878 122.829C64.9551 121.462 64.0804 120.234 63.5182 118.87C63.3256 118.398 63.4573 117.378 63.7816 117.202C64.2671 116.928 65.2185 116.917 65.6608 117.235C66.848 118.096 67.8171 119.253 68.9808 120.157C69.4466 120.52 70.1916 120.528 70.8128 120.695C70.9877 120.015 71.4201 119.283 71.2884 118.665C71.0211 117.382 70.3331 116.188 70.0638 114.9C69.9282 114.246 70.3233 113.474 70.4786 112.758C71.2314 112.988 72.2025 113 72.7057 113.493C73.6472 114.401 74.2507 115.645 75.1313 116.622C75.5264 117.058 76.2753 117.182 76.8591 117.449C77.1422 116.81 77.669 116.164 77.6454 115.537C77.5943 114.146 77.1363 112.768 77.1186 111.385C77.1048 110.754 77.6316 109.925 78.1643 109.567C78.4179 109.4 79.4695 109.984 79.8037 110.471C80.5093 111.481 80.8828 112.729 81.5983 113.737C82.0563 114.399 82.8701 114.808 83.5286 115.331C83.8667 114.547 84.3856 113.794 84.5232 112.977C84.7021 111.835 84.4662 110.62 84.6824 109.493C84.8102 108.836 85.4687 108.288 85.8972 107.689C86.4574 108.15 87.2535 108.502 87.5228 109.096C88.0791 110.286 88.2344 111.652 88.7513 112.863C89.0206 113.482 89.7165 113.92 90.2158 114.441C90.6816 113.902 91.3657 113.434 91.572 112.812C91.9809 111.564 92.0143 110.188 92.4389 108.948C92.6512 108.321 93.3804 107.873 93.8797 107.345C94.4065 107.928 95.2026 108.439 95.3972 109.119C95.7451 110.381 95.6233 111.768 95.9397 113.043C96.0852 113.66 96.7869 114.144 97.2292 114.688C97.7147 114.26 98.3831 113.926 98.6563 113.387C99.2499 112.21 99.5035 110.856 100.168 109.726C100.516 109.117 101.42 108.826 102.08 108.392C102.421 109.035 103.008 109.662 103.059 110.326C103.154 111.634 102.837 112.975 102.924 114.283C102.971 114.928 103.555 115.535 103.895 116.16C104.445 115.828 105.157 115.614 105.524 115.136C106.193 114.289 106.533 113.157 107.262 112.385C107.926 111.686 108.925 111.304 109.772 110.784C109.971 111.699 110.322 112.625 110.299 113.535C110.285 114.446 109.743 115.343 109.701 116.256C109.674 117.064 110.016 117.889 110.197 118.713C110.918 118.381 111.746 118.192 112.312 117.691C113.243 116.877 113.898 115.749 114.851 114.969C115.351 114.562 116.221 114.615 116.923 114.458C117.055 115.174 117.287 115.887 117.267 116.598C117.247 117.109 116.829 117.598 116.711 118.125C116.42 119.518 114.38 120.953 116.151 122.173C116.721 122.57 118.633 121.071 119.905 120.389C120.381 120.133 120.748 119.579 121.234 119.469C121.922 119.312 122.773 119.243 123.353 119.534C123.616 119.662 123.612 120.872 123.343 121.397C122.722 122.643 121.788 123.729 121.139 124.965C120.866 125.488 120.988 126.223 120.937 126.86C121.643 126.909 122.435 127.194 123.028 126.958C124.253 126.471 125.303 125.561 126.537 125.119C127.202 124.879 128.086 125.239 128.872 125.331C128.731 126.046 128.788 126.909 128.393 127.445C127.577 128.571 126.457 129.473 125.596 130.57C125.265 130.977 125.016 131.93 125.242 132.173C125.619 132.584 126.453 132.895 126.993 132.771C128.349 132.47 129.621 131.757 130.987 131.501C131.685 131.372 132.499 131.875 133.258 132.093C132.988 132.775 132.876 133.6 132.411 134.111C131.746 134.848 130.72 135.253 130.046 135.982C129.387 136.689 128.982 137.63 128.467 138.467C129.376 138.648 130.28 138.959 131.19 138.967C132.114 138.978 133.055 138.503 133.954 138.585C134.767 138.658 135.546 139.195 136.332 139.527C135.904 140.203 135.587 141.022 134.999 141.507C134.298 142.083 133.271 142.266 132.55 142.828C131.782 143.421 131.208 144.26 130.549 144.993C131.416 145.318 132.259 145.768 133.15 145.945C134.36 146.18 135.603 146.198 136.837 146.312V149.12C135.42 149.511 133.969 149.826 132.593 150.334C132.114 150.511 131.434 151.244 131.51 151.584C131.622 152.117 132.216 152.775 132.745 152.944C134.064 153.359 135.471 153.53 136.837 153.797V157.069C135.532 157.165 134.219 157.149 132.951 157.403C132.316 157.531 131.783 158.15 131.2 158.545C131.703 159.122 132.104 159.912 132.745 160.227C134.04 160.869 135.467 161.254 136.837 161.748V164.554L136.833 164.567ZM117.678 153.308C117.678 153.695 117.682 154.086 117.678 154.475C117.641 157.611 118.879 158.965 121.898 159.077C124.027 159.158 125.043 157.914 125.106 154.89C125.299 145.654 122.299 137.609 115.917 130.88C113.497 128.328 111.622 128.617 109.851 131.619C108.825 133.354 109.318 134.649 110.6 135.991C115.235 140.824 117.546 146.63 117.678 153.306V153.308ZM95.4719 182.092C95.4385 185.207 96.9638 186.454 100.199 185.602C109.493 183.153 116.477 177.696 121.143 169.293C122.34 167.138 122.061 165.599 120.428 164.636C118.106 163.257 115.944 163.575 114.763 165.674C111.008 172.351 105.475 176.657 98.043 178.514C96.2582 178.956 95.4385 180.066 95.4719 182.09V182.092ZM89.97 182.304C90.0211 180.726 89.4138 179.174 87.2437 178.704C79.9531 177.124 74.3254 173.186 70.3253 166.865C68.9827 164.738 67.0053 164.595 64.6602 166.257C62.8794 167.513 63.0111 169.089 64.0627 170.748C69.2481 178.918 76.5348 184.086 86.0486 186.008C88.4978 186.502 89.9484 185.212 89.972 182.304H89.97ZM91.9573 120.192C91.92 120.383 91.8767 120.57 91.8354 120.758C86.8564 120.821 82.133 121.981 77.6532 124.154C76.0846 124.91 75.1195 126.031 75.6895 127.864C76.5426 130.637 78.8818 131.651 81.5393 130.489C82.2548 130.181 82.9664 129.868 83.7016 129.613C89.5887 127.571 95.4523 127.72 101.316 129.776C103.572 130.57 105.398 129.43 106.232 126.813C106.896 124.728 105.794 123.446 103.918 122.963C99.9575 121.943 95.9496 121.106 91.9554 120.194L91.9573 120.192ZM59.2704 154.046C59.3215 154.75 59.3785 155.994 59.5063 157.232C59.7422 159.623 60.8764 160.907 62.6435 160.826C65.2814 160.708 67.023 159.016 66.8166 156.578C66.1994 149.429 68.0215 143.044 72.5013 137.4C74.0168 135.496 73.547 133.549 71.3278 131.804C69.8535 130.641 68.2751 130.975 66.7399 132.853C61.8474 138.86 59.4257 145.776 59.2704 154.046ZM87.3596 163.333C91.7352 165.972 97.6046 164.369 100.59 159.981C103.897 155.123 102.027 148.307 98.3811 146.414C94.7171 152.04 91.0433 157.686 87.3596 163.333ZM96.4587 144.887C90.9529 142.459 85.3095 144.353 82.6499 149.212C80.2656 153.575 81.4352 159.356 85.3527 161.968C89.0265 156.33 92.6905 150.694 96.4587 144.887Z" fill="white"/>
<path fill-rule="evenodd" clip-rule="evenodd" d="M349.809 52.2541C350.3 55.1083 350.903 57.9523 351.263 60.8224C351.507 62.7885 352.937 62.6676 354.239 62.8947C355.546 63.1218 356.773 63.5738 357.648 61.802C358.914 59.2122 360.528 56.7919 362.106 54.1072C363.384 54.5591 364.565 54.9761 366.014 55.4879C365.54 58.4608 365.263 61.4212 364.549 64.2732C363.942 66.706 365.932 66.7817 367.059 67.7037C368.164 68.6065 369.07 68.5398 370.183 67.5263C372.322 65.5828 374.624 63.8167 377.006 61.854C378.102 62.7681 379.125 63.6235 380.221 64.5387C378.659 67.3285 377.249 70.0427 375.646 72.6393C374.372 74.7025 376.397 75.3409 377.195 76.3782C377.661 76.9827 378.92 77.4302 379.681 77.2663C381.473 76.8856 383.182 76.0923 384.925 75.4698C387.351 74.605 389.16 75.4494 390.351 78.0031C388.191 79.8347 386.036 81.7601 383.773 83.5488C382.671 84.4211 382.2 85.2177 382.923 86.5759C383.662 87.9691 383.538 89.951 386.077 89.7601C388.877 89.5476 391.703 89.7115 394.716 89.7115C394.984 91.168 395.22 92.4742 395.482 93.8956C392.542 95.003 389.8 96.1758 386.967 97.0595C384.845 97.7193 385.629 99.308 385.505 100.618C385.394 101.832 385.326 102.984 386.975 103.439C388.754 103.926 390.462 104.689 392.2 105.327C394.642 106.224 395.433 108.035 394.572 110.76C391.707 110.76 388.732 110.89 385.778 110.712C383.94 110.599 383.643 111.742 383.285 112.99C382.914 114.277 381.793 115.485 383.604 116.797C386.001 118.535 388.164 120.607 390.479 122.582C389.75 123.829 389.112 124.933 388.361 126.213C385.649 125.25 382.928 124.506 380.415 123.326C378.225 122.299 377.488 123.697 376.302 124.921C375.119 126.145 375.113 127.11 375.99 128.495C377.487 130.859 378.792 133.347 380.249 135.904C379.182 136.81 378.212 137.63 377.029 138.632C374.701 136.708 372.359 134.901 370.168 132.918C369.036 131.89 368.136 131.894 367.023 132.788C365.888 133.698 363.855 133.777 364.55 136.195C365.146 138.273 365.281 140.478 365.69 142.614C365.974 144.085 365.999 145.102 364.155 145.734C362.436 146.321 361.696 145.896 360.938 144.44C359.898 142.442 358.556 140.598 357.562 138.578C356.757 136.934 355.582 137.284 354.307 137.556C352.956 137.846 351.454 137.648 351.229 139.804C350.932 142.667 350.225 145.489 349.676 148.439H345.474C344.954 145.646 344.228 142.841 343.963 139.995C343.738 137.591 342.027 137.884 340.554 137.48C339.117 137.085 338.149 137.341 337.451 138.811C336.693 140.404 335.663 141.871 334.763 143.395C333.47 145.575 331.597 146.016 329.143 144.718C329.616 141.852 329.963 138.895 330.628 136.016C331.197 133.556 329.021 133.639 327.956 132.688C326.93 131.772 326.042 131.959 325.022 132.872C322.859 134.796 320.587 136.59 318.158 138.6C317.086 137.719 316.062 136.882 314.899 135.927C316.417 133.247 317.817 130.637 319.357 128.115C320.073 126.945 320.112 126.071 318.997 125.208C317.87 124.336 317.632 122.141 315.274 123.177C312.629 124.335 309.83 125.147 306.853 126.198C306.166 125.091 305.459 123.964 304.62 122.623C306.896 120.68 309.024 118.733 311.293 116.962C312.514 116.006 312.893 115.101 312.119 113.703C311.415 112.416 311.638 110.459 309.152 110.705C306.601 110.955 304.003 110.781 301.422 110.793V105.954C303.742 105.07 306.105 104.285 308.345 103.232C308.976 102.934 309.621 101.831 309.59 101.124C309.544 99.8323 309.39 97.8493 308.589 97.4086C306.394 96.203 303.838 95.6436 301.423 94.829V89.507C304.076 89.5748 306.733 89.5589 309.372 89.7329C311.847 89.8979 311.462 87.7669 312.201 86.5149C312.925 85.29 312.504 84.4844 311.47 83.6516C309.166 81.7917 306.948 79.8279 304.653 77.8697C305.412 76.5771 306.056 75.4844 306.771 74.2652C309.709 75.2969 312.544 76.1884 315.292 77.2991C316.638 77.8415 317.427 77.5296 318.069 76.3805C318.762 75.1353 320.784 74.4618 319.377 72.3511C317.742 69.8912 316.421 67.219 314.904 64.5444C316.05 63.5806 317.062 62.7241 318.11 61.8416C320.598 63.8947 322.98 65.6969 325.165 67.7139C326.809 69.2314 327.762 67.7184 328.951 67.1749C330.074 66.663 331.012 66.1658 330.63 64.4879C329.972 61.5986 329.619 58.6371 329.113 55.5354C330.451 55.0348 331.691 54.5716 332.993 54.0834C334.605 56.7919 336.248 59.1975 337.51 61.7896C338.528 63.8935 339.99 62.88 341.387 62.8145C342.854 62.7455 343.698 62.1783 343.931 60.5704C344.327 57.7817 344.936 55.0247 345.452 52.2529H349.808L349.809 52.2541ZM346.284 70.298C340.344 70.0155 331.671 73.4121 329.522 76.6969C333.748 81.7217 337.991 86.7669 342.184 91.7533C344.919 90.7913 346.285 88.9763 346.284 86.3081V70.298ZM338.489 129.051C344.7 130.856 350.527 130.903 356.655 129.036C354.392 122.796 352.296 116.907 350.066 111.07C349.86 110.532 348.745 110.013 348.084 110.057C347.041 110.124 345.363 110.406 345.109 111.056C342.807 116.866 340.755 122.775 338.489 129.052V129.051ZM365.847 76.4132C361.147 72.3952 353.05 69.5929 348.813 70.5353V86.6121C348.813 89.3156 350.228 90.9887 353.06 91.6312C357.264 86.6267 361.502 81.5838 365.847 76.4132ZM377.446 96.273C370.94 97.4244 364.719 98.5035 358.505 99.6719C358.061 99.7555 357.563 100.414 357.384 100.91C356.667 102.891 356.692 104.533 359.136 105.489C360.912 106.18 362.493 107.363 364.166 108.323C367.49 110.23 370.812 112.132 374.384 114.177C377.162 108.389 378.385 102.679 377.446 96.273ZM320.927 114.106C326.534 110.868 332.03 107.719 337.491 104.513C337.861 104.29 338.214 103.601 338.17 103.171C337.966 101.172 337.726 99.1566 334.886 99.2594C333.944 99.2933 332.988 98.9498 332.041 98.7837C327.317 97.9623 322.592 97.1442 317.9 96.3284C316.595 101.159 317.908 108.915 320.927 114.107V114.106ZM340.176 93.4606C335.912 88.3849 331.605 83.2561 327.173 77.9827C322.56 82.5194 319.4 87.4188 318.223 93.751C323.645 94.699 328.782 95.5962 333.91 96.4911C336.622 96.9657 338.712 95.9559 340.178 93.4617L340.176 93.4606ZM322.129 116.44C325.67 121.841 330.156 125.601 336.037 128.149C338.303 121.9 340.543 115.967 342.517 109.946C342.724 109.326 341.498 108.077 340.719 107.353C340.28 106.944 339.202 106.657 338.748 106.914C333.277 109.964 327.867 113.128 322.13 116.441L322.129 116.44ZM367.911 78.0449C363.497 83.2957 359.225 88.3861 355.001 93.4143C356.386 95.98 358.377 97.0263 360.976 96.5532C362.403 96.2967 363.827 96.0629 365.251 95.8086C369.103 95.1194 372.954 94.429 377.017 93.6968C375.568 87.4075 372.634 82.3499 367.91 78.0437L367.911 78.0449ZM373.009 116.456C367.028 112.992 361.289 109.668 355.609 106.38C353.313 108.123 352.614 110.245 353.513 112.746C355.067 117.054 356.614 121.362 358.183 125.665C358.472 126.451 358.835 127.21 359.217 128.107C365.008 125.554 369.402 121.843 373.009 116.456Z" fill="white"/>
<path fill-rule="evenodd" clip-rule="evenodd" d="M32.6507 125.846C32.358 126.581 32.0654 127.317 31.7783 128.053C31.288 127.433 30.7817 126.827 30.314 126.187C29.8721 125.585 29.4721 124.419 29.071 124.428C27.9309 124.449 28.4597 125.671 28.175 126.352C27.8665 127.084 27.5004 128.409 27.1705 128.404C25.9682 128.393 26.2823 127.126 25.9897 126.344C25.7434 125.682 25.5027 124.551 25.123 124.492C23.9908 124.317 24.2654 125.577 23.8801 126.207C23.4654 126.88 22.8914 128.103 22.5422 128.053C21.4055 127.889 21.9276 126.724 21.7784 125.948C21.6349 125.217 21.4044 124.501 21.2101 123.781C20.7016 124.317 20.1999 124.865 19.6779 125.39C19.1197 125.95 18.5434 126.489 17.9694 127.038C17.8587 126.253 17.731 125.47 17.6361 124.683C17.5491 123.946 17.5005 123.205 17.4361 122.464C16.8462 122.926 16.2236 123.351 15.6734 123.856C15.0892 124.404 14.7366 125.565 13.74 125.023C13.4451 124.864 13.7186 123.622 13.7672 122.879C13.8191 122.098 14.9615 121.257 13.9457 120.633C13.6124 120.426 12.635 121.297 11.9367 121.637C11.2621 121.962 10.566 122.238 9.88695 122.538C10.0169 121.801 10.1175 121.056 10.2881 120.33C10.4666 119.568 11.1276 118.43 10.8542 118.141C10.0338 117.272 9.45983 118.584 8.7073 118.786C7.98188 118.978 7.25081 119.122 6.522 119.287C6.77623 118.591 7.00448 117.883 7.3073 117.208C7.62708 116.489 8.5073 115.479 8.296 115.161C7.58075 114.097 6.76606 115.314 5.96494 115.436C5.835 115.456 5.71296 115.584 5.59093 115.586C5.00675 115.594 4.41579 115.577 3.83388 115.57C4.07455 115.005 4.22596 114.367 4.5898 113.896C4.96381 113.412 5.58867 113.131 6.02482 112.683C6.23273 112.466 6.43951 111.95 6.32765 111.787C6.14912 111.523 5.69149 111.287 5.37511 111.314C4.62257 111.381 3.88585 111.698 3.13106 111.733C2.67117 111.755 2.19095 111.441 1.72089 111.28C1.95705 110.88 2.11072 110.383 2.4497 110.107C2.96157 109.688 3.65196 109.482 4.17399 109.07C4.50732 108.809 4.67455 108.341 4.91297 107.966C4.49602 107.782 4.09263 107.487 3.66439 107.439C3.04744 107.376 2.39208 107.598 1.7853 107.499C1.33333 107.422 0.932198 107.028 0.503952 106.777C0.804515 106.428 1.03728 105.964 1.41129 105.763C2.03954 105.425 2.78642 105.32 3.41693 104.99C3.74461 104.819 3.93105 104.373 4.17738 104.05C3.87907 103.822 3.60902 103.477 3.27569 103.394C2.53671 103.213 1.74349 103.25 1.02033 103.03C0.630505 102.913 0.332202 102.456 0 102.156C0.35254 101.855 0.661013 101.443 1.06892 101.282C1.59999 101.076 2.23841 101.145 2.77739 100.949C3.26213 100.776 3.67117 100.404 4.11523 100.121C3.69602 99.7886 3.30846 99.3954 2.84744 99.1445C2.42259 98.9129 1.85084 98.9242 1.4531 98.6654C1.01129 98.3807 0.698301 97.9118 0.320902 97.5219C0.815815 97.2926 1.28474 96.9581 1.80677 96.8643C2.41016 96.7547 3.06891 96.9253 3.6836 96.8293C4.0576 96.7717 4.3932 96.4474 4.74235 96.2417C4.51749 95.8993 4.36382 95.453 4.05195 95.2372C3.42597 94.8078 2.66552 94.5717 2.05649 94.1265C1.75366 93.9061 1.65536 93.4067 1.46101 93.0327C1.84519 92.8632 2.23841 92.5446 2.61467 92.5615C3.4158 92.5977 4.20111 92.8666 5.00562 92.9254C5.34121 92.948 5.86098 92.7626 5.98528 92.5163C6.10166 92.2892 5.90392 91.7468 5.66889 91.5231C5.08924 90.9672 4.35817 90.5604 3.78981 89.9932C3.52201 89.7242 3.48925 89.2226 3.348 88.8237C3.74913 88.7062 4.18416 88.4316 4.55026 88.505C5.28359 88.6553 5.96833 89.0508 6.70844 89.2293C7.08697 89.3186 7.52651 89.1593 7.93781 89.1129C7.83272 88.6847 7.83272 88.1841 7.59883 87.844C7.16832 87.2203 6.53443 86.7356 6.12652 86.1005C5.92878 85.7977 5.92087 85.2248 6.08019 84.896C6.16381 84.7254 6.85759 84.6881 7.16606 84.8237C7.90504 85.1435 8.5604 85.6497 9.29147 85.9875C9.60559 86.131 10.0203 86.0429 10.3909 86.061C10.3988 85.6565 10.5423 85.1921 10.3909 84.8599C10.0338 84.0892 9.49486 83.4068 9.12989 82.6395C9.00221 82.374 9.03837 81.7842 9.20786 81.6723C9.4813 81.4994 10.0259 81.4554 10.2903 81.6226C10.9672 82.0508 11.5163 82.6768 12.1909 83.1119C12.5344 83.3345 13.0361 83.3096 13.4689 83.4C13.5016 82.9921 13.6361 82.5604 13.5389 82.1887C13.3818 81.5864 12.9672 81.0418 12.8598 80.4395C12.7705 79.9333 12.9604 79.3774 13.027 78.8407C13.5276 79.0554 14.1073 79.1774 14.5027 79.5141C15.0112 79.939 15.3231 80.5876 15.8135 81.0441C16.0496 81.2689 16.5931 81.4554 16.8146 81.3322C17.0609 81.191 17.2293 80.6667 17.1965 80.3333C17.1072 79.4881 16.8282 78.6633 16.7547 77.8192C16.7276 77.4995 16.9909 76.9447 17.2338 76.8678C17.5095 76.7842 18.0383 77.0317 18.2349 77.2983C18.7174 77.939 19.0225 78.713 19.5027 79.3582C19.7276 79.6599 20.1875 79.7842 20.54 79.9898C20.7185 79.6203 21.0168 79.2633 21.0462 78.8814C21.1197 78.0814 20.9841 77.2599 21.0654 76.461C21.0982 76.1356 21.4259 75.6271 21.6767 75.5932C21.9615 75.5514 22.4507 75.8723 22.6021 76.1627C22.9682 76.878 23.1332 77.6927 23.4846 78.4124C23.6552 78.7616 24.0744 78.9864 24.3829 79.2667C24.6292 78.9345 24.9919 78.6339 25.0925 78.2633C25.279 77.5763 25.2247 76.8204 25.4338 76.1413C25.5558 75.73 25.9806 75.4068 26.2676 75.043C26.5795 75.3763 27.0224 75.6577 27.1772 76.0531C27.3998 76.6283 27.3456 77.3062 27.5377 77.8972C27.6891 78.3548 28.0417 78.7446 28.3061 79.165C28.636 78.8113 29.0642 78.5062 29.2778 78.0915C29.5671 77.5401 29.6055 76.861 29.906 76.3209C30.1173 75.9334 30.5806 75.6848 30.932 75.3729C31.1648 75.7684 31.5411 76.1413 31.6032 76.5627C31.7117 77.2644 31.5512 78.0045 31.6382 78.7107C31.6846 79.0961 32.0089 79.4475 32.2089 79.8136C32.5524 79.591 33.0021 79.4452 33.219 79.1345C33.6574 78.5141 33.9038 77.7616 34.3512 77.1503C34.5738 76.843 35.0574 76.7254 35.4292 76.5221C35.6021 76.8972 35.9275 77.2746 35.9218 77.6475C35.9105 78.3571 35.6506 79.0633 35.6235 79.7751C35.6077 80.2113 35.8269 80.6576 35.9456 81.096C36.3467 80.9051 36.8258 80.7943 37.1365 80.5017C37.5885 80.0768 37.8563 79.4509 38.3252 79.0463C38.6857 78.7322 39.2269 78.6249 39.6868 78.4249C39.7738 78.9096 39.9851 79.4136 39.9195 79.8746C39.8246 80.4825 39.4427 81.0452 39.3162 81.6531C39.2269 82.078 39.3512 82.5491 39.3817 83C39.8472 82.861 40.3783 82.8158 40.7681 82.5604C41.3557 82.1684 41.8133 81.5684 42.4065 81.1751C42.6902 80.9876 43.2811 80.9062 43.4924 81.0768C43.7116 81.2475 43.793 81.8475 43.6653 82.1548C43.3647 82.8983 42.8529 83.5525 42.5387 84.2949C42.3952 84.6429 42.506 85.1005 42.5015 85.5096C42.9071 85.4847 43.3647 85.5717 43.7037 85.4124C44.4291 85.0678 45.0675 84.5378 45.802 84.2101C46.0969 84.0757 46.6924 84.1401 46.8709 84.3525C47.0494 84.5593 47.0065 85.1559 46.8246 85.4282C46.3884 86.0994 45.7636 86.6497 45.3161 87.3163C45.1071 87.6282 45.1432 88.0983 45.0698 88.4949C45.4732 88.5435 45.9116 88.7152 46.2777 88.6169C47.0088 88.418 47.6822 87.9988 48.4189 87.8192C48.776 87.7322 49.2178 87.9785 49.6212 88.0734C49.5105 88.4791 49.5127 88.9898 49.2607 89.2723C48.7568 89.8372 48.0664 90.2305 47.55 90.783C47.2935 91.0519 47.2415 91.5186 47.098 91.896C47.4958 92.0169 47.9025 92.2632 48.2811 92.2293C49.0314 92.1593 49.7681 91.853 50.5195 91.7999C50.8958 91.7739 51.2969 92.0948 51.6845 92.2587C51.4946 92.6361 51.4031 93.1287 51.1025 93.3626C50.5093 93.8259 49.7568 94.0948 49.15 94.5502C48.8494 94.7773 48.7218 95.2383 48.5082 95.5909C48.8788 95.7683 49.2393 96.0666 49.6212 96.0971C50.3771 96.1638 51.1534 96.0056 51.9059 96.0914C52.2765 96.1344 52.6076 96.5095 52.9568 96.7344C52.7104 97.0767 52.5398 97.5592 52.2065 97.7355C51.541 98.0903 50.7556 98.2214 50.0754 98.557C49.7319 98.7276 49.5127 99.1445 49.2336 99.4496C49.5613 99.6959 49.854 100.065 50.2246 100.166C50.9556 100.363 51.7489 100.338 52.472 100.548C52.8347 100.655 53.1082 101.076 53.42 101.354C53.1217 101.652 52.8788 102.081 52.5263 102.213C51.9466 102.432 51.2732 102.378 50.6878 102.578C50.1929 102.748 49.7669 103.116 49.3093 103.395C49.7534 103.751 50.1624 104.177 50.6551 104.441C51.1613 104.712 51.7974 104.752 52.2957 105.034C52.6336 105.227 52.8347 105.662 53.0946 105.99C52.7568 106.235 52.4426 106.624 52.0765 106.691C51.4234 106.811 50.7251 106.668 50.0653 106.758C49.5884 106.826 49.1444 107.098 48.6901 107.28C49.0201 107.689 49.2935 108.174 49.6969 108.49C50.1466 108.846 50.7715 108.983 51.2133 109.346C51.5522 109.624 51.7195 110.106 51.9658 110.499C51.5003 110.68 51.0426 110.999 50.5749 111.012C49.9636 111.03 49.3455 110.734 48.7229 110.709C48.2924 110.691 47.8506 110.899 47.4155 111.004C47.6235 111.441 47.7432 111.956 48.0574 112.288C48.5794 112.835 49.2698 113.224 49.8031 113.761C50.0088 113.97 50.1715 114.543 50.0415 114.7C49.8381 114.955 49.341 115.174 49.0314 115.108C48.2494 114.937 47.515 114.53 46.7353 114.352C46.3342 114.263 45.8721 114.466 45.4359 114.535C45.5444 114.929 45.5602 115.389 45.7828 115.703C46.1975 116.283 46.811 116.729 47.1873 117.327C47.4099 117.677 47.3466 118.209 47.4099 118.66C46.9545 118.666 46.4427 118.804 46.0483 118.65C45.3873 118.394 44.8223 117.891 44.1659 117.614C43.8223 117.469 43.3704 117.581 42.9692 117.575C42.9964 117.983 42.9128 118.444 43.0743 118.786C43.4133 119.513 43.9512 120.15 44.2766 120.881C44.4122 121.176 44.3579 121.772 44.1466 121.955C43.9433 122.133 43.3455 122.09 43.0743 121.912C42.3647 121.443 41.7693 120.804 41.0709 120.325C40.7975 120.139 40.2393 120.038 40.0201 120.193C39.8088 120.346 39.7229 120.908 39.8145 121.226C40.0065 121.914 40.4404 122.538 40.5941 123.229C40.6969 123.687 40.4969 124.216 40.4291 124.714C39.9636 124.549 39.4246 124.479 39.0484 124.192C38.5986 123.845 38.3422 123.254 37.9083 122.877C37.5433 122.562 37.0472 122.404 36.6145 122.177C36.5094 122.653 36.2947 123.133 36.3196 123.603C36.3569 124.313 36.6314 125.01 36.6665 125.721C36.6857 126.055 36.4574 126.604 36.2111 126.694C35.9489 126.79 35.4156 126.555 35.1987 126.296C34.7761 125.783 34.5456 125.112 34.1286 124.592C33.8066 124.187 33.3241 123.909 32.9105 123.575C32.7286 124.074 32.5207 124.566 32.3693 125.077C32.3072 125.282 32.3614 125.522 32.3614 125.748C32.4563 125.781 32.5512 125.812 32.6461 125.845L32.6507 125.846ZM36.184 117.28C33.9264 114.167 31.7252 111.112 29.4801 108.09C29.3128 107.856 28.8247 107.778 28.4812 107.767C27.2846 107.724 26.0846 107.723 24.8914 107.748C24.5795 107.756 24.1445 107.829 23.9874 108.041C21.7242 111.09 19.5016 114.172 17.2733 117.235C21.7377 120.925 31.0597 120.958 36.1851 117.281L36.184 117.28ZM9.13215 97.5423C6.99883 102.965 10.1604 112.725 14.8858 115.42C16.8383 112.744 18.7547 110.031 20.766 107.389C21.5321 106.384 22.001 105.575 21.1072 104.35C20.6711 103.752 20.7287 102.808 20.5061 102.036C20.4055 101.694 20.236 101.191 19.9807 101.105C16.3739 99.8812 12.7468 98.7174 9.13215 97.5423ZM38.5885 115.489C44.3014 111.168 46.1557 102.315 44.2438 97.566C41.0088 98.6112 37.7761 99.6937 34.5162 100.689C33.4733 101.009 32.8269 101.358 32.8111 102.645C32.8055 103.483 32.2213 104.307 31.9501 105.156C31.8416 105.489 31.7252 105.985 31.888 106.215C34.0913 109.325 36.3467 112.402 38.5885 115.489ZM10.0033 94.6835C13.6768 95.8779 17.2485 97.0609 20.844 98.1807C21.1445 98.2722 21.6259 97.9943 21.94 97.7784C22.7547 97.2349 23.462 96.5005 24.3332 96.0835C25.0371 95.7445 25.2134 95.357 25.21 94.6542C25.1806 91.6429 25.1965 88.6316 25.1965 85.6226V83.6565C18.644 84.0248 12.1254 88.7649 10.0022 94.6835H10.0033ZM43.4348 94.6756C41.158 88.6 33.6145 83.2169 28.2304 83.7989C28.2304 87.1887 28.2744 90.5966 28.2089 94.0011C28.1874 95.1479 28.3738 95.8993 29.601 96.3265C30.3162 96.5773 30.8439 97.3253 31.5038 97.7875C31.8156 98.0055 32.2992 98.2756 32.6032 98.1841C36.1964 97.0609 39.7693 95.8734 43.4359 94.6756H43.4348Z" fill="white"/>
</g>
</svg>
