<svg width="339" height="352" viewBox="0 0 339 352" fill="none" xmlns="http://www.w3.org/2000/svg">
<g opacity="0.3">
<path d="M34.4209 89.4209C62.9121 115.702 131.831 166.347 179.579 158.684C227.326 151.021 291.824 169.737 318.105 180.052" stroke="url(#paint0_radial_0_929)" stroke-width="0.990292"/>
<path d="M51.3682 79.8398C54.3155 82.7872 113.263 141.735 174.421 143.945C235.579 146.156 273.894 136.577 320.315 163.103" stroke="url(#paint1_radial_0_929)" stroke-width="0.990292"/>
<path d="M25.5791 98.2627C45.4738 120.122 97.7896 165.61 147.895 172.684C210.526 181.526 262.105 163.105 313.684 194.052" stroke="url(#paint2_radial_0_929)" stroke-width="0.990292"/>
<path d="M66.8428 72.4756C84.527 90.1598 130.948 125.97 175.158 127.739C230.422 129.949 290.843 124.791 324.737 146.16" stroke="url(#paint3_radial_0_929)" stroke-width="0.990292"/>
<path d="M13.0527 109.315C30.0001 128.965 72.4422 169.884 106.632 176.368C149.369 184.473 214.211 191.842 293.79 200.684" stroke="url(#paint4_radial_0_929)" stroke-width="0.990292"/>
<path d="M83.7891 62.1611C104.666 78.126 154.968 110.351 189.157 111.53C231.894 113.003 312.947 104.898 337.999 124.793" stroke="url(#paint5_radial_0_929)" stroke-width="0.990292"/>
<path d="M103.685 51.1045C112.527 53.315 154.527 84.9992 178.842 87.9466C203.158 90.8939 315.158 83.5255 338 114.473" stroke="url(#paint6_radial_0_929)" stroke-width="0.990292"/>
<path d="M6.42188 121.106C11.5798 126.264 44.0008 172.685 83.7903 184.475C123.58 196.264 173.685 197.738 215.685 208.054C257.685 218.37 278.316 222.791 292.316 217.633" stroke="url(#paint7_radial_0_929)" stroke-width="0.990292"/>
<path d="M-0.947266 129.211C11.579 148.369 42.0843 188.453 63.8948 195.527C91.1579 204.369 131.684 203.632 156 213.211C180.316 222.79 220.842 228.685 249.579 231.632C272.568 233.99 294.035 232.614 301.894 231.632" stroke="url(#paint8_radial_0_929)" stroke-width="0.990292"/>
<path d="M-12 134.368C1.26315 156.473 31.621 202.01 46.9473 207.315C66.1052 213.947 74.9473 202.158 97.7894 219.105C120.631 236.052 121.368 213.21 170.737 235.315C220.105 257.421 286.421 245.631 298.947 240.473" stroke="url(#paint9_radial_0_929)" stroke-width="0.990292"/>
<path d="M114.246 304.581C140.527 276.09 191.172 207.171 183.509 159.423C175.846 111.676 194.562 47.1777 204.878 20.897" stroke="url(#paint10_radial_0_929)" stroke-width="0.990292"/>
<path d="M104.667 287.631C107.614 284.683 166.562 225.736 168.772 164.578C170.983 103.42 161.404 65.1047 187.93 18.6837" stroke="url(#paint11_radial_0_929)" stroke-width="0.990292"/>
<path d="M123.087 313.419C144.947 293.524 190.434 241.208 197.508 191.103C206.35 128.472 187.929 76.8929 218.876 25.314" stroke="url(#paint12_radial_0_929)" stroke-width="0.990292"/>
<path d="M97.2979 272.155C114.982 254.471 150.793 208.05 152.561 163.84C154.771 108.577 149.614 48.1555 170.982 14.2608" stroke="url(#paint13_radial_0_929)" stroke-width="0.990292"/>
<path d="M134.14 325.947C153.789 309 194.708 266.558 201.192 232.368C209.297 189.632 216.666 124.789 225.508 45.2105" stroke="url(#paint14_radial_0_929)" stroke-width="0.990292"/>
<path d="M86.9824 255.211C102.947 234.334 135.172 184.032 136.351 149.843C137.825 107.106 129.719 26.0532 149.614 1.00059" stroke="url(#paint15_radial_0_929)" stroke-width="0.990292"/>
<path d="M75.9307 235.315C78.1412 226.473 109.825 184.473 112.773 160.158C115.72 135.842 108.352 23.8419 139.299 0.999863" stroke="url(#paint16_radial_0_929)" stroke-width="0.990292"/>
<path d="M145.93 332.578C151.088 327.42 197.509 294.999 209.298 255.21C221.088 215.42 222.561 165.315 232.877 123.315C243.193 81.3151 247.614 60.6835 242.456 46.6835" stroke="url(#paint17_radial_0_929)" stroke-width="0.990292"/>
<path d="M154.035 339.946C173.193 327.42 213.277 296.915 220.351 275.104C229.193 247.841 228.456 207.315 238.035 182.999C247.614 158.683 253.509 118.157 256.456 89.4203C258.814 66.4308 257.439 44.9642 256.456 37.1045" stroke="url(#paint18_radial_0_929)" stroke-width="0.990292"/>
<path d="M159.193 351C181.299 337.737 226.835 307.379 232.141 292.053C238.772 272.895 226.983 264.053 243.93 241.211C260.877 218.368 238.035 217.632 260.141 168.263C282.246 118.895 270.456 52.579 265.299 40.0527" stroke="url(#paint19_radial_0_929)" stroke-width="0.990292"/>
</g>
<defs>
<radialGradient id="paint0_radial_0_929" cx="0" cy="0" r="1" gradientUnits="userSpaceOnUse" gradientTransform="translate(176.263 134.737) rotate(90) scale(45.3158 141.842)">
<stop stop-color="#413F3E"/>
<stop offset="1" stop-color="white" stop-opacity="0"/>
</radialGradient>
<radialGradient id="paint1_radial_0_929" cx="0" cy="0" r="1" gradientUnits="userSpaceOnUse" gradientTransform="translate(185.842 121.471) rotate(90) scale(41.6315 134.474)">
<stop stop-color="#413F3E"/>
<stop offset="1" stop-color="white" stop-opacity="0"/>
</radialGradient>
<radialGradient id="paint2_radial_0_929" cx="0" cy="0" r="1" gradientUnits="userSpaceOnUse" gradientTransform="translate(169.632 146.157) rotate(90) scale(47.8947 144.053)">
<stop stop-color="#413F3E"/>
<stop offset="1" stop-color="white" stop-opacity="0"/>
</radialGradient>
<radialGradient id="paint3_radial_0_929" cx="0" cy="0" r="1" gradientUnits="userSpaceOnUse" gradientTransform="translate(195.79 109.318) rotate(90) scale(36.8421 128.947)">
<stop stop-color="#413F3E"/>
<stop offset="1" stop-color="white" stop-opacity="0"/>
</radialGradient>
<radialGradient id="paint4_radial_0_929" cx="0" cy="0" r="1" gradientUnits="userSpaceOnUse" gradientTransform="translate(153.421 155) rotate(90) scale(45.6842 140.368)">
<stop stop-color="#413F3E"/>
<stop offset="1" stop-color="white" stop-opacity="0"/>
</radialGradient>
<radialGradient id="paint5_radial_0_929" cx="0" cy="0" r="1" gradientUnits="userSpaceOnUse" gradientTransform="translate(210.894 93.4769) rotate(90) scale(31.3158 127.105)">
<stop stop-color="#413F3E"/>
<stop offset="1" stop-color="white" stop-opacity="0"/>
</radialGradient>
<radialGradient id="paint6_radial_0_929" cx="0" cy="0" r="1" gradientUnits="userSpaceOnUse" gradientTransform="translate(220.842 82.7887) rotate(90) scale(31.6842 117.158)">
<stop stop-color="#413F3E"/>
<stop offset="1" stop-color="white" stop-opacity="0"/>
</radialGradient>
<radialGradient id="paint7_radial_0_929" cx="0" cy="0" r="1" gradientUnits="userSpaceOnUse" gradientTransform="translate(149.369 170.45) rotate(90) scale(49.3437 142.947)">
<stop stop-color="#413F3E"/>
<stop offset="1" stop-color="white" stop-opacity="0"/>
</radialGradient>
<radialGradient id="paint8_radial_0_929" cx="0" cy="0" r="1" gradientUnits="userSpaceOnUse" gradientTransform="translate(150.474 181.072) rotate(90) scale(51.8615 151.421)">
<stop stop-color="#413F3E"/>
<stop offset="1" stop-color="white" stop-opacity="0"/>
</radialGradient>
<radialGradient id="paint9_radial_0_929" cx="0" cy="0" r="1" gradientUnits="userSpaceOnUse" gradientTransform="translate(143.474 191.315) rotate(90) scale(56.9465 155.474)">
<stop stop-color="#413F3E"/>
<stop offset="1" stop-color="white" stop-opacity="0"/>
</radialGradient>
<radialGradient id="paint10_radial_0_929" cx="0" cy="0" r="1" gradientUnits="userSpaceOnUse" gradientTransform="translate(159.562 162.739) scale(45.3158 141.842)">
<stop stop-color="#413F3E"/>
<stop offset="1" stop-color="white" stop-opacity="0"/>
</radialGradient>
<radialGradient id="paint11_radial_0_929" cx="0" cy="0" r="1" gradientUnits="userSpaceOnUse" gradientTransform="translate(146.299 153.157) scale(41.6315 134.474)">
<stop stop-color="#413F3E"/>
<stop offset="1" stop-color="white" stop-opacity="0"/>
</radialGradient>
<radialGradient id="paint12_radial_0_929" cx="0" cy="0" r="1" gradientUnits="userSpaceOnUse" gradientTransform="translate(170.982 169.366) scale(47.8947 144.052)">
<stop stop-color="#413F3E"/>
<stop offset="1" stop-color="white" stop-opacity="0"/>
</radialGradient>
<radialGradient id="paint13_radial_0_929" cx="0" cy="0" r="1" gradientUnits="userSpaceOnUse" gradientTransform="translate(134.14 143.208) scale(36.8421 128.947)">
<stop stop-color="#413F3E"/>
<stop offset="1" stop-color="white" stop-opacity="0"/>
</radialGradient>
<radialGradient id="paint14_radial_0_929" cx="0" cy="0" r="1" gradientUnits="userSpaceOnUse" gradientTransform="translate(179.824 185.579) scale(45.6842 140.368)">
<stop stop-color="#413F3E"/>
<stop offset="1" stop-color="white" stop-opacity="0"/>
</radialGradient>
<radialGradient id="paint15_radial_0_929" cx="0" cy="0" r="1" gradientUnits="userSpaceOnUse" gradientTransform="translate(118.298 128.106) scale(31.3158 127.105)">
<stop stop-color="#413F3E"/>
<stop offset="1" stop-color="white" stop-opacity="0"/>
</radialGradient>
<radialGradient id="paint16_radial_0_929" cx="0" cy="0" r="1" gradientUnits="userSpaceOnUse" gradientTransform="translate(107.615 118.158) scale(31.6842 117.158)">
<stop stop-color="#413F3E"/>
<stop offset="1" stop-color="white" stop-opacity="0"/>
</radialGradient>
<radialGradient id="paint17_radial_0_929" cx="0" cy="0" r="1" gradientUnits="userSpaceOnUse" gradientTransform="translate(195.273 189.631) scale(49.3437 142.947)">
<stop stop-color="#413F3E"/>
<stop offset="1" stop-color="white" stop-opacity="0"/>
</radialGradient>
<radialGradient id="paint18_radial_0_929" cx="0" cy="0" r="1" gradientUnits="userSpaceOnUse" gradientTransform="translate(205.897 188.525) scale(51.8615 151.421)">
<stop stop-color="#413F3E"/>
<stop offset="1" stop-color="white" stop-opacity="0"/>
</radialGradient>
<radialGradient id="paint19_radial_0_929" cx="0" cy="0" r="1" gradientUnits="userSpaceOnUse" gradientTransform="translate(216.14 195.526) scale(56.9465 155.474)">
<stop stop-color="#413F3E"/>
<stop offset="1" stop-color="white" stop-opacity="0"/>
</radialGradient>
</defs>
</svg>
