<svg width="1920" height="300" viewBox="0 0 1920 300" fill="none" xmlns="http://www.w3.org/2000/svg">
<path opacity="0.03" fill-rule="evenodd" clip-rule="evenodd" d="M1526.78 176.485V157.828C1538.71 164.051 1550.65 170.262 1562.58 176.485H1526.78ZM1561.97 169.897C1551.28 164.352 1540.6 158.82 1529.92 153.275C1538.98 148.434 1548.04 143.594 1557.09 138.741C1558.72 149.126 1560.34 159.511 1561.97 169.897ZM1555.35 127.572C1546.91 122.354 1538.48 117.122 1530.04 111.89C1537 107.689 1543.96 103.488 1550.92 99.2868C1552.39 108.72 1553.86 118.153 1555.34 127.572H1555.35ZM1548.78 85.6267C1542.01 80.434 1535.25 75.2414 1528.49 70.0487C1533.79 65.8737 1539.09 61.6987 1544.39 57.5237C1545.85 66.8914 1547.32 76.259 1548.78 85.6397V85.6267ZM1542.23 43.7071C1537.26 38.3317 1532.28 32.9695 1527.3 27.5942C1530.86 23.9019 1534.42 20.1966 1537.99 16.5043C1539.4 25.5719 1540.82 34.6395 1542.23 43.7071ZM1534.38 12.6424C1531.84 15.3692 1529.31 18.096 1526.77 20.8228V12.6424H1534.38ZM1521.73 12.6424V21.5795C1518.97 18.6049 1516.21 15.6302 1513.44 12.6424H1521.73ZM1510.61 15.5649C1514.08 19.3746 1517.56 23.1843 1521.05 26.994C1516.15 32.2649 1511.27 37.5228 1506.37 42.7938C1507.78 33.7131 1509.2 24.6456 1510.61 15.5649ZM1504.04 57.7716C1509.35 61.9075 1514.66 66.0303 1519.97 70.1661C1513.15 75.7502 1506.33 81.3343 1499.51 86.9183C1501.02 77.1984 1502.53 67.4915 1504.04 57.7716ZM1497.93 131.278H1521.73V116.913C1513.8 121.701 1505.86 126.49 1497.93 131.278ZM1526.77 131.278H1549.85C1542.15 126.281 1534.47 121.284 1526.77 116.287V131.278ZM1551.4 136.301H1526.77V149.713C1534.98 145.238 1543.18 140.776 1551.4 136.301ZM1502.56 90.4671H1521.72V75.3718C1515.33 80.4079 1508.94 85.444 1502.56 90.4671ZM1526.77 90.4671H1546.06C1539.63 85.4701 1533.2 80.4601 1526.77 75.4632V90.4671ZM1545.55 95.4901H1526.77V107.324C1533.02 103.383 1539.29 99.4433 1545.55 95.4901ZM1521.73 95.4901H1503.55C1509.6 99.2476 1515.66 103.005 1521.73 106.75V95.4901ZM1507.26 48.4039H1521.73V33.3739C1516.91 38.3839 1512.08 43.3939 1507.26 48.4039ZM1526.77 48.4039H1540.6C1535.99 43.3548 1531.38 38.3056 1526.77 33.2695V48.4039ZM1540.39 53.427H1526.77V64.5821C1531.32 60.8637 1535.86 57.1453 1540.39 53.427ZM1521.72 53.427H1506.83C1511.79 57.2367 1516.75 61.0464 1521.72 64.8561V53.427ZM1342.18 102.692L1342.11 150.992L1316.04 170.184V123.776C1316.04 116.417 1310.43 110.298 1304.27 109.242V102.144L1342.17 102.679L1342.18 102.692ZM1376.09 129.203L1374.97 102.131H1406.82C1408.12 102.131 1408.47 102.744 1408.47 103.814V129.086L1376.1 129.203H1376.09ZM1616.32 155.454H1647.88C1646.11 127.259 1644.34 99.0519 1642.57 70.8576H1622.14C1620.2 99.0519 1618.27 127.259 1616.33 155.454H1616.32ZM1700.62 155.454H1732.21C1730.45 127.259 1728.69 99.0519 1726.92 70.8576H1706.43C1704.49 99.0519 1702.56 127.259 1700.62 155.454ZM1493.06 128.668L1497.85 97.5124C1505.16 102.248 1512.45 106.997 1519.75 111.734L1493.06 128.668ZM1498.22 136.836C1498.35 136.666 1498.47 136.496 1498.56 136.301H1521.72V149.021L1498.22 136.836ZM1088.45 211.19H1052.63L1058.55 203.023H1075.59V197.451H1080.28V203.023H1082.51L1088.43 211.19H1088.45ZM1179.6 202.292H1095.22L1109.18 183.061H1149.33V169.949H1160.39V183.061H1165.62L1179.59 202.292H1179.6ZM1496.79 166.035L1496.04 152.988H1489.24L1491.41 139.315L1519.18 153.849L1496.79 166.048V166.035ZM1497.38 176.472L1497.06 170.849L1521.74 157.645V176.472H1497.38ZM1004.18 219.605C1005.13 220.049 1006.28 220.205 1007.3 220.349C1007.11 216.696 1007.07 220.127 1005.13 219.422C1004.86 219.318 1004.52 219.409 1004.18 219.605ZM1011.78 229.703C1011.71 228.451 1011.63 226.964 1011.5 225.202C1011.45 223.206 1011.33 221.379 1011.5 220.244C1013.11 219.944 1014.46 221.197 1014.85 221.014C1018.38 219.37 1021.48 219.409 1025.01 220.792C1025.49 217.661 1025.35 219.997 1027.69 218.718C1029.14 217.922 1028.33 215.913 1030.25 214.582C1029.57 212.964 1029.4 212.977 1031.07 213.695C1030.9 211.881 1032.03 209.037 1033.84 208.359C1032.96 206.78 1032.92 206.78 1033.61 205.097C1033.93 205.436 1034.25 205.788 1034.58 206.141C1035.05 203.479 1035.55 200.544 1033.84 198.078C1033.19 197.112 1031.97 197.647 1031.97 197.647C1031.45 195.338 1030.66 194.242 1032.87 196.316C1032.87 196.316 1034.3 195.351 1034.66 194.529C1034.74 189.663 1038.02 189.571 1038.02 189.128C1038.02 188.684 1036.23 187.092 1037.29 185.396C1037.29 184.835 1035.97 183.726 1035.03 183.204C1032.64 181.704 1031.8 182.134 1033.09 178.834C1032.67 176.25 1029.27 177.359 1032.79 175.507C1032.79 175.507 1033.54 174.241 1033.54 173.876C1033.54 172.571 1031.89 173.015 1031.89 170.927C1031.89 170.849 1031.88 170.927 1030.62 169.675C1029.15 168.213 1026.53 169.818 1029.05 168.331C1029.05 168.331 1027.85 167.378 1027.25 166.713C1025.23 164.534 1022.99 168.788 1023.83 164.417C1023.83 164.417 1022.93 162.421 1022.93 161.612C1022.93 158.807 1017.56 161.377 1022.11 158.128C1020.93 157.972 1019.76 157.789 1018.59 157.619C1018.59 157.619 1017.91 157.254 1017.91 156.654C1017.91 156.054 1015.81 153.457 1015.45 153.027C1015.1 152.596 1010.89 153.249 1010.08 153.849C1008.68 154.84 1010.83 158.128 1008.9 155.858C1008.29 158.024 1008.47 157.893 1006.28 157.476C1006.71 159.25 1006.2 158.52 1004.77 157.919C1003.83 160.059 1003.99 159.811 1001.79 159.028C1001.79 159.028 999.324 157.698 998.282 157.698C997.24 157.698 994.674 159.707 994.101 160.281C992.655 161.729 995.443 166.191 992.759 163.399C992.408 164.534 992.525 166.309 991.639 164.795C990.988 166.322 991.105 166.165 989.555 165.617C989.19 167.209 989.399 170.366 990.74 171.462C990.102 173.002 990.245 173.537 989.62 171.762C989.555 173.302 990.024 178.677 988.943 174.345C988.253 176.368 988.2 178.455 988.8 180.478C988.8 180.478 987.679 181.6 986.859 182.03C985.374 182.839 986.025 186.662 985.139 183.818C985.139 183.818 983.264 185.957 983.264 187.366C983.264 188.775 983.863 190.55 983.863 190.55C985.361 190.55 985.673 191.176 986.781 192.194C986.533 192.885 986.286 193.577 986.025 194.268C988.057 194.842 987.184 202.488 984.983 202.083C986.012 204.523 986.65 206.271 986.924 208.894C989.724 209.468 989.021 209.937 989.021 212.742C989.777 213.525 990.532 214.321 991.261 215.104C993.736 215.639 996.211 219.175 996.954 219.018C999.598 218.561 999.598 219.775 1001.75 222.136C1003.28 219.944 1005.22 222.267 1007.5 223.01C1007.5 224.485 1007.52 227.133 1007.3 229.729H960V300H1920V229.729H1897.04V184.874H1858.18V196.499H1842.28V176.916H1811.43V205.488H1796.37V188.906H1783.96V205.488H1766.61L1766.28 208.059H1761.2V160.411H1592.86V172.219L1569.99 172.167V176.498H1568C1559.28 120.214 1550.58 63.9297 1541.87 7.64547H1546.79V2.59633H1541.78V0H1506.71V2.59633H1501.7V7.61938H1506.62C1497.63 65.8476 1489.31 119.823 1480.56 176.472H1472.74L1471.4 152.988H1463.88L1462.33 177.672H1446.86L1446.82 129.008L1414.66 129.073L1414.68 102.066C1414.68 98.1517 1412.65 96.2468 1408.45 96.2468H1374.71L1369.34 8.08907H1344.79L1342.44 96.7948L1262.55 96.2338C1258.89 96.2338 1256.31 98.243 1256.31 102.157V109.163C1249.99 110.494 1244.48 116.222 1244.48 123.697V170.184H1232.98V195.012L1227.4 187.34H1224.41V179.825H1218.08V187.34H1195.07L1187.08 198.365H1232.99V200.544H1188V229.703H1177.81V204.301H1096.96V229.703H1087.74V212.808H1053.29V229.703H1011.75H1011.78ZM1262.55 103.814V109.163C1268.49 110.364 1274.35 115.739 1274.35 123.45L1274.37 170.184H1286.2V123.645C1286.2 117.017 1291.68 110.246 1298 109.189V102.183L1264.47 102.157C1263.04 102.157 1262.55 102.562 1262.55 103.814Z" fill="white"/>
<path opacity="0.03" fill-rule="evenodd" clip-rule="evenodd" d="M566.783 176.485V157.828C578.715 164.051 590.646 170.262 602.577 176.485H566.783ZM601.965 169.897C591.284 164.352 580.603 158.82 569.922 153.275C578.975 148.434 588.041 143.594 597.094 138.741C598.722 149.126 600.337 159.511 601.965 169.897ZM595.348 127.572C586.908 122.354 578.48 117.122 570.039 111.89C576.995 107.689 583.964 103.488 590.92 99.2868C592.391 108.72 593.863 118.153 595.335 127.572H595.348ZM588.783 85.6267C582.01 80.434 575.25 75.2414 568.489 70.0487C573.791 65.8737 579.092 61.6987 584.394 57.5237C585.853 66.8914 587.324 76.259 588.783 85.6397V85.6267ZM582.231 43.7071C577.256 38.3317 572.28 32.9695 567.304 27.5942C570.86 23.9019 574.416 20.1966 577.985 16.5043C579.405 25.5719 580.825 34.6395 582.231 43.7071ZM574.377 12.6424C571.837 15.3692 569.31 18.096 566.77 20.8228V12.6424H574.377ZM561.729 12.6424V21.5795C558.968 18.6049 556.206 15.6302 553.445 12.6424H561.729ZM550.605 15.5649C554.083 19.3746 557.561 23.1843 561.052 26.994C556.154 32.2649 551.27 37.5228 546.372 42.7938C547.779 33.7131 549.198 24.6456 550.605 15.5649ZM544.04 57.7716C549.355 61.9075 554.656 66.0303 559.971 70.1661C553.145 75.7502 546.333 81.3343 539.507 86.9183C541.018 77.1984 542.529 67.4915 544.04 57.7716ZM537.931 131.278H561.729V116.913C553.797 121.701 545.864 126.49 537.931 131.278ZM566.77 131.278H589.851C582.153 126.281 574.468 121.284 566.77 116.287V131.278ZM591.401 136.301H566.77V149.713C574.976 145.238 583.182 140.776 591.401 136.301ZM542.555 90.4671H561.716V75.3718C555.334 80.4079 548.938 85.444 542.555 90.4671ZM566.77 90.4671H586.061C579.626 85.4701 573.205 80.4601 566.77 75.4632V90.4671ZM585.553 95.4901H566.77V107.324C573.022 103.383 579.288 99.4433 585.553 95.4901ZM561.729 95.4901H543.545C549.602 99.2476 555.659 103.005 561.729 106.75V95.4901ZM547.258 48.4039H561.729V33.3739C556.91 38.3839 552.077 43.3939 547.258 48.4039ZM566.77 48.4039H580.603C575.992 43.3548 571.381 38.3056 566.77 33.2695V48.4039ZM580.395 53.427H566.77V64.5821C571.316 60.8637 575.862 57.1453 580.395 53.427ZM561.716 53.427H546.828C551.791 57.2367 556.753 61.0464 561.716 64.8561V53.427ZM382.184 102.692L382.106 150.992L356.042 170.184V123.776C356.042 116.417 350.428 110.298 344.267 109.242V102.144L382.171 102.679L382.184 102.692ZM416.09 129.203L414.97 102.131H446.817C448.12 102.131 448.472 102.744 448.472 103.814V129.086L416.103 129.203H416.09ZM656.321 155.454H687.882C686.111 127.259 684.339 99.0519 682.568 70.8576H662.144C660.203 99.0519 658.275 127.259 656.334 155.454H656.321ZM740.623 155.454H772.21C770.451 127.259 768.693 99.0519 766.922 70.8576H746.432C744.491 99.0519 742.564 127.259 740.623 155.454ZM533.06 128.668L537.853 97.5124C545.161 102.248 552.455 106.997 559.749 111.734L533.06 128.668ZM538.218 136.836C538.348 136.666 538.465 136.496 538.557 136.301H561.716V149.021L538.218 136.836ZM128.445 211.19H92.6251L98.5517 203.023H115.589V197.451H120.278V203.023H122.506L128.432 211.19H128.445ZM219.599 202.292H135.219L149.182 183.061H189.327V169.949H200.386V183.061H205.622L219.586 202.292H219.599ZM536.785 166.035L536.043 152.988H529.243L531.406 139.315L559.176 153.849L536.785 166.048V166.035ZM537.384 176.472L537.059 170.849L561.742 157.645V176.472H537.384ZM44.1828 219.605C45.1337 220.049 46.28 220.205 47.296 220.349C47.1136 216.696 47.0745 220.127 45.1337 219.422C44.8602 219.318 44.5215 219.409 44.1828 219.605ZM51.7768 229.703C51.7116 228.451 51.6335 226.964 51.5032 225.202C51.4511 223.206 51.3339 221.379 51.5032 220.244C53.1054 219.944 54.46 221.197 54.8508 221.014C58.3808 219.37 61.4808 219.409 65.0108 220.792C65.4927 217.661 65.3495 219.997 67.6941 218.718C69.1399 217.922 68.3323 215.913 70.2471 214.582C69.5697 212.964 69.4004 212.977 71.0677 213.695C70.8984 211.881 72.0316 209.037 73.8421 208.359C72.9564 206.78 72.9173 206.78 73.6077 205.097C73.9333 205.436 74.2459 205.788 74.5846 206.141C75.0535 203.479 75.5485 200.544 73.8421 198.078C73.1909 197.112 71.9665 197.647 71.9665 197.647C71.4454 195.338 70.6639 194.242 72.8652 196.316C72.8652 196.316 74.298 195.351 74.6628 194.529C74.7409 189.663 78.0234 189.571 78.0234 189.128C78.0234 188.684 76.2258 187.092 77.2939 185.396C77.2939 184.835 75.9653 183.726 75.0275 183.204C72.6438 181.704 71.7971 182.134 73.0867 178.834C72.6698 176.25 69.2702 177.359 72.7871 175.507C72.7871 175.507 73.5426 174.241 73.5426 173.876C73.5426 172.571 71.8883 173.015 71.8883 170.927C71.8883 170.849 71.8753 170.927 70.6248 169.675C69.1529 168.213 66.5348 169.818 69.0487 168.331C69.0487 168.331 67.8504 167.378 67.2512 166.713C65.2322 164.534 62.9918 168.788 63.8255 164.417C63.8255 164.417 62.9267 162.421 62.9267 161.612C62.9267 158.807 57.5601 161.377 62.1061 158.128C60.9338 157.972 59.7615 157.789 58.5892 157.619C58.5892 157.619 57.9118 157.254 57.9118 156.654C57.9118 156.054 55.8147 153.457 55.45 153.027C55.0983 152.596 50.891 153.249 50.0834 153.849C48.6767 154.84 50.8259 158.128 48.8981 155.858C48.2859 158.024 48.4683 157.893 46.28 157.476C46.7098 159.25 46.2018 158.52 44.769 157.919C43.8312 160.059 43.9875 159.811 41.7861 159.028C41.7861 159.028 39.3243 157.698 38.2822 157.698C37.2402 157.698 34.6742 159.707 34.101 160.281C32.6552 161.729 35.4427 166.191 32.7594 163.399C32.4077 164.534 32.5249 166.309 31.6392 164.795C30.9879 166.322 31.1051 166.165 29.5551 165.617C29.1904 167.209 29.3988 170.366 30.7404 171.462C30.1022 173.002 30.2454 173.537 29.6202 171.762C29.5551 173.302 30.024 178.677 28.9429 174.345C28.2525 176.368 28.2004 178.455 28.7996 180.478C28.7996 180.478 27.6794 181.6 26.8588 182.03C25.3739 182.839 26.0252 186.662 25.1394 183.818C25.1394 183.818 23.2637 185.957 23.2637 187.366C23.2637 188.775 23.8629 190.55 23.8629 190.55C25.3608 190.55 25.6735 191.176 26.7806 192.194C26.5332 192.885 26.2857 193.577 26.0252 194.268C28.0571 194.842 27.1844 202.488 24.9831 202.083C26.0121 204.523 26.6504 206.271 26.9239 208.894C29.7244 209.468 29.021 209.937 29.021 212.742C29.7765 213.525 30.532 214.321 31.2614 215.104C33.7363 215.639 36.2112 219.175 36.9536 219.018C39.5978 218.561 39.5978 219.775 41.7471 222.136C43.2841 219.944 45.2249 222.267 47.5044 223.01C47.5044 224.485 47.5174 227.133 47.296 229.729H0V300H960V229.729H937.036V184.874H898.18V196.499H882.276V176.916H851.432V205.488H836.374V188.906H823.961V205.488H806.61L806.285 208.059H801.205V160.411H632.862V172.219L609.989 172.167V176.498H607.996C599.282 120.214 590.581 63.9297 581.867 7.64547H586.79V2.59633H581.776V0H546.711V2.59633H541.696V7.61938H546.619C537.632 65.8476 529.308 119.823 520.555 176.472H512.74L511.398 152.988H503.882L502.332 177.672H486.858L486.819 129.008L454.659 129.073L454.685 102.066C454.685 98.1517 452.653 96.2468 448.445 96.2468H414.709L409.343 8.08907H384.789L382.445 96.7948L302.546 96.2338C298.885 96.2338 296.306 98.243 296.306 102.157V109.163C289.989 110.494 284.479 116.222 284.479 123.697V170.184H272.978V195.012L267.403 187.34H264.407V179.825H258.076V187.34H235.073L227.075 198.365H272.991V200.544H228V229.703H217.814V204.301H136.964V229.703H127.742V212.808H93.2894V229.703H51.7507H51.7768ZM302.546 103.814V109.163C308.485 110.364 314.347 115.739 314.347 123.45L314.373 170.184H326.2V123.645C326.2 117.017 331.684 110.246 338.001 109.189V102.183L304.473 102.157C303.041 102.157 302.546 102.562 302.546 103.814Z" fill="white"/>
</svg>
