<svg width="539" height="614" viewBox="0 0 539 614" fill="none" xmlns="http://www.w3.org/2000/svg">
<g opacity="0.3">
<path d="M7.16992 155.611C56.9889 201.565 177.499 290.122 260.989 276.723C344.478 263.323 457.258 296.049 503.212 314.087" stroke="url(#paint0_radial_0_1302)" stroke-width="0.990292"/>
<path d="M36.8047 138.862C41.9584 144.015 145.032 247.089 251.971 250.954C358.91 254.82 425.908 238.07 507.078 284.453" stroke="url(#paint1_radial_0_1302)" stroke-width="0.990292"/>
<path d="M-8.29004 171.071C26.4973 209.294 117.975 288.833 205.588 301.201C315.103 316.662 405.293 284.452 495.482 338.566" stroke="url(#paint2_radial_0_1302)" stroke-width="0.990292"/>
<path d="M63.8613 125.977C94.7834 156.899 175.954 219.517 253.259 222.609C349.891 226.474 455.541 217.455 514.808 254.819" stroke="url(#paint3_radial_0_1302)" stroke-width="0.990292"/>
<path d="M-30.1934 190.398C-0.559672 224.756 73.6534 296.306 133.436 307.644C208.165 321.817 321.546 334.701 460.695 350.162" stroke="url(#paint4_radial_0_1302)" stroke-width="0.990292"/>
<path d="M93.4941 107.939C129.999 135.854 217.956 192.201 277.738 194.263C352.467 196.84 494.193 182.667 537.999 217.454" stroke="url(#paint5_radial_0_1302)" stroke-width="0.990292"/>
<path d="M128.282 88.6137C143.743 92.479 217.183 147.881 259.701 153.035C302.219 158.188 498.059 145.304 538 199.418" stroke="url(#paint6_radial_0_1302)" stroke-width="0.990292"/>
<path d="M-41.7891 211.013C-32.7701 220.032 23.9204 301.203 93.4952 321.818C163.07 342.432 250.683 345.009 324.123 363.047C397.563 381.085 433.638 388.816 458.118 379.797" stroke="url(#paint7_radial_0_1302)" stroke-width="0.990292"/>
<path d="M-54.6738 225.186C-32.7707 258.685 20.5699 328.775 58.7071 341.144C106.379 356.605 177.242 355.316 219.76 372.066C262.278 388.815 333.141 399.123 383.389 404.276C423.588 408.399 461.124 405.994 474.867 404.276" stroke="url(#paint8_radial_0_1302)" stroke-width="0.990292"/>
<path d="M-74 234.205C-50.8084 272.857 2.27453 352.482 29.0737 361.758C62.5726 373.354 78.0337 352.739 117.975 382.373C157.916 412.007 159.204 372.066 245.528 410.718C331.853 449.371 447.811 428.756 469.714 419.737" stroke="url(#paint9_radial_0_1302)" stroke-width="0.990292"/>
<path d="M146.75 531.828C192.704 482.009 281.261 361.499 267.862 278.009C254.462 194.519 287.188 81.7397 305.226 35.786" stroke="url(#paint10_radial_0_1302)" stroke-width="0.990292"/>
<path d="M130.001 502.195C135.155 497.042 238.228 393.968 242.094 287.029C245.959 180.09 229.209 113.092 275.592 31.9219" stroke="url(#paint11_radial_0_1302)" stroke-width="0.990292"/>
<path d="M162.21 547.289C200.433 512.502 279.972 421.024 292.34 333.412C307.802 223.896 275.591 133.707 329.705 43.5171" stroke="url(#paint12_radial_0_1302)" stroke-width="0.990292"/>
<path d="M117.115 475.138C148.037 444.216 210.655 363.045 213.747 285.74C217.612 189.108 208.593 83.458 245.957 24.1907" stroke="url(#paint13_radial_0_1302)" stroke-width="0.990292"/>
<path d="M181.536 569.193C215.894 539.559 287.444 465.346 298.782 405.563C312.955 330.835 325.839 217.454 341.3 78.3044" stroke="url(#paint14_radial_0_1302)" stroke-width="0.990292"/>
<path d="M99.0781 445.506C126.994 409.001 183.341 321.044 185.402 261.262C187.979 186.533 173.807 44.807 208.594 1.00067" stroke="url(#paint15_radial_0_1302)" stroke-width="0.990292"/>
<path d="M79.752 410.718C83.6172 395.257 139.019 321.817 144.173 279.299C149.327 236.781 136.442 40.941 190.556 0.999999" stroke="url(#paint16_radial_0_1302)" stroke-width="0.990292"/>
<path d="M202.152 580.788C211.171 571.769 292.342 515.079 312.957 445.504C333.571 375.929 336.148 288.317 354.186 214.877C372.224 141.437 379.954 105.361 370.935 80.8808" stroke="url(#paint17_radial_0_1302)" stroke-width="0.990292"/>
<path d="M216.324 593.673C249.823 571.77 319.913 518.429 332.282 480.292C347.743 432.62 346.455 361.757 363.204 319.239C379.954 276.721 390.261 205.858 395.415 155.61C399.538 115.411 397.133 77.8753 395.415 64.1321" stroke="url(#paint18_radial_0_1302)" stroke-width="0.990292"/>
<path d="M225.343 613C263.995 589.808 343.62 536.725 352.896 509.926C364.492 476.427 343.877 460.966 373.511 421.025C403.145 381.084 363.204 379.796 401.856 293.472C440.509 207.147 419.894 91.1894 410.875 69.2863" stroke="url(#paint19_radial_0_1302)" stroke-width="0.990292"/>
</g>
<defs>
<radialGradient id="paint0_radial_0_1302" cx="0" cy="0" r="1" gradientUnits="userSpaceOnUse" gradientTransform="translate(255.191 234.849) rotate(90) scale(79.2379 248.021)">
<stop stop-color="#413F3E"/>
<stop offset="1" stop-color="white" stop-opacity="0"/>
</radialGradient>
<radialGradient id="paint1_radial_0_1302" cx="0" cy="0" r="1" gradientUnits="userSpaceOnUse" gradientTransform="translate(271.941 211.658) rotate(90) scale(72.7957 235.137)">
<stop stop-color="#413F3E"/>
<stop offset="1" stop-color="white" stop-opacity="0"/>
</radialGradient>
<radialGradient id="paint2_radial_0_1302" cx="0" cy="0" r="1" gradientUnits="userSpaceOnUse" gradientTransform="translate(243.596 254.818) rotate(90) scale(83.7473 251.886)">
<stop stop-color="#413F3E"/>
<stop offset="1" stop-color="white" stop-opacity="0"/>
</radialGradient>
<radialGradient id="paint3_radial_0_1302" cx="0" cy="0" r="1" gradientUnits="userSpaceOnUse" gradientTransform="translate(289.335 190.398) rotate(90) scale(64.421 225.474)">
<stop stop-color="#413F3E"/>
<stop offset="1" stop-color="white" stop-opacity="0"/>
</radialGradient>
<radialGradient id="paint4_radial_0_1302" cx="0" cy="0" r="1" gradientUnits="userSpaceOnUse" gradientTransform="translate(215.251 270.28) rotate(90) scale(79.8821 245.444)">
<stop stop-color="#413F3E"/>
<stop offset="1" stop-color="white" stop-opacity="0"/>
</radialGradient>
<radialGradient id="paint5_radial_0_1302" cx="0" cy="0" r="1" gradientUnits="userSpaceOnUse" gradientTransform="translate(315.747 162.697) rotate(90) scale(54.7579 222.253)">
<stop stop-color="#413F3E"/>
<stop offset="1" stop-color="white" stop-opacity="0"/>
</radialGradient>
<radialGradient id="paint6_radial_0_1302" cx="0" cy="0" r="1" gradientUnits="userSpaceOnUse" gradientTransform="translate(333.141 144.016) rotate(90) scale(55.4021 204.859)">
<stop stop-color="#413F3E"/>
<stop offset="1" stop-color="white" stop-opacity="0"/>
</radialGradient>
<radialGradient id="paint7_radial_0_1302" cx="0" cy="0" r="1" gradientUnits="userSpaceOnUse" gradientTransform="translate(208.165 297.294) rotate(90) scale(86.281 249.954)">
<stop stop-color="#413F3E"/>
<stop offset="1" stop-color="white" stop-opacity="0"/>
</radialGradient>
<radialGradient id="paint8_radial_0_1302" cx="0" cy="0" r="1" gradientUnits="userSpaceOnUse" gradientTransform="translate(210.097 315.869) rotate(90) scale(90.6835 264.77)">
<stop stop-color="#413F3E"/>
<stop offset="1" stop-color="white" stop-opacity="0"/>
</radialGradient>
<radialGradient id="paint9_radial_0_1302" cx="0" cy="0" r="1" gradientUnits="userSpaceOnUse" gradientTransform="translate(197.857 333.78) rotate(90) scale(99.5751 271.857)">
<stop stop-color="#413F3E"/>
<stop offset="1" stop-color="white" stop-opacity="0"/>
</radialGradient>
<radialGradient id="paint10_radial_0_1302" cx="0" cy="0" r="1" gradientUnits="userSpaceOnUse" gradientTransform="translate(225.988 283.807) scale(79.2379 248.021)">
<stop stop-color="#413F3E"/>
<stop offset="1" stop-color="white" stop-opacity="0"/>
</radialGradient>
<radialGradient id="paint11_radial_0_1302" cx="0" cy="0" r="1" gradientUnits="userSpaceOnUse" gradientTransform="translate(202.797 267.059) scale(72.7958 235.137)">
<stop stop-color="#413F3E"/>
<stop offset="1" stop-color="white" stop-opacity="0"/>
</radialGradient>
<radialGradient id="paint12_radial_0_1302" cx="0" cy="0" r="1" gradientUnits="userSpaceOnUse" gradientTransform="translate(245.957 295.403) scale(83.7474 251.886)">
<stop stop-color="#413F3E"/>
<stop offset="1" stop-color="white" stop-opacity="0"/>
</radialGradient>
<radialGradient id="paint13_radial_0_1302" cx="0" cy="0" r="1" gradientUnits="userSpaceOnUse" gradientTransform="translate(181.536 249.664) scale(64.421 225.474)">
<stop stop-color="#413F3E"/>
<stop offset="1" stop-color="white" stop-opacity="0"/>
</radialGradient>
<radialGradient id="paint14_radial_0_1302" cx="0" cy="0" r="1" gradientUnits="userSpaceOnUse" gradientTransform="translate(261.418 323.749) scale(79.8821 245.444)">
<stop stop-color="#413F3E"/>
<stop offset="1" stop-color="white" stop-opacity="0"/>
</radialGradient>
<radialGradient id="paint15_radial_0_1302" cx="0" cy="0" r="1" gradientUnits="userSpaceOnUse" gradientTransform="translate(153.836 223.253) scale(54.7579 222.253)">
<stop stop-color="#413F3E"/>
<stop offset="1" stop-color="white" stop-opacity="0"/>
</radialGradient>
<radialGradient id="paint16_radial_0_1302" cx="0" cy="0" r="1" gradientUnits="userSpaceOnUse" gradientTransform="translate(135.154 205.859) scale(55.4021 204.859)">
<stop stop-color="#413F3E"/>
<stop offset="1" stop-color="white" stop-opacity="0"/>
</radialGradient>
<radialGradient id="paint17_radial_0_1302" cx="0" cy="0" r="1" gradientUnits="userSpaceOnUse" gradientTransform="translate(288.433 330.834) scale(86.281 249.954)">
<stop stop-color="#413F3E"/>
<stop offset="1" stop-color="white" stop-opacity="0"/>
</radialGradient>
<radialGradient id="paint18_radial_0_1302" cx="0" cy="0" r="1" gradientUnits="userSpaceOnUse" gradientTransform="translate(307.008 328.902) scale(90.6835 264.77)">
<stop stop-color="#413F3E"/>
<stop offset="1" stop-color="white" stop-opacity="0"/>
</radialGradient>
<radialGradient id="paint19_radial_0_1302" cx="0" cy="0" r="1" gradientUnits="userSpaceOnUse" gradientTransform="translate(324.918 341.143) scale(99.5751 271.857)">
<stop stop-color="#413F3E"/>
<stop offset="1" stop-color="white" stop-opacity="0"/>
</radialGradient>
</defs>
</svg>
