<svg width="853" height="530" viewBox="0 0 853 530" fill="none" xmlns="http://www.w3.org/2000/svg">
<path opacity="0.09" d="M853.369 529.33C843.418 524.049 833.13 519.412 822.623 515.353C811.363 511 799.863 507.301 788.222 504.126C775.413 500.635 762.429 497.776 749.369 495.398C734.902 492.768 720.325 490.717 705.716 489.092C689.449 487.291 673.137 486.004 656.793 485.098C638.594 484.084 620.374 483.527 602.142 483.298C581.86 483.036 561.577 483.167 541.305 483.571C518.797 484.018 496.299 484.793 473.813 485.797C448.926 486.91 424.06 488.295 399.195 489.866C371.788 491.601 344.392 493.554 316.995 495.649C291.759 497.58 266.457 498.802 241.145 498.878C220.208 498.944 199.259 498.246 178.387 496.456C161.367 494.994 144.401 492.812 127.621 489.604C113.95 486.986 100.399 483.68 87.1535 479.414C76.6357 476.032 66.2925 472.028 56.3421 467.216C48.4319 463.386 40.7509 459.033 33.5281 454.025C27.9747 450.174 22.6721 445.93 17.8169 441.216C14.1728 437.681 10.7796 433.884 7.77922 429.793C5.74986 427.032 3.89507 424.141 2.33486 421.097C1.52748 419.515 0.763739 417.889 0.19639 416.209C0.120016 416.002 0.0545528 415.784 0 415.576C0.927397 416.94 1.98572 418.228 3.05495 419.482C6.06627 423.017 9.37216 426.28 12.8417 429.367C18.297 434.223 24.1778 438.587 30.3204 442.525C38.6452 447.872 47.4609 452.443 56.5603 456.316C68.0818 461.226 80.0616 465.034 92.2487 467.925C107.523 471.547 123.126 473.73 138.793 474.788C158.039 476.097 177.384 475.726 196.597 474.155C220.393 472.202 244.014 468.383 267.33 463.299C295.698 457.113 323.64 449.028 351.112 439.678C379.6 429.978 407.64 418.959 435.08 406.586C460.011 395.348 484.45 383.03 508.355 369.73C531.104 357.074 553.361 343.534 575.106 329.208C595.651 315.668 615.726 301.419 635.31 286.526C653.389 272.79 671.053 258.497 688.292 243.713C704.058 230.184 719.464 216.241 734.498 201.904C747.7 189.313 760.607 176.417 773.198 163.226C783.923 151.988 794.43 140.532 804.675 128.858C812.771 119.639 820.703 110.288 828.438 100.774C833.872 94.0969 839.207 87.3542 844.411 80.5024C847.128 76.9237 849.823 73.3233 852.43 69.6573C852.747 69.21 853.063 68.7626 853.38 68.3153L853.358 529.33H853.369Z" fill="url(#paint0_linear_0_710)"/>
<path opacity="0.09" d="M962.475 515.146C952.525 509.866 942.236 505.229 931.729 501.17C920.47 496.817 908.97 493.118 897.328 489.943C884.519 486.452 871.536 483.593 858.476 481.214C844.008 478.585 829.432 476.534 814.823 474.908C798.555 473.108 782.244 471.82 765.9 470.915C747.701 469.9 729.48 469.344 711.249 469.115C690.966 468.853 670.683 468.984 650.412 469.387C627.903 469.835 605.406 470.609 582.919 471.613C558.032 472.726 533.167 474.112 508.302 475.683C480.894 477.418 453.498 479.371 426.102 481.465C400.865 483.397 375.564 484.619 350.251 484.695C329.314 484.76 308.366 484.062 287.494 482.273C270.473 480.811 253.508 478.629 236.727 475.421C223.056 472.802 209.505 469.497 196.26 465.231C185.742 461.848 175.399 457.844 165.449 453.033C157.538 449.203 149.857 444.85 142.635 439.842C137.081 435.99 131.779 431.746 126.923 427.033C123.279 423.498 119.886 419.701 116.886 415.609C114.856 412.849 113.002 409.958 111.441 406.914C110.634 405.332 109.87 403.706 109.303 402.026C109.226 401.818 109.161 401.6 109.106 401.393C110.034 402.757 111.092 404.044 112.161 405.299C115.173 408.834 118.479 412.096 121.948 415.184C127.403 420.039 133.284 424.403 139.427 428.342C147.752 433.688 156.567 438.26 165.667 442.133C177.188 447.043 189.168 450.85 201.355 453.742C216.63 457.364 232.232 459.546 247.9 460.604C267.146 461.914 286.49 461.543 305.704 459.972C329.5 458.019 353.121 454.2 376.437 449.116C404.804 442.929 432.746 434.845 460.219 425.494C488.706 415.795 516.746 404.775 544.186 392.403C569.117 381.165 593.557 368.847 617.462 355.547C640.21 342.891 662.468 329.35 684.212 315.025C704.757 301.485 724.832 287.236 744.417 272.343C762.496 258.606 780.16 244.314 797.399 229.53C813.164 216.001 828.57 202.057 843.605 187.721C856.806 175.13 869.714 162.234 882.304 149.043C893.029 137.805 903.536 126.349 913.781 114.674C921.877 105.455 929.809 96.1047 937.544 86.5907C942.978 79.9135 948.313 73.1707 953.518 66.3189C956.234 62.7403 958.929 59.1398 961.537 55.4738C961.853 55.0265 962.17 54.5792 962.486 54.1318L962.464 515.146H962.475Z" fill="url(#paint1_linear_0_710)"/>
<path opacity="0.09" d="M1115.05 489.463C1104.5 483.864 1093.6 478.948 1082.46 474.644C1070.53 470.029 1058.34 466.107 1046 462.741C1032.42 459.039 1018.66 456.008 1004.82 453.486C989.487 450.699 974.038 448.524 958.554 446.8C941.312 444.891 924.024 443.526 906.701 442.566C887.412 441.491 868.101 440.901 848.777 440.658C827.28 440.38 805.782 440.519 784.297 440.947C760.44 441.421 736.595 442.242 712.762 443.307C686.385 444.487 660.031 445.956 633.676 447.622C604.628 449.461 575.591 451.531 546.554 453.753C519.806 455.8 492.99 457.096 466.161 457.177C443.97 457.246 421.767 456.506 399.646 454.609C381.606 453.058 363.624 450.745 345.839 447.344C331.349 444.568 316.987 441.062 302.948 436.539C291.8 432.953 280.838 428.708 270.291 423.606C261.907 419.546 253.766 414.93 246.111 409.621C240.225 405.537 234.605 401.037 229.459 396.04C225.597 392.292 222 388.266 218.82 383.928C216.669 381.002 214.704 377.936 213.05 374.709C212.194 373.031 211.385 371.308 210.783 369.526C210.702 369.306 210.633 369.075 210.575 368.855C211.558 370.301 212.68 371.666 213.813 372.997C217.005 376.745 220.509 380.203 224.186 383.477C229.968 388.625 236.201 393.252 242.711 397.428C251.535 403.096 260.878 407.943 270.523 412.05C282.734 417.256 295.431 421.293 308.348 424.358C324.538 428.199 341.074 430.512 357.68 431.635C378.079 433.023 398.582 432.629 418.946 430.964C444.167 428.893 469.203 424.844 493.915 419.454C523.981 412.894 553.596 404.323 582.714 394.409C612.908 384.125 642.627 372.441 671.71 359.323C698.134 347.408 724.037 334.348 749.374 320.247C773.484 306.828 797.075 292.472 820.122 277.283C841.897 262.927 863.174 247.82 883.932 232.029C903.093 217.465 921.815 202.311 940.086 186.637C956.796 172.292 973.124 157.509 989.059 142.308C1003.05 128.959 1016.73 115.286 1030.08 101.3C1041.44 89.3849 1052.58 77.2385 1063.44 64.8608C1072.02 55.0859 1080.43 45.1721 1088.62 35.0849C1094.38 28.0053 1100.04 20.8563 1105.55 13.5916C1108.43 9.79729 1111.29 5.97986 1114.05 2.09303C1114.39 1.61874 1114.72 1.14445 1115.06 0.670166L1115.04 489.463H1115.05Z" fill="url(#paint2_linear_0_710)"/>
<defs>
<linearGradient id="paint0_linear_0_710" x1="0.0109106" y1="298.823" x2="853.401" y2="298.823" gradientUnits="userSpaceOnUse">
<stop stop-color="white" stop-opacity="0"/>
<stop offset="0.94" stop-color="#FC5828"/>
</linearGradient>
<linearGradient id="paint1_linear_0_710" x1="109.117" y1="284.639" x2="962.508" y2="284.639" gradientUnits="userSpaceOnUse">
<stop stop-color="white" stop-opacity="0"/>
<stop offset="0.94" stop-color="#FC5828"/>
</linearGradient>
<linearGradient id="paint2_linear_0_710" x1="210.587" y1="245.067" x2="1115.08" y2="245.067" gradientUnits="userSpaceOnUse">
<stop stop-color="white" stop-opacity="0"/>
<stop offset="0.94" stop-color="#FC5828"/>
</linearGradient>
</defs>
</svg>
