<svg width="725" height="529" viewBox="0 0 725 529" fill="none" xmlns="http://www.w3.org/2000/svg">
<path opacity="0.09" d="M-129.308 -1.35687e-05C-119.358 5.28072 -109.069 9.91768 -98.5622 13.9764C-87.3025 18.3297 -75.8028 22.0284 -64.1612 25.2034C-51.3523 28.6948 -38.3687 31.5533 -25.3087 33.9318C-10.8414 36.5613 3.73514 38.6125 18.3443 40.2381C34.612 42.0384 50.9233 43.3258 67.2673 44.2314C85.4661 45.2461 103.687 45.8025 121.918 46.0316C142.201 46.2935 162.484 46.1626 182.755 45.7589C205.264 45.3115 227.761 44.5369 250.248 43.5331C275.135 42.4202 300 41.0346 324.865 39.4635C352.273 37.7287 379.669 35.7757 407.065 33.6809C432.302 31.7498 457.603 30.5278 482.916 30.4514C503.853 30.3859 524.801 31.0842 545.673 32.8736C562.694 34.3356 579.659 36.5177 596.44 39.7254C610.111 42.3439 623.662 45.6498 636.907 49.9158C647.425 53.2981 657.768 57.3023 667.718 62.1139C675.629 65.9435 683.31 70.2968 690.532 75.3047C696.086 79.1562 701.388 83.4003 706.244 88.1137C709.888 91.6487 713.281 95.4456 716.281 99.537C718.311 102.297 720.166 105.189 721.726 108.233C722.533 109.815 723.297 111.44 723.864 113.121C723.941 113.328 724.006 113.546 724.061 113.753C723.133 112.39 722.075 111.102 721.006 109.848C717.994 106.312 714.688 103.05 711.219 99.9626C705.764 95.1073 699.883 90.7431 693.74 86.8044C685.415 81.4582 676.6 76.8867 667.5 73.0135C655.979 68.1038 643.999 64.296 631.812 61.4047C616.537 57.7823 600.935 55.6002 585.267 54.5419C566.021 53.2327 546.677 53.6036 527.463 55.1747C503.667 57.1277 480.046 60.9464 456.73 66.0307C428.363 72.217 400.421 80.3017 372.948 89.6521C344.461 99.3515 316.421 110.371 288.981 122.744C264.05 133.982 239.61 146.3 215.705 159.6C192.957 172.256 170.699 185.796 148.955 200.121C128.41 213.661 108.335 227.911 88.7501 242.803C70.6713 256.54 53.0071 270.833 35.7684 285.616C20.0027 299.146 4.59706 313.089 -10.4377 327.426C-23.6395 340.016 -36.5466 352.913 -49.1374 366.104C-59.8625 377.341 -70.3694 388.798 -80.6144 400.472C-88.71 409.691 -96.642 419.042 -104.377 428.556C-109.811 435.233 -115.146 441.976 -120.351 448.827C-123.067 452.406 -125.762 456.007 -128.37 459.672C-128.686 460.12 -129.003 460.567 -129.319 461.014L-129.297 -1.35678e-05L-129.308 -1.35687e-05Z" fill="url(#paint0_linear_0_714)"/>
<path opacity="0.09" d="M-238.415 14.1835C-228.464 19.4642 -218.175 24.1012 -207.669 28.1599C-196.409 32.5132 -184.909 36.2119 -173.268 39.3869C-160.459 42.8782 -147.475 45.7368 -134.415 48.1153C-119.948 50.7447 -105.371 52.7959 -90.7621 54.4216C-74.4945 56.2218 -58.1831 57.5093 -41.8391 58.4149C-23.6403 59.4295 -5.41976 59.986 12.8117 60.2151C33.0945 60.477 53.3772 60.3461 73.649 59.9424C96.1574 59.495 118.655 58.7204 141.142 57.7166C166.029 56.6037 190.894 55.2181 215.759 53.647C243.166 51.9122 270.563 49.9592 297.959 47.8644C323.195 45.9332 348.497 44.7112 373.809 44.6349C394.747 44.5694 415.695 45.2677 436.567 47.057C453.587 48.519 470.553 50.7012 487.333 53.9089C501.004 56.5274 514.555 59.8333 527.801 64.0993C538.318 67.4816 548.662 71.4858 558.612 76.2973C566.522 80.1269 574.203 84.4803 581.426 89.4882C586.979 93.3396 592.282 97.5838 597.137 102.297C600.781 105.832 604.175 109.629 607.175 113.721C609.204 116.481 611.059 119.372 612.619 122.416C613.427 123.998 614.19 125.624 614.758 127.304C614.834 127.511 614.9 127.73 614.954 127.937C614.027 126.573 612.968 125.286 611.899 124.031C608.888 120.496 605.582 117.234 602.112 114.146C596.657 109.291 590.776 104.927 584.634 100.988C576.309 95.6417 567.493 91.0702 558.394 87.197C546.872 82.2872 534.893 78.4794 522.705 75.5881C507.431 71.9658 491.829 69.7837 476.161 68.7254C456.915 67.4161 437.57 67.7871 418.357 69.3582C394.561 71.3112 370.94 75.1299 347.624 80.2142C319.256 86.4005 291.314 94.4852 263.842 103.836C235.354 113.535 207.314 124.555 179.874 136.927C154.943 148.165 130.504 160.483 106.599 173.783C83.8503 186.439 61.5929 199.979 39.8481 214.305C19.3035 227.845 -0.771891 242.094 -20.3564 256.987C-38.4352 270.723 -56.0993 285.016 -73.338 299.8C-89.1037 313.329 -104.509 327.273 -119.544 341.609C-132.746 354.2 -145.653 367.096 -158.244 380.287C-168.969 391.525 -179.476 402.981 -189.721 414.655C-197.816 423.875 -205.748 433.225 -213.484 442.739C-218.917 449.416 -224.253 456.159 -229.457 463.011C-232.174 466.589 -234.869 470.19 -237.476 473.856C-237.793 474.303 -238.109 474.751 -238.426 475.198L-238.404 14.1835L-238.415 14.1835Z" fill="url(#paint1_linear_0_714)"/>
<path opacity="0.09" d="M-390.988 39.8669C-380.441 45.4658 -369.537 50.3822 -358.401 54.6855C-346.467 59.3011 -334.278 63.2226 -321.939 66.5889C-308.363 70.2907 -294.602 73.3215 -280.76 75.8433C-265.427 78.6312 -249.977 80.8059 -234.493 82.5296C-217.251 84.4383 -199.963 85.8033 -182.64 86.7635C-163.352 87.8393 -144.04 88.4292 -124.717 88.6722C-103.219 88.9498 -81.7219 88.811 -60.2361 88.383C-36.3797 87.9087 -12.5349 87.0874 11.2984 86.0231C37.6757 84.8432 64.0299 83.3741 90.3842 81.7083C119.433 79.869 148.47 77.7983 177.507 75.5772C204.254 73.5297 231.071 72.2341 257.899 72.1531C280.091 72.0838 302.293 72.8241 324.415 74.7212C342.455 76.2713 360.437 78.5849 378.222 81.9859C392.712 84.7622 407.074 88.2673 421.113 92.7904C432.26 96.3765 443.223 100.622 453.769 105.723C462.153 109.784 470.294 114.399 477.949 119.709C483.835 123.793 489.456 128.293 494.601 133.29C498.464 137.038 502.06 141.064 505.24 145.402C507.391 148.328 509.357 151.394 511.011 154.621C511.866 156.299 512.676 158.022 513.277 159.804C513.358 160.023 513.428 160.255 513.485 160.475C512.502 159.029 511.381 157.664 510.247 156.333C507.056 152.585 503.552 149.126 499.875 145.853C494.093 140.705 487.86 136.078 481.349 131.902C472.526 126.233 463.182 121.386 453.538 117.28C441.326 112.074 428.629 108.037 415.712 104.971C399.523 101.131 382.986 98.8173 366.381 97.6952C345.982 96.3071 325.479 96.7004 305.115 98.3662C279.894 100.437 254.858 104.486 230.146 109.876C200.08 116.435 170.464 125.007 141.346 134.921C111.153 145.205 81.4337 156.888 52.3504 170.007C25.9268 181.922 0.0235277 194.982 -25.313 209.083C-49.4239 222.502 -73.0142 236.858 -96.0611 252.047C-117.836 266.402 -139.114 281.51 -159.871 297.3C-179.032 311.864 -197.754 327.018 -216.025 342.693C-232.735 357.037 -249.064 371.821 -264.999 387.021C-278.991 400.371 -292.671 414.044 -306.016 428.03C-317.383 439.945 -328.519 452.091 -339.378 464.469C-347.958 474.244 -356.365 484.158 -364.564 494.245C-370.323 501.324 -375.978 508.473 -381.494 515.738C-384.373 519.532 -387.229 523.35 -389.993 527.237C-390.329 527.711 -390.664 528.185 -390.999 528.66L-390.976 39.8669L-390.988 39.8669Z" fill="url(#paint2_linear_0_714)"/>
<defs>
<linearGradient id="paint0_linear_0_714" x1="724.05" y1="230.507" x2="-129.341" y2="230.507" gradientUnits="userSpaceOnUse">
<stop stop-color="white" stop-opacity="0"/>
<stop offset="0.94" stop-color="#FC5828"/>
</linearGradient>
<linearGradient id="paint1_linear_0_714" x1="614.943" y1="244.691" x2="-238.447" y2="244.691" gradientUnits="userSpaceOnUse">
<stop stop-color="white" stop-opacity="0"/>
<stop offset="0.94" stop-color="#FC5828"/>
</linearGradient>
<linearGradient id="paint2_linear_0_714" x1="513.474" y1="284.263" x2="-391.022" y2="284.263" gradientUnits="userSpaceOnUse">
<stop stop-color="white" stop-opacity="0"/>
<stop offset="0.94" stop-color="#FC5828"/>
</linearGradient>
</defs>
</svg>
