<svg width="374" height="266" viewBox="0 0 374 266" fill="none" xmlns="http://www.w3.org/2000/svg">
<g opacity="0.3">
<path d="M190.737 -9.42383C196.09 27.0618 216.769 105.699 256.658 128.365C296.547 151.031 333.049 203.28 346.314 226.572" stroke="url(#paint0_radial_0_3951)"/>
<path d="M208.997 -6.4834C209.414 -2.53885 217.755 76.3521 261.656 114.334C305.557 152.315 339.618 167.952 358.082 215.273" stroke="url(#paint1_radial_0_3951)"/>
<path d="M178.912 -8.09717C180.552 19.9908 192.038 84.9252 224.858 119.959C265.884 163.751 315.038 180.688 334.673 234.364" stroke="url(#paint2_radial_0_3951)"/>
<path d="M224.845 -2.77271C227.347 20.8946 240.26 75.125 271.894 102.708C311.436 137.188 359.199 169.248 371.485 205.288" stroke="url(#paint3_radial_0_3951)"/>
<path d="M163.041 -7.31421C163.823 17.3776 170.739 73.0458 192.144 98.1847C218.899 129.608 262.44 173.617 315.997 227.479" stroke="url(#paint4_radial_0_3951)"/>
<path d="M243.545 -0.381348C249.436 23.9036 267.363 77.7711 291.939 98.9618C322.66 125.45 387.441 167.575 394.07 197.265" stroke="url(#paint5_radial_0_3951)"/>
<path d="M264.864 3.2146C270.081 10.1131 282.192 58.6461 298.41 75.2865C314.628 91.9269 401.852 152.987 400.237 189.589" stroke="url(#paint6_radial_0_3951)"/>
<path d="M151.088 -2.48047C151.818 4.42249 148.034 58.2312 170.407 90.6453C192.779 123.06 228.948 153.926 253.837 186.557C278.725 219.188 291.338 234.736 304.774 239.215" stroke="url(#paint7_radial_0_3951)"/>
<path d="M140.792 -0.826904C138.599 20.8726 137.188 68.8272 149.086 87.0499C163.958 109.828 194.366 133.358 206.618 154.934C218.871 176.509 245.313 204.975 264.8 224.242C280.39 239.655 297.086 251.386 303.485 255.325" stroke="url(#paint8_radial_0_3951)"/>
<path d="M129.535 -3.55493C126.125 20.7757 121.344 72.7006 129.505 85.7547C139.706 102.072 153.293 98.5522 160.05 124.736C166.807 150.919 181.01 134.358 204.298 180.14C227.585 225.923 283.672 256.55 296.019 260.154" stroke="url(#paint9_radial_0_3951)"/>
<path d="M121.109 198.122C157.579 192.533 236.239 171.335 259.123 131.249C282.007 91.1632 334.413 54.2843 357.756 40.8555" stroke="url(#paint10_radial_0_3951)"/>
<path d="M124.161 179.817C128.103 179.375 206.939 170.53 245.143 126.331C283.347 82.131 299.175 47.9256 346.547 29.14" stroke="url(#paint11_radial_0_3951)"/>
<path d="M122.361 209.954C150.421 208.136 215.339 196.229 250.531 163.144C294.519 121.788 311.74 72.4592 365.465 52.462" stroke="url(#paint12_radial_0_3951)"/>
<path d="M127.965 163.924C151.616 161.27 205.853 148.001 233.597 116.151C268.276 76.3378 300.591 28.3087 336.659 15.7805" stroke="url(#paint13_radial_0_3951)"/>
<path d="M123.044 225.843C147.707 224.905 203.343 217.632 228.581 196.042C260.129 169.053 304.35 125.176 358.473 71.2082" stroke="url(#paint14_radial_0_3951)"/>
<path d="M130.47 145.184C154.758 139.133 208.665 120.845 229.98 96.1019C256.624 65.1732 299.096 0.0392467 328.788 -6.7843" stroke="url(#paint15_radial_0_3951)"/>
<path d="M134.193 123.811C141.115 118.544 189.658 106.113 206.377 89.769C223.096 73.4246 284.618 -14.3022 321.16 -12.9139" stroke="url(#paint16_radial_0_3951)"/>
<path d="M127.797 237.783C134.695 237.009 188.407 240.462 220.917 217.856C253.427 195.25 284.477 158.838 317.219 133.711C349.961 108.584 365.567 95.8571 370.124 82.3739" stroke="url(#paint17_radial_0_3951)"/>
<path d="M129.383 248.083C151.039 250.144 198.92 251.258 217.192 239.23C240.032 224.194 263.72 193.597 285.343 181.193C306.966 168.789 335.557 142.132 354.92 122.497C370.41 106.79 382.229 89.9975 386.202 83.5648" stroke="url(#paint18_radial_0_3951)"/>
<path d="M126.589 259.372C150.865 262.635 202.69 267.099 215.777 258.845C232.136 248.528 228.706 234.944 254.896 228.014C281.086 221.084 264.636 206.964 310.502 183.359C356.367 159.753 387.303 103.397 390.979 91.0105" stroke="url(#paint19_radial_0_3951)"/>
</g>
<defs>
<radialGradient id="paint0_radial_0_3951" cx="0" cy="0" r="1" gradientUnits="userSpaceOnUse" gradientTransform="translate(268.525 108.574) rotate(128.782) scale(43.2608 134.547)">
<stop stop-color="#0A0A0A"/>
<stop offset="1" stop-color="white" stop-opacity="0"/>
</radialGradient>
<radialGradient id="paint1_radial_0_3951" cx="0" cy="0" r="1" gradientUnits="userSpaceOnUse" gradientTransform="translate(283.54 104.395) rotate(128.782) scale(39.7436 127.558)">
<stop stop-color="#0A0A0A"/>
<stop offset="1" stop-color="white" stop-opacity="0"/>
</radialGradient>
<radialGradient id="paint2_radial_0_3951" cx="0" cy="0" r="1" gradientUnits="userSpaceOnUse" gradientTransform="translate(256.793 113.133) rotate(128.782) scale(45.7228 136.644)">
<stop stop-color="#0A0A0A"/>
<stop offset="1" stop-color="white" stop-opacity="0"/>
</radialGradient>
<radialGradient id="paint3_radial_0_3951" cx="0" cy="0" r="1" gradientUnits="userSpaceOnUse" gradientTransform="translate(298.165 101.258) rotate(128.782) scale(35.1714 122.316)">
<stop stop-color="#0A0A0A"/>
<stop offset="1" stop-color="white" stop-opacity="0"/>
</radialGradient>
<radialGradient id="paint4_radial_0_3951" cx="0" cy="0" r="1" gradientUnits="userSpaceOnUse" gradientTransform="translate(239.519 110.082) rotate(128.782) scale(43.6125 133.149)">
<stop stop-color="#0A0A0A"/>
<stop offset="1" stop-color="white" stop-opacity="0"/>
</radialGradient>
<radialGradient id="paint5_radial_0_3951" cx="0" cy="0" r="1" gradientUnits="userSpaceOnUse" gradientTransform="translate(318.807 98.442) rotate(128.782) scale(29.8957 120.568)">
<stop stop-color="#0A0A0A"/>
<stop offset="1" stop-color="white" stop-opacity="0"/>
</radialGradient>
<radialGradient id="paint6_radial_0_3951" cx="0" cy="0" r="1" gradientUnits="userSpaceOnUse" gradientTransform="translate(332.551 96.402) rotate(128.782) scale(30.2474 111.133)">
<stop stop-color="#0A0A0A"/>
<stop offset="1" stop-color="white" stop-opacity="0"/>
</radialGradient>
<radialGradient id="paint7_radial_0_3951" cx="0" cy="0" r="1" gradientUnits="userSpaceOnUse" gradientTransform="translate(227.285 119.172) rotate(128.782) scale(47.1061 135.596)">
<stop stop-color="#0A0A0A"/>
<stop offset="1" stop-color="white" stop-opacity="0"/>
</radialGradient>
<radialGradient id="paint8_radial_0_3951" cx="0" cy="0" r="1" gradientUnits="userSpaceOnUse" gradientTransform="translate(221.749 127.733) rotate(128.782) scale(49.5096 143.634)">
<stop stop-color="#0A0A0A"/>
<stop offset="1" stop-color="white" stop-opacity="0"/>
</radialGradient>
<radialGradient id="paint9_radial_0_3951" cx="0" cy="0" r="1" gradientUnits="userSpaceOnUse" gradientTransform="translate(210.449 131.197) rotate(128.782) scale(54.3641 147.478)">
<stop stop-color="#0A0A0A"/>
<stop offset="1" stop-color="white" stop-opacity="0"/>
</radialGradient>
<radialGradient id="paint10_radial_0_3951" cx="0" cy="0" r="1" gradientUnits="userSpaceOnUse" gradientTransform="translate(239.433 119.489) rotate(38.7817) scale(42.9853 135.41)">
<stop stop-color="#0A0A0A"/>
<stop offset="1" stop-color="white" stop-opacity="0"/>
</radialGradient>
<radialGradient id="paint11_radial_0_3951" cx="0" cy="0" r="1" gradientUnits="userSpaceOnUse" gradientTransform="translate(235.354 104.479) rotate(38.7817) scale(39.4905 128.376)">
<stop stop-color="#0A0A0A"/>
<stop offset="1" stop-color="white" stop-opacity="0"/>
</radialGradient>
<radialGradient id="paint12_radial_0_3951" cx="0" cy="0" r="1" gradientUnits="userSpaceOnUse" gradientTransform="translate(243.913 131.208) rotate(38.7817) scale(45.4315 137.52)">
<stop stop-color="#0A0A0A"/>
<stop offset="1" stop-color="white" stop-opacity="0"/>
</radialGradient>
<radialGradient id="paint13_radial_0_3951" cx="0" cy="0" r="1" gradientUnits="userSpaceOnUse" gradientTransform="translate(232.312 89.8521) rotate(38.7817) scale(34.9473 123.1)">
<stop stop-color="#0A0A0A"/>
<stop offset="1" stop-color="white" stop-opacity="0"/>
</radialGradient>
<radialGradient id="paint14_radial_0_3951" cx="0" cy="0" r="1" gradientUnits="userSpaceOnUse" gradientTransform="translate(240.758 148.526) rotate(38.7817) scale(43.3347 134.003)">
<stop stop-color="#0A0A0A"/>
<stop offset="1" stop-color="white" stop-opacity="0"/>
</radialGradient>
<radialGradient id="paint15_radial_0_3951" cx="0" cy="0" r="1" gradientUnits="userSpaceOnUse" gradientTransform="translate(229.629 69.1998) rotate(38.7817) scale(29.7053 121.341)">
<stop stop-color="#0A0A0A"/>
<stop offset="1" stop-color="white" stop-opacity="0"/>
</radialGradient>
<radialGradient id="paint16_radial_0_3951" cx="0" cy="0" r="1" gradientUnits="userSpaceOnUse" gradientTransform="translate(227.677 55.4486) rotate(38.7817) scale(30.0547 111.845)">
<stop stop-color="#0A0A0A"/>
<stop offset="1" stop-color="white" stop-opacity="0"/>
</radialGradient>
<radialGradient id="paint17_radial_0_3951" cx="0" cy="0" r="1" gradientUnits="userSpaceOnUse" gradientTransform="translate(249.759 160.72) rotate(38.7817) scale(46.806 136.465)">
<stop stop-color="#0A0A0A"/>
<stop offset="1" stop-color="white" stop-opacity="0"/>
</radialGradient>
<radialGradient id="paint18_radial_0_3951" cx="0" cy="0" r="1" gradientUnits="userSpaceOnUse" gradientTransform="translate(258.274 166.211) rotate(38.7817) scale(49.1943 144.554)">
<stop stop-color="#0A0A0A"/>
<stop offset="1" stop-color="white" stop-opacity="0"/>
</radialGradient>
<radialGradient id="paint19_radial_0_3951" cx="0" cy="0" r="1" gradientUnits="userSpaceOnUse" gradientTransform="translate(261.663 177.505) rotate(38.7817) scale(54.0179 148.423)">
<stop stop-color="#0A0A0A"/>
<stop offset="1" stop-color="white" stop-opacity="0"/>
</radialGradient>
</defs>
</svg>
