<svg width="1920" height="687" viewBox="0 0 1920 687" fill="none" xmlns="http://www.w3.org/2000/svg">
<path d="M1311.14 340.5C1562.81 116.666 1799.5 93.4993 1923 93.4995V687H-68H-336V650.5C-336 650.5 -127 415.5 193.5 561.5C411.702 660.9 887.952 716.885 1311.14 340.5Z" fill="url(#paint0_linear_0_844)"/>
<g opacity="0.6">
<path opacity="0.2" d="M-31.4497 592.842C-20.63 587.1 -9.44261 582.058 1.98207 577.644C14.2254 572.911 26.7298 568.889 39.3883 565.437C53.3162 561.64 67.434 558.532 81.6348 555.946C97.366 553.087 113.216 550.856 129.101 549.089C146.79 547.131 164.526 545.731 182.298 544.747C202.087 543.643 221.899 543.038 241.723 542.789C263.778 542.504 285.832 542.647 307.875 543.086C332.35 543.572 356.812 544.414 381.263 545.506C408.324 546.716 435.362 548.223 462.399 549.931C492.201 551.817 521.99 553.941 551.78 556.219C579.221 558.319 606.732 559.647 634.256 559.73C657.022 559.802 679.801 559.042 702.496 557.097C721.003 555.507 739.451 553.134 757.697 549.646C772.563 546.799 787.297 543.204 801.7 538.566C813.136 534.888 824.383 530.534 835.203 525.302C843.804 521.138 852.156 516.404 860.01 510.959C866.048 506.771 871.814 502.156 877.093 497.031C881.056 493.187 884.745 489.059 888.008 484.61C890.215 481.608 892.231 478.464 893.928 475.154C894.806 473.434 895.636 471.666 896.253 469.839C896.336 469.614 896.407 469.377 896.467 469.151C895.458 470.634 894.308 472.034 893.145 473.399C889.871 477.242 886.276 480.79 882.503 484.147C876.571 489.426 870.177 494.172 863.498 498.455C854.446 504.268 844.86 509.239 834.966 513.45C822.438 518.789 809.411 522.929 796.159 526.073C779.55 530.012 762.585 532.385 745.549 533.535C724.622 534.959 703.587 534.556 682.695 532.847C656.821 530.724 631.136 526.571 605.783 521.043C574.938 514.316 544.555 505.525 514.682 495.358C483.706 484.811 453.217 472.829 423.379 459.376C396.271 447.156 369.696 433.762 343.703 419.3C318.967 405.538 294.766 390.816 271.121 375.239C248.782 360.516 226.953 345.022 205.658 328.828C185.999 313.892 166.792 298.35 148.048 282.275C130.905 267.564 114.153 252.402 97.805 236.813C83.4499 223.123 69.4153 209.1 55.7246 194.757C44.0626 182.537 32.6379 170.08 21.4979 157.386C12.6951 147.361 4.07019 137.194 -4.34113 126.849C-10.2493 119.588 -16.0506 112.257 -21.7095 104.806C-24.6636 100.915 -27.594 97 -30.4294 93.0138C-30.7734 92.5274 -31.1175 92.041 -31.4615 91.5546L-31.4378 592.842L-31.4497 592.842Z" fill="url(#paint1_linear_0_844)"/>
<path opacity="0.2" d="M-150.087 577.419C-139.268 571.677 -128.08 566.635 -116.656 562.222C-104.412 557.488 -91.9079 553.466 -79.2494 550.014C-65.3215 546.218 -51.2037 543.109 -37.0029 540.523C-21.2717 537.664 -5.42185 535.433 10.4636 533.666C28.1523 531.708 45.8885 530.308 63.6603 529.324C83.4489 528.22 103.261 527.615 123.085 527.366C145.14 527.081 167.194 527.224 189.237 527.663C213.712 528.149 238.175 528.992 262.626 530.083C289.687 531.293 316.724 532.8 343.761 534.508C373.563 536.394 403.353 538.518 433.142 540.796C460.583 542.896 488.095 544.225 515.618 544.308C538.385 544.379 561.163 543.619 583.858 541.674C602.365 540.084 620.813 537.711 639.06 534.223C653.925 531.376 668.66 527.781 683.062 523.143C694.499 519.465 705.745 515.111 716.565 509.879C725.166 505.715 733.518 500.981 741.372 495.536C747.411 491.348 753.176 486.733 758.456 481.608C762.418 477.764 766.108 473.636 769.37 469.187C771.577 466.185 773.594 463.041 775.29 459.732C776.168 458.011 776.999 456.244 777.616 454.417C777.699 454.191 777.77 453.954 777.829 453.729C776.821 455.211 775.67 456.611 774.507 457.976C771.233 461.82 767.638 465.367 763.866 468.724C757.934 474.004 751.539 478.749 744.86 483.032C735.808 488.845 726.222 493.816 716.328 498.027C703.8 503.366 690.773 507.506 677.522 510.65C660.913 514.589 643.948 516.962 626.911 518.113C605.984 519.536 584.95 519.133 564.058 517.425C538.183 515.301 512.498 511.149 487.146 505.62C456.3 498.893 425.917 490.102 396.045 479.935C365.069 469.389 334.579 457.406 304.742 443.953C277.633 431.733 251.059 418.339 225.065 403.877C200.33 390.116 176.128 375.393 152.484 359.816C130.144 345.093 108.315 329.599 87.0198 313.405C67.3617 298.469 48.1545 282.927 29.4098 266.852C12.2668 252.141 -4.48463 236.979 -20.8327 221.39C-35.1878 207.7 -49.2224 193.677 -62.9131 179.334C-74.5751 167.114 -85.9998 154.657 -97.1398 141.963C-105.943 131.938 -114.568 121.771 -122.979 111.426C-128.887 104.166 -134.688 96.8338 -140.347 89.3835C-143.301 85.4922 -146.232 81.5772 -149.067 77.591C-149.411 77.1046 -149.755 76.6182 -150.099 76.1318L-150.075 577.419L-150.087 577.419Z" fill="url(#paint2_linear_0_844)"/>
<path opacity="0.2" d="M-315.987 549.492C-304.519 543.404 -292.662 538.058 -280.553 533.379C-267.577 528.36 -254.324 524.096 -240.907 520.436C-226.145 516.411 -211.182 513.115 -196.131 510.373C-179.457 507.341 -162.658 504.977 -145.821 503.102C-127.073 501.027 -108.275 499.543 -89.439 498.499C-68.4654 497.329 -47.4667 496.687 -26.4553 496.423C-3.08 496.121 20.2953 496.272 43.658 496.738C69.5985 497.253 95.5263 498.147 121.442 499.304C150.123 500.587 178.78 502.184 207.436 503.996C239.022 505.996 270.596 508.247 302.169 510.662C331.253 512.889 360.413 514.297 389.585 514.385C413.714 514.461 437.857 513.656 461.911 511.593C481.527 509.908 501.079 507.392 520.418 503.694C536.174 500.675 551.791 496.864 567.056 491.945C579.177 488.046 591.098 483.43 602.565 477.883C611.681 473.468 620.534 468.449 628.858 462.675C635.258 458.235 641.369 453.342 646.964 447.908C651.164 443.833 655.075 439.455 658.533 434.738C660.871 431.556 663.009 428.223 664.807 424.713C665.738 422.889 666.618 421.015 667.272 419.078C667.36 418.839 667.435 418.588 667.498 418.349C666.429 419.921 665.21 421.405 663.977 422.852C660.507 426.927 656.697 430.688 652.698 434.248C646.411 439.845 639.634 444.877 632.555 449.418C622.96 455.581 612.801 460.851 602.314 465.317C589.035 470.977 575.229 475.367 561.184 478.7C543.58 482.876 525.599 485.392 507.543 486.612C485.362 488.122 463.068 487.694 440.925 485.883C413.501 483.631 386.278 479.228 359.407 473.367C326.714 466.235 294.512 456.914 262.85 446.134C230.019 434.952 197.704 422.248 166.08 407.984C137.348 395.028 109.182 380.827 81.6319 365.494C55.4148 350.903 29.7636 335.293 4.7034 318.777C-18.9737 303.167 -42.1101 286.74 -64.6806 269.57C-85.516 253.734 -105.873 237.256 -125.741 220.212C-143.91 204.615 -161.665 188.539 -178.992 172.011C-194.207 157.496 -209.082 142.628 -223.592 127.42C-235.953 114.464 -248.062 101.257 -259.869 87.798C-269.199 77.1692 -278.34 66.3894 -287.255 55.421C-293.517 47.7229 -299.666 39.9494 -305.664 32.0501C-308.795 27.9244 -311.9 23.7734 -314.906 19.5471C-315.27 19.0314 -315.635 18.5156 -316 17.9999L-315.974 549.492L-315.987 549.492Z" fill="url(#paint3_linear_0_844)"/>
</g>
<path opacity="0.45" d="M1924.37 661.329C1914.42 656.049 1904.13 651.412 1893.62 647.353C1882.36 643 1870.86 639.301 1859.22 636.126C1846.41 632.635 1833.43 629.776 1820.37 627.398C1805.9 624.768 1791.33 622.717 1776.72 621.091C1760.45 619.291 1744.14 618.004 1727.79 617.098C1709.59 616.083 1691.37 615.527 1673.14 615.298C1652.86 615.036 1632.58 615.167 1612.31 615.571C1589.8 616.018 1567.3 616.793 1544.81 617.796C1519.93 618.909 1495.06 620.295 1470.2 621.866C1442.79 623.601 1415.39 625.554 1388 627.649C1362.76 629.58 1337.46 630.802 1312.14 630.878C1291.21 630.944 1270.26 630.245 1249.39 628.456C1232.37 626.994 1215.4 624.812 1198.62 621.604C1184.95 618.986 1171.4 615.68 1158.15 611.414C1147.64 608.031 1137.29 604.027 1127.34 599.216C1119.43 595.386 1111.75 591.033 1104.53 586.025C1098.97 582.173 1093.67 577.929 1088.82 573.216C1085.17 569.681 1081.78 565.884 1078.78 561.792C1076.75 559.032 1074.9 556.141 1073.33 553.097C1072.53 551.515 1071.76 549.889 1071.2 548.209C1071.12 548.001 1071.05 547.783 1071 547.576C1071.93 548.94 1072.99 550.227 1074.05 551.482C1077.07 555.017 1080.37 558.279 1083.84 561.367C1089.3 566.222 1095.18 570.586 1101.32 574.525C1109.65 579.871 1118.46 584.443 1127.56 588.316C1139.08 593.226 1151.06 597.034 1163.25 599.925C1178.52 603.547 1194.13 605.729 1209.79 606.788C1229.04 608.097 1248.38 607.726 1267.6 606.155C1291.39 604.202 1315.01 600.383 1338.33 595.299C1366.7 589.112 1394.64 581.028 1422.11 571.677C1450.6 561.978 1478.64 550.958 1506.08 538.586C1531.01 527.348 1555.45 515.03 1579.36 501.73C1602.1 489.074 1624.36 475.534 1646.11 461.208C1666.65 447.668 1686.73 433.419 1706.31 418.526C1724.39 404.79 1742.05 390.497 1759.29 375.713C1775.06 362.184 1790.46 348.24 1805.5 333.904C1818.7 321.313 1831.61 308.417 1844.2 295.226C1854.92 283.988 1865.43 272.532 1875.67 260.858C1883.77 251.638 1891.7 242.288 1899.44 232.774C1904.87 226.097 1910.21 219.354 1915.41 212.502C1918.13 208.923 1920.82 205.323 1923.43 201.657C1923.75 201.21 1924.06 200.762 1924.38 200.315L1924.36 661.329H1924.37Z" fill="url(#paint4_linear_0_844)"/>
<path opacity="0.45" d="M2033.48 647.146C2023.52 641.865 2013.24 637.228 2002.73 633.169C1991.47 628.816 1979.97 625.117 1968.33 621.942C1955.52 618.451 1942.54 615.592 1929.48 613.214C1915.01 610.585 1900.43 608.533 1885.82 606.908C1869.56 605.107 1853.24 603.82 1836.9 602.914C1818.7 601.9 1800.48 601.343 1782.25 601.114C1761.97 600.852 1741.68 600.983 1721.41 601.387C1698.9 601.834 1676.41 602.609 1653.92 603.613C1629.03 604.726 1604.17 606.111 1579.3 607.682C1551.89 609.417 1524.5 611.37 1497.1 613.465C1471.87 615.396 1446.56 616.618 1421.25 616.694C1400.31 616.76 1379.37 616.062 1358.49 614.272C1341.47 612.81 1324.51 610.628 1307.73 607.42C1294.06 604.802 1280.51 601.496 1267.26 597.23C1256.74 593.848 1246.4 589.844 1236.45 585.032C1228.54 581.202 1220.86 576.849 1213.63 571.841C1208.08 567.99 1202.78 563.746 1197.92 559.032C1194.28 555.497 1190.89 551.7 1187.89 547.609C1185.86 544.848 1184 541.957 1182.44 538.913C1181.63 537.331 1180.87 535.705 1180.3 534.025C1180.23 533.818 1180.16 533.6 1180.11 533.392C1181.03 534.756 1182.09 536.044 1183.16 537.298C1186.17 540.833 1189.48 544.096 1192.95 547.183C1198.4 552.039 1204.28 556.403 1210.43 560.341C1218.75 565.688 1227.57 570.259 1236.67 574.132C1248.19 579.042 1260.17 582.85 1272.36 585.741C1287.63 589.364 1303.23 591.546 1318.9 592.604C1338.15 593.913 1357.49 593.542 1376.7 591.971C1400.5 590.018 1424.12 586.199 1447.44 581.115C1475.8 574.929 1503.75 566.844 1531.22 557.494C1559.71 547.794 1587.75 536.775 1615.19 524.402C1640.12 513.164 1664.56 500.846 1688.46 487.546C1711.21 474.89 1733.47 461.35 1755.21 447.024C1775.76 433.484 1795.83 419.235 1815.42 404.342C1833.5 390.606 1851.16 376.313 1868.4 361.529C1884.16 348 1899.57 334.057 1914.6 319.72C1927.81 307.129 1940.71 294.233 1953.3 281.042C1964.03 269.804 1974.54 258.348 1984.78 246.674C1992.88 237.455 2000.81 228.104 2008.54 218.59C2013.98 211.913 2019.31 205.17 2024.52 198.318C2027.23 194.74 2029.93 191.139 2032.54 187.473C2032.85 187.026 2033.17 186.579 2033.49 186.131L2033.46 647.146H2033.48Z" fill="url(#paint5_linear_0_844)"/>
<path opacity="0.45" d="M2186.05 621.463C2175.5 615.864 2164.6 610.947 2153.46 606.644C2141.53 602.028 2129.34 598.107 2117 594.741C2103.42 591.039 2089.66 588.008 2075.82 585.486C2060.49 582.698 2045.04 580.524 2029.55 578.8C2012.31 576.891 1995.02 575.526 1977.7 574.566C1958.41 573.49 1939.1 572.9 1919.78 572.657C1898.28 572.38 1876.78 572.519 1855.3 572.947C1831.44 573.421 1807.6 574.242 1783.76 575.306C1757.38 576.486 1731.03 577.955 1704.68 579.621C1675.63 581.461 1646.59 583.531 1617.55 585.752C1590.81 587.8 1563.99 589.095 1537.16 589.176C1514.97 589.246 1492.77 588.505 1470.65 586.608C1452.61 585.058 1434.62 582.745 1416.84 579.344C1402.35 576.567 1387.99 573.062 1373.95 568.539C1362.8 564.953 1351.84 560.708 1341.29 555.606C1332.91 551.546 1324.77 546.93 1317.11 541.621C1311.23 537.537 1305.61 533.037 1300.46 528.04C1296.6 524.292 1293 520.266 1289.82 515.928C1287.67 513.001 1285.7 509.936 1284.05 506.708C1283.19 505.031 1282.38 503.307 1281.78 501.526C1281.7 501.306 1281.63 501.075 1281.58 500.855C1282.56 502.301 1283.68 503.666 1284.81 504.996C1288 508.744 1291.51 512.203 1295.19 515.477C1300.97 520.625 1307.2 525.252 1313.71 529.428C1322.53 535.096 1331.88 539.943 1341.52 544.05C1353.73 549.255 1366.43 553.293 1379.35 556.358C1395.54 560.199 1412.07 562.512 1428.68 563.634C1449.08 565.022 1469.58 564.629 1489.95 562.963C1515.17 560.893 1540.2 556.844 1564.91 551.453C1594.98 544.894 1624.6 536.322 1653.71 526.409C1683.91 516.125 1713.63 504.441 1742.71 491.323C1769.13 479.408 1795.04 466.348 1820.37 452.246C1844.48 438.828 1868.07 424.472 1891.12 409.283C1912.9 394.927 1934.17 379.819 1954.93 364.029C1974.09 349.465 1992.82 334.311 2011.09 318.636C2027.8 304.292 2044.12 289.508 2060.06 274.308C2074.05 260.959 2087.73 247.285 2101.08 233.3C2112.44 221.385 2123.58 209.238 2134.44 196.861C2143.02 187.086 2151.43 177.172 2159.62 167.085C2165.38 160.005 2171.04 152.856 2176.55 145.591C2179.43 141.797 2182.29 137.98 2185.05 134.093C2185.39 133.618 2185.72 133.144 2186.06 132.67L2186.04 621.463H2186.05Z" fill="url(#paint6_linear_0_844)"/>
<defs>
<linearGradient id="paint0_linear_0_844" x1="2332" y1="4531" x2="-22.0004" y2="983.501" gradientUnits="userSpaceOnUse">
<stop stop-color="#FC5828"/>
<stop offset="1" stop-color="white" stop-opacity="0"/>
</linearGradient>
<linearGradient id="paint1_linear_0_844" x1="896.455" y1="342.198" x2="-31.4852" y2="342.198" gradientUnits="userSpaceOnUse">
<stop stop-color="white" stop-opacity="0"/>
<stop offset="0.94" stop-color="#FC5828"/>
</linearGradient>
<linearGradient id="paint2_linear_0_844" x1="777.817" y1="326.775" x2="-150.123" y2="326.775" gradientUnits="userSpaceOnUse">
<stop stop-color="white" stop-opacity="0"/>
<stop offset="0.94" stop-color="#FC5828"/>
</linearGradient>
<linearGradient id="paint3_linear_0_844" x1="667.485" y1="283.746" x2="-316.025" y2="283.746" gradientUnits="userSpaceOnUse">
<stop stop-color="white" stop-opacity="0"/>
<stop offset="0.94" stop-color="#FC5828"/>
</linearGradient>
<linearGradient id="paint4_linear_0_844" x1="1071.01" y1="430.822" x2="1924.4" y2="430.822" gradientUnits="userSpaceOnUse">
<stop stop-color="white" stop-opacity="0"/>
<stop offset="0.94" stop-color="#FC5828"/>
</linearGradient>
<linearGradient id="paint5_linear_0_844" x1="1180.12" y1="416.639" x2="2033.51" y2="416.639" gradientUnits="userSpaceOnUse">
<stop stop-color="white" stop-opacity="0"/>
<stop offset="0.94" stop-color="#FC5828"/>
</linearGradient>
<linearGradient id="paint6_linear_0_844" x1="1281.59" y1="377.066" x2="2186.08" y2="377.066" gradientUnits="userSpaceOnUse">
<stop stop-color="white" stop-opacity="0"/>
<stop offset="0.94" stop-color="#FC5828"/>
</linearGradient>
</defs>
</svg>
