<svg width="897" height="575" viewBox="0 0 897 575" fill="none" xmlns="http://www.w3.org/2000/svg">
<g opacity="0.6">
<path opacity="0.2" d="M-31.4497 574.842C-20.63 569.1 -9.44261 564.058 1.98207 559.644C14.2254 554.911 26.7298 550.889 39.3883 547.437C53.3162 543.64 67.434 540.532 81.6348 537.946C97.366 535.087 113.216 532.856 129.101 531.089C146.79 529.131 164.526 527.731 182.298 526.747C202.087 525.643 221.899 525.038 241.723 524.789C263.778 524.504 285.832 524.647 307.875 525.086C332.35 525.572 356.812 526.414 381.263 527.506C408.324 528.716 435.362 530.223 462.399 531.931C492.201 533.817 521.99 535.941 551.78 538.219C579.221 540.319 606.732 541.647 634.256 541.73C657.022 541.802 679.801 541.042 702.496 539.097C721.003 537.507 739.451 535.134 757.697 531.646C772.563 528.799 787.297 525.204 801.7 520.566C813.136 516.888 824.383 512.534 835.203 507.302C843.804 503.138 852.156 498.404 860.01 492.959C866.048 488.771 871.814 484.156 877.093 479.031C881.056 475.187 884.745 471.059 888.008 466.61C890.215 463.608 892.231 460.464 893.928 457.154C894.806 455.434 895.636 453.666 896.253 451.839C896.336 451.614 896.407 451.377 896.467 451.151C895.458 452.634 894.308 454.034 893.145 455.399C889.871 459.242 886.276 462.79 882.503 466.147C876.571 471.426 870.177 476.172 863.498 480.455C854.446 486.268 844.86 491.239 834.966 495.45C822.438 500.789 809.411 504.929 796.159 508.073C779.55 512.012 762.585 514.385 745.549 515.535C724.622 516.959 703.587 516.556 682.695 514.847C656.821 512.724 631.136 508.571 605.783 503.043C574.938 496.316 544.555 487.525 514.682 477.358C483.706 466.811 453.217 454.829 423.379 441.376C396.271 429.156 369.696 415.762 343.703 401.3C318.967 387.538 294.766 372.816 271.121 357.239C248.782 342.516 226.953 327.022 205.658 310.828C185.999 295.892 166.792 280.35 148.048 264.275C130.905 249.564 114.153 234.402 97.805 218.813C83.4499 205.123 69.4153 191.1 55.7246 176.757C44.0626 164.537 32.6379 152.08 21.4979 139.386C12.6951 129.361 4.07019 119.194 -4.34113 108.849C-10.2493 101.588 -16.0506 94.2567 -21.7095 86.8063C-24.6636 82.915 -27.594 79 -30.4294 75.0138C-30.7734 74.5274 -31.1175 74.041 -31.4615 73.5546L-31.4378 574.842L-31.4497 574.842Z" fill="url(#paint0_linear_0_846)"/>
<path opacity="0.2" d="M-150.087 559.419C-139.268 553.677 -128.08 548.635 -116.656 544.222C-104.412 539.488 -91.9079 535.466 -79.2494 532.014C-65.3215 528.218 -51.2037 525.109 -37.0029 522.523C-21.2717 519.664 -5.42185 517.433 10.4636 515.666C28.1523 513.708 45.8885 512.308 63.6603 511.324C83.4489 510.22 103.261 509.615 123.085 509.366C145.14 509.081 167.194 509.224 189.237 509.663C213.712 510.149 238.175 510.992 262.626 512.083C289.687 513.293 316.724 514.8 343.761 516.508C373.563 518.394 403.353 520.518 433.142 522.796C460.583 524.896 488.095 526.225 515.618 526.308C538.385 526.379 561.163 525.619 583.858 523.674C602.365 522.084 620.813 519.711 639.06 516.223C653.925 513.376 668.66 509.781 683.062 505.143C694.499 501.465 705.745 497.111 716.565 491.879C725.166 487.715 733.518 482.981 741.372 477.536C747.411 473.348 753.176 468.733 758.456 463.608C762.418 459.764 766.108 455.636 769.37 451.187C771.577 448.185 773.594 445.041 775.29 441.732C776.168 440.011 776.999 438.244 777.616 436.417C777.699 436.191 777.77 435.954 777.829 435.729C776.821 437.211 775.67 438.611 774.507 439.976C771.233 443.82 767.638 447.367 763.866 450.724C757.934 456.004 751.539 460.749 744.86 465.032C735.808 470.845 726.222 475.816 716.328 480.027C703.8 485.366 690.773 489.506 677.522 492.65C660.913 496.589 643.948 498.962 626.911 500.113C605.984 501.536 584.95 501.133 564.058 499.425C538.183 497.301 512.498 493.149 487.146 487.62C456.3 480.893 425.917 472.102 396.045 461.935C365.069 451.389 334.579 439.406 304.742 425.953C277.633 413.733 251.059 400.339 225.065 385.877C200.33 372.116 176.128 357.393 152.484 341.816C130.144 327.093 108.315 311.599 87.0198 295.405C67.3617 280.469 48.1545 264.927 29.4098 248.852C12.2668 234.141 -4.48463 218.979 -20.8327 203.39C-35.1878 189.7 -49.2224 175.677 -62.9131 161.334C-74.5751 149.114 -85.9998 136.657 -97.1398 123.963C-105.943 113.938 -114.568 103.771 -122.979 93.4262C-128.887 86.1656 -134.688 78.8338 -140.347 71.3835C-143.301 67.4922 -146.232 63.5772 -149.067 59.591C-149.411 59.1046 -149.755 58.6182 -150.099 58.1318L-150.075 559.419L-150.087 559.419Z" fill="url(#paint1_linear_0_846)"/>
<path opacity="0.2" d="M-315.987 531.492C-304.519 525.404 -292.662 520.058 -280.553 515.379C-267.577 510.36 -254.324 506.096 -240.907 502.436C-226.145 498.411 -211.182 495.115 -196.131 492.373C-179.457 489.341 -162.658 486.977 -145.821 485.102C-127.073 483.027 -108.275 481.543 -89.439 480.499C-68.4654 479.329 -47.4667 478.687 -26.4553 478.423C-3.08 478.121 20.2953 478.272 43.658 478.738C69.5985 479.253 95.5263 480.147 121.442 481.304C150.123 482.587 178.78 484.184 207.436 485.996C239.022 487.996 270.596 490.247 302.169 492.662C331.253 494.889 360.413 496.297 389.585 496.385C413.714 496.461 437.857 495.656 461.911 493.593C481.527 491.908 501.079 489.392 520.418 485.694C536.174 482.675 551.791 478.864 567.056 473.945C579.177 470.046 591.098 465.43 602.565 459.883C611.681 455.468 620.534 450.449 628.858 444.675C635.258 440.235 641.369 435.342 646.964 429.908C651.164 425.833 655.075 421.455 658.533 416.738C660.871 413.556 663.009 410.223 664.807 406.713C665.738 404.889 666.618 403.015 667.272 401.078C667.36 400.839 667.435 400.588 667.498 400.349C666.429 401.921 665.21 403.405 663.977 404.852C660.507 408.927 656.697 412.688 652.698 416.248C646.411 421.845 639.634 426.877 632.555 431.418C622.96 437.581 612.801 442.851 602.314 447.317C589.035 452.977 575.229 457.367 561.184 460.7C543.58 464.876 525.599 467.392 507.543 468.612C485.362 470.122 463.068 469.694 440.925 467.883C413.501 465.631 386.278 461.228 359.407 455.367C326.714 448.235 294.512 438.914 262.85 428.134C230.019 416.952 197.704 404.248 166.08 389.984C137.348 377.028 109.182 362.827 81.6319 347.494C55.4148 332.903 29.7636 317.293 4.7034 300.777C-18.9737 285.167 -42.1101 268.74 -64.6806 251.57C-85.516 235.734 -105.873 219.256 -125.741 202.212C-143.91 186.615 -161.665 170.539 -178.992 154.011C-194.207 139.496 -209.082 124.628 -223.592 109.42C-235.953 96.4645 -248.062 83.257 -259.869 69.798C-269.199 59.1692 -278.34 48.3894 -287.255 37.421C-293.517 29.7229 -299.666 21.9494 -305.664 14.0501C-308.795 9.92435 -311.9 5.77345 -314.906 1.54707C-315.27 1.03135 -315.635 0.515633 -316 -8.59801e-05L-315.974 531.492L-315.987 531.492Z" fill="url(#paint2_linear_0_846)"/>
</g>
<defs>
<linearGradient id="paint0_linear_0_846" x1="896.455" y1="324.198" x2="-31.4852" y2="324.198" gradientUnits="userSpaceOnUse">
<stop stop-color="white" stop-opacity="0"/>
<stop offset="0.94" stop-color="#FC5828"/>
</linearGradient>
<linearGradient id="paint1_linear_0_846" x1="777.817" y1="308.775" x2="-150.123" y2="308.775" gradientUnits="userSpaceOnUse">
<stop stop-color="white" stop-opacity="0"/>
<stop offset="0.94" stop-color="#FC5828"/>
</linearGradient>
<linearGradient id="paint2_linear_0_846" x1="667.485" y1="265.746" x2="-316.025" y2="265.746" gradientUnits="userSpaceOnUse">
<stop stop-color="white" stop-opacity="0"/>
<stop offset="0.94" stop-color="#FC5828"/>
</linearGradient>
</defs>
</svg>
