<svg width="1920" height="594" viewBox="0 0 1920 594" fill="none" xmlns="http://www.w3.org/2000/svg">
<path d="M1311.14 247.5C1562.81 23.6661 1799.5 0.499335 1923 0.499512V594H-68H-336V557.5C-336 557.5 -127 322.5 193.5 468.5C411.702 567.9 887.952 623.885 1311.14 247.5Z" fill="url(#paint0_linear_117_878)"/>
<path opacity="0.45" d="M1924.37 568.329C1914.42 563.049 1904.13 558.412 1893.62 554.353C1882.36 550 1870.86 546.301 1859.22 543.126C1846.41 539.635 1833.43 536.776 1820.37 534.398C1805.9 531.768 1791.33 529.717 1776.72 528.091C1760.45 526.291 1744.14 525.004 1727.79 524.098C1709.59 523.083 1691.37 522.527 1673.14 522.298C1652.86 522.036 1632.58 522.167 1612.31 522.571C1589.8 523.018 1567.3 523.793 1544.81 524.796C1519.93 525.909 1495.06 527.295 1470.2 528.866C1442.79 530.601 1415.39 532.554 1388 534.649C1362.76 536.58 1337.46 537.802 1312.14 537.878C1291.21 537.944 1270.26 537.245 1249.39 535.456C1232.37 533.994 1215.4 531.812 1198.62 528.604C1184.95 525.986 1171.4 522.68 1158.15 518.414C1147.64 515.031 1137.29 511.027 1127.34 506.216C1119.43 502.386 1111.75 498.033 1104.53 493.025C1098.97 489.173 1093.67 484.929 1088.82 480.216C1085.17 476.681 1081.78 472.884 1078.78 468.792C1076.75 466.032 1074.9 463.141 1073.33 460.097C1072.53 458.515 1071.76 456.889 1071.2 455.209C1071.12 455.001 1071.05 454.783 1071 454.576C1071.93 455.94 1072.99 457.227 1074.05 458.482C1077.07 462.017 1080.37 465.279 1083.84 468.367C1089.3 473.222 1095.18 477.586 1101.32 481.525C1109.65 486.871 1118.46 491.443 1127.56 495.316C1139.08 500.226 1151.06 504.034 1163.25 506.925C1178.52 510.547 1194.13 512.729 1209.79 513.788C1229.04 515.097 1248.38 514.726 1267.6 513.155C1291.39 511.202 1315.01 507.383 1338.33 502.299C1366.7 496.112 1394.64 488.028 1422.11 478.677C1450.6 468.978 1478.64 457.958 1506.08 445.586C1531.01 434.348 1555.45 422.03 1579.36 408.73C1602.1 396.074 1624.36 382.534 1646.11 368.208C1666.65 354.668 1686.73 340.419 1706.31 325.526C1724.39 311.79 1742.05 297.497 1759.29 282.713C1775.06 269.184 1790.46 255.24 1805.5 240.904C1818.7 228.313 1831.61 215.417 1844.2 202.226C1854.92 190.988 1865.43 179.532 1875.67 167.858C1883.77 158.638 1891.7 149.288 1899.44 139.774C1904.87 133.097 1910.21 126.354 1915.41 119.502C1918.13 115.923 1920.82 112.323 1923.43 108.657C1923.75 108.21 1924.06 107.762 1924.38 107.315L1924.36 568.329H1924.37Z" fill="url(#paint1_linear_117_878)"/>
<path opacity="0.45" d="M2033.48 554.146C2023.52 548.865 2013.24 544.228 2002.73 540.169C1991.47 535.816 1979.97 532.117 1968.33 528.942C1955.52 525.451 1942.54 522.592 1929.48 520.214C1915.01 517.585 1900.43 515.533 1885.82 513.908C1869.56 512.107 1853.24 510.82 1836.9 509.914C1818.7 508.9 1800.48 508.343 1782.25 508.114C1761.97 507.852 1741.68 507.983 1721.41 508.387C1698.9 508.834 1676.41 509.609 1653.92 510.613C1629.03 511.726 1604.17 513.111 1579.3 514.682C1551.89 516.417 1524.5 518.37 1497.1 520.465C1471.87 522.396 1446.56 523.618 1421.25 523.694C1400.31 523.76 1379.37 523.062 1358.49 521.272C1341.47 519.81 1324.51 517.628 1307.73 514.42C1294.06 511.802 1280.51 508.496 1267.26 504.23C1256.74 500.848 1246.4 496.844 1236.45 492.032C1228.54 488.202 1220.86 483.849 1213.63 478.841C1208.08 474.99 1202.78 470.746 1197.92 466.032C1194.28 462.497 1190.89 458.7 1187.89 454.609C1185.86 451.848 1184 448.957 1182.44 445.913C1181.63 444.331 1180.87 442.705 1180.3 441.025C1180.23 440.818 1180.16 440.6 1180.11 440.392C1181.03 441.756 1182.09 443.044 1183.16 444.298C1186.17 447.833 1189.48 451.096 1192.95 454.183C1198.4 459.039 1204.28 463.403 1210.43 467.341C1218.75 472.688 1227.57 477.259 1236.67 481.132C1248.19 486.042 1260.17 489.85 1272.36 492.741C1287.63 496.364 1303.23 498.546 1318.9 499.604C1338.15 500.913 1357.49 500.542 1376.7 498.971C1400.5 497.018 1424.12 493.199 1447.44 488.115C1475.8 481.929 1503.75 473.844 1531.22 464.494C1559.71 454.794 1587.75 443.775 1615.19 431.402C1640.12 420.164 1664.56 407.846 1688.46 394.546C1711.21 381.89 1733.47 368.35 1755.21 354.024C1775.76 340.484 1795.83 326.235 1815.42 311.342C1833.5 297.606 1851.16 283.313 1868.4 268.529C1884.16 255 1899.57 241.057 1914.6 226.72C1927.81 214.129 1940.71 201.233 1953.3 188.042C1964.03 176.804 1974.54 165.348 1984.78 153.674C1992.88 144.455 2000.81 135.104 2008.54 125.59C2013.98 118.913 2019.31 112.17 2024.52 105.318C2027.23 101.74 2029.93 98.1393 2032.54 94.4733C2032.85 94.026 2033.17 93.5787 2033.49 93.1313L2033.46 554.146H2033.48Z" fill="url(#paint2_linear_117_878)"/>
<path opacity="0.45" d="M2186.05 528.463C2175.5 522.864 2164.6 517.947 2153.46 513.644C2141.53 509.028 2129.34 505.107 2117 501.741C2103.42 498.039 2089.66 495.008 2075.82 492.486C2060.49 489.698 2045.04 487.524 2029.55 485.8C2012.31 483.891 1995.02 482.526 1977.7 481.566C1958.41 480.49 1939.1 479.9 1919.78 479.657C1898.28 479.38 1876.78 479.519 1855.3 479.947C1831.44 480.421 1807.6 481.242 1783.76 482.306C1757.38 483.486 1731.03 484.955 1704.68 486.621C1675.63 488.461 1646.59 490.531 1617.55 492.752C1590.81 494.8 1563.99 496.095 1537.16 496.176C1514.97 496.246 1492.77 495.505 1470.65 493.608C1452.61 492.058 1434.62 489.745 1416.84 486.344C1402.35 483.567 1387.99 480.062 1373.95 475.539C1362.8 471.953 1351.84 467.708 1341.29 462.606C1332.91 458.546 1324.77 453.93 1317.11 448.621C1311.23 444.537 1305.61 440.037 1300.46 435.04C1296.6 431.292 1293 427.266 1289.82 422.928C1287.67 420.001 1285.7 416.936 1284.05 413.708C1283.19 412.031 1282.38 410.307 1281.78 408.526C1281.7 408.306 1281.63 408.075 1281.58 407.855C1282.56 409.301 1283.68 410.666 1284.81 411.996C1288 415.744 1291.51 419.203 1295.19 422.477C1300.97 427.625 1307.2 432.252 1313.71 436.428C1322.53 442.096 1331.88 446.943 1341.52 451.05C1353.73 456.255 1366.43 460.293 1379.35 463.358C1395.54 467.199 1412.07 469.512 1428.68 470.634C1449.08 472.022 1469.58 471.629 1489.95 469.963C1515.17 467.893 1540.2 463.844 1564.91 458.453C1594.98 451.894 1624.6 443.322 1653.71 433.409C1683.91 423.125 1713.63 411.441 1742.71 398.323C1769.13 386.408 1795.04 373.348 1820.37 359.246C1844.48 345.828 1868.07 331.472 1891.12 316.283C1912.9 301.927 1934.17 286.819 1954.93 271.029C1974.09 256.465 1992.82 241.311 2011.09 225.636C2027.8 211.292 2044.12 196.508 2060.06 181.308C2074.05 167.959 2087.73 154.285 2101.08 140.3C2112.44 128.385 2123.58 116.238 2134.44 103.861C2143.02 94.0856 2151.43 84.1719 2159.62 74.0846C2165.38 67.005 2171.04 59.856 2176.55 52.5913C2179.43 48.797 2182.29 44.9796 2185.05 41.0928C2185.39 40.6185 2185.72 40.1442 2186.06 39.6699L2186.04 528.463H2186.05Z" fill="url(#paint3_linear_117_878)"/>
<defs>
<linearGradient id="paint0_linear_117_878" x1="2332" y1="4438" x2="-22.0004" y2="890.501" gradientUnits="userSpaceOnUse">
<stop stop-color="#FC5828"/>
<stop offset="1" stop-color="white" stop-opacity="0"/>
</linearGradient>
<linearGradient id="paint1_linear_117_878" x1="1071.01" y1="337.822" x2="1924.4" y2="337.822" gradientUnits="userSpaceOnUse">
<stop stop-color="white" stop-opacity="0"/>
<stop offset="0.94" stop-color="#FC5828"/>
</linearGradient>
<linearGradient id="paint2_linear_117_878" x1="1180.12" y1="323.639" x2="2033.51" y2="323.639" gradientUnits="userSpaceOnUse">
<stop stop-color="white" stop-opacity="0"/>
<stop offset="0.94" stop-color="#FC5828"/>
</linearGradient>
<linearGradient id="paint3_linear_117_878" x1="1281.59" y1="284.066" x2="2186.08" y2="284.066" gradientUnits="userSpaceOnUse">
<stop stop-color="white" stop-opacity="0"/>
<stop offset="0.94" stop-color="#FC5828"/>
</linearGradient>
</defs>
</svg>
