<svg width="558" height="614" viewBox="0 0 558 614" fill="none" xmlns="http://www.w3.org/2000/svg">
<g opacity="0.6">
<path d="M82.1699 155.611C131.989 201.565 252.499 290.122 335.989 276.723C419.478 263.323 532.258 296.049 578.212 314.087" stroke="url(#paint0_radial_0_1584)" stroke-width="0.990292"/>
<path d="M111.805 138.862C116.958 144.015 220.032 247.089 326.971 250.954C433.91 254.82 500.908 238.07 582.078 284.453" stroke="url(#paint1_radial_0_1584)" stroke-width="0.990292"/>
<path d="M66.71 171.071C101.497 209.294 192.975 288.833 280.588 301.201C390.103 316.663 480.293 284.452 570.482 338.566" stroke="url(#paint2_radial_0_1584)" stroke-width="0.990292"/>
<path d="M138.861 125.977C169.783 156.899 250.954 219.516 328.259 222.609C424.891 226.474 530.541 217.455 589.808 254.819" stroke="url(#paint3_radial_0_1584)" stroke-width="0.990292"/>
<path d="M44.8066 190.398C74.4403 224.756 148.653 296.306 208.436 307.644C283.165 321.817 396.546 334.701 535.695 350.162" stroke="url(#paint4_radial_0_1584)" stroke-width="0.990292"/>
<path d="M168.494 107.939C204.999 135.855 292.956 192.201 352.738 194.263C427.467 196.84 569.193 182.667 612.999 217.455" stroke="url(#paint5_radial_0_1584)" stroke-width="0.990292"/>
<path d="M203.282 88.6138C218.743 92.479 292.183 147.881 334.701 153.035C377.219 158.188 573.059 145.304 613 199.418" stroke="url(#paint6_radial_0_1584)" stroke-width="0.990292"/>
<path d="M33.2109 211.013C42.2299 220.032 98.9204 301.203 168.495 321.818C238.07 342.432 325.683 345.009 399.123 363.047C472.563 381.085 508.638 388.816 533.118 379.797" stroke="url(#paint7_radial_0_1584)" stroke-width="0.990292"/>
<path d="M20.3262 225.186C42.2293 258.685 95.5699 328.775 133.707 341.144C181.379 356.605 252.242 355.316 294.76 372.066C337.278 388.815 408.141 399.123 458.389 404.276C498.588 408.399 536.124 405.994 549.867 404.276" stroke="url(#paint8_radial_0_1584)" stroke-width="0.990292"/>
<path d="M1 234.205C24.1916 272.857 77.2745 352.482 104.074 361.758C137.573 373.354 153.034 352.74 192.975 382.373C232.916 412.007 234.204 372.066 320.528 410.718C406.853 449.371 522.811 428.756 544.714 419.737" stroke="url(#paint9_radial_0_1584)" stroke-width="0.990292"/>
<path d="M221.75 531.828C267.704 482.009 356.261 361.499 342.862 278.009C329.462 194.519 362.188 81.7397 380.226 35.786" stroke="url(#paint10_radial_0_1584)" stroke-width="0.990292"/>
<path d="M205.001 502.195C210.155 497.042 313.228 393.968 317.094 287.029C320.959 180.09 304.209 113.092 350.592 31.9219" stroke="url(#paint11_radial_0_1584)" stroke-width="0.990292"/>
<path d="M237.21 547.289C275.433 512.502 354.972 421.024 367.34 333.412C382.802 223.896 350.591 133.707 404.705 43.5171" stroke="url(#paint12_radial_0_1584)" stroke-width="0.990292"/>
<path d="M192.115 475.138C223.037 444.216 285.655 363.045 288.747 285.74C292.612 189.108 283.593 83.458 320.957 24.1907" stroke="url(#paint13_radial_0_1584)" stroke-width="0.990292"/>
<path d="M256.536 569.193C290.894 539.559 362.444 465.346 373.782 405.563C387.955 330.835 400.839 217.454 416.3 78.3044" stroke="url(#paint14_radial_0_1584)" stroke-width="0.990292"/>
<path d="M174.078 445.506C201.994 409.001 258.341 321.044 260.402 261.262C262.979 186.533 248.807 44.807 283.594 1.00073" stroke="url(#paint15_radial_0_1584)" stroke-width="0.990292"/>
<path d="M154.752 410.718C158.617 395.257 214.019 321.817 219.173 279.299C224.327 236.781 211.442 40.9411 265.556 1.00006" stroke="url(#paint16_radial_0_1584)" stroke-width="0.990292"/>
<path d="M277.152 580.788C286.171 571.769 367.342 515.079 387.957 445.504C408.571 375.929 411.148 288.317 429.186 214.877C447.224 141.437 454.954 105.361 445.935 80.8808" stroke="url(#paint17_radial_0_1584)" stroke-width="0.990292"/>
<path d="M291.324 593.673C324.823 571.769 394.913 518.429 407.282 480.292C422.743 432.62 421.455 361.757 438.204 319.239C454.954 276.721 465.261 205.858 470.415 155.61C474.538 115.411 472.133 77.875 470.415 64.1319" stroke="url(#paint18_radial_0_1584)" stroke-width="0.990292"/>
<path d="M300.343 613C338.995 589.808 418.62 536.725 427.896 509.926C439.492 476.427 418.877 460.966 448.511 421.025C478.145 381.084 438.204 379.796 476.856 293.472C515.509 207.147 494.894 91.1894 485.875 69.2863" stroke="url(#paint19_radial_0_1584)" stroke-width="0.990292"/>
</g>
<defs>
<radialGradient id="paint0_radial_0_1584" cx="0" cy="0" r="1" gradientUnits="userSpaceOnUse" gradientTransform="translate(330.191 234.849) rotate(90) scale(79.2379 248.021)">
<stop stop-color="#413F3E"/>
<stop offset="1" stop-color="white" stop-opacity="0"/>
</radialGradient>
<radialGradient id="paint1_radial_0_1584" cx="0" cy="0" r="1" gradientUnits="userSpaceOnUse" gradientTransform="translate(346.941 211.658) rotate(90) scale(72.7957 235.137)">
<stop stop-color="#413F3E"/>
<stop offset="1" stop-color="white" stop-opacity="0"/>
</radialGradient>
<radialGradient id="paint2_radial_0_1584" cx="0" cy="0" r="1" gradientUnits="userSpaceOnUse" gradientTransform="translate(318.596 254.818) rotate(90) scale(83.7473 251.886)">
<stop stop-color="#413F3E"/>
<stop offset="1" stop-color="white" stop-opacity="0"/>
</radialGradient>
<radialGradient id="paint3_radial_0_1584" cx="0" cy="0" r="1" gradientUnits="userSpaceOnUse" gradientTransform="translate(364.335 190.398) rotate(90) scale(64.421 225.474)">
<stop stop-color="#413F3E"/>
<stop offset="1" stop-color="white" stop-opacity="0"/>
</radialGradient>
<radialGradient id="paint4_radial_0_1584" cx="0" cy="0" r="1" gradientUnits="userSpaceOnUse" gradientTransform="translate(290.251 270.28) rotate(90) scale(79.8821 245.444)">
<stop stop-color="#413F3E"/>
<stop offset="1" stop-color="white" stop-opacity="0"/>
</radialGradient>
<radialGradient id="paint5_radial_0_1584" cx="0" cy="0" r="1" gradientUnits="userSpaceOnUse" gradientTransform="translate(390.747 162.697) rotate(90) scale(54.7579 222.253)">
<stop stop-color="#413F3E"/>
<stop offset="1" stop-color="white" stop-opacity="0"/>
</radialGradient>
<radialGradient id="paint6_radial_0_1584" cx="0" cy="0" r="1" gradientUnits="userSpaceOnUse" gradientTransform="translate(408.141 144.016) rotate(90) scale(55.4021 204.859)">
<stop stop-color="#413F3E"/>
<stop offset="1" stop-color="white" stop-opacity="0"/>
</radialGradient>
<radialGradient id="paint7_radial_0_1584" cx="0" cy="0" r="1" gradientUnits="userSpaceOnUse" gradientTransform="translate(283.165 297.294) rotate(90) scale(86.281 249.954)">
<stop stop-color="#413F3E"/>
<stop offset="1" stop-color="white" stop-opacity="0"/>
</radialGradient>
<radialGradient id="paint8_radial_0_1584" cx="0" cy="0" r="1" gradientUnits="userSpaceOnUse" gradientTransform="translate(285.097 315.869) rotate(90) scale(90.6835 264.77)">
<stop stop-color="#413F3E"/>
<stop offset="1" stop-color="white" stop-opacity="0"/>
</radialGradient>
<radialGradient id="paint9_radial_0_1584" cx="0" cy="0" r="1" gradientUnits="userSpaceOnUse" gradientTransform="translate(272.857 333.78) rotate(90) scale(99.5751 271.857)">
<stop stop-color="#413F3E"/>
<stop offset="1" stop-color="white" stop-opacity="0"/>
</radialGradient>
<radialGradient id="paint10_radial_0_1584" cx="0" cy="0" r="1" gradientUnits="userSpaceOnUse" gradientTransform="translate(300.988 283.807) scale(79.2379 248.021)">
<stop stop-color="#413F3E"/>
<stop offset="1" stop-color="white" stop-opacity="0"/>
</radialGradient>
<radialGradient id="paint11_radial_0_1584" cx="0" cy="0" r="1" gradientUnits="userSpaceOnUse" gradientTransform="translate(277.797 267.059) scale(72.7958 235.137)">
<stop stop-color="#413F3E"/>
<stop offset="1" stop-color="white" stop-opacity="0"/>
</radialGradient>
<radialGradient id="paint12_radial_0_1584" cx="0" cy="0" r="1" gradientUnits="userSpaceOnUse" gradientTransform="translate(320.957 295.403) scale(83.7474 251.886)">
<stop stop-color="#413F3E"/>
<stop offset="1" stop-color="white" stop-opacity="0"/>
</radialGradient>
<radialGradient id="paint13_radial_0_1584" cx="0" cy="0" r="1" gradientUnits="userSpaceOnUse" gradientTransform="translate(256.536 249.664) scale(64.421 225.474)">
<stop stop-color="#413F3E"/>
<stop offset="1" stop-color="white" stop-opacity="0"/>
</radialGradient>
<radialGradient id="paint14_radial_0_1584" cx="0" cy="0" r="1" gradientUnits="userSpaceOnUse" gradientTransform="translate(336.418 323.749) scale(79.8821 245.444)">
<stop stop-color="#413F3E"/>
<stop offset="1" stop-color="white" stop-opacity="0"/>
</radialGradient>
<radialGradient id="paint15_radial_0_1584" cx="0" cy="0" r="1" gradientUnits="userSpaceOnUse" gradientTransform="translate(228.836 223.253) scale(54.7579 222.253)">
<stop stop-color="#413F3E"/>
<stop offset="1" stop-color="white" stop-opacity="0"/>
</radialGradient>
<radialGradient id="paint16_radial_0_1584" cx="0" cy="0" r="1" gradientUnits="userSpaceOnUse" gradientTransform="translate(210.154 205.859) scale(55.4021 204.859)">
<stop stop-color="#413F3E"/>
<stop offset="1" stop-color="white" stop-opacity="0"/>
</radialGradient>
<radialGradient id="paint17_radial_0_1584" cx="0" cy="0" r="1" gradientUnits="userSpaceOnUse" gradientTransform="translate(363.433 330.834) scale(86.281 249.954)">
<stop stop-color="#413F3E"/>
<stop offset="1" stop-color="white" stop-opacity="0"/>
</radialGradient>
<radialGradient id="paint18_radial_0_1584" cx="0" cy="0" r="1" gradientUnits="userSpaceOnUse" gradientTransform="translate(382.008 328.902) scale(90.6835 264.77)">
<stop stop-color="#413F3E"/>
<stop offset="1" stop-color="white" stop-opacity="0"/>
</radialGradient>
<radialGradient id="paint19_radial_0_1584" cx="0" cy="0" r="1" gradientUnits="userSpaceOnUse" gradientTransform="translate(399.918 341.143) scale(99.5751 271.857)">
<stop stop-color="#413F3E"/>
<stop offset="1" stop-color="white" stop-opacity="0"/>
</radialGradient>
</defs>
</svg>
