<svg width="809" height="529" viewBox="0 0 809 529" fill="none" xmlns="http://www.w3.org/2000/svg">
<path opacity="0.07" d="M853.369 528.66C843.418 523.379 833.13 518.742 822.623 514.683C811.363 510.33 799.863 506.631 788.222 503.456C775.413 499.965 762.429 497.106 749.369 494.728C734.902 492.098 720.325 490.047 705.716 488.422C689.449 486.621 673.137 485.334 656.793 484.428C638.594 483.414 620.374 482.857 602.142 482.628C581.86 482.366 561.577 482.497 541.305 482.901C518.797 483.348 496.299 484.123 473.813 485.127C448.926 486.239 424.06 487.625 399.195 489.196C371.788 490.931 344.392 492.884 316.995 494.979C291.759 496.91 266.457 498.132 241.145 498.208C220.208 498.274 199.259 497.575 178.387 495.786C161.367 494.324 144.401 492.142 127.621 488.934C113.95 486.316 100.399 483.01 87.1535 478.744C76.6357 475.362 66.2925 471.357 56.3421 466.546C48.4319 462.716 40.7509 458.363 33.5281 453.355C27.9747 449.504 22.6721 445.259 17.8169 440.546C14.1728 437.011 10.7796 433.214 7.77922 429.123C5.74986 426.362 3.89507 423.471 2.33486 420.427C1.52748 418.845 0.763739 417.219 0.19639 415.539C0.120016 415.332 0.0545528 415.113 0 414.906C0.927397 416.27 1.98572 417.557 3.05495 418.812C6.06627 422.347 9.37216 425.609 12.8417 428.697C18.297 433.552 24.1778 437.917 30.3204 441.855C38.6452 447.201 47.4609 451.773 56.5603 455.646C68.0818 460.556 80.0616 464.364 92.2487 467.255C107.523 470.877 123.126 473.059 138.793 474.118C158.039 475.427 177.384 475.056 196.597 473.485C220.393 471.532 244.014 467.713 267.33 462.629C295.698 456.443 323.64 448.358 351.112 439.008C379.6 429.308 407.64 418.288 435.08 405.916C460.011 394.678 484.45 382.36 508.355 369.06C531.104 356.404 553.361 342.864 575.106 328.538C595.651 314.998 615.726 300.749 635.31 285.856C653.389 272.12 671.053 257.827 688.292 243.043C704.058 229.514 719.464 215.57 734.498 201.234C747.7 188.643 760.607 175.747 773.198 162.556C783.923 151.318 794.43 139.862 804.675 128.188C812.771 118.968 820.703 109.618 828.438 100.104C833.872 93.4268 839.207 86.6841 844.411 79.8323C847.128 76.2536 849.823 72.6531 852.43 68.9872C852.747 68.5398 853.063 68.0925 853.38 67.6452L853.358 528.66H853.369Z" fill="url(#paint0_linear_0_701)"/>
<path opacity="0.07" d="M962.475 514.476C952.525 509.195 942.236 504.558 931.729 500.5C920.47 496.146 908.97 492.448 897.328 489.273C884.519 485.781 871.536 482.923 858.476 480.544C844.008 477.915 829.432 475.864 814.823 474.238C798.555 472.438 782.244 471.15 765.9 470.245C747.701 469.23 729.48 468.674 711.249 468.445C690.966 468.183 670.683 468.314 650.412 468.717C627.903 469.165 605.406 469.939 582.919 470.943C558.032 472.056 533.167 473.442 508.302 475.013C480.894 476.747 453.498 478.7 426.102 480.795C400.865 482.726 375.564 483.948 350.251 484.025C329.314 484.09 308.366 483.392 287.494 481.603C270.473 480.141 253.508 477.958 236.727 474.751C223.056 472.132 209.505 468.826 196.26 464.56C185.742 461.178 175.399 457.174 165.449 452.362C157.538 448.533 149.857 444.179 142.635 439.171C137.081 435.32 131.779 431.076 126.923 426.362C123.279 422.827 119.886 419.031 116.886 414.939C114.856 412.179 113.002 409.287 111.441 406.243C110.634 404.661 109.87 403.036 109.303 401.355C109.226 401.148 109.161 400.93 109.106 400.723C110.034 402.087 111.092 403.374 112.161 404.629C115.173 408.164 118.479 411.426 121.948 414.514C127.403 419.369 133.284 423.733 139.427 427.672C147.752 433.018 156.567 437.589 165.667 441.463C177.188 446.372 189.168 450.18 201.355 453.072C216.63 456.694 232.232 458.876 247.9 459.934C267.146 461.244 286.49 460.873 305.704 459.301C329.5 457.348 353.121 453.53 376.437 448.445C404.804 442.259 432.746 434.174 460.219 424.824C488.706 415.125 516.746 404.105 544.186 391.732C569.117 380.495 593.557 368.177 617.462 354.877C640.21 342.22 662.468 328.68 684.212 314.355C704.757 300.815 724.832 286.566 744.417 271.673C762.496 257.936 780.16 243.643 797.399 228.86C813.164 215.331 828.57 201.387 843.605 187.05C856.806 174.46 869.714 161.563 882.304 148.373C893.029 137.135 903.536 125.679 913.781 114.004C921.877 104.785 929.809 95.4346 937.544 85.9206C942.978 79.2433 948.313 72.5006 953.518 65.6488C956.234 62.0701 958.929 58.4696 961.537 54.8037C961.853 54.3563 962.17 53.909 962.486 53.4617L962.464 514.476H962.475Z" fill="url(#paint1_linear_0_701)"/>
<path opacity="0.07" d="M1115.05 488.793C1104.5 483.194 1093.6 478.277 1082.46 473.974C1070.53 469.359 1058.34 465.437 1046 462.071C1032.42 458.369 1018.66 455.338 1004.82 452.816C989.487 450.028 974.038 447.854 958.554 446.13C941.312 444.221 924.024 442.856 906.701 441.896C887.412 440.82 868.101 440.23 848.777 439.987C827.28 439.71 805.782 439.849 784.297 440.277C760.44 440.751 736.595 441.572 712.762 442.637C686.385 443.816 660.031 445.286 633.676 446.951C604.628 448.791 575.591 450.861 546.554 453.082C519.806 455.13 492.99 456.426 466.161 456.507C443.97 456.576 421.767 455.836 399.646 453.938C381.606 452.388 363.624 450.075 345.839 446.674C331.349 443.897 316.987 440.392 302.948 435.869C291.8 432.283 280.838 428.038 270.291 422.936C261.907 418.876 253.766 414.26 246.111 408.951C240.225 404.867 234.605 400.367 229.459 395.37C225.597 391.622 222 387.596 218.82 383.258C216.669 380.331 214.704 377.266 213.05 374.038C212.194 372.361 211.385 370.637 210.783 368.856C210.702 368.636 210.633 368.405 210.575 368.185C211.558 369.631 212.68 370.996 213.813 372.326C217.005 376.074 220.509 379.533 224.186 382.807C229.968 387.955 236.201 392.582 242.711 396.758C251.535 402.426 260.878 407.273 270.523 411.38C282.734 416.585 295.431 420.623 308.348 423.688C324.538 427.529 341.074 429.842 357.68 430.964C378.079 432.353 398.582 431.959 418.946 430.293C444.167 428.223 469.203 424.174 493.915 418.783C523.981 412.224 553.596 403.652 582.714 393.739C612.908 383.455 642.627 371.771 671.71 358.653C698.134 346.738 724.037 333.678 749.374 319.577C773.484 306.158 797.075 291.802 820.122 276.613C841.897 262.257 863.174 247.15 883.932 231.359C903.093 216.795 921.815 201.641 940.086 185.967C956.796 171.622 973.124 156.838 989.059 141.638C1003.05 128.289 1016.73 114.615 1030.08 100.63C1041.44 88.7147 1052.58 76.5683 1063.44 64.1906C1072.02 54.4157 1080.43 44.5019 1088.62 34.4147C1094.38 27.3351 1100.04 20.1861 1105.55 12.9214C1108.43 9.12712 1111.29 5.30969 1114.05 1.42286C1114.39 0.948573 1114.72 0.474286 1115.06 0L1115.04 488.793H1115.05Z" fill="url(#paint2_linear_0_701)"/>
<defs>
<linearGradient id="paint0_linear_0_701" x1="0.0109106" y1="298.152" x2="853.401" y2="298.152" gradientUnits="userSpaceOnUse">
<stop stop-color="white" stop-opacity="0"/>
<stop offset="0.94" stop-color="#FC5828"/>
</linearGradient>
<linearGradient id="paint1_linear_0_701" x1="109.117" y1="283.969" x2="962.508" y2="283.969" gradientUnits="userSpaceOnUse">
<stop stop-color="white" stop-opacity="0"/>
<stop offset="0.94" stop-color="#FC5828"/>
</linearGradient>
<linearGradient id="paint2_linear_0_701" x1="210.587" y1="244.396" x2="1115.08" y2="244.396" gradientUnits="userSpaceOnUse">
<stop stop-color="white" stop-opacity="0"/>
<stop offset="0.94" stop-color="#FC5828"/>
</linearGradient>
</defs>
</svg>
