<svg width="683" height="529" viewBox="0 0 683 529" fill="none" xmlns="http://www.w3.org/2000/svg">
<path opacity="0.07" d="M-171.308 -4.40863e-05C-161.358 5.28069 -151.069 9.91765 -140.562 13.9764C-129.303 18.3297 -117.803 22.0284 -106.161 25.2034C-93.3523 28.6947 -80.3687 31.5533 -67.3087 33.9318C-52.8414 36.5612 -38.2649 38.6124 -23.6557 40.2381C-7.38802 42.0383 8.92332 43.3258 25.2673 44.2314C43.4661 45.246 61.6867 45.8025 79.9182 46.0316C100.201 46.2935 120.484 46.1625 140.755 45.7589C163.264 45.3115 185.761 44.5369 208.248 43.5331C233.135 42.4202 258 41.0346 282.865 39.4635C310.273 37.7287 337.669 35.7757 365.065 33.6809C390.302 31.7497 415.603 30.5277 440.916 30.4514C461.853 30.3859 482.801 31.0842 503.673 32.8735C520.694 34.3355 537.659 36.5177 554.44 39.7254C568.111 42.3439 581.662 45.6498 594.907 49.9158C605.425 53.2981 615.768 57.3023 625.718 62.1138C633.629 65.9434 641.31 70.2967 648.532 75.3047C654.086 79.1561 659.388 83.4003 664.244 88.1137C667.888 91.6487 671.281 95.4456 674.281 99.537C676.311 102.297 678.166 105.189 679.726 108.233C680.533 109.815 681.297 111.44 681.864 113.121C681.941 113.328 682.006 113.546 682.061 113.753C681.133 112.39 680.075 111.102 679.006 109.848C675.994 106.312 672.688 103.05 669.219 99.9625C663.764 95.1073 657.883 90.7431 651.74 86.8044C643.415 81.4582 634.6 76.8867 625.5 73.0135C613.979 68.1037 601.999 64.2959 589.812 61.4046C574.537 57.7823 558.935 55.6002 543.267 54.5419C524.021 53.2326 504.677 53.6036 485.463 55.1747C461.667 57.1277 438.046 60.9464 414.73 66.0307C386.363 72.217 358.421 80.3017 330.948 89.652C302.461 99.3515 274.421 110.371 246.981 122.744C222.05 133.982 197.61 146.3 173.705 159.6C150.957 172.256 128.699 185.796 106.955 200.121C86.41 213.661 66.3346 227.911 46.7501 242.803C28.6713 256.54 11.0071 270.833 -6.23155 285.616C-21.9973 299.145 -37.4029 313.089 -52.4377 327.426C-65.6395 340.016 -78.5466 352.913 -91.1374 366.104C-101.862 377.341 -112.369 388.797 -122.614 400.472C-130.71 409.691 -138.642 419.042 -146.377 428.556C-151.811 435.233 -157.146 441.976 -162.351 448.827C-165.067 452.406 -167.762 456.006 -170.37 459.672C-170.686 460.12 -171.003 460.567 -171.319 461.014L-171.297 -4.40853e-05L-171.308 -4.40863e-05Z" fill="url(#paint0_linear_0_705)"/>
<path opacity="0.07" d="M-280.415 14.1835C-270.464 19.4642 -260.175 24.1012 -249.669 28.1599C-238.409 32.5132 -226.909 36.2119 -215.268 39.3869C-202.459 42.8782 -189.475 45.7368 -176.415 48.1153C-161.948 50.7448 -147.371 52.7959 -132.762 54.4216C-116.494 56.2218 -100.183 57.5093 -83.8391 58.4149C-65.6403 59.4295 -47.4198 59.986 -29.1883 60.2151C-8.90554 60.477 11.3772 60.3461 31.649 59.9424C54.1574 59.495 76.655 58.7204 99.1416 57.7166C124.029 56.6037 148.894 55.2181 173.759 53.647C201.166 51.9122 228.563 49.9592 255.959 47.8644C281.195 45.9332 306.497 44.7113 331.809 44.6349C352.747 44.5694 373.695 45.2677 394.567 47.057C411.587 48.519 428.553 50.7012 445.333 53.9089C459.004 56.5274 472.555 59.8333 485.801 64.0993C496.318 67.4816 506.662 71.4858 516.612 76.2973C524.522 80.127 532.203 84.4803 539.426 89.4882C544.979 93.3396 550.282 97.5838 555.137 102.297C558.781 105.832 562.175 109.629 565.175 113.721C567.204 116.481 569.059 119.372 570.619 122.416C571.427 123.998 572.19 125.624 572.758 127.304C572.834 127.511 572.9 127.73 572.954 127.937C572.027 126.573 570.968 125.286 569.899 124.031C566.888 120.496 563.582 117.234 560.112 114.146C554.657 109.291 548.776 104.927 542.634 100.988C534.309 95.6417 525.493 91.0702 516.394 87.197C504.872 82.2872 492.893 78.4794 480.705 75.5881C465.431 71.9658 449.829 69.7837 434.161 68.7254C414.915 67.4161 395.57 67.7871 376.357 69.3582C352.561 71.3112 328.94 75.1299 305.624 80.2142C277.256 86.4005 249.314 94.4852 221.842 103.836C193.354 113.535 165.314 124.555 137.874 136.927C112.943 148.165 88.5038 160.483 64.5988 173.783C41.8503 186.439 19.5929 199.979 -2.15189 214.305C-22.6965 227.845 -42.7719 242.094 -62.3564 256.987C-80.4352 270.723 -98.0993 285.016 -115.338 299.8C-131.104 313.329 -146.509 327.273 -161.544 341.609C-174.746 354.2 -187.653 367.096 -200.244 380.287C-210.969 391.525 -221.476 402.981 -231.721 414.655C-239.816 423.875 -247.748 433.225 -255.484 442.739C-260.917 449.416 -266.253 456.159 -271.457 463.011C-274.174 466.59 -276.869 470.19 -279.476 473.856C-279.793 474.303 -280.109 474.751 -280.426 475.198L-280.404 14.1835L-280.415 14.1835Z" fill="url(#paint1_linear_0_705)"/>
<path opacity="0.07" d="M-432.988 39.8669C-422.441 45.4658 -411.537 50.3822 -400.401 54.6855C-388.467 59.3011 -376.278 63.2226 -363.939 66.5889C-350.363 70.2907 -336.602 73.3214 -322.76 75.8433C-307.427 78.6311 -291.977 80.8059 -276.493 82.5296C-259.251 84.4383 -241.963 85.8033 -224.64 86.7634C-205.352 87.8393 -186.04 88.4292 -166.717 88.6721C-145.219 88.9498 -123.722 88.811 -102.236 88.383C-78.3797 87.9087 -54.5349 87.0873 -30.7016 86.0231C-4.32427 84.8431 22.0299 83.3741 48.3842 81.7083C77.4328 79.869 106.47 77.7983 135.507 75.5772C162.254 73.5297 189.071 72.2341 215.899 72.1531C238.091 72.0837 260.293 72.8241 282.415 74.7212C300.455 76.2713 318.437 78.5849 336.222 81.9859C350.712 84.7622 365.074 88.2673 379.113 92.7904C390.26 96.3764 401.223 100.622 411.769 105.723C420.153 109.784 428.294 114.399 435.949 119.709C441.835 123.793 447.456 128.292 452.601 133.29C456.464 137.038 460.06 141.064 463.24 145.402C465.391 148.328 467.357 151.394 469.011 154.621C469.866 156.299 470.676 158.022 471.277 159.804C471.358 160.023 471.428 160.255 471.485 160.475C470.502 159.029 469.381 157.664 468.247 156.333C465.056 152.585 461.552 149.126 457.875 145.853C452.093 140.705 445.86 136.078 439.349 131.902C430.526 126.233 421.182 121.386 411.538 117.28C399.326 112.074 386.629 108.037 373.712 104.971C357.523 101.131 340.986 98.8173 324.381 97.6952C303.982 96.3071 283.479 96.7003 263.115 98.3661C237.894 100.437 212.858 104.486 188.146 109.876C158.08 116.435 128.464 125.007 99.3464 134.921C69.153 145.205 39.4337 156.888 10.3504 170.007C-16.0732 181.922 -41.9765 194.982 -67.313 209.083C-91.4239 222.502 -115.014 236.858 -138.061 252.047C-159.836 266.402 -181.114 281.51 -201.871 297.3C-221.032 311.864 -239.754 327.018 -258.025 342.693C-274.735 357.037 -291.064 371.821 -306.999 387.021C-320.991 400.371 -334.671 414.044 -348.016 428.03C-359.383 439.945 -370.519 452.091 -381.378 464.469C-389.958 474.244 -398.365 484.158 -406.564 494.245C-412.323 501.324 -417.978 508.473 -423.494 515.738C-426.373 519.532 -429.229 523.35 -431.993 527.237C-432.329 527.711 -432.664 528.185 -432.999 528.66L-432.976 39.8669L-432.988 39.8669Z" fill="url(#paint2_linear_0_705)"/>
<defs>
<linearGradient id="paint0_linear_0_705" x1="682.05" y1="230.507" x2="-171.341" y2="230.507" gradientUnits="userSpaceOnUse">
<stop stop-color="white" stop-opacity="0"/>
<stop offset="0.94" stop-color="#FC5828"/>
</linearGradient>
<linearGradient id="paint1_linear_0_705" x1="572.943" y1="244.691" x2="-280.447" y2="244.691" gradientUnits="userSpaceOnUse">
<stop stop-color="white" stop-opacity="0"/>
<stop offset="0.94" stop-color="#FC5828"/>
</linearGradient>
<linearGradient id="paint2_linear_0_705" x1="471.474" y1="284.263" x2="-433.022" y2="284.263" gradientUnits="userSpaceOnUse">
<stop stop-color="white" stop-opacity="0"/>
<stop offset="0.94" stop-color="#FC5828"/>
</linearGradient>
</defs>
</svg>
