<svg width="332" height="200" viewBox="0 0 332 200" fill="none" xmlns="http://www.w3.org/2000/svg">
<path fill-rule="evenodd" clip-rule="evenodd" d="M285.085 172.605C284.796 173.34 284.506 174.076 284.219 174.811C283.728 174.193 283.22 173.585 282.751 172.946C282.315 172.344 281.907 171.178 281.506 171.187C280.371 171.209 280.897 172.43 280.612 173.111C280.306 173.844 279.937 175.167 279.605 175.163C278.408 175.152 278.719 173.885 278.428 173.102C278.184 172.44 277.937 171.309 277.563 171.25C276.429 171.075 276.702 172.335 276.318 172.964C275.903 173.639 275.333 174.862 274.98 174.811C273.84 174.648 274.371 173.483 274.22 172.705C274.071 171.975 273.841 171.261 273.651 170.539C273.143 171.075 272.641 171.622 272.116 172.147C271.558 172.707 270.981 173.248 270.411 173.797C270.3 173.011 270.172 172.228 270.077 171.441C269.99 170.703 269.942 169.963 269.872 169.224C269.288 169.684 268.665 170.109 268.117 170.616C267.527 171.165 267.175 172.324 266.178 171.781C265.885 171.62 266.162 170.381 266.207 169.637C266.259 168.856 267.402 168.016 266.389 167.392C266.05 167.183 265.074 168.056 264.375 168.397C263.703 168.72 263.01 168.998 262.328 169.295C262.458 168.559 262.559 167.814 262.729 167.087C262.906 166.326 263.569 165.189 263.296 164.9C262.473 164.03 261.901 165.344 261.143 165.544C260.426 165.736 259.689 165.88 258.961 166.044C259.219 165.349 259.446 164.642 259.743 163.965C260.065 163.248 260.948 162.237 260.734 161.921C260.019 160.856 259.207 162.071 258.401 162.195C258.273 162.215 258.157 162.341 258.032 162.345C257.443 162.353 256.861 162.336 256.273 162.329C256.519 161.763 256.665 161.126 257.031 160.653C257.407 160.17 258.03 159.888 258.464 159.442C258.672 159.225 258.883 158.709 258.772 158.545C258.592 158.282 258.134 158.044 257.82 158.073C257.062 158.138 256.323 158.457 255.572 158.492C255.109 158.512 254.633 158.199 254.162 158.036C254.398 157.638 254.552 157.14 254.891 156.866C255.405 156.447 256.091 156.239 256.613 155.828C256.946 155.567 257.111 155.099 257.352 154.723C256.935 154.54 256.534 154.245 256.101 154.2C255.487 154.134 254.831 154.357 254.23 154.257C253.772 154.18 253.369 153.788 252.946 153.535C253.241 153.187 253.478 152.722 253.854 152.519C254.479 152.18 255.229 152.077 255.863 151.747C256.188 151.575 256.369 151.13 256.621 150.808C256.318 150.581 256.049 150.235 255.717 150.154C254.98 149.97 254.185 150.006 253.462 149.788C253.07 149.67 252.779 149.215 252.441 148.912C252.794 148.612 253.105 148.2 253.511 148.042C254.043 147.833 254.681 147.904 255.222 147.708C255.704 147.534 256.113 147.162 256.554 146.879C256.137 146.548 255.753 146.154 255.29 145.903C254.865 145.67 254.297 145.681 253.898 145.424C253.457 145.139 253.14 144.669 252.766 144.278C253.258 144.051 253.733 143.717 254.249 143.622C254.856 143.511 255.514 143.682 256.128 143.588C256.502 143.529 256.835 143.205 257.187 142.998C256.962 142.657 256.807 142.21 256.491 141.994C255.868 141.565 255.11 141.328 254.501 140.884C254.195 140.664 254.098 140.163 253.906 139.789C254.29 139.623 254.68 139.3 255.059 139.319C255.861 139.354 256.648 139.623 257.447 139.682C257.783 139.704 258.306 139.52 258.43 139.273C258.546 139.046 258.346 138.503 258.108 138.279C257.532 137.724 256.803 137.318 256.235 136.751C255.967 136.482 255.932 135.979 255.793 135.581C256.194 135.464 256.627 135.189 256.989 135.264C257.726 135.413 258.413 135.808 259.152 135.987C259.532 136.077 259.97 135.918 260.381 135.87C260.276 135.442 260.276 134.945 260.042 134.604C259.612 133.978 258.978 133.494 258.567 132.86C258.372 132.555 258.367 131.985 258.524 131.655C258.605 131.487 259.298 131.448 259.61 131.583C260.346 131.904 261.004 132.411 261.735 132.748C262.044 132.892 262.464 132.803 262.835 132.822C262.842 132.417 262.984 131.953 262.835 131.623C262.478 130.851 261.939 130.168 261.57 129.402C261.442 129.135 261.479 128.546 261.648 128.433C261.924 128.26 262.468 128.218 262.734 128.385C263.411 128.812 263.96 129.439 264.635 129.873C264.978 130.094 265.482 130.072 265.913 130.161C265.942 129.755 266.077 129.321 265.983 128.951C265.825 128.347 265.412 127.803 265.303 127.2C265.212 126.695 265.401 126.138 265.471 125.605C265.969 125.818 266.549 125.942 266.946 126.276C267.45 126.702 267.769 127.351 268.251 127.807C268.492 128.031 269.037 128.218 269.256 128.094C269.502 127.955 269.673 127.428 269.638 127.095C269.551 126.252 269.272 125.426 269.196 124.581C269.171 124.263 269.432 123.707 269.681 123.631C269.954 123.548 270.48 123.795 270.68 124.06C271.159 124.703 271.467 125.476 271.944 126.121C272.169 126.423 272.629 126.55 272.984 126.754C273.16 126.385 273.457 126.025 273.492 125.646C273.56 124.844 273.428 124.025 273.508 123.224C273.541 122.899 273.867 122.39 274.117 122.356C274.404 122.316 274.894 122.635 275.046 122.928C275.408 123.641 275.573 124.457 275.926 125.178C276.102 125.526 276.519 125.751 276.824 126.032C277.071 125.699 277.437 125.402 277.536 125.029C277.723 124.339 277.672 123.586 277.875 122.904C278.002 122.493 278.422 122.171 278.709 121.808C279.023 122.139 279.467 122.423 279.619 122.819C279.844 123.394 279.784 124.073 279.981 124.661C280.131 125.119 280.488 125.509 280.751 125.929C281.084 125.576 281.506 125.27 281.723 124.856C282.01 124.307 282.05 123.625 282.347 123.085C282.561 122.7 283.022 122.45 283.377 122.139C283.61 122.534 283.984 122.907 284.051 123.329C284.154 124.031 283.997 124.771 284.084 125.477C284.13 125.864 284.455 126.214 284.65 126.581C284.997 126.361 285.451 126.212 285.663 125.902C286.101 125.281 286.351 124.528 286.797 123.917C287.022 123.609 287.507 123.492 287.875 123.289C288.051 123.664 288.37 124.041 288.365 124.415C288.36 125.125 288.098 125.83 288.067 126.543C288.054 126.979 288.275 127.424 288.389 127.866C288.793 127.674 289.272 127.563 289.578 127.27C290.032 126.844 290.301 126.222 290.771 125.815C291.128 125.501 291.669 125.393 292.133 125.195C292.216 125.676 292.431 126.181 292.36 126.643C292.268 127.252 291.889 127.814 291.759 128.421C291.672 128.849 291.796 129.317 291.823 129.769C292.294 129.63 292.82 129.583 293.206 129.327C293.799 128.935 294.257 128.337 294.849 127.944C295.134 127.757 295.721 127.673 295.937 127.843C296.154 128.014 296.232 128.616 296.108 128.922C295.807 129.666 295.299 130.322 294.985 131.063C294.836 131.409 294.947 131.869 294.944 132.275C295.345 132.25 295.805 132.338 296.146 132.178C296.872 131.835 297.508 131.304 298.239 130.977C298.537 130.841 299.133 130.904 299.313 131.119C299.495 131.325 299.449 131.921 299.267 132.195C298.831 132.866 298.204 133.416 297.762 134.084C297.551 134.392 297.586 134.864 297.508 135.261C297.913 135.311 298.355 135.481 298.72 135.383C299.451 135.186 300.125 134.766 300.859 134.586C301.216 134.499 301.658 134.744 302.061 134.84C301.951 135.246 301.953 135.755 301.704 136.039C301.2 136.601 300.51 136.996 299.99 137.548C299.736 137.82 299.684 138.285 299.541 138.662C299.936 138.782 300.345 139.03 300.718 138.994C301.473 138.924 302.209 138.617 302.962 138.565C303.338 138.538 303.736 138.86 304.124 139.023C303.937 139.4 303.842 139.895 303.544 140.128C302.948 140.592 302.2 140.861 301.595 141.317C301.292 141.544 301.162 142.004 300.951 142.356C301.321 142.535 301.682 142.833 302.06 142.865C302.819 142.928 303.596 142.773 304.345 142.857C304.719 142.9 305.049 143.275 305.398 143.501C305.152 143.844 304.983 144.323 304.648 144.5C303.981 144.855 303.197 144.986 302.52 145.321C302.171 145.493 301.952 145.91 301.675 146.214C302 146.462 302.295 146.83 302.663 146.93C303.394 147.127 304.187 147.102 304.912 147.313C305.277 147.418 305.548 147.84 305.857 148.119C305.562 148.417 305.32 148.844 304.963 148.979C304.387 149.196 303.712 149.143 303.125 149.344C302.632 149.513 302.207 149.882 301.75 150.162C302.194 150.517 302.599 150.943 303.095 151.207C303.602 151.476 304.232 151.516 304.734 151.799C305.073 151.991 305.273 152.427 305.533 152.756C305.194 153 304.883 153.387 304.515 153.454C303.863 153.573 303.163 153.432 302.503 153.522C302.03 153.59 301.588 153.862 301.13 154.043C301.458 154.454 301.734 154.937 302.137 155.254C302.587 155.61 303.215 155.746 303.654 156.111C303.991 156.389 304.162 156.87 304.404 157.262C303.941 157.444 303.483 157.762 303.012 157.774C302.403 157.792 301.78 157.499 301.16 157.471C300.732 157.453 300.291 157.661 299.855 157.767C300.064 158.201 300.182 158.719 300.499 159.052C301.019 159.599 301.707 159.987 302.242 160.522C302.448 160.734 302.607 161.305 302.483 161.462C302.274 161.718 301.777 161.938 301.468 161.87C300.689 161.699 299.958 161.292 299.174 161.117C298.773 161.026 298.311 161.228 297.875 161.297C297.984 161.692 297.999 162.152 298.222 162.465C298.633 163.045 299.248 163.491 299.626 164.089C299.849 164.439 299.786 164.972 299.849 165.422C299.394 165.43 298.883 165.569 298.487 165.414C297.826 165.158 297.261 164.656 296.606 164.376C296.261 164.232 295.813 164.343 295.41 164.338C295.437 164.744 295.35 165.207 295.512 165.55C295.854 166.276 296.389 166.913 296.717 167.644C296.85 167.94 296.795 168.535 296.587 168.717C296.384 168.896 295.782 168.852 295.51 168.674C294.806 168.207 294.211 167.566 293.512 167.088C293.239 166.902 292.681 166.8 292.462 166.954C292.248 167.108 292.167 167.67 292.256 167.987C292.448 168.675 292.878 169.3 293.033 169.99C293.138 170.449 292.936 170.978 292.868 171.475C292.403 171.31 291.864 171.241 291.491 170.955C291.041 170.607 290.785 170.015 290.349 169.637C289.986 169.322 289.49 169.165 289.055 168.937C288.95 169.414 288.735 169.894 288.762 170.362C288.801 171.071 289.071 171.77 289.109 172.479C289.125 172.815 288.898 173.363 288.654 173.452C288.388 173.55 287.858 173.313 287.641 173.056C287.219 172.543 286.986 171.871 286.571 171.35C286.249 170.946 285.764 170.669 285.35 170.336C285.171 170.834 284.962 171.327 284.808 171.835C284.749 172.042 284.801 172.282 284.801 172.506C284.898 172.539 284.987 172.573 285.082 172.604L285.085 172.605ZM288.624 164.04C286.363 160.925 284.166 157.871 281.92 154.848C281.747 154.615 281.265 154.537 280.921 154.526C279.723 154.483 278.525 154.479 277.332 154.506C277.02 154.514 276.581 154.588 276.424 154.798C274.163 157.849 271.938 160.929 269.712 163.993C274.175 167.682 283.499 167.714 288.624 164.04ZM261.572 144.302C259.441 149.725 262.598 159.485 267.328 162.18C269.277 159.502 271.194 156.79 273.206 154.148C273.972 153.143 274.441 152.332 273.545 151.108C273.109 150.511 273.163 149.566 272.944 148.795C272.844 148.453 272.673 147.949 272.422 147.864C268.81 146.641 265.188 145.477 261.574 144.302H261.572ZM291.026 162.248C296.736 157.928 298.594 149.075 296.685 144.325C293.447 145.372 290.217 146.452 286.955 147.449C285.916 147.769 285.266 148.118 285.253 149.405C285.245 150.242 284.659 151.067 284.392 151.914C284.283 152.249 284.167 152.747 284.329 152.974C286.533 156.085 288.782 159.162 291.028 162.247L291.026 162.248ZM262.445 141.444C266.114 142.639 269.69 143.822 273.283 144.939C273.586 145.033 274.063 144.755 274.383 144.538C275.197 143.994 275.905 143.259 276.776 142.843C277.477 142.503 277.656 142.117 277.647 141.414C277.623 138.403 277.639 135.392 277.639 132.381V130.417C271.092 130.785 264.562 135.526 262.445 141.444ZM295.878 141.435C293.596 135.36 286.054 129.978 280.671 130.56C280.671 133.95 280.714 137.359 280.649 140.761C280.624 141.909 280.816 142.659 282.04 143.088C282.752 143.337 283.283 144.087 283.943 144.547C284.251 144.766 284.738 145.036 285.039 144.944C288.632 143.822 292.205 142.635 295.876 141.435H295.878Z" fill="#FFEDE7"/>
<path fill-rule="evenodd" clip-rule="evenodd" d="M267.079 88.6458C264.574 88.76 262.049 88.7295 259.574 89.0504C258.499 89.1893 257.519 90.0503 256.498 90.5826C257.107 91.5532 257.519 92.7814 258.372 93.4322C259.653 94.4142 261.426 94.7746 262.652 95.8028C263.868 96.8288 264.675 98.352 265.66 99.6559C264.108 100.102 262.565 100.871 261.003 100.906C259.276 100.943 257.544 100.121 255.802 100.045C254.844 100.004 253.374 100.483 253.022 101.178C252.7 101.814 253.306 103.314 253.961 103.976C255.281 105.307 257.123 106.142 258.357 107.533C259.318 108.62 259.695 110.233 260.325 111.614C258.848 111.819 257.331 112.318 255.896 112.149C254.44 111.973 253.1 110.93 251.635 110.66C250.319 110.416 248.906 110.701 247.533 110.752C248.013 112.149 248.332 113.633 249.019 114.917C249.533 115.883 250.755 116.481 251.244 117.452C252.029 119.007 252.466 120.737 253.05 122.393C251.214 122.184 249.362 122.059 247.552 121.717C246.863 121.586 246.314 120.781 245.616 120.577C243.964 120.093 242.251 119.784 240.564 119.402C240.924 121.058 241.097 122.789 241.698 124.35C242.286 125.854 243.585 127.1 244.07 128.621C244.384 129.624 244.109 131.134 243.5 131.974C243.205 132.38 241.374 132.02 240.48 131.545C239.284 130.909 238.411 129.672 237.228 128.981C235.634 128.05 233.882 127.39 232.198 126.616C232.361 128.556 232.398 130.518 232.734 132.426C232.953 133.643 233.866 134.751 234.004 135.961C234.131 137.081 233.641 138.272 233.424 139.431C232.198 139.102 230.662 139.118 229.799 138.369C228.205 136.98 227.105 135.037 225.587 133.536C224.902 132.861 223.713 132.698 222.752 132.304C222.34 133.369 221.52 134.47 221.606 135.492C221.809 137.735 222.686 139.925 222.835 142.165C222.905 143.17 222.104 144.547 221.262 145.159C220.865 145.449 219.127 144.575 218.557 143.812C217.214 141.999 216.358 139.827 215.003 138.026C214.388 137.207 213.064 136.92 212.062 136.392C211.591 137.329 210.817 138.241 210.725 139.215C210.573 140.957 211.134 142.791 210.835 144.487C210.562 146.034 209.549 147.449 208.865 148.923C207.787 147.832 206.518 146.868 205.7 145.612C204.969 144.483 204.93 142.907 204.222 141.752C203.464 140.512 202.278 139.536 201.279 138.444C200.551 139.76 199.606 141.008 199.156 142.412C198.702 143.826 199.024 145.516 198.477 146.869C197.982 148.093 196.772 149.027 195.881 150.088C195.044 149.112 193.858 148.259 193.452 147.129C192.828 145.374 192.935 143.363 192.348 141.591C191.972 140.464 190.898 139.566 190.136 138.565C189.275 139.516 188.141 140.336 187.613 141.444C186.812 143.136 186.663 145.156 185.78 146.789C185.223 147.818 183.828 148.397 182.813 149.178C182.182 148.173 181.151 147.223 181.01 146.153C180.73 144.047 181.137 141.851 180.877 139.74C180.753 138.713 179.764 137.792 179.163 136.822C178.302 137.396 177.197 137.797 176.629 138.583C175.681 139.898 175.304 141.661 174.257 142.862C173.15 144.138 171.538 144.975 170.144 146.003C169.77 144.407 169.126 142.817 169.097 141.215C169.069 139.613 169.884 137.998 169.892 136.388C169.9 135.329 169.132 134.265 168.706 133.204C167.742 133.612 166.532 133.778 165.868 134.469C164.39 136.007 163.357 137.991 161.799 139.425C160.952 140.204 159.408 140.226 158.177 140.592C157.936 139.432 157.318 138.195 157.535 137.127C157.903 135.298 159.013 133.62 159.389 131.789C159.647 130.519 159.203 129.105 159.07 127.754C157.78 128.216 156.337 128.44 155.247 129.187C153.593 130.315 152.296 131.966 150.628 133.064C149.859 133.572 148.213 133.752 147.622 133.268C147.021 132.782 146.837 131.143 147.172 130.278C147.89 128.418 149.224 126.799 149.977 124.947C150.475 123.718 150.392 122.256 150.572 120.899C149.227 121.055 147.768 120.935 146.566 121.434C144.958 122.101 143.645 123.483 142.03 124.116C140.893 124.559 139.468 124.267 138.175 124.306C138.386 122.934 138.229 121.351 138.887 120.242C139.893 118.533 141.591 117.242 142.723 115.59C143.27 114.796 143.192 113.579 143.392 112.553C142.282 112.352 141.08 111.776 140.08 112.024C138.261 112.475 136.626 113.715 134.809 114.054C133.409 114.312 131.844 113.698 130.352 113.473C130.91 112.177 131.24 110.706 132.08 109.633C132.995 108.473 134.568 107.841 135.505 106.693C136.417 105.579 136.885 104.102 137.546 102.785C136.195 102.558 134.833 102.083 133.501 102.161C131.758 102.264 130.034 103.064 128.308 103.062C127.123 103.06 125.942 102.201 124.761 101.723C125.417 100.605 125.839 99.1915 126.784 98.4413C128.347 97.204 130.341 96.5215 131.971 95.352C132.77 94.7769 133.16 93.6334 133.736 92.7475C132.753 92.1396 131.822 91.1215 130.794 91.0097C128.936 90.8063 126.979 91.4402 125.147 91.1622C123.719 90.9486 122.426 89.8831 121.07 89.1984C122.034 88.16 122.821 86.8176 123.994 86.1566C125.621 85.2481 127.622 85.0289 129.287 84.1668C130.231 83.6752 130.817 82.4945 131.566 81.6244C130.627 80.934 129.779 79.8979 128.731 79.6278C126.545 79.0617 124.209 79.0775 122.04 78.4843C121.16 78.2436 119.977 77.0244 119.98 76.2561C119.986 75.4708 121.142 74.2583 122.025 73.9928C124.183 73.3442 126.518 73.3013 128.682 72.6753C129.714 72.3759 130.515 71.3002 131.419 70.5759C130.634 69.7397 129.997 68.5804 129.034 68.1329C127.104 67.2335 124.902 66.9115 122.996 65.9748C122.048 65.507 121.513 64.2076 120.787 63.2833C121.749 62.629 122.653 61.559 123.687 61.4166C125.787 61.1251 127.984 61.5194 130.096 61.2618C131.149 61.133 132.11 60.1985 133.111 59.6268C132.481 58.6652 132.041 57.4517 131.182 56.8008C129.892 55.8245 128.111 55.4697 126.904 54.4347C125.693 53.4031 124.924 51.8596 123.966 50.5387C125.547 50.1285 127.123 49.4178 128.715 49.3862C130.443 49.3523 132.18 50.1387 133.922 50.1941C134.864 50.2234 136.367 49.6856 136.635 49.0122C136.916 48.3139 136.269 46.8811 135.589 46.2235C133.962 44.6551 131.921 43.5026 130.365 41.8789C129.653 41.1354 129.686 39.6766 129.385 38.5444C130.417 38.2789 131.53 37.6382 132.472 37.8314C134.427 38.2359 136.246 39.2857 138.204 39.6721C139.479 39.9229 140.89 39.4755 142.238 39.3422C141.854 38.1523 141.688 36.8122 141.02 35.8077C140.122 34.462 138.572 33.5218 137.787 32.1343C137.072 30.8801 137.005 29.2563 136.655 27.7965C138.179 27.8857 139.809 27.671 141.198 28.1501C142.833 28.7117 144.185 30.0699 145.806 30.706C146.794 31.0936 148.062 30.7671 149.202 30.7614C149.11 29.619 149.302 28.349 148.861 27.3626C148.143 25.7682 146.733 24.4643 146.143 22.8451C145.645 21.4971 145.91 19.8711 145.837 18.3683C147.324 18.7468 148.885 18.9468 150.264 19.5592C151.257 20.001 151.899 21.1931 152.88 21.6982C154.377 22.4722 156.037 22.9468 157.628 23.5456C157.525 21.9434 157.612 20.2993 157.268 18.7524C156.919 17.1717 155.903 15.7231 155.636 14.1412C155.457 13.0779 156.072 11.879 156.332 10.7434C157.466 11.0655 158.899 11.0632 159.677 11.7785C161.334 13.3005 162.542 15.305 164.158 16.8847C164.821 17.5344 166.318 18.1084 166.968 17.7818C167.65 17.4417 168.156 15.9412 168.064 15.0135C167.839 12.7672 167.021 10.5762 166.848 8.32877C166.772 7.28131 167.633 6.15703 168.069 5.06777C169.13 5.55703 170.501 5.78076 171.175 6.59205C172.369 8.02255 172.978 9.93215 174.13 11.4045C174.956 12.4632 176.266 13.14 177.363 13.9852C177.908 12.5999 178.742 11.2497 178.928 9.81463C179.145 8.09374 178.579 6.26776 178.817 4.54913C178.961 3.47456 179.958 2.51637 180.574 1.50395C181.604 2.26326 182.984 2.81241 183.577 3.82597C184.508 5.43387 184.738 7.43499 185.594 9.10164C186.158 10.1898 187.304 10.9762 188.188 11.8982C188.954 10.7547 190.067 9.7039 190.413 8.44628C191.169 5.68697 191.539 2.82145 192.069 0H195.099C195.795 2.91298 196.385 5.86098 197.251 8.72312C197.571 9.77735 198.543 10.6327 199.217 11.5762C200.133 10.731 201.308 10.0338 201.892 9.00221C202.625 7.71747 202.637 6.0203 203.383 4.75026C204.201 3.35591 205.509 2.24406 206.6 1.01016C207.304 2.46778 208.319 3.861 208.636 5.39545C208.978 7.08697 208.512 8.93102 208.737 10.6666C208.865 11.6304 209.677 12.5061 210.18 13.4214C211.163 12.8474 212.468 12.4994 213.056 11.6553C214.415 9.70277 215.305 7.42934 216.638 5.45647C217.103 4.76494 218.606 4.01241 219.101 4.27907C219.9 4.70732 220.734 5.97398 220.706 6.86098C220.639 9.10503 219.913 11.3276 219.83 13.5762C219.783 14.7434 220.531 15.9457 220.92 17.1321C221.954 16.627 223.17 16.3208 223.977 15.5717C225.065 14.557 225.647 12.966 226.792 12.053C228.119 10.9943 229.814 10.4033 231.348 9.61012C231.435 11.3626 231.757 13.1457 231.524 14.8587C231.33 16.3129 230.282 17.6451 230.019 19.1038C229.827 20.1716 230.299 21.3615 230.474 22.4959C231.583 22.2315 232.896 22.2564 233.763 21.6428C235.596 20.3389 237.093 18.5524 238.948 17.2756C239.722 16.7434 241.382 16.5671 242.024 17.0485C242.614 17.4937 242.796 19.2033 242.441 20.0586C241.578 22.1355 240.145 23.9739 239.249 26.0394C238.82 27.0111 239.097 28.288 239.053 29.4292C240.19 29.3885 241.431 29.6179 242.445 29.2428C243.71 28.7727 244.714 27.5659 245.989 27.1208C247.74 26.5072 249.644 26.3117 251.481 25.9366C250.859 27.8021 250.413 29.7535 249.554 31.4993C248.961 32.7004 247.624 33.5185 246.933 34.6925C246.435 35.5343 246.449 36.6812 246.235 37.6891C247.342 37.906 248.553 38.5173 249.53 38.2563C251.58 37.7071 253.448 36.4529 255.505 35.9783C256.626 35.7218 257.974 36.4687 259.223 36.7614C258.862 37.8891 258.773 39.2484 258.072 40.0924C256.963 41.4246 255.262 42.2619 254.136 43.5862C253.207 44.6766 252.751 46.1681 252.089 47.4811C253.457 47.7116 254.84 48.1862 256.189 48.1116C257.8 48.0201 259.394 47.1636 260.986 47.1907C262.294 47.2144 263.585 48.0461 264.888 48.5195C264.238 49.6415 263.824 51.0347 262.893 51.8212C261.572 52.9409 259.736 53.4404 258.382 54.5342C257.362 55.3624 256.757 56.7082 255.967 57.8234C257.15 58.2969 258.314 59.0923 259.522 59.1759C262.024 59.3488 264.558 59.1443 267.076 59.0957V63.6437C264.718 64.4708 262.295 65.168 260.026 66.1996C259.167 66.5895 258.12 67.7906 258.163 68.5578C258.206 69.2821 259.495 70.3409 260.383 70.5262C262.571 70.9793 264.842 71.0154 267.076 71.2177V76.5216C264.867 76.9069 262.614 77.1329 260.472 77.7498C259.59 78.0041 258.364 79.0741 258.347 79.7996C258.328 80.5589 259.427 81.7125 260.288 82.0572C262.476 82.9295 264.805 83.4425 267.076 84.1012V88.6447L267.079 88.6458ZM168.34 118.512C183.014 129.565 209.536 128.391 221.151 118.298C219.556 116.091 217.947 113.871 216.217 111.483C209.337 115.132 202.231 117.787 194.709 117.022C187.45 116.283 180.325 114.259 172.535 112.68C171.515 114.094 169.923 116.309 168.338 118.512H168.34ZM145.529 63.3251C139.151 77.3227 147.876 104.569 161.552 113.536C163.201 111.225 164.855 108.903 166.455 106.657C153.754 90.5814 153.042 88.3871 153.367 67.8177C153.378 66.9827 152.589 65.7002 151.85 65.3691C149.822 64.472 147.619 63.9691 145.528 63.3251H145.529ZM228.216 113.682C245.373 100.044 249.104 74.6685 243.992 63.3477C242.801 63.6968 241.615 64.1544 240.389 64.3861C236.997 65.0256 235.851 66.4245 236.423 70.3171C237.714 79.1419 236.155 87.7441 231.506 95.4786C229.132 99.4277 226.156 103.011 223.317 106.944C224.822 109.014 226.441 111.241 228.217 113.683L228.216 113.682ZM241.644 55.1907C236.513 39.0597 214.827 23.4439 198.911 24.5049C198.911 25.9354 199.055 27.4258 198.882 28.8755C198.505 32.0315 199.686 33.1151 202.894 34.1207C208.813 35.9795 215.04 38.1083 219.894 41.7738C225.363 45.9048 229.462 51.8551 234.604 57.5059C236.204 56.9805 238.808 56.124 241.645 55.1895L241.644 55.1907ZM148.098 55.1545C149.595 55.6867 151.166 56.1217 152.624 56.7963C155.239 58.011 156.732 57.5251 158.171 54.7409C161.59 48.1218 166.559 42.6427 173.222 39.2563C178.634 36.5037 184.487 34.6134 190.317 32.2721V24.3761C173.606 24.2756 152.116 39.9602 148.098 55.1534V55.1545ZM181.05 101.014C190.574 105.319 199.287 105.61 208.414 100.885C206.725 98.4876 205.214 96.4944 203.87 94.3938C202.525 92.2887 201.204 91.3441 198.347 92.0899C195.791 92.7554 192.876 91.9995 190.122 92.0006C189.124 92.0006 187.712 92.0311 187.204 92.6436C185.13 95.1339 183.327 97.8548 181.05 101.013V101.014ZM166.693 69.6731C163.901 78.3837 167.698 90.2074 173.981 95.0831C184.426 89.6922 177.901 81.6696 177.303 74.4798C173.855 72.916 170.403 71.3533 166.693 69.6731ZM223.026 70.1454C220.684 70.8911 218.354 71.7793 215.946 72.36C213.46 72.9634 212.244 73.9883 212.048 76.8877C211.861 79.5329 210.293 82.0662 209.497 84.6967C209.21 85.6312 208.98 86.9713 209.433 87.6752C211.171 90.4063 213.191 92.9543 215.116 95.5825C222.071 89.8391 225.758 78.0685 223.026 70.1454ZM220.544 62.0708C216.718 53.4121 207.088 46.6178 198.922 46.7738C198.922 48.8619 199.122 50.9907 198.874 53.0652C198.473 56.4641 199.316 58.6245 202.924 59.8313C204.917 60.4991 206.399 62.611 208.243 63.8844C209.145 64.5115 210.46 65.2324 211.375 65.0143C214.394 64.281 217.316 63.142 220.543 62.0697L220.544 62.0708ZM169.249 61.133C177.485 69.4098 183.168 61.5488 189.593 58.4166C190.072 54.5093 190.554 50.6031 191.111 46.0777C180.59 48.1365 173.706 53.1511 169.249 61.1341V61.133Z" fill="#FFEDE7"/>
<path fill-rule="evenodd" clip-rule="evenodd" d="M117.523 74.9646C116.538 74.925 115.555 74.8346 114.571 74.8685C114.193 74.8809 113.827 75.1804 113.456 75.3487C113.654 75.7035 113.786 76.1216 114.063 76.3917C114.375 76.6979 114.878 76.8064 115.186 77.1092C115.687 77.5973 116.098 78.177 116.553 78.7182C115.865 78.8199 115.181 78.9894 114.494 78.9973C114.014 79.003 113.538 78.7148 113.056 78.6934C112.701 78.6753 112.339 78.8741 111.982 78.9758C112.104 79.36 112.123 79.8369 112.372 80.1092C112.878 80.6707 113.574 81.064 114.055 81.6425C114.309 81.9521 114.282 82.499 114.385 82.9419C113.97 83.0029 113.518 83.1973 113.153 83.0978C112.465 82.9114 111.848 82.4832 111.166 82.2922C110.768 82.1815 110.299 82.334 109.859 82.3702C109.964 82.8018 109.975 83.2922 110.198 83.6504C110.593 84.2922 111.181 84.8199 111.565 85.4673C111.735 85.7476 111.77 86.3408 111.592 86.5408C111.405 86.7453 110.82 86.7803 110.52 86.6481C109.87 86.3611 109.321 85.856 108.675 85.5566C108.245 85.3555 107.72 85.3521 107.238 85.2617C107.277 85.743 107.211 86.2651 107.374 86.7035C107.634 87.4086 108.116 88.0368 108.359 88.7475C108.46 89.0402 108.297 89.5543 108.07 89.7859C107.938 89.9227 107.358 89.8131 107.122 89.6289C106.453 89.1102 105.887 88.456 105.216 87.9408C104.948 87.734 104.509 87.7487 104.149 87.6628C104.06 88.0571 103.837 88.4786 103.914 88.8391C104.065 89.5769 104.469 90.2684 104.591 91.0085C104.659 91.4131 104.368 91.8786 104.242 92.3147C103.852 92.1509 103.357 92.0831 103.086 91.8029C102.564 91.2594 102.201 90.5633 101.691 89.9984C101.461 89.7441 101.039 89.6571 100.706 89.4956C100.539 89.865 100.233 90.2357 100.238 90.6029C100.246 91.3125 100.531 92.021 100.514 92.7238C100.503 93.1769 100.157 93.621 99.9592 94.0718C99.5806 93.8142 99.0925 93.63 98.8439 93.2797C98.4383 92.7001 98.2484 91.969 97.8417 91.3871C97.636 91.0865 97.1626 90.9713 96.81 90.7735C96.6315 91.0989 96.3366 91.4097 96.2982 91.7509C96.2032 92.5486 96.2982 93.369 96.1874 94.1599C96.1411 94.4944 95.7377 95.0526 95.5535 95.03C95.1942 94.9837 94.7174 94.6774 94.5705 94.3532C94.2372 93.6266 94.1287 92.8017 93.8236 92.0605C93.6937 91.7464 93.3038 91.5362 93.0304 91.2797C92.7592 91.5758 92.3558 91.8289 92.2394 92.178C91.9874 92.9362 91.9445 93.7633 91.6925 94.5226C91.5897 94.8458 91.1841 95.0707 90.9208 95.3385C90.6315 95.0435 90.1931 94.7893 90.0925 94.4379C89.8925 93.7136 89.9468 92.9215 89.757 92.1916C89.6485 91.7905 89.2586 91.465 88.9965 91.1035C88.6959 91.3848 88.3118 91.6187 88.1163 91.9611C87.8541 92.4187 87.8236 93.0255 87.5321 93.4515C87.1909 93.9509 86.6654 94.3283 86.2214 94.7588C86.0123 94.2108 85.7039 93.6729 85.6315 93.1091C85.5558 92.5464 85.792 91.9441 85.7321 91.3746C85.6937 90.9961 85.3852 90.6436 85.1931 90.2809C84.844 90.4876 84.3943 90.6187 84.1649 90.9181C83.6722 91.5532 83.3502 92.3125 82.8496 92.9407C82.6496 93.1961 82.1028 93.4277 81.853 93.326C81.6011 93.2232 81.3819 92.6741 81.4169 92.3441C81.4926 91.5498 81.783 90.7735 81.8666 89.9792C81.9095 89.6018 81.6802 89.1973 81.5773 88.8029C81.1954 88.9306 80.7355 88.9645 80.4587 89.2074C79.9547 89.6447 79.6248 90.2797 79.1163 90.6989C78.7423 91.0006 78.1988 91.0876 77.7322 91.2707C77.6757 90.7374 77.4858 90.178 77.592 89.6786C77.7276 89.0345 78.1491 88.4571 78.3389 87.8187C78.4395 87.4922 78.2983 87.0956 78.2711 86.7306C77.87 86.7724 77.3943 86.6956 77.0881 86.8854C76.4486 87.2843 75.9423 87.9035 75.2904 88.2809C74.9378 88.4865 74.4022 88.3837 73.9525 88.4187C73.9638 88.0006 73.8384 87.5216 74.0011 87.1769C74.3265 86.4944 74.8655 85.9182 75.2 85.2402C75.3627 84.9091 75.2678 84.4493 75.2892 84.0504C74.8836 84.0549 74.4339 83.9464 74.0847 84.0888C73.3457 84.3894 72.6768 84.882 71.9322 85.1713C71.626 85.2922 71.0203 85.2233 70.8655 85.0086C70.6972 84.7815 70.774 84.1905 70.9684 83.9216C71.4361 83.2764 72.0836 82.7577 72.5627 82.1159C72.7898 81.8154 72.7932 81.3487 72.8983 80.9566C72.4972 80.8787 72.0757 80.6696 71.7119 80.7453C70.9265 80.9092 70.1876 81.282 69.4057 81.4414C69.0836 81.5046 68.5074 81.3363 68.391 81.1001C68.2667 80.8436 68.4237 80.273 68.6565 80.0459C69.2305 79.4877 69.9582 79.0956 70.5356 78.5419C70.8068 78.2832 70.8689 77.8086 71.026 77.4323C70.6768 77.3013 70.3243 77.0516 69.9751 77.0651C69.2689 77.0945 68.5616 77.3589 67.8531 77.3397C67.3955 77.3273 66.9435 76.9894 66.4882 76.7951C66.748 76.412 66.9345 75.9442 67.2791 75.6651C67.6848 75.3363 68.278 75.2346 68.6927 74.9148C69.1288 74.5759 69.4588 74.0934 69.8328 73.673C69.3379 73.4764 68.8554 73.1996 68.3379 73.1036C67.774 72.9996 67.1571 73.1521 66.6023 73.0165C66.1876 72.916 65.8362 72.5431 65.4543 72.2911C65.7684 71.9555 66.0283 71.4957 66.4158 71.3092C67.0554 71.0064 67.8045 70.9409 68.4542 70.6516C68.8011 70.4968 69.0339 70.0866 69.3153 69.7951C68.9955 69.533 68.7198 69.1533 68.3537 69.038C67.5932 68.7917 66.7673 68.7443 66.0068 68.4923C65.6983 68.3883 65.2949 67.9522 65.3028 67.681C65.3108 67.4121 65.7526 67.0064 66.0723 66.9284C66.8441 66.7364 67.6746 66.7612 68.452 66.5748C68.8226 66.4866 69.1209 66.1126 69.4486 65.8708C69.1887 65.5567 68.9876 65.1307 68.652 64.9545C67.9424 64.5838 67.1356 64.3963 66.4317 64.0166C66.1447 63.8629 65.8283 63.3624 65.8791 63.0912C65.9367 62.8211 66.4238 62.4788 66.748 62.4528C67.452 62.3872 68.1751 62.5714 68.8836 62.5194C69.3571 62.481 69.8124 62.2166 70.2757 62.0528C70.0079 61.6505 69.8158 61.1579 69.4576 60.8629C68.9107 60.4098 68.2091 60.1454 67.6656 59.6912C67.4079 59.4743 67.1729 58.9443 67.2644 58.6731C67.3514 58.4313 67.9141 58.1918 68.2362 58.2234C69.035 58.3036 69.8068 58.6008 70.6056 58.6889C70.9797 58.7308 71.3876 58.4935 71.7808 58.3827C71.6373 57.9963 71.591 57.524 71.339 57.2426C70.8 56.6505 70.104 56.1986 69.574 55.6031C69.3571 55.359 69.2215 54.7771 69.3684 54.5489C69.5119 54.3172 70.0915 54.1737 70.4056 54.263C71.2181 54.4935 71.9729 54.9206 72.7796 55.1681C73.096 55.2675 73.6542 55.2144 73.8169 55.0065C73.9819 54.7963 73.8983 54.2472 73.7277 53.959C73.4407 53.4619 72.9152 53.1003 72.6531 52.5975C72.3684 52.0573 72.2746 51.4167 72.0983 50.8212C72.7017 50.9082 73.3469 50.898 73.9039 51.1093C74.4316 51.3093 74.8429 51.8008 75.3627 52.0517C75.6745 52.202 76.0915 52.141 76.4599 52.1737C76.487 51.7681 76.6497 51.3082 76.5107 50.9647C76.2045 50.1783 75.7017 49.472 75.3785 48.6879C75.2678 48.4167 75.3435 47.8303 75.5299 47.7286C75.809 47.5715 76.3559 47.5647 76.6101 47.7478C77.2926 48.2427 77.8497 48.9082 78.5186 49.428C78.7864 49.637 79.2146 49.6415 79.5717 49.7376C79.6723 49.3466 79.9208 48.9252 79.8451 48.5704C79.6915 47.8325 79.296 47.1455 79.1412 46.4054C79.0632 46.0291 79.2903 45.5851 79.3796 45.1738C79.8124 45.306 80.3706 45.3127 80.6598 45.5964C81.2011 46.1184 81.548 46.8336 82.0542 47.3952C82.2813 47.6461 82.7118 47.7173 83.0474 47.8709C83.2101 47.5037 83.5129 47.1319 83.4994 46.7715C83.47 45.9715 83.2067 45.1794 83.1965 44.3839C83.1886 44.0212 83.4915 43.5444 83.7977 43.3387C83.9434 43.2427 84.5479 43.5783 84.74 43.8585C85.1457 44.4393 85.3604 45.1568 85.7717 45.7365C86.0349 46.1173 86.5027 46.3523 86.8813 46.6529C87.0756 46.202 87.3739 45.7692 87.453 45.2992C87.5558 44.6427 87.4202 43.9444 87.5445 43.2958C87.618 42.9184 87.9965 42.6032 88.2428 42.2585C88.5649 42.5241 89.0225 42.7263 89.1773 43.0676C89.4971 43.7523 89.5863 44.5376 89.8835 45.2337C90.0383 45.5896 90.4383 45.8416 90.7253 46.141C90.9931 45.8314 91.3863 45.5625 91.505 45.2043C91.74 44.4868 91.7592 43.6958 92.0033 42.9828C92.1253 42.6224 92.5445 42.3647 92.8315 42.0608C93.1343 42.3964 93.592 42.6902 93.7038 43.0811C93.9038 43.8065 93.8338 44.6043 94.0157 45.3376C94.0993 45.6924 94.5027 45.9704 94.7569 46.2834C95.036 46.037 95.4202 45.845 95.5773 45.5353C95.9185 44.8585 96.0643 44.08 96.4462 43.4303C96.6462 43.08 97.1659 42.9128 97.5456 42.663C97.7411 43.0325 98.0789 43.393 98.1083 43.7749C98.1626 44.5274 97.9806 45.2981 98.0303 46.0506C98.0575 46.4212 98.3931 46.7704 98.5885 47.1297C98.9049 46.9387 99.314 46.8156 99.5253 46.541C99.9094 46.054 100.105 45.4031 100.524 44.9591C100.906 44.5568 101.48 44.3376 101.967 44.0382C102.081 44.5647 102.283 45.0969 102.27 45.6201C102.262 46.1444 101.95 46.6596 101.926 47.1851C101.911 47.6495 102.107 48.124 102.211 48.5975C102.626 48.4065 103.102 48.298 103.427 48.0099C103.963 47.5421 104.339 46.8935 104.887 46.4449C105.174 46.211 105.674 46.2416 106.078 46.1512C106.153 46.5625 106.287 46.9726 106.276 47.3817C106.264 47.6754 106.024 47.9568 105.956 48.2596C105.788 49.0608 104.616 49.8856 105.634 50.5873C105.961 50.8155 107.061 49.9534 107.792 49.5613C108.065 49.4144 108.277 49.0958 108.556 49.0325C108.951 48.9421 109.44 48.9026 109.774 49.0698C109.925 49.1432 109.923 49.8393 109.768 50.141C109.411 50.8573 108.874 51.4822 108.501 52.1929C108.344 52.4935 108.414 52.9161 108.385 53.2822C108.791 53.3104 109.246 53.4743 109.587 53.3387C110.291 53.0585 110.895 52.5353 111.604 52.2811C111.986 52.1432 112.495 52.35 112.947 52.4031C112.865 52.8144 112.898 53.3104 112.671 53.6189C112.202 54.2664 111.558 54.785 111.063 55.4155C110.873 55.6494 110.73 56.1974 110.86 56.3375C111.077 56.5737 111.556 56.7522 111.866 56.681C112.646 56.5082 113.377 56.098 114.162 55.9511C114.564 55.8765 115.031 56.1658 115.468 56.2912C115.313 56.6833 115.248 57.1579 114.981 57.4517C114.599 57.8754 114.009 58.1082 113.621 58.5274C113.243 58.9341 113.01 59.4754 112.714 59.9567C113.236 60.0607 113.756 60.2392 114.279 60.2437C114.81 60.2505 115.351 59.9771 115.868 60.0245C116.335 60.0663 116.783 60.3748 117.235 60.5658C116.988 60.9545 116.807 61.4257 116.469 61.7048C116.065 62.0358 115.475 62.1409 115.061 62.4641C114.619 62.8053 114.289 63.2878 113.91 63.7093C114.409 63.8957 114.894 64.1544 115.405 64.2561C116.101 64.3917 116.816 64.4019 117.525 64.4674V66.0821C116.71 66.307 115.877 66.4878 115.086 66.7804C114.81 66.8821 114.419 67.3036 114.463 67.4991C114.527 67.8053 114.869 68.1838 115.173 68.281C115.931 68.5194 116.74 68.6177 117.525 68.7714V70.6527C116.775 70.7081 116.02 70.699 115.291 70.8448C114.926 70.9183 114.62 71.2742 114.284 71.5013C114.574 71.8335 114.804 72.2877 115.173 72.4685C115.917 72.838 116.738 73.0595 117.525 73.3431V74.9566L117.523 74.9646ZM106.512 68.49C106.512 68.7126 106.514 68.9375 106.512 69.1612C106.49 70.9646 107.202 71.7431 108.938 71.8075C110.161 71.8538 110.746 71.1386 110.782 69.3996C110.892 64.0889 109.168 59.463 105.499 55.594C104.108 54.1263 103.03 54.2924 102.012 56.0189C101.422 57.0166 101.706 57.7613 102.443 58.533C105.107 61.3115 106.436 64.6505 106.512 68.4889V68.49ZM93.7468 85.0413C93.7276 86.8323 94.6044 87.5498 96.4643 87.0594C101.807 85.6515 105.821 82.5137 108.504 77.6821C109.192 76.4425 109.031 75.5578 108.092 75.0041C106.758 74.2109 105.515 74.3939 104.836 75.6007C102.678 79.4402 99.497 81.9159 95.2247 82.9837C94.1987 83.238 93.7276 83.8764 93.7468 85.0402V85.0413ZM90.5841 85.1634C90.6134 84.256 90.2643 83.3634 89.0168 83.0933C84.8259 82.1849 81.5909 79.9205 79.2915 76.2855C78.5197 75.0629 77.383 74.9804 76.035 75.9363C75.0113 76.6583 75.087 77.5645 75.6915 78.5182C78.6723 83.2165 82.8609 86.1882 88.3298 87.2933C89.7377 87.5769 90.5716 86.8357 90.5852 85.1634H90.5841ZM91.7264 49.4483C91.705 49.5579 91.6801 49.6653 91.6564 49.7737C88.7942 49.8099 86.079 50.4766 83.5039 51.7263C82.6022 52.1613 82.0474 52.8054 82.3751 53.8596C82.8655 55.4539 84.2101 56.037 85.7378 55.3692C86.1491 55.1918 86.5581 55.0121 86.9807 54.8652C90.3649 53.6912 93.7355 53.7771 97.1061 54.959C98.4032 55.4155 99.4529 54.7602 99.932 53.2551C100.314 52.0562 99.6801 51.3195 98.6021 51.0415C96.3253 50.4551 94.0213 49.9737 91.7253 49.4494L91.7264 49.4483ZM72.9367 68.9149C72.9661 69.3194 72.9989 70.0346 73.0723 70.7465C73.2079 72.1216 73.8599 72.8595 74.8757 72.8132C76.3921 72.7454 77.3932 71.7725 77.2745 70.3702C76.9197 66.2595 77.9672 62.5884 80.5423 59.3432C81.4135 58.2483 81.1434 57.1285 79.8677 56.1251C79.0203 55.4562 78.1129 55.6483 77.2305 56.7285C74.4181 60.1827 73.026 64.159 72.9367 68.9149ZM89.0835 74.255C91.5987 75.7725 94.9727 74.8504 96.6891 72.3273C98.5897 69.5341 97.5151 65.6143 95.4191 64.5262C93.3129 67.7612 91.201 71.0075 89.0835 74.255ZM94.314 63.6482C91.149 62.2516 87.905 63.3409 86.3762 66.1352C85.0056 68.6437 85.6779 71.968 87.9298 73.4697C90.0417 70.2279 92.1479 66.9872 94.314 63.6482Z" fill="#FFEDE7"/>
<path fill-rule="evenodd" clip-rule="evenodd" d="M136.833 164.568C135.119 164.499 133.409 164.342 131.699 164.401C131.04 164.422 130.404 164.943 129.759 165.236C130.103 165.853 130.333 166.58 130.814 167.05C131.357 167.582 132.232 167.771 132.768 168.298C133.639 169.146 134.355 170.155 135.147 171.096C133.95 171.273 132.758 171.567 131.563 171.581C130.73 171.591 129.9 171.09 129.063 171.053C128.446 171.021 127.815 171.367 127.194 171.544C127.406 172.212 127.439 173.041 127.872 173.515C128.752 174.491 129.963 175.175 130.801 176.181C131.243 176.72 131.196 177.671 131.375 178.441C130.653 178.547 129.867 178.885 129.232 178.712C128.035 178.388 126.962 177.643 125.774 177.311C125.083 177.119 124.267 177.384 123.5 177.447C123.683 178.198 123.703 179.05 124.09 179.673C124.778 180.789 125.8 181.707 126.468 182.833C126.765 183.32 126.826 184.352 126.516 184.7C126.191 185.056 125.173 185.117 124.65 184.887C123.52 184.387 122.565 183.509 121.442 182.988C120.693 182.639 119.779 182.633 118.942 182.475C119.009 183.313 118.895 184.22 119.178 184.983C119.63 186.209 120.469 187.302 120.892 188.538C121.067 189.047 120.784 189.941 120.389 190.344C120.159 190.581 119.15 190.391 118.739 190.07C117.576 189.168 116.591 188.031 115.423 187.135C114.957 186.775 114.195 186.801 113.568 186.651C113.412 187.337 113.025 188.07 113.159 188.697C113.422 189.98 114.124 191.183 114.336 192.47C114.454 193.173 113.949 193.983 113.729 194.741C113.051 194.456 112.19 194.339 111.718 193.851C110.81 192.906 110.179 191.696 109.292 190.713C108.891 190.271 108.158 190.12 107.578 189.839C107.287 190.481 106.755 191.126 106.765 191.764C106.778 192.998 107.274 194.23 107.244 195.453C107.225 196.241 106.623 197.013 106.279 197.797C105.621 197.349 104.771 197.029 104.339 196.42C103.633 195.412 103.303 194.14 102.595 193.128C102.238 192.605 101.414 192.405 100.801 192.061C100.49 192.627 99.9772 193.167 99.9104 193.761C99.7452 195.148 99.9104 196.575 99.7177 197.95C99.6371 198.532 98.9354 199.503 98.615 199.463C97.9899 199.383 97.1604 198.85 96.9049 198.286C96.325 197.023 96.1363 195.588 95.6056 194.299C95.3795 193.753 94.7014 193.387 94.2257 192.941C93.7539 193.456 93.0522 193.896 92.8497 194.504C92.4114 195.822 92.3367 197.261 91.8983 198.581C91.7195 199.143 91.0138 199.534 90.5558 200C90.0526 199.487 89.2899 199.045 89.115 198.434C88.7671 197.174 88.8614 195.797 88.5312 194.527C88.3425 193.83 87.6643 193.264 87.2083 192.635C86.6854 193.124 86.0171 193.531 85.677 194.126C85.221 194.922 85.1679 195.977 84.6608 196.718C84.0672 197.587 83.1531 198.243 82.3806 198.992C82.017 198.039 81.4804 197.103 81.3546 196.123C81.2229 195.144 81.6337 194.097 81.5295 193.106C81.4627 192.448 80.9261 191.835 80.5919 191.204C79.9845 191.564 79.2022 191.792 78.8031 192.313C77.9461 193.417 77.3859 194.737 76.5151 195.83C76.1672 196.274 75.2158 196.677 74.7814 196.5C74.3431 196.321 73.9617 195.366 74.0227 194.793C74.1544 193.411 74.6595 192.061 74.805 190.68C74.8797 190.023 74.4807 189.32 74.3018 188.634C73.6374 188.856 72.8374 188.915 72.3558 189.337C71.4791 190.098 70.9051 191.202 70.0206 191.931C69.37 192.456 68.4245 192.607 67.6127 192.926C67.5144 191.998 67.1841 191.025 67.3689 190.157C67.6048 189.037 68.338 188.033 68.6682 186.922C68.8432 186.355 68.5975 185.665 68.5503 185.03C67.8525 185.103 67.0249 184.969 66.4922 185.299C65.3797 185.993 64.4991 187.07 63.3649 187.726C62.7516 188.084 61.8199 187.905 61.0375 187.966C61.0572 187.239 60.839 186.406 61.1221 185.806C61.6882 184.619 62.6258 183.617 63.2076 182.438C63.4907 181.862 63.3256 181.063 63.3629 180.369C62.6572 180.377 61.8749 180.188 61.2675 180.436C59.982 180.958 58.8183 181.815 57.5229 182.318C56.9903 182.529 55.9367 182.409 55.6674 182.035C55.3745 181.64 55.5081 180.613 55.8462 180.145C56.66 179.023 57.7863 178.121 58.6198 177.005C59.0149 176.482 59.0208 175.67 59.2036 174.989C58.5058 174.853 57.7726 174.489 57.1396 174.621C55.7735 174.906 54.488 175.555 53.1277 175.832C52.5675 175.942 51.565 175.649 51.3626 175.238C51.1464 174.792 51.4196 173.8 51.8245 173.405C52.8231 172.434 54.0889 171.752 55.0934 170.789C55.5651 170.339 55.6733 169.514 55.9465 168.86C55.3391 168.632 54.7258 168.197 54.1184 168.221C52.8899 168.272 51.6594 168.732 50.4269 168.698C49.6308 168.677 48.8446 168.089 48.0524 167.751C48.5045 167.085 48.8289 166.272 49.4284 165.786C50.134 165.214 51.166 165.037 51.8874 164.481C52.6461 163.892 53.2201 163.053 53.8708 162.322C53.0098 161.98 52.1705 161.498 51.2702 161.331C50.2893 161.151 49.2161 161.416 48.2509 161.18C47.5295 161.005 46.9182 160.357 46.2538 159.918C46.8003 159.335 47.2524 158.535 47.9266 158.211C49.0392 157.684 50.3424 157.57 51.4727 157.067C52.0761 156.798 52.481 156.085 52.9705 155.578C52.4142 155.122 51.9346 154.461 51.2977 154.261C49.9748 153.833 48.5379 153.75 47.215 153.312C46.6784 153.131 45.9767 152.373 45.9904 151.901C46.0042 151.433 46.7728 150.728 47.329 150.592C48.6716 150.258 50.1164 150.301 51.4687 149.977C52.1135 149.824 52.6324 149.174 53.2024 148.753C52.7503 148.207 52.4004 147.466 51.8166 147.159C50.5822 146.515 49.1787 146.189 47.9541 145.528C47.4549 145.261 46.9045 144.391 46.9929 143.919C47.0932 143.449 47.9404 142.854 48.5045 142.809C49.7291 142.695 50.9871 143.015 52.2196 142.925C53.0432 142.858 53.8354 142.398 54.6413 142.113C54.1754 141.413 53.8413 140.557 53.2182 140.044C52.2668 139.256 51.0461 138.796 50.1006 138.006C49.6525 137.629 49.2436 136.707 49.4028 136.235C49.5542 135.815 50.5331 135.398 51.0933 135.453C52.483 135.593 53.8256 136.11 55.2153 136.263C55.8659 136.336 56.5755 135.923 57.2595 135.73C57.0099 135.058 56.9293 134.237 56.491 133.748C55.5534 132.718 54.3425 131.932 53.4206 130.896C53.0432 130.472 52.8073 129.46 53.0629 129.063C53.3125 128.66 54.3209 128.411 54.8673 128.566C56.2807 128.967 57.5937 129.71 58.9972 130.14C59.5476 130.313 60.5186 130.22 60.8017 129.859C61.0886 129.493 60.9432 128.538 60.6464 128.037C60.1471 127.173 59.2331 126.544 58.777 125.669C58.2817 124.73 58.1185 123.616 57.8119 122.58C58.8616 122.732 59.984 122.714 60.953 123.081C61.871 123.429 62.5865 124.284 63.4907 124.72C64.0332 124.982 64.7585 124.875 65.3993 124.932C65.4465 124.227 65.7296 123.427 65.4878 122.83C64.9551 121.462 64.0804 120.234 63.5182 118.87C63.3256 118.399 63.4573 117.379 63.7816 117.202C64.2671 116.929 65.2185 116.917 65.6608 117.235C66.848 118.096 67.8171 119.253 68.9808 120.157C69.4466 120.521 70.1916 120.529 70.8128 120.696C70.9877 120.016 71.4201 119.283 71.2884 118.666C71.0211 117.383 70.3331 116.188 70.0638 114.901C69.9282 114.246 70.3233 113.474 70.4786 112.759C71.2314 112.989 72.2025 113.001 72.7057 113.494C73.6472 114.402 74.2507 115.646 75.1313 116.622C75.5264 117.058 76.2753 117.182 76.8591 117.449C77.1422 116.811 77.669 116.164 77.6454 115.537C77.5943 114.146 77.1363 112.769 77.1186 111.385C77.1048 110.754 77.6316 109.925 78.1643 109.568C78.4179 109.401 79.4695 109.984 79.8037 110.472C80.5093 111.482 80.8828 112.729 81.5983 113.737C82.0563 114.4 82.8701 114.808 83.5286 115.331C83.8667 114.547 84.3856 113.794 84.5232 112.977C84.7021 111.835 84.4662 110.621 84.6824 109.493C84.8102 108.837 85.4687 108.288 85.8972 107.689C86.4574 108.151 87.2535 108.503 87.5228 109.096C88.0791 110.287 88.2344 111.653 88.7513 112.863C89.0206 113.482 89.7165 113.92 90.2158 114.441C90.6816 113.903 91.3657 113.435 91.572 112.812C91.9809 111.564 92.0143 110.189 92.4389 108.949C92.6512 108.322 93.3804 107.874 93.8797 107.345C94.4065 107.929 95.2026 108.44 95.3972 109.12C95.7451 110.381 95.6233 111.768 95.9397 113.044C96.0852 113.661 96.7869 114.144 97.2292 114.689C97.7147 114.26 98.3831 113.926 98.6563 113.388C99.2499 112.211 99.5035 110.857 100.168 109.727C100.516 109.118 101.42 108.827 102.08 108.392C102.421 109.035 103.008 109.662 103.059 110.326C103.154 111.635 102.837 112.975 102.924 114.284C102.971 114.928 103.555 115.535 103.895 116.16C104.445 115.828 105.157 115.614 105.524 115.137C106.193 114.29 106.533 113.158 107.262 112.385C107.926 111.686 108.925 111.305 109.772 110.784C109.971 111.7 110.322 112.625 110.299 113.535C110.285 114.447 109.743 115.343 109.701 116.257C109.674 117.064 110.016 117.89 110.197 118.713C110.918 118.381 111.746 118.192 112.312 117.691C113.243 116.878 113.898 115.75 114.851 114.97C115.351 114.563 116.221 114.616 116.923 114.459C117.055 115.174 117.287 115.887 117.267 116.599C117.247 117.11 116.829 117.599 116.711 118.125C116.42 119.519 114.38 120.953 116.151 122.173C116.721 122.57 118.633 121.071 119.905 120.389C120.381 120.134 120.748 119.58 121.234 119.47C121.922 119.312 122.773 119.244 123.353 119.534C123.616 119.662 123.612 120.873 123.343 121.397C122.722 122.643 121.788 123.73 121.139 124.966C120.866 125.489 120.988 126.223 120.937 126.86C121.643 126.909 122.435 127.194 123.028 126.958C124.253 126.471 125.303 125.561 126.537 125.119C127.202 124.879 128.086 125.239 128.872 125.331C128.731 126.047 128.788 126.909 128.393 127.446C127.577 128.572 126.457 129.474 125.596 130.57C125.265 130.977 125.016 131.93 125.242 132.174C125.619 132.584 126.453 132.895 126.993 132.771C128.349 132.47 129.621 131.757 130.987 131.502C131.685 131.372 132.499 131.875 133.258 132.093C132.988 132.775 132.876 133.6 132.411 134.111C131.746 134.848 130.72 135.253 130.046 135.982C129.387 136.689 128.982 137.631 128.467 138.468C129.376 138.649 130.28 138.959 131.19 138.967C132.114 138.979 133.055 138.503 133.954 138.586C134.767 138.658 135.546 139.195 136.332 139.527C135.904 140.203 135.587 141.022 134.999 141.508C134.298 142.084 133.271 142.266 132.55 142.828C131.782 143.422 131.208 144.261 130.549 144.994C131.416 145.318 132.259 145.768 133.15 145.945C134.36 146.181 135.603 146.198 136.837 146.312V149.12C135.42 149.511 133.969 149.826 132.593 150.335C132.114 150.512 131.434 151.245 131.51 151.585C131.622 152.117 132.216 152.775 132.745 152.944C134.064 153.359 135.471 153.53 136.837 153.797V157.069C135.532 157.165 134.219 157.15 132.951 157.403C132.316 157.531 131.783 158.15 131.2 158.545C131.703 159.123 132.104 159.913 132.745 160.227C134.04 160.87 135.467 161.255 136.837 161.748V164.554L136.833 164.568ZM117.678 153.308C117.678 153.695 117.682 154.086 117.678 154.475C117.641 157.611 118.879 158.965 121.898 159.077C124.027 159.158 125.043 157.914 125.106 154.89C125.299 145.654 122.299 137.609 115.917 130.881C113.497 128.328 111.622 128.617 109.851 131.62C108.825 133.355 109.318 134.65 110.6 135.992C115.235 140.824 117.546 146.631 117.678 153.306V153.308ZM95.4719 182.092C95.4385 185.207 96.9638 186.455 100.199 185.602C109.493 183.153 116.477 177.696 121.143 169.294C122.34 167.138 122.061 165.599 120.428 164.637C118.106 163.257 115.944 163.575 114.763 165.674C111.008 172.351 105.475 176.657 98.043 178.514C96.2582 178.956 95.4385 180.066 95.4719 182.09V182.092ZM89.97 182.305C90.0211 180.727 89.4138 179.174 87.2437 178.705C79.9531 177.125 74.3254 173.187 70.3253 166.865C68.9827 164.739 67.0053 164.595 64.6602 166.258C62.8794 167.513 63.0111 169.089 64.0627 170.748C69.2481 178.919 76.5348 184.087 86.0486 186.009C88.4978 186.502 89.9484 185.213 89.972 182.305H89.97ZM91.9573 120.193C91.92 120.383 91.8767 120.57 91.8354 120.759C86.8564 120.822 82.133 121.981 77.6532 124.154C76.0846 124.911 75.1195 126.031 75.6895 127.864C76.5426 130.637 78.8818 131.651 81.5393 130.49C82.2548 130.181 82.9664 129.869 83.7016 129.613C89.5887 127.572 95.4523 127.721 101.316 129.776C103.572 130.57 105.398 129.43 106.232 126.813C106.896 124.728 105.794 123.447 103.918 122.963C99.9575 121.944 95.9496 121.106 91.9554 120.195L91.9573 120.193ZM59.2704 154.047C59.3215 154.75 59.3785 155.994 59.5063 157.232C59.7422 159.624 60.8764 160.907 62.6435 160.826C65.2814 160.708 67.023 159.017 66.8166 156.578C66.1994 149.429 68.0215 143.044 72.5013 137.401C74.0168 135.497 73.547 133.549 71.3278 131.804C69.8535 130.641 68.2751 130.975 66.7399 132.854C61.8474 138.861 59.4257 145.776 59.2704 154.047ZM87.3596 163.334C91.7352 165.973 97.6046 164.369 100.59 159.981C103.897 155.124 102.027 148.307 98.3811 146.415C94.7171 152.041 91.0433 157.686 87.3596 163.334ZM96.4587 144.888C90.9529 142.459 85.3095 144.353 82.6499 149.213C80.2656 153.575 81.4352 159.356 85.3527 161.968C89.0265 156.33 92.6905 150.694 96.4587 144.888Z" fill="#FFEDE7"/>
<path fill-rule="evenodd" clip-rule="evenodd" d="M349.809 52.2539C350.3 55.1082 350.903 57.9522 351.263 60.8223C351.507 62.7883 352.937 62.6674 354.239 62.8946C355.546 63.1217 356.773 63.5736 357.648 61.8019C358.914 59.2121 360.528 56.7918 362.106 54.107C363.384 54.559 364.565 54.976 366.014 55.4878C365.54 58.4607 365.263 61.4211 364.549 64.2731C363.942 66.7058 365.932 66.7815 367.059 67.7036C368.164 68.6064 369.07 68.5397 370.183 67.5262C372.322 65.5827 374.624 63.8166 377.006 61.8539C378.102 62.768 379.125 63.6234 380.221 64.5386C378.659 67.3284 377.249 70.0425 375.646 72.6391C374.372 74.7024 376.397 75.3408 377.195 76.3781C377.661 76.9826 378.92 77.4301 379.681 77.2662C381.473 76.8854 383.182 76.0922 384.925 75.4696C387.351 74.6049 389.16 75.4493 390.351 78.0029C388.191 79.8346 386.036 81.76 383.773 83.5487C382.671 84.421 382.2 85.2176 382.923 86.5758C383.662 87.969 383.538 89.9509 386.077 89.7599C388.877 89.5475 391.703 89.7114 394.716 89.7114C394.984 91.1678 395.22 92.474 395.482 93.8955C392.542 95.0028 389.8 96.1757 386.967 97.0593C384.845 97.7192 385.629 99.3079 385.505 100.618C385.394 101.832 385.326 102.984 386.975 103.439C388.754 103.926 390.462 104.689 392.2 105.327C394.642 106.224 395.433 108.035 394.572 110.76C391.707 110.76 388.732 110.89 385.778 110.712C383.94 110.599 383.643 111.742 383.285 112.99C382.914 114.277 381.793 115.485 383.604 116.797C386.001 118.535 388.164 120.607 390.479 122.582C389.75 123.829 389.112 124.933 388.361 126.213C385.649 125.25 382.928 124.506 380.415 123.326C378.225 122.299 377.488 123.696 376.302 124.921C375.119 126.145 375.113 127.11 375.99 128.495C377.487 130.859 378.792 133.347 380.249 135.904C379.182 136.809 378.212 137.63 377.029 138.632C374.701 136.708 372.359 134.901 370.168 132.918C369.036 131.89 368.136 131.894 367.023 132.788C365.888 133.698 363.855 133.777 364.55 136.195C365.146 138.273 365.281 140.478 365.69 142.614C365.974 144.085 365.999 145.102 364.155 145.734C362.436 146.321 361.696 145.896 360.938 144.44C359.898 142.442 358.556 140.598 357.562 138.578C356.757 136.934 355.582 137.284 354.307 137.556C352.956 137.846 351.454 137.648 351.229 139.804C350.932 142.667 350.225 145.488 349.676 148.439H345.474C344.954 145.646 344.228 142.841 343.963 139.995C343.738 137.591 342.027 137.884 340.554 137.479C339.117 137.085 338.149 137.34 337.451 138.811C336.693 140.404 335.663 141.87 334.763 143.395C333.47 145.575 331.597 146.016 329.143 144.718C329.616 141.852 329.963 138.895 330.628 136.016C331.197 133.556 329.021 133.639 327.956 132.687C326.93 131.772 326.042 131.959 325.022 132.872C322.859 134.796 320.587 136.59 318.158 138.6C317.086 137.719 316.062 136.882 314.899 135.927C316.417 133.247 317.817 130.637 319.357 128.115C320.073 126.945 320.112 126.07 318.997 125.208C317.87 124.336 317.632 122.141 315.274 123.177C312.629 124.335 309.83 125.147 306.853 126.198C306.166 125.091 305.459 123.964 304.62 122.623C306.896 120.68 309.024 118.733 311.293 116.962C312.514 116.006 312.893 115.101 312.119 113.703C311.415 112.416 311.638 110.459 309.152 110.704C306.601 110.955 304.003 110.781 301.422 110.793V105.954C303.742 105.069 306.105 104.285 308.345 103.232C308.976 102.934 309.621 101.831 309.59 101.124C309.544 99.8322 309.39 97.8492 308.589 97.4085C306.394 96.2028 303.838 95.6435 301.423 94.8288V89.5068C304.076 89.5746 306.733 89.5588 309.372 89.7328C311.847 89.8978 311.462 87.7667 312.201 86.5148C312.925 85.2899 312.504 84.4843 311.47 83.6515C309.166 81.7916 306.948 79.8278 304.653 77.8696C305.412 76.577 306.056 75.4843 306.771 74.2651C309.709 75.2967 312.544 76.1883 315.292 77.299C316.638 77.8414 317.427 77.5295 318.069 76.3804C318.762 75.1352 320.784 74.4617 319.377 72.351C317.742 69.8911 316.421 67.2188 314.904 64.5443C316.05 63.5804 317.062 62.7239 318.11 61.8415C320.598 63.8945 322.98 65.6968 325.165 67.7137C326.809 69.2312 327.762 67.7183 328.951 67.1748C330.074 66.6629 331.012 66.1657 330.63 64.4878C329.972 61.5985 329.619 58.637 329.113 55.5353C330.451 55.0347 331.691 54.5714 332.993 54.0833C334.605 56.7918 336.248 59.1974 337.51 61.7895C338.528 63.8934 339.99 62.8799 341.387 62.8143C342.854 62.7454 343.698 62.1782 343.931 60.5703C344.327 57.7816 344.936 55.0245 345.452 52.2528H349.808L349.809 52.2539ZM346.284 70.2979C340.344 70.0154 331.671 73.412 329.522 76.6967C333.748 81.7216 337.991 86.7667 342.184 91.7532C344.919 90.7912 346.285 88.9761 346.284 86.308V70.2979ZM338.489 129.051C344.7 130.856 350.527 130.903 356.655 129.035C354.392 122.796 352.296 116.907 350.066 111.069C349.86 110.532 348.745 110.013 348.084 110.057C347.041 110.124 345.363 110.406 345.109 111.056C342.807 116.866 340.755 122.774 338.489 129.052V129.051ZM365.847 76.4131C361.147 72.3951 353.05 69.5928 348.813 70.5352V86.6119C348.813 89.3155 350.228 90.9886 353.06 91.6311C357.264 86.6266 361.502 81.5837 365.847 76.4131ZM377.446 96.2729C370.94 97.4243 364.719 98.5034 358.505 99.6718C358.061 99.7554 357.563 100.414 357.384 100.91C356.667 102.891 356.692 104.533 359.136 105.489C360.912 106.18 362.493 107.363 364.166 108.323C367.49 110.23 370.812 112.132 374.384 114.177C377.162 108.389 378.385 102.679 377.446 96.2729ZM320.927 114.106C326.534 110.868 332.03 107.719 337.491 104.512C337.861 104.29 338.214 103.601 338.17 103.171C337.966 101.172 337.726 99.1565 334.886 99.2593C333.944 99.2932 332.988 98.9497 332.041 98.7836C327.317 97.9622 322.592 97.1441 317.9 96.3283C316.595 101.159 317.908 108.915 320.927 114.107V114.106ZM340.176 93.4605C335.912 88.3848 331.605 83.256 327.173 77.9826C322.56 82.5193 319.4 87.4187 318.223 93.7509C323.645 94.6989 328.782 95.5961 333.91 96.491C336.622 96.9655 338.712 95.9558 340.178 93.4616L340.176 93.4605ZM322.129 116.44C325.67 121.841 330.156 125.6 336.037 128.148C338.303 121.9 340.543 115.967 342.517 109.946C342.724 109.326 341.498 108.077 340.719 107.353C340.28 106.944 339.202 106.657 338.748 106.914C333.277 109.964 327.867 113.128 322.13 116.441L322.129 116.44ZM367.911 78.0448C363.497 83.2956 359.225 88.3859 355.001 93.4142C356.386 95.9799 358.377 97.0262 360.976 96.5531C362.403 96.2966 363.827 96.0627 365.251 95.8085C369.103 95.1192 372.954 94.4288 377.017 93.6966C375.568 87.4074 372.634 82.3498 367.91 78.0436L367.911 78.0448ZM373.009 116.456C367.028 112.991 361.289 109.668 355.609 106.38C353.313 108.123 352.614 110.245 353.513 112.746C355.067 117.054 356.614 121.362 358.183 125.665C358.472 126.451 358.835 127.209 359.217 128.107C365.008 125.554 369.402 121.843 373.009 116.456Z" fill="#FFEDE7"/>
<path fill-rule="evenodd" clip-rule="evenodd" d="M32.6507 125.846C32.358 126.58 32.0654 127.317 31.7783 128.052C31.288 127.432 30.7817 126.826 30.314 126.187C29.8721 125.585 29.4721 124.418 29.071 124.428C27.9309 124.449 28.4597 125.67 28.175 126.352C27.8665 127.084 27.5004 128.408 27.1705 128.404C25.9682 128.392 26.2823 127.126 25.9897 126.344C25.7434 125.682 25.5027 124.551 25.123 124.492C23.9908 124.317 24.2654 125.577 23.8801 126.206C23.4654 126.879 22.8914 128.102 22.5422 128.052C21.4055 127.889 21.9276 126.724 21.7784 125.947C21.6349 125.216 21.4044 124.501 21.2101 123.78C20.7016 124.317 20.1999 124.865 19.6779 125.389C19.1197 125.95 18.5434 126.489 17.9694 127.038C17.8587 126.252 17.731 125.469 17.6361 124.683C17.5491 123.945 17.5005 123.205 17.4361 122.464C16.8462 122.926 16.2236 123.351 15.6734 123.856C15.0892 124.404 14.7366 125.564 13.74 125.023C13.4451 124.864 13.7186 123.622 13.7672 122.878C13.8191 122.098 14.9615 121.257 13.9457 120.632C13.6124 120.425 12.635 121.296 11.9367 121.637C11.2621 121.962 10.566 122.238 9.88695 122.537C10.0169 121.8 10.1175 121.056 10.2881 120.329C10.4666 119.568 11.1276 118.43 10.8542 118.141C10.0338 117.272 9.45983 118.583 8.7073 118.786C7.98188 118.978 7.25081 119.121 6.522 119.286C6.77623 118.59 7.00448 117.883 7.3073 117.207C7.62708 116.489 8.5073 115.478 8.296 115.161C7.58075 114.096 6.76606 115.313 5.96494 115.435C5.835 115.456 5.71296 115.583 5.59093 115.586C5.00675 115.594 4.41579 115.577 3.83388 115.57C4.07455 115.005 4.22596 114.367 4.5898 113.895C4.96381 113.412 5.58867 113.13 6.02482 112.683C6.23273 112.466 6.43951 111.95 6.32765 111.787C6.14912 111.522 5.69149 111.286 5.37511 111.313C4.62257 111.38 3.88585 111.698 3.13106 111.733C2.67117 111.754 2.19095 111.44 1.72089 111.28C1.95705 110.88 2.11072 110.382 2.4497 110.107C2.96157 109.687 3.65196 109.482 4.17399 109.069C4.50732 108.808 4.67455 108.341 4.91297 107.965C4.49602 107.781 4.09263 107.486 3.66439 107.439C3.04744 107.376 2.39208 107.597 1.7853 107.499C1.33333 107.422 0.932198 107.028 0.503952 106.777C0.804515 106.428 1.03728 105.963 1.41129 105.762C2.03954 105.424 2.78642 105.319 3.41693 104.989C3.74461 104.819 3.93105 104.372 4.17738 104.049C3.87907 103.822 3.60902 103.476 3.27569 103.394C2.53671 103.213 1.74349 103.249 1.02033 103.03C0.630505 102.912 0.332202 102.456 0 102.155C0.35254 101.855 0.661013 101.442 1.06892 101.282C1.59999 101.075 2.23841 101.144 2.77739 100.949C3.26213 100.776 3.67117 100.404 4.11523 100.12C3.69602 99.7881 3.30846 99.3949 2.84744 99.144C2.42259 98.9124 1.85084 98.9237 1.4531 98.6649C1.01129 98.3802 0.698301 97.9113 0.320902 97.5215C0.815815 97.2921 1.28474 96.9576 1.80677 96.8638C2.41016 96.7542 3.06891 96.9248 3.6836 96.8288C4.0576 96.7712 4.3932 96.4469 4.74235 96.2412C4.51749 95.8989 4.36382 95.4525 4.05195 95.2367C3.42597 94.8073 2.66552 94.5712 2.05649 94.126C1.75366 93.9057 1.65536 93.4062 1.46101 93.0322C1.84519 92.8627 2.23841 92.5441 2.61467 92.561C3.4158 92.5972 4.20111 92.8661 5.00562 92.9249C5.34121 92.9475 5.86098 92.7622 5.98528 92.5158C6.10166 92.2887 5.90392 91.7463 5.66889 91.5226C5.08924 90.9667 4.35817 90.5599 3.78981 89.9927C3.52201 89.7238 3.48925 89.2221 3.348 88.8232C3.74913 88.7057 4.18416 88.4311 4.55026 88.5046C5.28359 88.6548 5.96833 89.0503 6.70844 89.2288C7.08697 89.3181 7.52651 89.1588 7.93781 89.1125C7.83272 88.6842 7.83272 88.1836 7.59883 87.8435C7.16832 87.2198 6.53443 86.7351 6.12652 86.1C5.92878 85.7972 5.92087 85.2243 6.08019 84.8955C6.16381 84.7249 6.85759 84.6876 7.16606 84.8232C7.90504 85.143 8.5604 85.6492 9.29147 85.987C9.60559 86.1306 10.0203 86.0424 10.3909 86.0605C10.3988 85.656 10.5423 85.1916 10.3909 84.8594C10.0338 84.0888 9.49486 83.4063 9.12989 82.639C9.00221 82.3735 9.03837 81.7837 9.20786 81.6718C9.4813 81.4989 10.0259 81.4549 10.2903 81.6221C10.9672 82.0503 11.5163 82.6763 12.1909 83.1114C12.5344 83.334 13.0361 83.3091 13.4689 83.3995C13.5016 82.9916 13.6361 82.56 13.5389 82.1882C13.3818 81.5859 12.9672 81.0413 12.8598 80.4391C12.7705 79.9328 12.9604 79.3769 13.027 78.8402C13.5276 79.0549 14.1073 79.1769 14.5027 79.5136C15.0112 79.9385 15.3231 80.5871 15.8135 81.0436C16.0496 81.2684 16.5931 81.4549 16.8146 81.3317C17.0609 81.1905 17.2293 80.6662 17.1965 80.3328C17.1072 79.4877 16.8282 78.6628 16.7547 77.8187C16.7276 77.499 16.9909 76.9442 17.2338 76.8673C17.5095 76.7837 18.0383 77.0312 18.2349 77.2978C18.7174 77.9385 19.0225 78.7125 19.5027 79.3577C19.7276 79.6594 20.1875 79.7837 20.54 79.9893C20.7185 79.6199 21.0168 79.2628 21.0462 78.8809C21.1197 78.0809 20.9841 77.2594 21.0654 76.4606C21.0982 76.1351 21.4259 75.6267 21.6767 75.5928C21.9615 75.551 22.4507 75.8719 22.6021 76.1623C22.9682 76.8775 23.1332 77.6922 23.4846 78.412C23.6552 78.7611 24.0744 78.986 24.3829 79.2662C24.6292 78.934 24.9919 78.6334 25.0925 78.2628C25.279 77.5758 25.2247 76.8199 25.4338 76.1408C25.5558 75.7295 25.9806 75.4063 26.2676 75.0425C26.5795 75.3758 27.0224 75.6572 27.1772 76.0526C27.3998 76.6278 27.3456 77.3057 27.5377 77.8967C27.6891 78.3543 28.0417 78.7442 28.3061 79.1645C28.636 78.8108 29.0642 78.5057 29.2778 78.091C29.5671 77.5396 29.6055 76.8605 29.906 76.3204C30.1173 75.9329 30.5806 75.6843 30.932 75.3724C31.1648 75.7679 31.5411 76.1408 31.6032 76.5622C31.7117 77.2639 31.5512 78.004 31.6382 78.7103C31.6846 79.0956 32.0089 79.447 32.2089 79.8131C32.5524 79.5905 33.0021 79.4447 33.219 79.134C33.6574 78.5136 33.9038 77.7611 34.3512 77.1498C34.5738 76.8425 35.0574 76.725 35.4292 76.5216C35.6021 76.8967 35.9275 77.2741 35.9218 77.647C35.9105 78.3566 35.6506 79.0628 35.6235 79.7747C35.6077 80.2108 35.8269 80.6571 35.9456 81.0956C36.3467 80.9046 36.8258 80.7939 37.1365 80.5012C37.5885 80.0763 37.8563 79.4504 38.3252 79.0458C38.6857 78.7317 39.2269 78.6244 39.6868 78.4244C39.7738 78.9091 39.9851 79.4131 39.9195 79.8741C39.8246 80.482 39.4427 81.0447 39.3162 81.6526C39.2269 82.0775 39.3512 82.5487 39.3817 82.9995C39.8472 82.8605 40.3783 82.8153 40.7681 82.56C41.3557 82.1679 41.8133 81.5679 42.4065 81.1747C42.6902 80.9871 43.2811 80.9057 43.4924 81.0763C43.7116 81.247 43.793 81.847 43.6653 82.1543C43.3647 82.8978 42.8529 83.552 42.5387 84.2944C42.3952 84.6424 42.506 85.1001 42.5015 85.5091C42.9071 85.4842 43.3647 85.5712 43.7037 85.4119C44.4291 85.0673 45.0675 84.5373 45.802 84.2097C46.0969 84.0752 46.6924 84.1396 46.8709 84.352C47.0494 84.5588 47.0065 85.1554 46.8246 85.4277C46.3884 86.0989 45.7636 86.6492 45.3161 87.3159C45.1071 87.6277 45.1432 88.0978 45.0698 88.4944C45.4732 88.543 45.9116 88.7147 46.2777 88.6164C47.0088 88.4175 47.6822 87.9983 48.4189 87.8187C48.776 87.7317 49.2178 87.978 49.6212 88.0729C49.5105 88.4786 49.5127 88.9893 49.2607 89.2718C48.7568 89.8367 48.0664 90.23 47.55 90.7825C47.2935 91.0514 47.2415 91.5181 47.098 91.8955C47.4958 92.0164 47.9025 92.2627 48.2811 92.2288C49.0314 92.1588 49.7681 91.8526 50.5195 91.7994C50.8958 91.7735 51.2969 92.0944 51.6845 92.2582C51.4946 92.6356 51.4031 93.1283 51.1025 93.3622C50.5093 93.8254 49.7568 94.0944 49.15 94.5497C48.8494 94.7768 48.7218 95.2378 48.5082 95.5904C48.8788 95.7678 49.2393 96.0661 49.6212 96.0966C50.3771 96.1633 51.1534 96.0051 51.9059 96.091C52.2765 96.1339 52.6076 96.509 52.9568 96.7339C52.7104 97.0763 52.5398 97.5587 52.2065 97.735C51.541 98.0898 50.7556 98.2209 50.0754 98.5565C49.7319 98.7271 49.5127 99.144 49.2336 99.4491C49.5613 99.6954 49.854 100.065 50.2246 100.166C50.9556 100.362 51.7489 100.337 52.472 100.547C52.8347 100.655 53.1082 101.075 53.42 101.353C53.1217 101.651 52.8788 102.081 52.5263 102.213C51.9466 102.431 51.2732 102.378 50.6878 102.578C50.1929 102.747 49.7669 103.116 49.3093 103.395C49.7534 103.751 50.1624 104.177 50.6551 104.44C51.1613 104.711 51.7974 104.752 52.2957 105.033C52.6336 105.226 52.8347 105.662 53.0946 105.989C52.7568 106.234 52.4426 106.623 52.0765 106.691C51.4234 106.811 50.7251 106.667 50.0653 106.758C49.5884 106.825 49.1444 107.098 48.6901 107.28C49.0201 107.689 49.2935 108.173 49.6969 108.49C50.1466 108.846 50.7715 108.982 51.2133 109.345C51.5522 109.623 51.7195 110.106 51.9658 110.499C51.5003 110.68 51.0426 110.998 50.5749 111.012C49.9636 111.03 49.3455 110.734 48.7229 110.709C48.2924 110.691 47.8506 110.899 47.4155 111.004C47.6235 111.44 47.7432 111.955 48.0574 112.287C48.5794 112.834 49.2698 113.223 49.8031 113.761C50.0088 113.97 50.1715 114.543 50.0415 114.7C49.8381 114.954 49.341 115.173 49.0314 115.108C48.2494 114.936 47.515 114.529 46.7353 114.352C46.3342 114.263 45.8721 114.466 45.4359 114.535C45.5444 114.928 45.5602 115.388 45.7828 115.702C46.1975 116.283 46.811 116.728 47.1873 117.327C47.4099 117.676 47.3466 118.208 47.4099 118.659C46.9545 118.666 46.4427 118.804 46.0483 118.649C45.3873 118.394 44.8223 117.891 44.1659 117.614C43.8223 117.468 43.3704 117.58 42.9692 117.574C42.9964 117.982 42.9128 118.443 43.0743 118.786C43.4133 119.512 43.9512 120.15 44.2766 120.881C44.4122 121.176 44.3579 121.771 44.1466 121.954C43.9433 122.133 43.3455 122.09 43.0743 121.911C42.3647 121.442 41.7693 120.804 41.0709 120.325C40.7975 120.138 40.2393 120.038 40.0201 120.193C39.8088 120.345 39.7229 120.908 39.8145 121.225C40.0065 121.913 40.4404 122.537 40.5941 123.229C40.6969 123.686 40.4969 124.215 40.4291 124.713C39.9636 124.548 39.4246 124.478 39.0484 124.191C38.5986 123.844 38.3422 123.254 37.9083 122.876C37.5433 122.562 37.0472 122.404 36.6145 122.177C36.5094 122.652 36.2947 123.133 36.3196 123.603C36.3569 124.312 36.6314 125.009 36.6665 125.72C36.6857 126.055 36.4574 126.604 36.2111 126.693C35.9489 126.789 35.4156 126.554 35.1987 126.295C34.7761 125.782 34.5456 125.111 34.1286 124.591C33.8066 124.187 33.3241 123.909 32.9105 123.574C32.7286 124.074 32.5207 124.565 32.3693 125.076C32.3072 125.282 32.3614 125.521 32.3614 125.747C32.4563 125.78 32.5512 125.812 32.6461 125.844L32.6507 125.846ZM36.184 117.28C33.9264 114.167 31.7252 111.111 29.4801 108.09C29.3128 107.856 28.8247 107.778 28.4812 107.767C27.2846 107.724 26.0846 107.723 24.8914 107.747C24.5795 107.755 24.1445 107.829 23.9874 108.04C21.7242 111.09 19.5016 114.171 17.2733 117.234C21.7377 120.925 31.0597 120.957 36.1851 117.281L36.184 117.28ZM9.13215 97.5418C6.99883 102.964 10.1604 112.725 14.8858 115.42C16.8383 112.744 18.7547 110.031 20.766 107.388C21.5321 106.384 22.001 105.575 21.1072 104.35C20.6711 103.752 20.7287 102.807 20.5061 102.036C20.4055 101.693 20.236 101.19 19.9807 101.104C16.3739 99.8808 12.7468 98.7169 9.13215 97.5418ZM38.5885 115.489C44.3014 111.168 46.1557 102.315 44.2438 97.5655C41.0088 98.6107 37.7761 99.6932 34.5162 100.689C33.4733 101.008 32.8269 101.358 32.8111 102.645C32.8055 103.483 32.2213 104.307 31.9501 105.155C31.8416 105.489 31.7252 105.985 31.888 106.214C34.0913 109.325 36.3467 112.402 38.5885 115.489ZM10.0033 94.683C13.6768 95.8774 17.2485 97.0604 20.844 98.1802C21.1445 98.2717 21.6259 97.9938 21.94 97.7779C22.7547 97.2344 23.462 96.5 24.3332 96.083C25.0371 95.7441 25.2134 95.3565 25.21 94.6537C25.1806 91.6424 25.1965 88.6311 25.1965 85.6221V83.656C18.644 84.0243 12.1254 88.7644 10.0022 94.683H10.0033ZM43.4348 94.6751C41.158 88.5995 33.6145 83.2164 28.2304 83.7984C28.2304 87.1882 28.2744 90.5961 28.2089 94.0006C28.1874 95.1475 28.3738 95.8989 29.601 96.326C30.3162 96.5768 30.8439 97.3248 31.5038 97.787C31.8156 98.0051 32.2992 98.2751 32.6032 98.1836C36.1964 97.0604 39.7693 95.8729 43.4359 94.6751H43.4348Z" fill="#FFEDE7"/>
</svg>
