<svg width="371" height="200" viewBox="0 0 371 200" fill="none" xmlns="http://www.w3.org/2000/svg">
<path fill-rule="evenodd" clip-rule="evenodd" d="M260.085 172.605C259.796 173.34 259.506 174.076 259.219 174.811C258.728 174.193 258.22 173.585 257.751 172.946C257.315 172.344 256.907 171.178 256.506 171.187C255.371 171.209 255.897 172.43 255.612 173.111C255.306 173.844 254.937 175.167 254.605 175.163C253.408 175.152 253.719 173.885 253.428 173.102C253.184 172.44 252.937 171.309 252.563 171.25C251.429 171.075 251.702 172.335 251.318 172.964C250.903 173.639 250.333 174.862 249.98 174.811C248.84 174.648 249.371 173.483 249.22 172.705C249.071 171.975 248.841 171.261 248.651 170.539C248.143 171.075 247.641 171.622 247.116 172.147C246.558 172.707 245.981 173.248 245.411 173.797C245.3 173.011 245.172 172.228 245.077 171.441C244.99 170.703 244.942 169.963 244.872 169.224C244.288 169.684 243.665 170.109 243.117 170.616C242.527 171.165 242.175 172.324 241.178 171.781C240.885 171.62 241.162 170.381 241.207 169.637C241.259 168.856 242.402 168.016 241.389 167.392C241.05 167.183 240.074 168.056 239.375 168.397C238.703 168.72 238.01 168.998 237.328 169.295C237.458 168.559 237.559 167.814 237.729 167.087C237.906 166.326 238.569 165.189 238.296 164.9C237.473 164.03 236.901 165.344 236.143 165.544C235.426 165.736 234.689 165.88 233.961 166.044C234.219 165.349 234.446 164.642 234.743 163.965C235.065 163.248 235.948 162.237 235.734 161.921C235.019 160.856 234.207 162.071 233.401 162.195C233.273 162.215 233.157 162.341 233.032 162.345C232.443 162.353 231.861 162.336 231.273 162.329C231.519 161.763 231.665 161.126 232.031 160.653C232.407 160.17 233.03 159.888 233.464 159.442C233.672 159.225 233.883 158.709 233.772 158.545C233.592 158.282 233.134 158.044 232.82 158.073C232.062 158.138 231.323 158.457 230.572 158.492C230.109 158.512 229.633 158.199 229.162 158.036C229.398 157.638 229.552 157.14 229.891 156.866C230.405 156.447 231.091 156.239 231.613 155.828C231.946 155.567 232.111 155.099 232.352 154.723C231.935 154.54 231.534 154.245 231.101 154.2C230.487 154.134 229.831 154.357 229.23 154.257C228.772 154.18 228.369 153.788 227.946 153.535C228.241 153.187 228.478 152.722 228.854 152.519C229.479 152.18 230.229 152.077 230.863 151.747C231.188 151.575 231.369 151.13 231.621 150.808C231.318 150.581 231.049 150.235 230.717 150.154C229.98 149.97 229.185 150.006 228.462 149.788C228.07 149.67 227.779 149.215 227.441 148.912C227.794 148.612 228.105 148.2 228.511 148.042C229.043 147.833 229.681 147.904 230.222 147.708C230.704 147.534 231.113 147.162 231.554 146.879C231.137 146.548 230.753 146.154 230.29 145.903C229.865 145.67 229.297 145.681 228.898 145.424C228.457 145.139 228.14 144.669 227.766 144.278C228.258 144.051 228.733 143.717 229.249 143.622C229.856 143.511 230.514 143.682 231.128 143.588C231.502 143.529 231.835 143.205 232.187 142.998C231.962 142.657 231.807 142.21 231.491 141.994C230.868 141.565 230.11 141.328 229.501 140.884C229.195 140.664 229.098 140.163 228.906 139.789C229.29 139.623 229.68 139.3 230.059 139.319C230.861 139.354 231.648 139.623 232.447 139.682C232.783 139.704 233.306 139.52 233.43 139.273C233.546 139.046 233.346 138.503 233.108 138.279C232.532 137.724 231.803 137.318 231.235 136.751C230.967 136.482 230.932 135.979 230.793 135.581C231.194 135.464 231.627 135.189 231.989 135.264C232.726 135.413 233.413 135.808 234.152 135.987C234.532 136.077 234.97 135.918 235.381 135.87C235.276 135.442 235.276 134.945 235.042 134.604C234.612 133.978 233.978 133.494 233.567 132.86C233.372 132.555 233.367 131.985 233.524 131.655C233.605 131.487 234.298 131.448 234.61 131.583C235.346 131.904 236.004 132.411 236.735 132.748C237.044 132.892 237.464 132.803 237.835 132.822C237.842 132.417 237.984 131.953 237.835 131.623C237.478 130.851 236.939 130.168 236.57 129.402C236.442 129.135 236.479 128.546 236.648 128.433C236.924 128.26 237.468 128.218 237.734 128.385C238.411 128.812 238.96 129.439 239.635 129.873C239.978 130.094 240.482 130.072 240.913 130.161C240.942 129.755 241.077 129.321 240.983 128.951C240.825 128.347 240.412 127.803 240.303 127.2C240.212 126.695 240.401 126.138 240.471 125.605C240.969 125.818 241.549 125.942 241.946 126.276C242.45 126.702 242.769 127.351 243.251 127.807C243.492 128.031 244.037 128.218 244.256 128.094C244.502 127.955 244.673 127.428 244.638 127.095C244.551 126.252 244.272 125.426 244.196 124.581C244.171 124.263 244.432 123.707 244.681 123.631C244.954 123.548 245.48 123.795 245.68 124.06C246.159 124.703 246.467 125.476 246.944 126.121C247.169 126.423 247.629 126.55 247.984 126.754C248.16 126.385 248.457 126.025 248.492 125.646C248.56 124.844 248.428 124.025 248.508 123.224C248.541 122.899 248.867 122.39 249.117 122.356C249.404 122.316 249.894 122.635 250.046 122.928C250.408 123.641 250.573 124.457 250.926 125.178C251.102 125.526 251.519 125.751 251.824 126.032C252.071 125.699 252.437 125.402 252.536 125.029C252.723 124.339 252.672 123.586 252.875 122.904C253.002 122.493 253.422 122.171 253.709 121.808C254.023 122.139 254.467 122.423 254.619 122.819C254.844 123.394 254.784 124.073 254.981 124.661C255.131 125.119 255.488 125.509 255.751 125.929C256.084 125.576 256.506 125.27 256.723 124.856C257.01 124.307 257.05 123.625 257.347 123.085C257.561 122.7 258.022 122.45 258.377 122.139C258.61 122.534 258.984 122.907 259.051 123.329C259.154 124.031 258.997 124.771 259.084 125.477C259.13 125.864 259.455 126.214 259.65 126.581C259.997 126.361 260.451 126.212 260.663 125.902C261.101 125.281 261.351 124.528 261.797 123.917C262.022 123.609 262.507 123.492 262.875 123.289C263.051 123.664 263.37 124.041 263.365 124.415C263.36 125.125 263.098 125.83 263.067 126.543C263.054 126.979 263.275 127.424 263.389 127.866C263.793 127.674 264.272 127.563 264.578 127.27C265.032 126.844 265.301 126.222 265.771 125.815C266.128 125.501 266.669 125.393 267.133 125.195C267.216 125.676 267.431 126.181 267.36 126.643C267.268 127.252 266.889 127.814 266.759 128.421C266.672 128.849 266.796 129.317 266.823 129.769C267.294 129.63 267.82 129.583 268.206 129.327C268.799 128.935 269.257 128.337 269.849 127.944C270.134 127.757 270.721 127.673 270.937 127.843C271.154 128.014 271.232 128.616 271.108 128.922C270.807 129.666 270.299 130.322 269.985 131.063C269.836 131.409 269.947 131.869 269.944 132.275C270.345 132.25 270.805 132.338 271.146 132.178C271.872 131.835 272.508 131.304 273.239 130.977C273.537 130.841 274.133 130.904 274.313 131.119C274.495 131.325 274.449 131.921 274.267 132.195C273.831 132.866 273.204 133.416 272.762 134.084C272.551 134.392 272.586 134.864 272.508 135.261C272.913 135.311 273.355 135.481 273.72 135.383C274.451 135.186 275.125 134.766 275.859 134.586C276.216 134.499 276.658 134.744 277.061 134.84C276.951 135.246 276.953 135.755 276.704 136.039C276.2 136.601 275.51 136.996 274.99 137.548C274.736 137.82 274.684 138.285 274.541 138.662C274.936 138.782 275.345 139.03 275.718 138.994C276.473 138.924 277.209 138.617 277.962 138.565C278.338 138.538 278.736 138.86 279.124 139.023C278.937 139.4 278.842 139.895 278.544 140.128C277.948 140.592 277.2 140.861 276.595 141.317C276.292 141.544 276.162 142.004 275.951 142.356C276.321 142.535 276.682 142.833 277.06 142.865C277.819 142.928 278.596 142.773 279.345 142.857C279.719 142.9 280.049 143.275 280.398 143.501C280.152 143.844 279.983 144.323 279.648 144.5C278.981 144.855 278.197 144.986 277.52 145.321C277.171 145.493 276.952 145.91 276.675 146.214C277 146.462 277.295 146.83 277.663 146.93C278.394 147.127 279.187 147.102 279.912 147.313C280.277 147.418 280.548 147.84 280.857 148.119C280.562 148.417 280.32 148.844 279.963 148.979C279.387 149.196 278.712 149.143 278.125 149.344C277.632 149.513 277.207 149.882 276.75 150.162C277.194 150.517 277.599 150.943 278.095 151.207C278.602 151.476 279.232 151.516 279.734 151.799C280.073 151.991 280.273 152.427 280.533 152.756C280.194 153 279.883 153.387 279.515 153.454C278.863 153.573 278.163 153.432 277.503 153.522C277.03 153.59 276.588 153.862 276.13 154.043C276.458 154.454 276.734 154.937 277.137 155.254C277.587 155.61 278.215 155.746 278.654 156.111C278.991 156.389 279.162 156.87 279.404 157.262C278.941 157.444 278.483 157.762 278.012 157.774C277.403 157.792 276.78 157.499 276.16 157.471C275.732 157.453 275.291 157.661 274.855 157.767C275.064 158.201 275.182 158.719 275.499 159.052C276.019 159.599 276.707 159.987 277.242 160.522C277.448 160.734 277.607 161.305 277.483 161.462C277.274 161.718 276.777 161.938 276.468 161.87C275.689 161.699 274.958 161.292 274.174 161.117C273.773 161.026 273.311 161.228 272.875 161.297C272.984 161.692 272.999 162.152 273.222 162.465C273.633 163.045 274.248 163.491 274.626 164.089C274.849 164.439 274.786 164.972 274.849 165.422C274.394 165.43 273.883 165.569 273.487 165.414C272.826 165.158 272.261 164.656 271.606 164.376C271.261 164.232 270.813 164.343 270.41 164.338C270.437 164.744 270.35 165.207 270.512 165.55C270.854 166.276 271.389 166.913 271.717 167.644C271.85 167.94 271.795 168.535 271.587 168.717C271.384 168.896 270.782 168.852 270.51 168.674C269.806 168.207 269.211 167.566 268.512 167.088C268.239 166.902 267.681 166.8 267.462 166.954C267.248 167.108 267.167 167.67 267.256 167.987C267.448 168.675 267.878 169.3 268.033 169.99C268.138 170.449 267.936 170.978 267.868 171.475C267.403 171.31 266.864 171.241 266.491 170.955C266.041 170.607 265.785 170.015 265.349 169.637C264.986 169.322 264.49 169.165 264.055 168.937C263.95 169.414 263.735 169.894 263.762 170.362C263.801 171.071 264.071 171.77 264.109 172.479C264.125 172.815 263.898 173.363 263.654 173.452C263.388 173.55 262.858 173.313 262.641 173.056C262.219 172.543 261.986 171.871 261.571 171.35C261.249 170.946 260.764 170.669 260.35 170.336C260.171 170.834 259.962 171.327 259.808 171.835C259.749 172.042 259.801 172.282 259.801 172.506C259.898 172.539 259.987 172.573 260.082 172.604L260.085 172.605ZM263.624 164.04C261.363 160.925 259.166 157.871 256.92 154.848C256.747 154.615 256.265 154.537 255.921 154.526C254.723 154.483 253.525 154.479 252.332 154.506C252.02 154.514 251.581 154.588 251.424 154.798C249.163 157.849 246.938 160.929 244.712 163.993C249.175 167.682 258.499 167.714 263.624 164.04ZM236.572 144.302C234.441 149.725 237.598 159.485 242.328 162.18C244.277 159.502 246.194 156.79 248.206 154.148C248.972 153.143 249.441 152.332 248.545 151.108C248.109 150.511 248.163 149.566 247.944 148.795C247.844 148.453 247.673 147.949 247.422 147.864C243.81 146.641 240.188 145.477 236.574 144.302H236.572ZM266.026 162.248C271.736 157.928 273.594 149.075 271.685 144.325C268.447 145.372 265.217 146.452 261.955 147.449C260.916 147.769 260.266 148.118 260.253 149.405C260.245 150.242 259.659 151.067 259.392 151.914C259.283 152.249 259.167 152.747 259.329 152.974C261.533 156.085 263.782 159.162 266.028 162.247L266.026 162.248ZM237.445 141.444C241.114 142.639 244.69 143.822 248.283 144.939C248.586 145.033 249.063 144.755 249.383 144.538C250.197 143.994 250.905 143.259 251.776 142.843C252.477 142.503 252.656 142.117 252.647 141.414C252.623 138.403 252.639 135.392 252.639 132.381V130.417C246.092 130.785 239.562 135.526 237.445 141.444ZM270.878 141.435C268.596 135.36 261.054 129.978 255.671 130.56C255.671 133.95 255.714 137.359 255.649 140.761C255.624 141.909 255.816 142.659 257.04 143.088C257.752 143.337 258.283 144.087 258.943 144.547C259.251 144.766 259.738 145.036 260.039 144.944C263.632 143.822 267.205 142.635 270.876 141.435H270.878Z" fill="#FFEDE7"/>
<path fill-rule="evenodd" clip-rule="evenodd" d="M242.079 88.6458C239.574 88.76 237.049 88.7295 234.574 89.0504C233.499 89.1893 232.519 90.0503 231.498 90.5826C232.107 91.5532 232.519 92.7814 233.372 93.4322C234.653 94.4142 236.426 94.7746 237.652 95.8028C238.868 96.8288 239.675 98.352 240.66 99.6559C239.108 100.102 237.565 100.871 236.003 100.906C234.276 100.943 232.544 100.121 230.802 100.045C229.844 100.004 228.374 100.483 228.022 101.178C227.7 101.814 228.306 103.314 228.961 103.976C230.281 105.307 232.123 106.142 233.357 107.533C234.318 108.62 234.695 110.233 235.325 111.614C233.848 111.819 232.331 112.318 230.896 112.149C229.44 111.973 228.1 110.93 226.635 110.66C225.319 110.416 223.906 110.701 222.533 110.752C223.013 112.149 223.332 113.633 224.019 114.917C224.533 115.883 225.755 116.481 226.244 117.452C227.029 119.007 227.466 120.737 228.05 122.393C226.214 122.184 224.362 122.059 222.552 121.717C221.863 121.586 221.314 120.781 220.616 120.577C218.964 120.093 217.251 119.784 215.564 119.402C215.924 121.058 216.097 122.789 216.698 124.35C217.286 125.854 218.585 127.1 219.07 128.621C219.384 129.624 219.109 131.134 218.5 131.974C218.205 132.38 216.374 132.02 215.48 131.545C214.284 130.909 213.411 129.672 212.228 128.981C210.634 128.05 208.882 127.39 207.198 126.616C207.361 128.556 207.398 130.518 207.734 132.426C207.953 133.643 208.866 134.751 209.004 135.961C209.131 137.081 208.641 138.272 208.424 139.431C207.198 139.102 205.662 139.118 204.799 138.369C203.205 136.98 202.105 135.037 200.587 133.536C199.902 132.861 198.713 132.698 197.752 132.304C197.34 133.369 196.52 134.47 196.606 135.492C196.809 137.735 197.686 139.925 197.835 142.165C197.905 143.17 197.104 144.547 196.262 145.159C195.865 145.449 194.127 144.575 193.557 143.812C192.214 141.999 191.358 139.827 190.003 138.026C189.388 137.207 188.064 136.92 187.062 136.392C186.591 137.329 185.817 138.241 185.725 139.215C185.573 140.957 186.134 142.791 185.835 144.487C185.562 146.034 184.549 147.449 183.865 148.923C182.787 147.832 181.518 146.868 180.7 145.612C179.969 144.483 179.93 142.907 179.222 141.752C178.464 140.512 177.278 139.536 176.279 138.444C175.551 139.76 174.606 141.008 174.156 142.412C173.702 143.826 174.024 145.516 173.477 146.869C172.982 148.093 171.772 149.027 170.881 150.088C170.044 149.112 168.858 148.259 168.452 147.129C167.828 145.374 167.935 143.363 167.348 141.591C166.972 140.464 165.898 139.566 165.136 138.565C164.275 139.516 163.141 140.336 162.613 141.444C161.812 143.136 161.663 145.156 160.78 146.789C160.223 147.818 158.828 148.397 157.813 149.178C157.182 148.173 156.151 147.223 156.01 146.153C155.73 144.047 156.137 141.851 155.877 139.74C155.753 138.713 154.764 137.792 154.163 136.822C153.302 137.396 152.197 137.797 151.629 138.583C150.681 139.898 150.304 141.661 149.257 142.862C148.15 144.138 146.538 144.975 145.144 146.003C144.77 144.407 144.126 142.817 144.097 141.215C144.069 139.613 144.884 137.998 144.892 136.388C144.9 135.329 144.132 134.265 143.706 133.204C142.742 133.612 141.532 133.778 140.868 134.469C139.39 136.007 138.357 137.991 136.799 139.425C135.952 140.204 134.408 140.226 133.177 140.592C132.936 139.432 132.318 138.195 132.535 137.127C132.903 135.298 134.013 133.62 134.389 131.789C134.647 130.519 134.203 129.105 134.07 127.754C132.78 128.216 131.337 128.44 130.247 129.187C128.593 130.315 127.296 131.966 125.628 133.064C124.859 133.572 123.213 133.752 122.622 133.268C122.021 132.782 121.837 131.143 122.172 130.278C122.89 128.418 124.224 126.799 124.977 124.947C125.475 123.718 125.392 122.256 125.572 120.899C124.227 121.055 122.768 120.935 121.566 121.434C119.958 122.101 118.645 123.483 117.03 124.116C115.893 124.559 114.468 124.267 113.175 124.306C113.386 122.934 113.229 121.351 113.887 120.242C114.893 118.533 116.591 117.242 117.723 115.59C118.27 114.796 118.192 113.579 118.392 112.553C117.282 112.352 116.08 111.776 115.08 112.024C113.261 112.475 111.626 113.715 109.809 114.054C108.409 114.312 106.844 113.698 105.352 113.473C105.91 112.177 106.24 110.706 107.08 109.633C107.995 108.473 109.568 107.841 110.505 106.693C111.417 105.579 111.885 104.102 112.546 102.785C111.195 102.558 109.833 102.083 108.501 102.161C106.758 102.264 105.034 103.064 103.308 103.062C102.123 103.06 100.942 102.201 99.7612 101.723C100.417 100.605 100.839 99.1915 101.784 98.4413C103.347 97.204 105.341 96.5215 106.971 95.352C107.77 94.7769 108.16 93.6334 108.736 92.7475C107.753 92.1396 106.822 91.1215 105.794 91.0097C103.936 90.8063 101.979 91.4402 100.147 91.1622C98.7194 90.9486 97.4256 89.8831 96.0697 89.1984C97.0336 88.16 97.8211 86.8176 98.994 86.1566C100.621 85.2481 102.622 85.0289 104.287 84.1668C105.231 83.6752 105.817 82.4945 106.566 81.6244C105.627 80.934 104.779 79.8979 103.731 79.6278C101.545 79.0617 99.2087 79.0775 97.0403 78.4843C96.1601 78.2436 94.9771 77.0244 94.9805 76.2561C94.9861 75.4708 96.142 74.2583 97.0245 73.9928C99.1827 73.3442 101.518 73.3013 103.682 72.6753C104.714 72.3759 105.515 71.3002 106.419 70.5759C105.634 69.7397 104.997 68.5804 104.034 68.1329C102.104 67.2335 99.9025 66.9115 97.9963 65.9748C97.0483 65.507 96.5127 64.2076 95.7872 63.2833C96.7488 62.629 97.6528 61.559 98.6867 61.4166C100.787 61.1251 102.984 61.5194 105.096 61.2618C106.149 61.133 107.11 60.1985 108.111 59.6268C107.481 58.6652 107.041 57.4517 106.182 56.8008C104.892 55.8245 103.111 55.4697 101.904 54.4347C100.693 53.4031 99.9239 51.8596 98.9658 50.5387C100.547 50.1285 102.123 49.4178 103.715 49.3862C105.443 49.3523 107.18 50.1387 108.922 50.1941C109.864 50.2234 111.367 49.6856 111.635 49.0122C111.916 48.3139 111.269 46.8811 110.589 46.2235C108.962 44.6551 106.921 43.5026 105.365 41.8789C104.653 41.1354 104.686 39.6766 104.385 38.5444C105.417 38.2789 106.53 37.6382 107.472 37.8314C109.427 38.2359 111.246 39.2857 113.204 39.6721C114.479 39.9229 115.89 39.4755 117.238 39.3422C116.854 38.1523 116.688 36.8122 116.02 35.8077C115.122 34.462 113.572 33.5218 112.787 32.1343C112.072 30.8801 112.005 29.2563 111.655 27.7965C113.179 27.8857 114.809 27.671 116.198 28.1501C117.833 28.7117 119.185 30.0699 120.806 30.706C121.794 31.0936 123.062 30.7671 124.202 30.7614C124.11 29.619 124.302 28.349 123.861 27.3626C123.143 25.7682 121.733 24.4643 121.143 22.8451C120.645 21.4971 120.91 19.8711 120.837 18.3683C122.324 18.7468 123.885 18.9468 125.264 19.5592C126.257 20.001 126.899 21.1931 127.88 21.6982C129.377 22.4722 131.037 22.9468 132.628 23.5456C132.525 21.9434 132.612 20.2993 132.268 18.7524C131.919 17.1717 130.903 15.7231 130.636 14.1412C130.457 13.0779 131.072 11.879 131.332 10.7434C132.466 11.0655 133.899 11.0632 134.677 11.7785C136.334 13.3005 137.542 15.305 139.158 16.8847C139.821 17.5344 141.318 18.1084 141.968 17.7818C142.65 17.4417 143.156 15.9412 143.064 15.0135C142.839 12.7672 142.021 10.5762 141.848 8.32877C141.772 7.28131 142.633 6.15703 143.069 5.06777C144.13 5.55703 145.501 5.78076 146.175 6.59205C147.369 8.02255 147.978 9.93215 149.13 11.4045C149.956 12.4632 151.266 13.14 152.363 13.9852C152.908 12.5999 153.742 11.2497 153.928 9.81463C154.145 8.09374 153.579 6.26776 153.817 4.54913C153.961 3.47456 154.958 2.51637 155.574 1.50395C156.604 2.26326 157.984 2.81241 158.577 3.82597C159.508 5.43387 159.738 7.43499 160.594 9.10164C161.158 10.1898 162.304 10.9762 163.188 11.8982C163.954 10.7547 165.067 9.7039 165.413 8.44628C166.169 5.68697 166.539 2.82145 167.069 0H170.099C170.795 2.91298 171.385 5.86098 172.251 8.72312C172.571 9.77735 173.543 10.6327 174.217 11.5762C175.133 10.731 176.308 10.0338 176.892 9.00221C177.625 7.71747 177.637 6.0203 178.383 4.75026C179.201 3.35591 180.509 2.24406 181.6 1.01016C182.304 2.46778 183.319 3.861 183.636 5.39545C183.978 7.08697 183.512 8.93102 183.737 10.6666C183.865 11.6304 184.677 12.5061 185.18 13.4214C186.163 12.8474 187.468 12.4994 188.056 11.6553C189.415 9.70277 190.305 7.42934 191.638 5.45647C192.103 4.76494 193.606 4.01241 194.101 4.27907C194.9 4.70732 195.734 5.97398 195.706 6.86098C195.639 9.10503 194.913 11.3276 194.83 13.5762C194.783 14.7434 195.531 15.9457 195.92 17.1321C196.954 16.627 198.17 16.3208 198.977 15.5717C200.065 14.557 200.647 12.966 201.792 12.053C203.119 10.9943 204.814 10.4033 206.348 9.61012C206.435 11.3626 206.757 13.1457 206.524 14.8587C206.33 16.3129 205.282 17.6451 205.019 19.1038C204.827 20.1716 205.299 21.3615 205.474 22.4959C206.583 22.2315 207.896 22.2564 208.763 21.6428C210.596 20.3389 212.093 18.5524 213.948 17.2756C214.722 16.7434 216.382 16.5671 217.024 17.0485C217.614 17.4937 217.796 19.2033 217.441 20.0586C216.578 22.1355 215.145 23.9739 214.249 26.0394C213.82 27.0111 214.097 28.288 214.053 29.4292C215.19 29.3885 216.431 29.6179 217.445 29.2428C218.71 28.7727 219.714 27.5659 220.989 27.1208C222.74 26.5072 224.644 26.3117 226.481 25.9366C225.859 27.8021 225.413 29.7535 224.554 31.4993C223.961 32.7004 222.624 33.5185 221.933 34.6925C221.435 35.5343 221.449 36.6812 221.235 37.6891C222.342 37.906 223.553 38.5173 224.53 38.2563C226.58 37.7071 228.448 36.4529 230.505 35.9783C231.626 35.7218 232.974 36.4687 234.223 36.7614C233.862 37.8891 233.773 39.2484 233.072 40.0924C231.963 41.4246 230.262 42.2619 229.136 43.5862C228.207 44.6766 227.751 46.1681 227.089 47.4811C228.457 47.7116 229.84 48.1862 231.189 48.1116C232.8 48.0201 234.394 47.1636 235.986 47.1907C237.294 47.2144 238.585 48.0461 239.888 48.5195C239.238 49.6415 238.824 51.0347 237.893 51.8212C236.572 52.9409 234.736 53.4404 233.382 54.5342C232.362 55.3624 231.757 56.7082 230.967 57.8234C232.15 58.2969 233.314 59.0923 234.522 59.1759C237.024 59.3488 239.558 59.1443 242.076 59.0957V63.6437C239.718 64.4708 237.295 65.168 235.026 66.1996C234.167 66.5895 233.12 67.7906 233.163 68.5578C233.206 69.2821 234.495 70.3409 235.383 70.5262C237.571 70.9793 239.842 71.0154 242.076 71.2177V76.5216C239.867 76.9069 237.614 77.1329 235.472 77.7498C234.59 78.0041 233.364 79.0741 233.347 79.7996C233.328 80.5589 234.427 81.7125 235.288 82.0572C237.476 82.9295 239.805 83.4425 242.076 84.1012V88.6447L242.079 88.6458ZM143.34 118.512C158.014 129.565 184.536 128.391 196.151 118.298C194.556 116.091 192.947 113.871 191.217 111.483C184.337 115.132 177.231 117.787 169.709 117.022C162.45 116.283 155.325 114.259 147.535 112.68C146.515 114.094 144.923 116.309 143.338 118.512H143.34ZM120.529 63.3251C114.151 77.3227 122.876 104.569 136.552 113.536C138.201 111.225 139.855 108.903 141.455 106.657C128.754 90.5814 128.042 88.3871 128.367 67.8177C128.378 66.9827 127.589 65.7002 126.85 65.3691C124.822 64.472 122.619 63.9691 120.528 63.3251H120.529ZM203.216 113.682C220.373 100.044 224.104 74.6685 218.992 63.3477C217.801 63.6968 216.615 64.1544 215.389 64.3861C211.997 65.0256 210.851 66.4245 211.423 70.3171C212.714 79.1419 211.155 87.7441 206.506 95.4786C204.132 99.4277 201.156 103.011 198.317 106.944C199.822 109.014 201.441 111.241 203.217 113.683L203.216 113.682ZM216.644 55.1907C211.513 39.0597 189.827 23.4439 173.911 24.5049C173.911 25.9354 174.055 27.4258 173.882 28.8755C173.505 32.0315 174.686 33.1151 177.894 34.1207C183.813 35.9795 190.04 38.1083 194.894 41.7738C200.363 45.9048 204.462 51.8551 209.604 57.5059C211.204 56.9805 213.808 56.124 216.645 55.1895L216.644 55.1907ZM123.098 55.1545C124.595 55.6867 126.166 56.1217 127.624 56.7963C130.239 58.011 131.732 57.5251 133.171 54.7409C136.59 48.1218 141.559 42.6427 148.222 39.2563C153.634 36.5037 159.487 34.6134 165.317 32.2721V24.3761C148.606 24.2756 127.116 39.9602 123.098 55.1534V55.1545ZM156.05 101.014C165.574 105.319 174.287 105.61 183.414 100.885C181.725 98.4876 180.214 96.4944 178.87 94.3938C177.525 92.2887 176.204 91.3441 173.347 92.0899C170.791 92.7554 167.876 91.9995 165.122 92.0006C164.124 92.0006 162.712 92.0311 162.204 92.6436C160.13 95.1339 158.327 97.8548 156.05 101.013V101.014ZM141.693 69.6731C138.901 78.3837 142.698 90.2074 148.981 95.0831C159.426 89.6922 152.901 81.6696 152.303 74.4798C148.855 72.916 145.403 71.3533 141.693 69.6731ZM198.026 70.1454C195.684 70.8911 193.354 71.7793 190.946 72.36C188.46 72.9634 187.244 73.9883 187.048 76.8877C186.861 79.5329 185.293 82.0662 184.497 84.6967C184.21 85.6312 183.98 86.9713 184.433 87.6752C186.171 90.4063 188.191 92.9543 190.116 95.5825C197.071 89.8391 200.758 78.0685 198.026 70.1454ZM195.544 62.0708C191.718 53.4121 182.088 46.6178 173.922 46.7738C173.922 48.8619 174.122 50.9907 173.874 53.0652C173.473 56.4641 174.316 58.6245 177.924 59.8313C179.917 60.4991 181.399 62.611 183.243 63.8844C184.145 64.5115 185.46 65.2324 186.375 65.0143C189.394 64.281 192.316 63.142 195.543 62.0697L195.544 62.0708ZM144.249 61.133C152.485 69.4098 158.168 61.5488 164.593 58.4166C165.072 54.5093 165.554 50.6031 166.111 46.0777C155.59 48.1365 148.706 53.1511 144.249 61.1341V61.133Z" fill="#FFEDE7"/>
<path fill-rule="evenodd" clip-rule="evenodd" d="M92.5229 74.9646C91.5376 74.925 90.5545 74.8346 89.5715 74.8685C89.193 74.8809 88.8269 75.1804 88.4563 75.3487C88.654 75.7035 88.7862 76.1216 89.063 76.3917C89.3749 76.6979 89.8777 76.8064 90.1862 77.1092C90.6867 77.5973 91.098 78.177 91.5534 78.7182C90.8653 78.8199 90.1805 78.9894 89.4935 78.9973C89.0144 79.003 88.5376 78.7148 88.0563 78.6934C87.7015 78.6753 87.3387 78.8741 86.9817 78.9758C87.1037 79.36 87.1229 79.8369 87.3715 80.1092C87.8777 80.6707 88.5738 81.064 89.0551 81.6425C89.3094 81.9521 89.2822 82.499 89.3851 82.9419C88.9704 83.0029 88.5184 83.1973 88.1534 83.0978C87.4653 82.9114 86.8484 82.4832 86.1659 82.2922C85.7681 82.1815 85.2992 82.334 84.8585 82.3702C84.9636 82.8018 84.9749 83.2922 85.1975 83.6504C85.593 84.2922 86.1806 84.8199 86.5647 85.4673C86.7354 85.7476 86.7704 86.3408 86.5919 86.5408C86.4054 86.7453 85.8201 86.7803 85.5195 86.6481C84.8698 86.3611 84.3207 85.856 83.6755 85.5566C83.245 85.3555 82.7196 85.3521 82.2382 85.2617C82.2766 85.743 82.2111 86.2651 82.3738 86.7035C82.6337 87.4086 83.1162 88.0368 83.3591 88.7475C83.4597 89.0402 83.297 89.5543 83.0698 89.7859C82.9376 89.9227 82.358 89.8131 82.1218 89.6289C81.4529 89.1102 80.8868 88.456 80.2156 87.9408C79.9478 87.734 79.5094 87.7487 79.149 87.6628C79.0597 88.0571 78.8371 88.4786 78.9139 88.8391C79.0653 89.5769 79.4687 90.2684 79.5908 91.0085C79.6586 91.4131 79.3682 91.8786 79.2416 92.3147C78.8518 92.1509 78.3569 92.0831 78.0857 91.8029C77.5637 91.2594 77.2009 90.5633 76.6913 89.9984C76.4608 89.7441 76.0394 89.6571 75.706 89.4956C75.5388 89.865 75.2326 90.2357 75.2383 90.6029C75.2462 91.3125 75.5309 92.021 75.514 92.7238C75.5027 93.1769 75.1569 93.621 74.9592 94.0718C74.5806 93.8142 74.0925 93.63 73.8439 93.2797C73.4383 92.7001 73.2484 91.969 72.8417 91.3871C72.636 91.0865 72.1626 90.9713 71.81 90.7735C71.6315 91.0989 71.3366 91.4097 71.2982 91.7509C71.2032 92.5486 71.2982 93.369 71.1874 94.1599C71.1411 94.4944 70.7377 95.0526 70.5535 95.03C70.1942 94.9837 69.7174 94.6774 69.5705 94.3532C69.2372 93.6266 69.1287 92.8017 68.8236 92.0605C68.6937 91.7464 68.3038 91.5362 68.0304 91.2797C67.7592 91.5758 67.3558 91.8289 67.2394 92.178C66.9874 92.9362 66.9445 93.7633 66.6925 94.5226C66.5897 94.8458 66.1841 95.0707 65.9208 95.3385C65.6315 95.0435 65.1931 94.7893 65.0925 94.4379C64.8925 93.7136 64.9468 92.9215 64.757 92.1916C64.6485 91.7905 64.2586 91.465 63.9965 91.1035C63.6959 91.3848 63.3118 91.6187 63.1163 91.9611C62.8541 92.4187 62.8236 93.0255 62.5321 93.4515C62.1909 93.9509 61.6654 94.3283 61.2214 94.7588C61.0123 94.2108 60.7039 93.6729 60.6315 93.1091C60.5558 92.5464 60.792 91.9441 60.7321 91.3746C60.6937 90.9961 60.3852 90.6436 60.1931 90.2809C59.844 90.4876 59.3943 90.6187 59.1649 90.9181C58.6722 91.5532 58.3502 92.3125 57.8496 92.9407C57.6496 93.1961 57.1028 93.4277 56.853 93.326C56.6011 93.2232 56.3819 92.6741 56.4169 92.3441C56.4926 91.5498 56.783 90.7735 56.8666 89.9792C56.9095 89.6018 56.6802 89.1973 56.5773 88.8029C56.1954 88.9306 55.7355 88.9645 55.4587 89.2074C54.9547 89.6447 54.6248 90.2797 54.1163 90.6989C53.7423 91.0006 53.1988 91.0876 52.7322 91.2707C52.6757 90.7374 52.4858 90.178 52.592 89.6786C52.7276 89.0345 53.1491 88.4571 53.3389 87.8187C53.4395 87.4922 53.2983 87.0956 53.2711 86.7306C52.87 86.7724 52.3943 86.6956 52.0881 86.8854C51.4486 87.2843 50.9423 87.9035 50.2904 88.2809C49.9378 88.4865 49.4022 88.3837 48.9525 88.4187C48.9638 88.0006 48.8384 87.5216 49.0011 87.1769C49.3265 86.4944 49.8655 85.9182 50.2 85.2402C50.3627 84.9091 50.2678 84.4493 50.2892 84.0504C49.8836 84.0549 49.4339 83.9464 49.0847 84.0888C48.3457 84.3894 47.6768 84.882 46.9322 85.1713C46.626 85.2922 46.0203 85.2233 45.8655 85.0086C45.6972 84.7815 45.774 84.1905 45.9684 83.9216C46.4361 83.2764 47.0836 82.7577 47.5627 82.1159C47.7898 81.8154 47.7932 81.3487 47.8983 80.9566C47.4972 80.8787 47.0757 80.6696 46.7119 80.7453C45.9265 80.9092 45.1876 81.282 44.4057 81.4414C44.0836 81.5046 43.5074 81.3363 43.391 81.1001C43.2667 80.8436 43.4237 80.273 43.6565 80.0459C44.2305 79.4877 44.9582 79.0956 45.5356 78.5419C45.8068 78.2832 45.8689 77.8086 46.026 77.4323C45.6768 77.3013 45.3243 77.0516 44.9751 77.0651C44.2689 77.0945 43.5616 77.3589 42.8531 77.3397C42.3955 77.3273 41.9435 76.9894 41.4882 76.7951C41.748 76.412 41.9345 75.9442 42.2791 75.6651C42.6848 75.3363 43.278 75.2346 43.6927 74.9148C44.1288 74.5759 44.4588 74.0934 44.8328 73.673C44.3379 73.4764 43.8554 73.1996 43.3379 73.1036C42.774 72.9996 42.1571 73.1521 41.6023 73.0165C41.1876 72.916 40.8362 72.5431 40.4543 72.2911C40.7684 71.9555 41.0283 71.4957 41.4158 71.3092C42.0554 71.0064 42.8045 70.9409 43.4542 70.6516C43.8011 70.4968 44.0339 70.0866 44.3153 69.7951C43.9955 69.533 43.7198 69.1533 43.3537 69.038C42.5932 68.7917 41.7673 68.7443 41.0068 68.4923C40.6983 68.3883 40.2949 67.9522 40.3028 67.681C40.3108 67.4121 40.7526 67.0064 41.0723 66.9284C41.8441 66.7364 42.6746 66.7612 43.452 66.5748C43.8226 66.4866 44.1209 66.1126 44.4486 65.8708C44.1887 65.5567 43.9876 65.1307 43.652 64.9545C42.9424 64.5838 42.1356 64.3963 41.4317 64.0166C41.1447 63.8629 40.8283 63.3624 40.8791 63.0912C40.9367 62.8211 41.4238 62.4788 41.748 62.4528C42.452 62.3872 43.1751 62.5714 43.8836 62.5194C44.3571 62.481 44.8124 62.2166 45.2757 62.0528C45.0079 61.6505 44.8158 61.1579 44.4576 60.8629C43.9107 60.4098 43.2091 60.1454 42.6656 59.6912C42.4079 59.4743 42.1729 58.9443 42.2644 58.6731C42.3514 58.4313 42.9141 58.1918 43.2362 58.2234C44.035 58.3036 44.8068 58.6008 45.6056 58.6889C45.9797 58.7308 46.3876 58.4935 46.7808 58.3827C46.6373 57.9963 46.591 57.524 46.339 57.2426C45.8 56.6505 45.104 56.1986 44.574 55.6031C44.3571 55.359 44.2215 54.7771 44.3684 54.5489C44.5119 54.3172 45.0915 54.1737 45.4056 54.263C46.2181 54.4935 46.9729 54.9206 47.7796 55.1681C48.096 55.2675 48.6542 55.2144 48.8169 55.0065C48.9819 54.7963 48.8983 54.2472 48.7277 53.959C48.4407 53.4619 47.9152 53.1003 47.6531 52.5975C47.3684 52.0573 47.2746 51.4167 47.0983 50.8212C47.7017 50.9082 48.3469 50.898 48.9039 51.1093C49.4316 51.3093 49.8429 51.8008 50.3627 52.0517C50.6745 52.202 51.0915 52.141 51.4599 52.1737C51.487 51.7681 51.6497 51.3082 51.5107 50.9647C51.2045 50.1783 50.7017 49.472 50.3785 48.6879C50.2678 48.4167 50.3435 47.8303 50.5299 47.7286C50.809 47.5715 51.3559 47.5647 51.6101 47.7478C52.2926 48.2427 52.8497 48.9082 53.5186 49.428C53.7864 49.637 54.2146 49.6415 54.5717 49.7376C54.6723 49.3466 54.9208 48.9252 54.8451 48.5704C54.6915 47.8325 54.296 47.1455 54.1412 46.4054C54.0632 46.0291 54.2903 45.5851 54.3796 45.1738C54.8124 45.306 55.3706 45.3127 55.6598 45.5964C56.2011 46.1184 56.548 46.8336 57.0542 47.3952C57.2813 47.6461 57.7118 47.7173 58.0474 47.8709C58.2101 47.5037 58.5129 47.1319 58.4994 46.7715C58.47 45.9715 58.2067 45.1794 58.1965 44.3839C58.1886 44.0212 58.4915 43.5444 58.7977 43.3387C58.9434 43.2427 59.5479 43.5783 59.74 43.8585C60.1457 44.4393 60.3604 45.1568 60.7717 45.7365C61.0349 46.1173 61.5027 46.3523 61.8813 46.6529C62.0756 46.202 62.3739 45.7692 62.453 45.2992C62.5558 44.6427 62.4202 43.9444 62.5445 43.2958C62.618 42.9184 62.9965 42.6032 63.2428 42.2585C63.5649 42.5241 64.0225 42.7263 64.1773 43.0676C64.4971 43.7523 64.5863 44.5376 64.8835 45.2337C65.0383 45.5896 65.4383 45.8416 65.7253 46.141C65.9931 45.8314 66.3863 45.5625 66.505 45.2043C66.74 44.4868 66.7592 43.6958 67.0033 42.9828C67.1253 42.6224 67.5445 42.3647 67.8315 42.0608C68.1343 42.3964 68.592 42.6902 68.7038 43.0811C68.9038 43.8065 68.8338 44.6043 69.0157 45.3376C69.0993 45.6924 69.5027 45.9704 69.7569 46.2834C70.036 46.037 70.4202 45.845 70.5773 45.5353C70.9185 44.8585 71.0643 44.08 71.4462 43.4303C71.6462 43.08 72.1659 42.9128 72.5456 42.663C72.7411 43.0325 73.0789 43.393 73.1083 43.7749C73.1626 44.5274 72.9806 45.2981 73.0303 46.0506C73.0575 46.4212 73.3931 46.7704 73.5885 47.1297C73.9049 46.9387 74.314 46.8156 74.5253 46.541C74.9094 46.054 75.1049 45.4031 75.5241 44.9591C75.906 44.5568 76.48 44.3376 76.9671 44.0382C77.0812 44.5647 77.2834 45.0969 77.2699 45.6201C77.262 46.1444 76.9501 46.6596 76.9264 47.1851C76.9106 47.6495 77.1072 48.124 77.2111 48.5975C77.6258 48.4065 78.1015 48.298 78.4269 48.0099C78.9625 47.5421 79.3388 46.8935 79.8868 46.4449C80.1738 46.211 80.6744 46.2416 81.0778 46.1512C81.1535 46.5625 81.2868 46.9726 81.2755 47.3817C81.2642 47.6754 81.0235 47.9568 80.9557 48.2596C80.7885 49.0608 79.6156 49.8856 80.6337 50.5873C80.9614 50.8155 82.0608 49.9534 82.7919 49.5613C83.0653 49.4144 83.2766 49.0958 83.5557 49.0325C83.9512 48.9421 84.4405 48.9026 84.7738 49.0698C84.9252 49.1432 84.9229 49.8393 84.7681 50.141C84.4111 50.8573 83.8744 51.4822 83.5015 52.1929C83.3444 52.4935 83.4145 52.9161 83.3851 53.2822C83.7907 53.3104 84.2461 53.4743 84.5873 53.3387C85.2913 53.0585 85.8947 52.5353 86.6043 52.2811C86.9862 52.1432 87.4947 52.35 87.9466 52.4031C87.8653 52.8144 87.8981 53.3104 87.6709 53.6189C87.202 54.2664 86.558 54.785 86.063 55.4155C85.8732 55.6494 85.7297 56.1974 85.8597 56.3375C86.0766 56.5737 86.5557 56.7522 86.8664 56.681C87.6461 56.5082 88.3772 56.098 89.1625 55.9511C89.5636 55.8765 90.0314 56.1658 90.4675 56.2912C90.3127 56.6833 90.2483 57.1579 89.9805 57.4517C89.5986 57.8754 89.0088 58.1082 88.6212 58.5274C88.2427 58.9341 88.0099 59.4754 87.7139 59.9567C88.2359 60.0607 88.7557 60.2392 89.2788 60.2437C89.8099 60.2505 90.3512 59.9771 90.8675 60.0245C91.3353 60.0663 91.7828 60.3748 92.2348 60.5658C91.9884 60.9545 91.8065 61.4257 91.4687 61.7048C91.0653 62.0358 90.4754 62.1409 90.0608 62.4641C89.619 62.8053 89.289 63.2878 88.9105 63.7093C89.4088 63.8957 89.8935 64.1544 90.4054 64.2561C91.1014 64.3917 91.8155 64.4019 92.5252 64.4674V66.0821C91.7105 66.307 90.8766 66.4878 90.0856 66.7804C89.8099 66.8821 89.419 67.3036 89.463 67.4991C89.5274 67.8053 89.8687 68.1838 90.1726 68.281C90.9308 68.5194 91.7398 68.6177 92.5252 68.7714V70.6527C91.7749 70.7081 91.0201 70.699 90.2913 70.8448C89.9263 70.9183 89.6201 71.2742 89.2845 71.5013C89.5738 71.8335 89.8043 72.2877 90.1726 72.4685C90.9173 72.838 91.7376 73.0595 92.5252 73.3431V74.9566L92.5229 74.9646ZM81.5117 68.49C81.5117 68.7126 81.5139 68.9375 81.5117 69.1612C81.4902 70.9646 82.202 71.7431 83.9376 71.8075C85.1614 71.8538 85.7455 71.1386 85.7817 69.3996C85.8924 64.0889 84.1681 59.463 80.4992 55.594C79.1083 54.1263 78.0303 54.2924 77.0122 56.0189C76.4224 57.0166 76.706 57.7613 77.4427 58.533C80.1071 61.3115 81.436 64.6505 81.5117 68.4889V68.49ZM68.7468 85.0413C68.7276 86.8323 69.6044 87.5498 71.4643 87.0594C76.8066 85.6515 80.8213 82.5137 83.5037 77.6821C84.1919 76.4425 84.0314 75.5578 83.0924 75.0041C81.758 74.2109 80.5151 74.3939 79.836 75.6007C77.6778 79.4402 74.497 81.9159 70.2247 82.9837C69.1987 83.238 68.7276 83.8764 68.7468 85.0402V85.0413ZM65.5841 85.1634C65.6134 84.256 65.2643 83.3634 64.0168 83.0933C59.8259 82.1849 56.5909 79.9205 54.2915 76.2855C53.5197 75.0629 52.383 74.9804 51.035 75.9363C50.0113 76.6583 50.087 77.5645 50.6915 78.5182C53.6723 83.2165 57.8609 86.1882 63.3298 87.2933C64.7377 87.5769 65.5716 86.8357 65.5852 85.1634H65.5841ZM66.7264 49.4483C66.705 49.5579 66.6801 49.6653 66.6564 49.7737C63.7942 49.8099 61.079 50.4766 58.5039 51.7263C57.6022 52.1613 57.0474 52.8054 57.3751 53.8596C57.8655 55.4539 59.2101 56.037 60.7378 55.3692C61.1491 55.1918 61.5581 55.0121 61.9807 54.8652C65.3649 53.6912 68.7355 53.7771 72.1061 54.959C73.4032 55.4155 74.4529 54.7602 74.932 53.2551C75.314 52.0562 74.6801 51.3195 73.6021 51.0415C71.3253 50.4551 69.0213 49.9737 66.7253 49.4494L66.7264 49.4483ZM47.9367 68.9149C47.9661 69.3194 47.9989 70.0346 48.0723 70.7465C48.2079 72.1216 48.8599 72.8595 49.8757 72.8132C51.3921 72.7454 52.3932 71.7725 52.2745 70.3702C51.9197 66.2595 52.9672 62.5884 55.5423 59.3432C56.4135 58.2483 56.1434 57.1285 54.8677 56.1251C54.0203 55.4562 53.1129 55.6483 52.2305 56.7285C49.4181 60.1827 48.026 64.159 47.9367 68.9149ZM64.0835 74.255C66.5987 75.7725 69.9727 74.8504 71.6891 72.3273C73.5897 69.5341 72.5151 65.6143 70.4191 64.5262C68.3129 67.7612 66.201 71.0075 64.0835 74.255ZM69.314 63.6482C66.149 62.2516 62.905 63.3409 61.3762 66.1352C60.0056 68.6437 60.6779 71.968 62.9298 73.4697C65.0417 70.2279 67.1479 66.9872 69.314 63.6482Z" fill="#FFEDE7"/>
<path fill-rule="evenodd" clip-rule="evenodd" d="M111.833 164.568C110.119 164.499 108.409 164.342 106.699 164.401C106.04 164.422 105.404 164.943 104.759 165.236C105.103 165.853 105.333 166.58 105.814 167.05C106.357 167.582 107.232 167.771 107.768 168.298C108.639 169.146 109.355 170.155 110.147 171.096C108.95 171.273 107.758 171.567 106.563 171.581C105.73 171.591 104.9 171.09 104.063 171.053C103.446 171.021 102.815 171.367 102.194 171.544C102.406 172.212 102.439 173.041 102.872 173.515C103.752 174.491 104.963 175.175 105.801 176.181C106.243 176.72 106.196 177.671 106.375 178.441C105.653 178.547 104.867 178.885 104.232 178.712C103.035 178.388 101.962 177.643 100.774 177.311C100.083 177.119 99.2668 177.384 98.5002 177.447C98.683 178.198 98.7027 179.05 99.0899 179.673C99.7779 180.789 100.8 181.707 101.468 182.833C101.765 183.32 101.826 184.352 101.516 184.7C101.191 185.056 100.173 185.117 99.6501 184.887C98.5199 184.387 97.5646 183.509 96.4422 182.988C95.6933 182.639 94.7792 182.633 93.9418 182.475C94.0087 183.313 93.8947 184.22 94.1777 184.983C94.6298 186.209 95.4692 187.302 95.8918 188.538C96.0667 189.047 95.7837 189.941 95.3886 190.344C95.1586 190.581 94.1502 190.391 93.7394 190.07C92.5757 189.168 91.5909 188.031 90.4233 187.135C89.9575 186.775 89.1948 186.801 88.5677 186.651C88.4125 187.337 88.0252 188.07 88.1589 188.697C88.4223 189.98 89.124 191.183 89.3363 192.47C89.4543 193.173 88.9491 193.983 88.7289 194.741C88.0508 194.456 87.1898 194.339 86.7181 193.851C85.8099 192.906 85.179 191.696 84.2924 190.713C83.8914 190.271 83.1583 190.12 82.5784 189.839C82.2875 190.481 81.7548 191.126 81.7646 191.764C81.7784 192.998 82.2737 194.23 82.2442 195.453C82.2246 196.241 81.6231 197.013 81.2791 197.797C80.6206 197.349 79.7714 197.029 79.339 196.42C78.6333 195.412 78.3031 194.14 77.5955 193.128C77.2377 192.605 76.4141 192.405 75.8008 192.061C75.4902 192.627 74.9772 193.167 74.9104 193.761C74.7452 195.148 74.9104 196.575 74.7177 197.95C74.6371 198.532 73.9354 199.503 73.615 199.463C72.9899 199.383 72.1604 198.85 71.9049 198.286C71.325 197.023 71.1363 195.588 70.6056 194.299C70.3795 193.753 69.7014 193.387 69.2257 192.941C68.7539 193.456 68.0522 193.896 67.8497 194.504C67.4114 195.822 67.3367 197.261 66.8983 198.581C66.7195 199.143 66.0138 199.534 65.5558 200C65.0526 199.487 64.2899 199.045 64.115 198.434C63.7671 197.174 63.8614 195.797 63.5312 194.527C63.3425 193.83 62.6643 193.264 62.2083 192.635C61.6854 193.124 61.0171 193.531 60.677 194.126C60.221 194.922 60.1679 195.977 59.6608 196.718C59.0672 197.587 58.1531 198.243 57.3806 198.992C57.017 198.039 56.4804 197.103 56.3546 196.123C56.2229 195.144 56.6337 194.097 56.5295 193.106C56.4627 192.448 55.9261 191.835 55.5919 191.204C54.9845 191.564 54.2022 191.792 53.8031 192.313C52.9461 193.417 52.3859 194.737 51.5151 195.83C51.1672 196.274 50.2158 196.677 49.7814 196.5C49.3431 196.321 48.9617 195.366 49.0227 194.793C49.1544 193.411 49.6595 192.061 49.805 190.68C49.8797 190.023 49.4807 189.32 49.3018 188.634C48.6374 188.856 47.8374 188.915 47.3558 189.337C46.4791 190.098 45.9051 191.202 45.0206 191.931C44.37 192.456 43.4245 192.607 42.6127 192.926C42.5144 191.998 42.1841 191.025 42.3689 190.157C42.6048 189.037 43.338 188.033 43.6682 186.922C43.8432 186.355 43.5975 185.665 43.5503 185.03C42.8525 185.103 42.0249 184.969 41.4922 185.299C40.3797 185.993 39.4991 187.07 38.3649 187.726C37.7516 188.084 36.8199 187.905 36.0375 187.966C36.0572 187.239 35.839 186.406 36.1221 185.806C36.6882 184.619 37.6258 183.617 38.2076 182.438C38.4907 181.862 38.3256 181.063 38.3629 180.369C37.6572 180.377 36.8749 180.188 36.2675 180.436C34.982 180.958 33.8183 181.815 32.5229 182.318C31.9903 182.529 30.9367 182.409 30.6674 182.035C30.3745 181.64 30.5081 180.613 30.8462 180.145C31.66 179.023 32.7863 178.121 33.6198 177.005C34.0149 176.482 34.0208 175.67 34.2036 174.989C33.5058 174.853 32.7726 174.489 32.1396 174.621C30.7735 174.906 29.488 175.555 28.1277 175.832C27.5675 175.942 26.565 175.649 26.3626 175.238C26.1464 174.792 26.4196 173.8 26.8245 173.405C27.8231 172.434 29.0889 171.752 30.0934 170.789C30.5651 170.339 30.6733 169.514 30.9465 168.86C30.3391 168.632 29.7258 168.197 29.1184 168.221C27.8899 168.272 26.6594 168.732 25.4269 168.698C24.6308 168.677 23.8446 168.089 23.0524 167.751C23.5045 167.085 23.8289 166.272 24.4284 165.786C25.134 165.214 26.166 165.037 26.8874 164.481C27.6461 163.892 28.2201 163.053 28.8708 162.322C28.0098 161.98 27.1705 161.498 26.2702 161.331C25.2893 161.151 24.2161 161.416 23.2509 161.18C22.5295 161.005 21.9182 160.357 21.2538 159.918C21.8003 159.335 22.2524 158.535 22.9266 158.211C24.0392 157.684 25.3424 157.57 26.4727 157.067C27.0761 156.798 27.481 156.085 27.9705 155.578C27.4142 155.122 26.9346 154.461 26.2977 154.261C24.9748 153.833 23.5379 153.75 22.215 153.312C21.6784 153.131 20.9767 152.373 20.9904 151.901C21.0042 151.433 21.7728 150.728 22.329 150.592C23.6716 150.258 25.1164 150.301 26.4687 149.977C27.1135 149.824 27.6324 149.174 28.2024 148.753C27.7503 148.207 27.4004 147.466 26.8166 147.159C25.5822 146.515 24.1787 146.189 22.9541 145.528C22.4549 145.261 21.9045 144.391 21.9929 143.919C22.0932 143.449 22.9404 142.854 23.5045 142.809C24.7291 142.695 25.9871 143.015 27.2196 142.925C28.0432 142.858 28.8354 142.398 29.6413 142.113C29.1754 141.413 28.8413 140.557 28.2182 140.044C27.2668 139.256 26.0461 138.796 25.1006 138.006C24.6525 137.629 24.2436 136.707 24.4028 136.235C24.5542 135.815 25.5331 135.398 26.0933 135.453C27.483 135.593 28.8256 136.11 30.2153 136.263C30.8659 136.336 31.5755 135.923 32.2595 135.73C32.0099 135.058 31.9293 134.237 31.491 133.748C30.5534 132.718 29.3425 131.932 28.4206 130.896C28.0432 130.472 27.8073 129.46 28.0629 129.063C28.3125 128.66 29.3209 128.411 29.8673 128.566C31.2807 128.967 32.5937 129.71 33.9972 130.14C34.5476 130.313 35.5186 130.22 35.8017 129.859C36.0886 129.493 35.9432 128.538 35.6464 128.037C35.1471 127.173 34.2331 126.544 33.777 125.669C33.2817 124.73 33.1185 123.616 32.8119 122.58C33.8616 122.732 34.984 122.714 35.953 123.081C36.871 123.429 37.5865 124.284 38.4907 124.72C39.0332 124.982 39.7585 124.875 40.3993 124.932C40.4465 124.227 40.7296 123.427 40.4878 122.83C39.9551 121.462 39.0804 120.234 38.5182 118.87C38.3256 118.399 38.4573 117.379 38.7816 117.202C39.2671 116.929 40.2185 116.917 40.6608 117.235C41.848 118.096 42.8171 119.253 43.9808 120.157C44.4466 120.521 45.1916 120.529 45.8128 120.696C45.9877 120.016 46.4201 119.283 46.2884 118.666C46.0211 117.383 45.3331 116.188 45.0638 114.901C44.9282 114.246 45.3233 113.474 45.4786 112.759C46.2314 112.989 47.2025 113.001 47.7057 113.494C48.6472 114.402 49.2507 115.646 50.1313 116.622C50.5264 117.058 51.2753 117.182 51.8591 117.449C52.1422 116.811 52.669 116.164 52.6454 115.537C52.5943 114.146 52.1363 112.769 52.1186 111.385C52.1048 110.754 52.6316 109.925 53.1643 109.568C53.4179 109.401 54.4695 109.984 54.8037 110.472C55.5093 111.482 55.8828 112.729 56.5983 113.737C57.0563 114.4 57.8701 114.808 58.5286 115.331C58.8667 114.547 59.3856 113.794 59.5232 112.977C59.7021 111.835 59.4662 110.621 59.6824 109.493C59.8102 108.837 60.4687 108.288 60.8972 107.689C61.4574 108.151 62.2535 108.503 62.5228 109.096C63.0791 110.287 63.2344 111.653 63.7513 112.863C64.0206 113.482 64.7165 113.92 65.2158 114.441C65.6816 113.903 66.3657 113.435 66.572 112.812C66.9809 111.564 67.0143 110.189 67.4389 108.949C67.6512 108.322 68.3804 107.874 68.8797 107.345C69.4065 107.929 70.2026 108.44 70.3972 109.12C70.7451 110.381 70.6233 111.768 70.9397 113.044C71.0852 113.661 71.7869 114.144 72.2292 114.689C72.7147 114.26 73.3831 113.926 73.6563 113.388C74.2499 112.211 74.5035 110.857 75.1679 109.727C75.5158 109.118 76.42 108.827 77.0804 108.392C77.4205 109.035 78.0082 109.662 78.0593 110.326C78.1537 111.635 77.8372 112.975 77.9237 114.284C77.9709 114.928 78.5547 115.535 78.8947 116.16C79.4451 115.828 80.1567 115.614 80.5243 115.137C81.1926 114.29 81.5327 113.158 82.2619 112.385C82.9263 111.686 83.9249 111.305 84.7721 110.784C84.9706 111.7 85.3224 112.625 85.2989 113.535C85.2851 114.447 84.7426 115.343 84.7013 116.257C84.6738 117.064 85.0158 117.89 85.1966 118.713C85.918 118.381 86.7456 118.192 87.3117 117.691C88.2434 116.878 88.898 115.75 89.8513 114.97C90.3506 114.563 91.2214 114.616 91.9231 114.459C92.0548 115.174 92.2868 115.887 92.2671 116.599C92.2475 117.11 91.8288 117.599 91.7108 118.125C91.4199 119.519 89.3796 120.953 91.1506 122.173C91.7207 122.57 93.6332 121.071 94.905 120.389C95.3807 120.134 95.7483 119.58 96.2338 119.47C96.9218 119.312 97.7729 119.244 98.3528 119.534C98.6162 119.662 98.6123 120.873 98.343 121.397C97.7218 122.643 96.7881 123.73 96.1395 124.966C95.8662 125.489 95.9881 126.223 95.937 126.86C96.6427 126.909 97.4348 127.194 98.0285 126.958C99.2531 126.471 100.303 125.561 101.537 125.119C102.202 124.879 103.086 125.239 103.872 125.331C103.731 126.047 103.788 126.909 103.393 127.446C102.577 128.572 101.457 129.474 100.596 130.57C100.265 130.977 100.016 131.93 100.242 132.174C100.619 132.584 101.453 132.895 101.993 132.771C103.349 132.47 104.621 131.757 105.987 131.502C106.685 131.372 107.499 131.875 108.258 132.093C107.988 132.775 107.876 133.6 107.411 134.111C106.746 134.848 105.72 135.253 105.046 135.982C104.387 136.689 103.982 137.631 103.467 138.468C104.376 138.649 105.28 138.959 106.19 138.967C107.114 138.979 108.055 138.503 108.954 138.586C109.767 138.658 110.546 139.195 111.332 139.527C110.904 140.203 110.587 141.022 109.999 141.508C109.298 142.084 108.271 142.266 107.55 142.828C106.782 143.422 106.208 144.261 105.549 144.994C106.416 145.318 107.259 145.768 108.15 145.945C109.36 146.181 110.603 146.198 111.837 146.312V149.12C110.42 149.511 108.969 149.826 107.593 150.335C107.114 150.512 106.434 151.245 106.51 151.585C106.622 152.117 107.216 152.775 107.745 152.944C109.064 153.359 110.471 153.53 111.837 153.797V157.069C110.532 157.165 109.219 157.15 107.951 157.403C107.316 157.531 106.783 158.15 106.2 158.545C106.703 159.123 107.104 159.913 107.745 160.227C109.04 160.87 110.467 161.255 111.837 161.748V164.554L111.833 164.568ZM92.6779 153.308C92.6779 153.695 92.6819 154.086 92.6779 154.475C92.6406 157.611 93.879 158.965 96.8982 159.077C99.027 159.158 100.043 157.914 100.106 154.89C100.299 145.654 97.2992 137.609 90.9167 130.881C88.497 128.328 86.6217 128.617 84.8507 131.62C83.8246 133.355 84.318 134.65 85.5996 135.992C90.2346 140.824 92.5462 146.631 92.6779 153.306V153.308ZM70.4719 182.092C70.4385 185.207 71.9638 186.455 75.1993 185.602C84.4929 183.153 91.4769 177.696 96.1434 169.294C97.3405 167.138 97.0613 165.599 95.4279 164.637C93.1064 163.257 90.9442 163.575 89.7629 165.674C86.0085 172.351 80.4751 176.657 73.043 178.514C71.2582 178.956 70.4385 180.066 70.4719 182.09V182.092ZM64.97 182.305C65.0211 180.727 64.4138 179.174 62.2437 178.705C54.9531 177.125 49.3254 173.187 45.3253 166.865C43.9827 164.739 42.0053 164.595 39.6602 166.258C37.8794 167.513 38.0111 169.089 39.0627 170.748C44.2481 178.919 51.5348 184.087 61.0486 186.009C63.4978 186.502 64.9484 185.213 64.972 182.305H64.97ZM66.9573 120.193C66.92 120.383 66.8767 120.57 66.8354 120.759C61.8564 120.822 57.133 121.981 52.6532 124.154C51.0846 124.911 50.1195 126.031 50.6895 127.864C51.5426 130.637 53.8818 131.651 56.5393 130.49C57.2548 130.181 57.9664 129.869 58.7016 129.613C64.5887 127.572 70.4523 127.721 76.3158 129.776C78.5724 130.57 80.3985 129.43 81.2319 126.813C81.8963 124.728 80.7936 123.447 78.9183 122.963C74.9575 121.944 70.9496 121.106 66.9554 120.195L66.9573 120.193ZM34.2704 154.047C34.3215 154.75 34.3785 155.994 34.5063 157.232C34.7422 159.624 35.8764 160.907 37.6435 160.826C40.2814 160.708 42.023 159.017 41.8166 156.578C41.1994 149.429 43.0215 143.044 47.5013 137.401C49.0168 135.497 48.547 133.549 46.3278 131.804C44.8535 130.641 43.2751 130.975 41.7399 132.854C36.8474 138.861 34.4257 145.776 34.2704 154.047ZM62.3596 163.334C66.7352 165.973 72.6046 164.369 75.5905 159.981C78.8967 155.124 77.0274 148.307 73.3811 146.415C69.7171 152.041 66.0433 157.686 62.3596 163.334ZM71.4587 144.888C65.9529 142.459 60.3095 144.353 57.6499 149.213C55.2656 153.575 56.4352 159.356 60.3527 161.968C64.0265 156.33 67.6905 150.694 71.4587 144.888Z" fill="#FFEDE7"/>
<path fill-rule="evenodd" clip-rule="evenodd" d="M324.809 52.2539C325.3 55.1082 325.903 57.9522 326.263 60.8223C326.507 62.7883 327.937 62.6674 329.239 62.8946C330.546 63.1217 331.773 63.5736 332.648 61.8019C333.914 59.2121 335.528 56.7918 337.106 54.107C338.384 54.559 339.565 54.976 341.014 55.4878C340.54 58.4607 340.263 61.4211 339.549 64.2731C338.942 66.7058 340.932 66.7815 342.059 67.7036C343.164 68.6064 344.07 68.5397 345.183 67.5262C347.322 65.5827 349.624 63.8166 352.006 61.8539C353.102 62.768 354.125 63.6234 355.221 64.5386C353.659 67.3284 352.249 70.0425 350.646 72.6391C349.372 74.7024 351.397 75.3408 352.195 76.3781C352.661 76.9826 353.92 77.4301 354.681 77.2662C356.473 76.8854 358.182 76.0922 359.925 75.4696C362.351 74.6049 364.16 75.4493 365.351 78.0029C363.191 79.8346 361.036 81.76 358.773 83.5487C357.671 84.421 357.2 85.2176 357.923 86.5758C358.662 87.969 358.538 89.9509 361.077 89.7599C363.877 89.5475 366.703 89.7114 369.716 89.7114C369.984 91.1678 370.22 92.474 370.482 93.8955C367.542 95.0028 364.8 96.1757 361.967 97.0593C359.845 97.7192 360.629 99.3079 360.505 100.618C360.394 101.832 360.326 102.984 361.975 103.439C363.754 103.926 365.462 104.689 367.2 105.327C369.642 106.224 370.433 108.035 369.572 110.76C366.707 110.76 363.732 110.89 360.778 110.712C358.94 110.599 358.643 111.742 358.285 112.99C357.914 114.277 356.793 115.485 358.604 116.797C361.001 118.535 363.164 120.607 365.479 122.582C364.75 123.829 364.112 124.933 363.361 126.213C360.649 125.25 357.928 124.506 355.415 123.326C353.225 122.299 352.488 123.696 351.302 124.921C350.119 126.145 350.113 127.11 350.99 128.495C352.487 130.859 353.792 133.347 355.249 135.904C354.182 136.809 353.212 137.63 352.029 138.632C349.701 136.708 347.359 134.901 345.168 132.918C344.036 131.89 343.136 131.894 342.023 132.788C340.888 133.698 338.855 133.777 339.55 136.195C340.146 138.273 340.281 140.478 340.69 142.614C340.974 144.085 340.999 145.102 339.155 145.734C337.436 146.321 336.696 145.896 335.938 144.44C334.898 142.442 333.556 140.598 332.562 138.578C331.757 136.934 330.582 137.284 329.307 137.556C327.956 137.846 326.454 137.648 326.229 139.804C325.932 142.667 325.225 145.488 324.676 148.439H320.474C319.954 145.646 319.228 142.841 318.963 139.995C318.738 137.591 317.027 137.884 315.554 137.479C314.117 137.085 313.149 137.34 312.451 138.811C311.693 140.404 310.663 141.87 309.763 143.395C308.47 145.575 306.597 146.016 304.143 144.718C304.616 141.852 304.963 138.895 305.628 136.016C306.197 133.556 304.021 133.639 302.956 132.687C301.93 131.772 301.042 131.959 300.022 132.872C297.859 134.796 295.587 136.59 293.158 138.6C292.086 137.719 291.062 136.882 289.899 135.927C291.417 133.247 292.817 130.637 294.357 128.115C295.073 126.945 295.112 126.07 293.997 125.208C292.87 124.336 292.632 122.141 290.274 123.177C287.629 124.335 284.83 125.147 281.853 126.198C281.166 125.091 280.459 123.964 279.62 122.623C281.896 120.68 284.024 118.733 286.293 116.962C287.514 116.006 287.893 115.101 287.119 113.703C286.415 112.416 286.638 110.459 284.152 110.704C281.601 110.955 279.003 110.781 276.422 110.793V105.954C278.742 105.069 281.105 104.285 283.345 103.232C283.976 102.934 284.621 101.831 284.59 101.124C284.544 99.8322 284.39 97.8492 283.589 97.4085C281.394 96.2028 278.838 95.6435 276.423 94.8288V89.5068C279.076 89.5746 281.733 89.5588 284.372 89.7328C286.847 89.8978 286.462 87.7667 287.201 86.5148C287.925 85.2899 287.504 84.4843 286.47 83.6515C284.166 81.7916 281.948 79.8278 279.653 77.8696C280.412 76.577 281.056 75.4843 281.771 74.2651C284.709 75.2967 287.544 76.1883 290.292 77.299C291.638 77.8414 292.427 77.5295 293.069 76.3804C293.762 75.1352 295.784 74.4617 294.377 72.351C292.742 69.8911 291.421 67.2188 289.904 64.5443C291.05 63.5804 292.062 62.7239 293.11 61.8415C295.598 63.8945 297.98 65.6968 300.165 67.7137C301.809 69.2312 302.762 67.7183 303.951 67.1748C305.074 66.6629 306.012 66.1657 305.63 64.4878C304.972 61.5985 304.619 58.637 304.113 55.5353C305.451 55.0347 306.691 54.5714 307.993 54.0833C309.605 56.7918 311.248 59.1974 312.51 61.7895C313.528 63.8934 314.99 62.8799 316.387 62.8143C317.854 62.7454 318.698 62.1782 318.931 60.5703C319.327 57.7816 319.936 55.0245 320.452 52.2528H324.808L324.809 52.2539ZM321.284 70.2979C315.344 70.0154 306.671 73.412 304.522 76.6967C308.748 81.7216 312.991 86.7667 317.184 91.7532C319.919 90.7912 321.285 88.9761 321.284 86.308V70.2979ZM313.489 129.051C319.7 130.856 325.527 130.903 331.655 129.035C329.392 122.796 327.296 116.907 325.066 111.069C324.86 110.532 323.745 110.013 323.084 110.057C322.041 110.124 320.363 110.406 320.109 111.056C317.807 116.866 315.755 122.774 313.489 129.052V129.051ZM340.847 76.4131C336.147 72.3951 328.05 69.5928 323.813 70.5352V86.6119C323.813 89.3155 325.228 90.9886 328.06 91.6311C332.264 86.6266 336.502 81.5837 340.847 76.4131ZM352.446 96.2729C345.94 97.4243 339.719 98.5034 333.505 99.6718C333.061 99.7554 332.563 100.414 332.384 100.91C331.667 102.891 331.692 104.533 334.136 105.489C335.912 106.18 337.493 107.363 339.166 108.323C342.49 110.23 345.812 112.132 349.384 114.177C352.162 108.389 353.385 102.679 352.446 96.2729ZM295.927 114.106C301.534 110.868 307.03 107.719 312.491 104.512C312.861 104.29 313.214 103.601 313.17 103.171C312.966 101.172 312.726 99.1565 309.886 99.2593C308.944 99.2932 307.988 98.9497 307.041 98.7836C302.317 97.9622 297.592 97.1441 292.9 96.3283C291.595 101.159 292.908 108.915 295.927 114.107V114.106ZM315.176 93.4605C310.912 88.3848 306.605 83.256 302.173 77.9826C297.56 82.5193 294.4 87.4187 293.223 93.7509C298.645 94.6989 303.782 95.5961 308.91 96.491C311.622 96.9655 313.712 95.9558 315.178 93.4616L315.176 93.4605ZM297.129 116.44C300.67 121.841 305.156 125.6 311.037 128.148C313.303 121.9 315.543 115.967 317.517 109.946C317.724 109.326 316.498 108.077 315.719 107.353C315.28 106.944 314.202 106.657 313.748 106.914C308.277 109.964 302.867 113.128 297.13 116.441L297.129 116.44ZM342.911 78.0448C338.497 83.2956 334.225 88.3859 330.001 93.4142C331.386 95.9799 333.377 97.0262 335.976 96.5531C337.403 96.2966 338.827 96.0627 340.251 95.8085C344.103 95.1192 347.954 94.4288 352.017 93.6966C350.568 87.4074 347.634 82.3498 342.91 78.0436L342.911 78.0448ZM348.009 116.456C342.028 112.991 336.289 109.668 330.609 106.38C328.313 108.123 327.614 110.245 328.513 112.746C330.067 117.054 331.614 121.362 333.183 125.665C333.472 126.451 333.835 127.209 334.217 128.107C340.008 125.554 344.402 121.843 348.009 116.456Z" fill="#FFEDE7"/>
<path fill-rule="evenodd" clip-rule="evenodd" d="M7.65066 125.846C7.35801 126.58 7.06535 127.317 6.77835 128.052C6.28796 127.432 5.78175 126.826 5.31395 126.187C4.87215 125.585 4.47215 124.418 4.07102 124.428C2.93092 124.449 3.45973 125.67 3.17498 126.352C2.86651 127.084 2.50041 128.408 2.17047 128.404C0.968216 128.392 1.28234 127.126 0.989685 126.344C0.743359 125.682 0.502682 124.551 0.123022 124.492C-1.00917 124.317 -0.7346 125.577 -1.11991 126.206C-1.5346 126.879 -2.1086 128.102 -2.45775 128.052C-3.59447 127.889 -3.07244 126.724 -3.22159 125.947C-3.36509 125.216 -3.5956 124.501 -3.78995 123.78C-4.29842 124.317 -4.80011 124.865 -5.32214 125.389C-5.88033 125.95 -6.4566 126.489 -7.03061 127.038C-7.14134 126.252 -7.26903 125.469 -7.36394 124.683C-7.45095 123.945 -7.49953 123.205 -7.56394 122.464C-8.15377 122.926 -8.77636 123.351 -9.32664 123.856C-9.91082 124.404 -10.2634 125.564 -11.26 125.023C-11.5549 124.864 -11.2814 123.622 -11.2328 122.878C-11.1809 122.098 -10.0385 121.257 -11.0543 120.632C-11.3876 120.425 -12.365 121.296 -13.0633 121.637C-13.7379 121.962 -14.434 122.238 -15.1131 122.537C-14.9831 121.8 -14.8825 121.056 -14.7119 120.329C-14.5334 119.568 -13.8724 118.43 -14.1458 118.141C-14.9662 117.272 -15.5402 118.583 -16.2927 118.786C-17.0181 118.978 -17.7492 119.121 -18.478 119.286C-18.2238 118.59 -17.9955 117.883 -17.6927 117.207C-17.3729 116.489 -16.4927 115.478 -16.704 115.161C-17.4193 114.096 -18.2339 115.313 -19.0351 115.435C-19.165 115.456 -19.287 115.583 -19.4091 115.586C-19.9932 115.594 -20.5842 115.577 -21.1661 115.57C-20.9254 115.005 -20.774 114.367 -20.4102 113.895C-20.0362 113.412 -19.4113 113.13 -18.9752 112.683C-18.7673 112.466 -18.5605 111.95 -18.6724 111.787C-18.8509 111.522 -19.3085 111.286 -19.6249 111.313C-20.3774 111.38 -21.1141 111.698 -21.8689 111.733C-22.3288 111.754 -22.8091 111.44 -23.2791 111.28C-23.0429 110.88 -22.8893 110.382 -22.5503 110.107C-22.0384 109.687 -21.348 109.482 -20.826 109.069C-20.4927 108.808 -20.3255 108.341 -20.087 107.965C-20.504 107.781 -20.9074 107.486 -21.3356 107.439C-21.9526 107.376 -22.6079 107.597 -23.2147 107.499C-23.6667 107.422 -24.0678 107.028 -24.496 106.777C-24.1955 106.428 -23.9627 105.963 -23.5887 105.762C-22.9605 105.424 -22.2136 105.319 -21.5831 104.989C-21.2554 104.819 -21.0689 104.372 -20.8226 104.049C-21.1209 103.822 -21.391 103.476 -21.7243 103.394C-22.4633 103.213 -23.2565 103.249 -23.9797 103.03C-24.3695 102.912 -24.6678 102.456 -25 102.155C-24.6475 101.855 -24.339 101.442 -23.9311 101.282C-23.4 101.075 -22.7616 101.144 -22.2226 100.949C-21.7379 100.776 -21.3288 100.404 -20.8848 100.12C-21.304 99.7881 -21.6915 99.3949 -22.1526 99.144C-22.5774 98.9124 -23.1492 98.9237 -23.5469 98.6649C-23.9887 98.3802 -24.3017 97.9113 -24.6791 97.5215C-24.1842 97.2921 -23.7153 96.9576 -23.1932 96.8638C-22.5898 96.7542 -21.9311 96.9248 -21.3164 96.8288C-20.9424 96.7712 -20.6068 96.4469 -20.2577 96.2412C-20.4825 95.8989 -20.6362 95.4525 -20.948 95.2367C-21.574 94.8073 -22.3345 94.5712 -22.9435 94.126C-23.2463 93.9057 -23.3446 93.4062 -23.539 93.0322C-23.1548 92.8627 -22.7616 92.5441 -22.3853 92.561C-21.5842 92.5972 -20.7989 92.8661 -19.9944 92.9249C-19.6588 92.9475 -19.139 92.7622 -19.0147 92.5158C-18.8983 92.2887 -19.0961 91.7463 -19.3311 91.5226C-19.9108 90.9667 -20.6418 90.5599 -21.2102 89.9927C-21.478 89.7238 -21.5108 89.2221 -21.652 88.8232C-21.2509 88.7057 -20.8158 88.4311 -20.4497 88.5046C-19.7164 88.6548 -19.0317 89.0503 -18.2916 89.2288C-17.913 89.3181 -17.4735 89.1588 -17.0622 89.1125C-17.1673 88.6842 -17.1673 88.1836 -17.4012 87.8435C-17.8317 87.2198 -18.4656 86.7351 -18.8735 86.1C-19.0712 85.7972 -19.0791 85.2243 -18.9198 84.8955C-18.8362 84.7249 -18.1424 84.6876 -17.8339 84.8232C-17.095 85.143 -16.4396 85.6492 -15.7085 85.987C-15.3944 86.1306 -14.9797 86.0424 -14.6091 86.0605C-14.6012 85.656 -14.4577 85.1916 -14.6091 84.8594C-14.9662 84.0888 -15.5051 83.4063 -15.8701 82.639C-15.9978 82.3735 -15.9616 81.7837 -15.7921 81.6718C-15.5187 81.4989 -14.9741 81.4549 -14.7097 81.6221C-14.0328 82.0503 -13.4837 82.6763 -12.8091 83.1114C-12.4656 83.334 -11.9639 83.3091 -11.5311 83.3995C-11.4984 82.9916 -11.3639 82.56 -11.4611 82.1882C-11.6182 81.5859 -12.0328 81.0413 -12.1402 80.4391C-12.2295 79.9328 -12.0396 79.3769 -11.973 78.8402C-11.4724 79.0549 -10.8927 79.1769 -10.4973 79.5136C-9.98878 79.9385 -9.67692 80.5871 -9.18653 81.0436C-8.95037 81.2684 -8.40687 81.4549 -8.18541 81.3317C-7.93908 81.1905 -7.77072 80.6662 -7.80349 80.3328C-7.89275 79.4877 -8.17185 78.6628 -8.24529 77.8187C-8.27241 77.499 -8.00914 76.9442 -7.7662 76.8673C-7.49049 76.7837 -6.96168 77.0312 -6.76507 77.2978C-6.28259 77.9385 -5.97751 78.7125 -5.49729 79.3577C-5.27243 79.6594 -4.81254 79.7837 -4.46 79.9893C-4.28147 79.6199 -3.98317 79.2628 -3.95379 78.8809C-3.88034 78.0809 -4.01594 77.2594 -3.93458 76.4606C-3.90181 76.1351 -3.57413 75.6267 -3.32329 75.5928C-3.03854 75.551 -2.54928 75.8719 -2.39787 76.1623C-2.03177 76.8775 -1.8668 77.6922 -1.51539 78.412C-1.34476 78.7611 -0.92556 78.986 -0.617086 79.2662C-0.37076 78.934 -0.00805092 78.6334 0.092514 78.2628C0.278954 77.5758 0.224716 76.8199 0.433756 76.1408C0.555788 75.7295 0.980644 75.4063 1.26765 75.0425C1.57951 75.3758 2.02245 75.6572 2.17725 76.0526C2.39985 76.6278 2.34561 77.3057 2.5377 77.8967C2.68911 78.3543 3.04165 78.7442 3.30606 79.1645C3.636 78.8108 4.06424 78.5057 4.2778 78.091C4.56706 77.5396 4.60548 76.8605 4.90604 76.3204C5.11734 75.9329 5.58062 75.6843 5.93203 75.3724C6.16479 75.7679 6.54107 76.1408 6.60321 76.5622C6.71169 77.2639 6.55123 78.004 6.63824 78.7103C6.68457 79.0956 7.00886 79.447 7.20885 79.8131C7.55236 79.5905 8.00207 79.4447 8.21902 79.134C8.65744 78.5136 8.90376 77.7611 9.35122 77.1498C9.57381 76.8425 10.0574 76.725 10.4292 76.5216C10.6021 76.8967 10.9275 77.2741 10.9218 77.647C10.9105 78.3566 10.6506 79.0628 10.6235 79.7747C10.6077 80.2108 10.8269 80.6571 10.9456 81.0956C11.3467 80.9046 11.8258 80.7939 12.1365 80.5012C12.5885 80.0763 12.8563 79.4504 13.3252 79.0458C13.6857 78.7317 14.2269 78.6244 14.6868 78.4244C14.7738 78.9091 14.9851 79.4131 14.9195 79.8741C14.8246 80.482 14.4427 81.0447 14.3162 81.6526C14.2269 82.0775 14.3512 82.5487 14.3817 82.9995C14.8472 82.8605 15.3783 82.8153 15.7681 82.56C16.3557 82.1679 16.8133 81.5679 17.4065 81.1747C17.6902 80.9871 18.2811 80.9057 18.4924 81.0763C18.7116 81.247 18.793 81.847 18.6653 82.1543C18.3647 82.8978 17.8529 83.552 17.5387 84.2944C17.3952 84.6424 17.506 85.1001 17.5015 85.5091C17.9071 85.4842 18.3647 85.5712 18.7037 85.4119C19.4291 85.0673 20.0675 84.5373 20.802 84.2097C21.0969 84.0752 21.6924 84.1396 21.8709 84.352C22.0494 84.5588 22.0065 85.1554 21.8246 85.4277C21.3884 86.0989 20.7636 86.6492 20.3161 87.3159C20.1071 87.6277 20.1432 88.0978 20.0698 88.4944C20.4732 88.543 20.9116 88.7147 21.2777 88.6164C22.0088 88.4175 22.6822 87.9983 23.4189 87.8187C23.776 87.7317 24.2178 87.978 24.6212 88.0729C24.5105 88.4786 24.5127 88.9893 24.2607 89.2718C23.7568 89.8367 23.0664 90.23 22.55 90.7825C22.2935 91.0514 22.2415 91.5181 22.098 91.8955C22.4958 92.0164 22.9025 92.2627 23.2811 92.2288C24.0314 92.1588 24.7681 91.8526 25.5195 91.7994C25.8958 91.7735 26.2969 92.0944 26.6845 92.2582C26.4946 92.6356 26.4031 93.1283 26.1025 93.3622C25.5093 93.8254 24.7568 94.0944 24.15 94.5497C23.8494 94.7768 23.7218 95.2378 23.5082 95.5904C23.8788 95.7678 24.2393 96.0661 24.6212 96.0966C25.3771 96.1633 26.1534 96.0051 26.9059 96.091C27.2765 96.1339 27.6076 96.509 27.9568 96.7339C27.7104 97.0763 27.5398 97.5587 27.2065 97.735C26.541 98.0898 25.7556 98.2209 25.0754 98.5565C24.7319 98.7271 24.5127 99.144 24.2336 99.4491C24.5613 99.6954 24.854 100.065 25.2246 100.166C25.9556 100.362 26.7489 100.337 27.472 100.547C27.8347 100.655 28.1082 101.075 28.42 101.353C28.1217 101.651 27.8788 102.081 27.5263 102.213C26.9466 102.431 26.2732 102.378 25.6878 102.578C25.1929 102.747 24.7669 103.116 24.3093 103.395C24.7534 103.751 25.1624 104.177 25.6551 104.44C26.1613 104.711 26.7974 104.752 27.2957 105.033C27.6336 105.226 27.8347 105.662 28.0946 105.989C27.7568 106.234 27.4426 106.623 27.0765 106.691C26.4234 106.811 25.7251 106.667 25.0653 106.758C24.5884 106.825 24.1444 107.098 23.6901 107.28C24.0201 107.689 24.2935 108.173 24.6969 108.49C25.1466 108.846 25.7715 108.982 26.2133 109.345C26.5522 109.623 26.7195 110.106 26.9658 110.499C26.5003 110.68 26.0426 110.998 25.5749 111.012C24.9636 111.03 24.3455 110.734 23.7229 110.709C23.2924 110.691 22.8506 110.899 22.4155 111.004C22.6235 111.44 22.7432 111.955 23.0574 112.287C23.5794 112.834 24.2698 113.223 24.8031 113.761C25.0088 113.97 25.1715 114.543 25.0415 114.7C24.8381 114.954 24.341 115.173 24.0314 115.108C23.2494 114.936 22.515 114.529 21.7353 114.352C21.3342 114.263 20.8721 114.466 20.4359 114.535C20.5444 114.928 20.5602 115.388 20.7828 115.702C21.1975 116.283 21.811 116.728 22.1873 117.327C22.4099 117.676 22.3466 118.208 22.4099 118.659C21.9545 118.666 21.4427 118.804 21.0483 118.649C20.3873 118.394 19.8223 117.891 19.1659 117.614C18.8223 117.468 18.3704 117.58 17.9692 117.574C17.9964 117.982 17.9128 118.443 18.0743 118.786C18.4133 119.512 18.9512 120.15 19.2766 120.881C19.4122 121.176 19.3579 121.771 19.1466 121.954C18.9433 122.133 18.3455 122.09 18.0743 121.911C17.3647 121.442 16.7693 120.804 16.0709 120.325C15.7975 120.138 15.2393 120.038 15.0201 120.193C14.8088 120.345 14.7229 120.908 14.8145 121.225C15.0065 121.913 15.4404 122.537 15.5941 123.229C15.6969 123.686 15.4969 124.215 15.4291 124.713C14.9636 124.548 14.4246 124.478 14.0484 124.191C13.5986 123.844 13.3422 123.254 12.9083 122.876C12.5433 122.562 12.0472 122.404 11.6145 122.177C11.5094 122.652 11.2947 123.133 11.3196 123.603C11.3569 124.312 11.6314 125.009 11.6665 125.72C11.6857 126.055 11.4574 126.604 11.2111 126.693C10.9489 126.789 10.4156 126.554 10.1987 126.295C9.77607 125.782 9.54556 125.111 9.12862 124.591C8.80659 124.187 8.3241 123.909 7.91055 123.574C7.72863 124.074 7.52072 124.565 7.36931 125.076C7.30716 125.282 7.3614 125.521 7.3614 125.747C7.45631 125.78 7.55123 125.812 7.64614 125.844L7.65066 125.846ZM11.184 117.28C8.92636 114.167 6.72524 111.111 4.48006 108.09C4.31283 107.856 3.8247 107.778 3.48119 107.767C2.28459 107.724 1.0846 107.723 -0.108614 107.747C-0.420477 107.755 -0.855503 107.829 -1.01256 108.04C-3.27583 111.09 -5.49841 114.171 -7.72665 117.234C-3.26227 120.925 6.05971 120.957 11.1851 117.281L11.184 117.28ZM-15.8678 97.5418C-18.0012 102.964 -14.8396 112.725 -10.1142 115.42C-8.16168 112.744 -6.2453 110.031 -4.23402 107.388C-3.46792 106.384 -2.99899 105.575 -3.89277 104.35C-4.32893 103.752 -4.2713 102.807 -4.4939 102.036C-4.59447 101.693 -4.76396 101.19 -5.01932 101.104C-8.62608 99.8808 -12.2532 98.7169 -15.8678 97.5418ZM13.5885 115.489C19.3014 111.168 21.1557 102.315 19.2438 97.5655C16.0088 98.6107 12.7761 99.6932 9.51619 100.689C8.47326 101.008 7.82693 101.358 7.81111 102.645C7.80546 103.483 7.22128 104.307 6.9501 105.155C6.84163 105.489 6.72524 105.985 6.88795 106.214C9.09133 109.325 11.3467 112.402 13.5885 115.489ZM-14.9967 94.683C-11.3232 95.8774 -7.75151 97.0604 -4.15605 98.1802C-3.85549 98.2717 -3.37413 97.9938 -3.06001 97.7779C-2.24533 97.2344 -1.53798 96.5 -0.666803 96.083C0.0371475 95.7441 0.213417 95.3565 0.210026 94.6537C0.180649 91.6424 0.196468 88.6311 0.196468 85.6221V83.656C-6.35604 84.0243 -12.8746 88.7644 -14.9978 94.683H-14.9967ZM18.4348 94.6751C16.158 88.5995 8.6145 83.2164 3.23035 83.7984C3.23035 87.1882 3.27442 90.5961 3.20888 94.0006C3.18741 95.1475 3.37385 95.8989 4.60096 96.326C5.31621 96.5768 5.84389 97.3248 6.50378 97.787C6.81564 98.0051 7.29925 98.2751 7.6032 98.1836C11.1964 97.0604 14.7693 95.8729 18.4359 94.6751H18.4348Z" fill="#FFEDE7"/>
</svg>
