<svg width="80" height="80" viewBox="0 0 80 80" fill="none" xmlns="http://www.w3.org/2000/svg">
<path d="M79.8951 0.688425C79.6422 0.130303 79.0017 -0.139071 78.4261 0.071397L6.08267 26.4775C5.54861 26.6724 5.23158 27.2225 5.33049 27.7824C5.42955 28.3422 5.91595 28.7502 6.48455 28.7502H30.2727C30.2727 28.7502 34.731 45.3904 34.7324 45.3949C34.7883 45.5948 34.8966 45.7824 35.0593 45.9345C35.2852 46.1457 35.5725 46.2502 35.8591 46.2502C36.1724 46.2502 36.4849 46.1254 36.7155 45.8785C36.7427 45.8495 46.7964 34.9912 47.0765 34.6758C47.1204 34.6264 47.1626 34.5786 47.2039 34.5315H69.1405C69.6577 34.5315 70.1136 34.1926 70.2627 33.6973L79.9501 1.50998C79.9503 1.5092 79.9504 1.50827 79.9508 1.50748C79.9504 1.50764 79.95 1.5078 79.9497 1.50795C80.0279 1.24545 80.0162 0.955612 79.8951 0.688425ZM37.4716 32.4445C37.2635 32.6108 37.1103 32.8481 37.0539 33.1297L35.6938 39.9307L32.5263 28.1058C33.5408 27.51 36.0446 26.0867 42.0416 22.7574C42.6073 22.4432 42.8114 21.7299 42.4973 21.164C42.183 20.5983 41.47 20.3943 40.9039 20.7082C37.698 22.4882 30.9622 26.3078 30.8074 26.4064H13.1126L64.749 7.5587C58.5682 10.9538 51.2493 14.981 45.0083 18.4338C44.442 18.7471 44.2369 19.4601 44.5501 20.0265C44.8633 20.5927 45.5765 20.798 46.1428 20.4846C52.8382 16.7804 60.7746 12.4149 67.2144 8.87839L37.4753 32.4409C37.4739 32.442 37.4728 32.4434 37.4716 32.4445ZM37.8181 41.2598L39.1639 34.5312H44.0456C42.4911 36.2297 40.0789 38.8314 37.8181 41.2598ZM68.2693 32.1876H41.5691L76.63 4.40872L68.2693 32.1876Z" fill="#FC5828"/>
<path d="M28.2507 46.1244C27.7929 45.6669 27.0511 45.6669 26.5934 46.1244L16.3522 56.3657C16.3883 55.8357 16.4066 55.3017 16.4066 54.7656C16.4066 52.7161 15.5469 50.7383 14.0481 49.3392C12.5282 47.9205 10.5436 47.2189 8.46083 47.3619C4.79163 47.615 1.83399 50.5726 1.58086 54.2418C1.43727 56.3249 2.13945 58.3092 3.5582 59.8292C4.95725 61.3279 6.93506 62.1876 8.98458 62.1876C10.3563 62.1876 11.6922 61.9538 12.9466 61.5051C11.9372 64.4473 10.2619 67.1435 7.99771 69.4075L5.49959 71.9057C5.04194 72.3635 5.04194 73.1053 5.49959 73.563C5.7285 73.7917 6.0285 73.9061 6.32834 73.9061C6.62818 73.9061 6.92818 73.7917 7.15709 73.563L9.6552 71.0649C12.7471 67.9729 14.8527 64.1568 15.8131 59.9993C16.3308 59.6274 16.822 59.2104 17.2817 58.7509L28.2506 47.782C28.7084 47.3241 28.7084 46.5822 28.2507 46.1244ZM13.7164 58.569C12.2958 59.4004 10.6743 59.8437 8.98473 59.8437C7.56193 59.8437 6.24318 59.2706 5.27163 58.2298C4.30101 57.1899 3.8207 55.8307 3.91913 54.4029C4.09195 51.8948 6.11397 49.8729 8.62208 49.7C8.74442 49.6915 8.86614 49.6873 8.98708 49.6873C10.2802 49.6873 11.498 50.165 12.4489 51.0525C13.4897 52.024 14.0628 53.3426 14.0628 54.7656C14.0627 56.0556 13.9455 57.3271 13.7164 58.569Z" fill="#FC5828"/>
<path d="M62.1999 41.9632C61.6483 41.6248 60.9266 41.7976 60.5883 42.3493L55.3902 50.8227C55.3612 50.6875 55.3305 50.5525 55.2982 50.4174C54.9249 48.8599 53.9115 47.5133 52.5177 46.7229C51.104 45.9215 49.4684 45.749 47.912 46.2374C45.1692 47.0979 43.4598 49.8846 43.9357 52.7192C44.2059 54.3281 45.1007 55.708 46.4556 56.6048C47.7918 57.4891 49.4515 57.7819 51.0091 57.4092C51.8209 57.2147 52.5894 56.9142 53.2996 56.5192C53.0201 58.5519 52.3191 60.5226 51.214 62.324L49.846 64.5539C49.5076 65.1056 49.6804 65.827 50.2321 66.1654C50.4234 66.2828 50.6348 66.3386 50.8438 66.3386C51.2377 66.3386 51.6226 66.1398 51.8437 65.7793L53.2116 63.5495C54.9149 60.773 55.7876 57.6478 55.7827 54.4708C56.073 54.1261 56.3394 53.7572 56.5794 53.366L62.5858 43.5746C62.9242 43.023 62.7514 42.3016 62.1999 41.9632ZM50.4629 55.1302C49.5212 55.3558 48.5574 55.1855 47.7492 54.6506C46.9418 54.1163 46.4084 53.2928 46.2471 52.3316C45.9639 50.6444 46.9812 48.986 48.6137 48.474C48.961 48.365 49.3148 48.311 49.6656 48.311C50.254 48.311 50.8341 48.4629 51.3615 48.7621C52.2046 49.2402 52.793 50.0221 53.0187 50.9639C53.2257 51.828 53.3555 52.6986 53.4094 53.5672C52.5865 54.3239 51.5801 54.8625 50.4629 55.1302Z" fill="#FC5828"/>
<path d="M4.63263 75.1637C4.16247 74.7195 3.4206 74.7402 2.97623 75.211L0.319992 78.0235C-0.124537 78.494 -0.103287 79.2357 0.367336 79.6801C0.593741 79.894 0.882958 80.0001 1.17171 80.0001C1.4828 80.0001 1.79342 79.8769 2.02373 79.6327L4.67997 76.8202C5.1245 76.3498 5.10325 75.6081 4.63263 75.1637Z" fill="#FC5828"/>
<path d="M34.1924 60.0591C33.6638 59.6851 32.9327 59.8107 32.559 60.3391L28.0278 66.7454C27.654 67.2738 27.7793 68.0052 28.3078 68.3788C28.5132 68.5243 28.7495 68.5941 28.9834 68.5941C29.351 68.5941 29.7127 68.4216 29.9412 68.0988L34.4724 61.6926C34.8462 61.1641 34.7208 60.4327 34.1924 60.0591Z" fill="#FC5828"/>
</svg>
