<svg width="97" height="100" viewBox="0 0 97 100" fill="none" xmlns="http://www.w3.org/2000/svg">
<path d="M58.3341 83.7237C56.7279 83.7248 55.1557 83.2614 53.8069 82.3893L31.667 68.0635V95.0002C31.6685 96.3258 32.1958 97.5967 33.1332 98.5341C34.0706 99.4714 35.3414 99.9987 36.6671 100H80.0011C81.3267 99.9987 82.5976 99.4714 83.535 98.5341C84.4724 97.5967 84.9997 96.3258 85.0012 95.0002V68.0635L62.8613 82.3893C61.5124 83.2614 59.9402 83.7248 58.3341 83.7237Z" fill="#FC5828"/>
<path d="M31.7422 64.1419L55.6176 79.591C56.4272 80.1136 57.3703 80.3917 58.334 80.3917C59.2976 80.3917 60.2408 80.1136 61.0504 79.591L84.9258 64.1419C84.7225 62.9829 84.1174 61.9326 83.2169 61.1751C82.3164 60.4177 81.1778 60.0017 80.0011 60H36.6671C35.4903 60.0017 34.3518 60.4177 33.4512 61.1751C32.5506 61.9325 31.9456 62.9829 31.7422 64.1419Z" fill="#FC5828"/>
<path d="M80.7606 9.37308C81.187 9.26052 81.6406 9.32153 82.0221 9.54274C82.4036 9.76395 82.6819 10.1273 82.796 10.5533C82.9101 10.9793 82.8507 11.4331 82.6309 11.8154C82.4111 12.1977 82.0487 12.4773 81.6231 12.5929L66.6854 16.5957L65.7252 32.596L96.669 6.83595L56.9902 0L65.8218 13.3752L80.7606 9.37308Z" fill="#FC5828"/>
<path d="M42.0222 23.4358C42.2207 23.4357 42.4176 23.4 42.6036 23.3306C44.071 22.7841 45.5781 22.2473 47.0829 21.7373C47.5015 21.5952 47.8465 21.2928 48.0421 20.8964C48.2377 20.4999 48.2678 20.0421 48.1258 19.6235C47.9838 19.2049 47.6813 18.8598 47.2849 18.6642C46.8885 18.4686 46.4306 18.4385 46.012 18.5805C44.4756 19.1014 42.9372 19.6489 41.4393 20.2068C41.0726 20.3429 40.7655 20.6036 40.5716 20.9433C40.3778 21.283 40.3096 21.6801 40.379 22.065C40.4484 22.4499 40.6509 22.7982 40.9512 23.0488C41.2514 23.2995 41.6302 23.4365 42.0213 23.436L42.0222 23.4358Z" fill="#FC5828"/>
<path d="M7.34669 73.0558C7.19748 73.2159 7.08127 73.4039 7.00471 73.609C6.92814 73.814 6.89272 74.0321 6.90046 74.2509C6.90819 74.4696 6.95894 74.6847 7.04981 74.8838C7.14067 75.083 7.26987 75.2623 7.43002 75.4115C8.68952 76.5845 10.0743 77.6153 11.5595 78.4853C11.941 78.7086 12.3956 78.7712 12.8232 78.6593C13.2509 78.5475 13.6166 78.2703 13.8399 77.8888C14.0632 77.5073 14.1258 77.0527 14.014 76.625C13.9021 76.1974 13.625 75.8317 13.2435 75.6083C11.9697 74.8623 10.7819 73.9783 9.70172 72.9723C9.3783 72.6711 8.94853 72.5108 8.50691 72.5264C8.06528 72.5421 7.64796 72.7325 7.34669 73.0558Z" fill="#FC5828"/>
<path d="M51.3257 18.6052C51.3873 18.8153 51.4898 19.0111 51.6272 19.1816C51.7646 19.352 51.9342 19.4937 52.1264 19.5985C52.3186 19.7033 52.5296 19.7692 52.7473 19.7923C52.965 19.8155 53.1851 19.7955 53.3951 19.7335C55.4562 19.1267 57.0254 18.711 57.9785 18.4691C58.1922 18.4168 58.3935 18.3227 58.5706 18.1921C58.7478 18.0616 58.8973 17.8973 59.0107 17.7087C59.124 17.5201 59.1989 17.3109 59.2309 17.0932C59.263 16.8755 59.2517 16.6537 59.1976 16.4404C59.1434 16.2271 59.0476 16.0266 58.9156 15.8506C58.7837 15.6745 58.6181 15.5263 58.4286 15.4146C58.239 15.3028 58.0292 15.2297 57.8113 15.1994C57.5933 15.1692 57.3715 15.1824 57.1587 15.2383C56.1777 15.4883 54.5649 15.9143 52.4536 16.5356C52.0296 16.6604 51.6726 16.9487 51.461 17.3368C51.2495 17.7249 51.2008 18.1812 51.3257 18.6052Z" fill="#FC5828"/>
<path d="M0.659583 52.8904C0.24874 54.5572 0.0275419 56.2651 0.000197139 57.9816C-0.00659643 58.4235 0.162434 58.85 0.470109 59.1674C0.777785 59.4847 1.19891 59.6668 1.64085 59.6737H1.66689C2.10452 59.6737 2.52461 59.5016 2.83645 59.1946C3.14829 58.8876 3.32686 58.4702 3.33359 58.0326C3.3569 56.5675 3.5456 55.1097 3.8961 53.6869C3.99868 53.2588 3.9277 52.8074 3.69866 52.4314C3.46962 52.0555 3.10112 51.7854 2.67363 51.6801C2.24613 51.5749 1.79437 51.6431 1.41698 51.8698C1.03959 52.0966 0.767231 52.4634 0.659375 52.8902L0.659583 52.8904Z" fill="#FC5828"/>
<path d="M35.1642 22.7029C33.6487 23.3467 32.1543 24.0136 30.7227 24.685C30.5245 24.778 30.3466 24.909 30.1991 25.0707C30.0516 25.2324 29.9373 25.4216 29.8629 25.6274C29.7885 25.8333 29.7554 26.0517 29.7654 26.2704C29.7755 26.489 29.8285 26.7036 29.9214 26.9017C30.0143 27.0999 30.1454 27.2778 30.3071 27.4253C30.4688 27.5728 30.658 27.6871 30.8638 27.7615C31.0696 27.8359 31.2881 27.869 31.5068 27.859C31.7254 27.8489 31.9399 27.7959 32.1381 27.703C33.5329 27.0486 34.9896 26.3986 36.4673 25.7709C36.6707 25.6866 36.8553 25.5629 37.0106 25.4069C37.1659 25.2509 37.2887 25.0657 37.372 24.8619C37.4553 24.6582 37.4974 24.44 37.4959 24.2199C37.4945 23.9998 37.4494 23.7821 37.3633 23.5795C37.2773 23.377 37.1519 23.1934 36.9946 23.0395C36.8372 22.8856 36.6509 22.7644 36.4465 22.6829C36.242 22.6014 36.0234 22.5612 35.8033 22.5647C35.5832 22.5681 35.366 22.6151 35.1642 22.7029Z" fill="#FC5828"/>
<path d="M21.3183 33.274C21.6265 33.2741 21.9287 33.1882 22.1908 33.0261C23.4825 32.2309 24.854 31.4365 26.2684 30.6652C26.6565 30.4536 26.9446 30.0965 27.0694 29.6725C27.1943 29.2484 27.1455 28.7922 26.9339 28.404C26.8291 28.2119 26.6875 28.0422 26.5172 27.9048C26.3469 27.7673 26.1511 27.6648 25.9412 27.603C25.5171 27.4782 25.0608 27.5269 24.6727 27.7385C23.2071 28.5379 21.7837 29.3619 20.4435 30.1879C20.1343 30.3782 19.8958 30.6642 19.764 31.0025C19.6323 31.3407 19.6146 31.7127 19.7136 32.062C19.8126 32.4112 20.023 32.7186 20.3126 32.9373C20.6023 33.1561 20.9553 33.2743 21.3183 33.274Z" fill="#FC5828"/>
<path d="M16.9533 79.1135C16.9055 79.3271 16.9003 79.548 16.9378 79.7636C16.9754 79.9793 17.0551 80.1854 17.1723 80.3702C17.2896 80.555 17.4421 80.715 17.6211 80.8409C17.8002 80.9667 18.0022 81.0561 18.2158 81.1039C19.8952 81.4785 21.6107 81.6671 23.3313 81.6664C23.7734 81.6664 24.1973 81.4909 24.5099 81.1783C24.8224 80.8657 24.998 80.4418 24.998 79.9998C24.998 79.5577 24.8224 79.1338 24.5099 78.8212C24.1973 78.5087 23.7734 78.3331 23.3313 78.3331C21.8556 78.3336 20.3842 78.1719 18.9438 77.8508C18.7302 77.803 18.5092 77.7977 18.2936 77.8353C18.078 77.8729 17.8718 77.9526 17.687 78.0699C17.5022 78.1871 17.3422 78.3396 17.2164 78.5187C17.0905 78.6978 17.0011 78.8999 16.9533 79.1135Z" fill="#FC5828"/>
<path d="M14.7937 34.0232C13.4333 35.047 12.1479 36.1008 10.9737 37.1554C10.6534 37.453 10.4628 37.8645 10.4431 38.3013C10.4234 38.7381 10.5761 39.1651 10.8683 39.4903C11.1605 39.8156 11.5689 40.0129 12.0052 40.0399C12.4416 40.0669 12.8711 39.9213 13.2012 39.6346C14.3041 38.6439 15.5137 37.6518 16.7979 36.686C16.9728 36.5544 17.1201 36.3896 17.2313 36.2011C17.3425 36.0126 17.4155 35.804 17.4461 35.5873C17.4768 35.3706 17.4644 35.15 17.4097 34.938C17.3551 34.7261 17.2592 34.527 17.1276 34.3521C16.996 34.1772 16.8313 34.0299 16.6428 33.9187C16.4542 33.8075 16.2457 33.7345 16.029 33.7039C15.8122 33.6733 15.5916 33.6856 15.3797 33.7403C15.1677 33.7949 14.9686 33.8908 14.7937 34.0224V34.0232Z" fill="#FC5828"/>
<path d="M8.53017 41.9118C8.3596 41.7747 8.16368 41.6724 7.9536 41.611C7.74353 41.5495 7.5234 41.5301 7.3058 41.5537C7.08819 41.5773 6.87737 41.6436 6.68537 41.7487C6.49337 41.8538 6.32396 41.9956 6.1868 42.1662C5.12834 43.4751 4.17356 44.8646 3.33112 46.3219C3.21954 46.5119 3.14672 46.7221 3.1169 46.9404C3.08708 47.1587 3.10084 47.3808 3.15738 47.5937C3.21392 47.8067 3.31212 48.0063 3.44631 48.1811C3.5805 48.3558 3.748 48.5022 3.93914 48.6119C4.13027 48.7215 4.34124 48.7921 4.55984 48.8196C4.77844 48.8472 5.00034 48.8311 5.21269 48.7724C5.42505 48.7136 5.62364 48.6133 5.797 48.4773C5.97035 48.3413 6.11502 48.1723 6.22263 47.9801C6.97867 46.6736 7.83545 45.4281 8.78517 44.2548C9.062 43.9103 9.19065 43.4699 9.14283 43.0305C9.09501 42.5911 8.87463 42.1888 8.53017 41.9118Z" fill="#FC5828"/>
<path d="M4.17521 64.1039C4.11335 63.893 4.01036 63.6963 3.87219 63.5254C3.73402 63.3544 3.56339 63.2124 3.37013 63.1077C3.17687 63.0029 2.96479 62.9374 2.74612 62.915C2.52744 62.8925 2.30648 62.9135 2.09596 62.9768C1.88544 63.0401 1.68953 63.1445 1.51949 63.2838C1.34946 63.4231 1.20867 63.5947 1.10523 63.7887C1.00179 63.9827 0.937741 64.1952 0.916776 64.414C0.895812 64.6328 0.918343 64.8536 0.983073 65.0637C1.4791 66.7128 2.15689 68.3017 3.00394 69.8011C3.11164 69.9916 3.25582 70.1591 3.42823 70.2939C3.60065 70.4287 3.79794 70.5283 4.00883 70.5869C4.21972 70.6454 4.44008 70.6619 4.65733 70.6353C4.87459 70.6087 5.08448 70.5396 5.27502 70.4319C5.46556 70.3242 5.63303 70.1801 5.76785 70.0076C5.90268 69.8352 6.00222 69.6379 6.0608 69.427C6.11938 69.2162 6.13584 68.9958 6.10926 68.7785C6.08268 68.5613 6.01356 68.3514 5.90586 68.1608C5.18041 66.8769 4.59995 65.5162 4.17521 64.1039Z" fill="#FC5828"/>
</svg>
