<svg width="37" height="31" viewBox="0 0 37 31" fill="none" xmlns="http://www.w3.org/2000/svg">
<path d="M20.7061 26.9702L26.7713 15.5874L30.5102 14.5904C30.1224 15.3659 29.6516 16.0306 29.0977 16.5845C28.5438 17.1384 27.9068 17.4153 27.1867 17.4153C25.5804 17.4153 24.1126 16.7506 22.7832 15.4213C21.4538 14.0919 20.7891 12.4025 20.7891 10.353C20.7891 8.1928 21.5092 6.36491 22.9494 4.86937C24.4449 3.31844 26.2728 2.54297 28.433 2.54297C30.4825 2.54297 32.255 3.31844 33.7505 4.86937C35.3015 6.36491 36.0769 8.1928 36.0769 10.353C36.0769 11.2393 35.9107 12.2917 35.5784 13.5103C35.2461 14.6735 34.5814 16.169 33.5843 17.9969L26.8544 30.2936L20.7061 26.9702Z" fill="white"/>
<path d="M15.8065 4.28835L9.74123 15.588L5.91928 16.6681C6.36241 15.8373 6.86092 15.1726 7.41483 14.6741C7.96873 14.1202 8.60573 13.8432 9.3258 13.8432C10.9321 13.8432 12.3723 14.5079 13.6463 15.8373C14.9756 17.1112 15.6403 18.773 15.6403 20.8224C15.6403 22.9826 14.8925 24.8382 13.397 26.3892C11.9569 27.9401 10.1567 28.7156 7.99643 28.7156C5.94698 28.7156 4.14679 27.9678 2.59585 26.4722C1.10031 24.9213 0.352539 23.038 0.352539 20.8224C0.352539 19.9362 0.518711 18.9114 0.851054 17.7482C1.23879 16.585 1.93117 15.0618 2.9282 13.1785L9.57506 0.881836L15.8065 4.28835Z" fill="white"/>
</svg>
