<svg width="85" height="50" viewBox="0 0 85 50" fill="none" xmlns="http://www.w3.org/2000/svg">
<g opacity="0.2">
<path d="M83.105 0L84.3914 1.88679C83.3623 6.11778 82.0187 11.1778 80.3606 17.0669C78.7025 22.8988 76.9015 28.7593 74.9575 34.6484C73.0707 40.5374 71.1553 45.6547 69.2113 50H45.3691C46.2268 45.9977 47.0558 41.8239 47.8563 37.4786C48.7139 33.076 49.5144 28.6735 50.2576 24.271C51.0009 19.8685 51.6585 15.6089 52.2302 11.4923C52.8591 7.31847 53.3737 3.48771 53.7739 0H83.105Z" fill="#FF6F45"/>
<path d="M1.28645 50L0 48.1132C1.08634 43.8822 2.42996 38.8508 4.03088 33.0189C5.68897 27.1298 7.46141 21.2407 9.3482 15.3516C11.2922 9.40537 13.2361 4.28816 15.1801 0H39.0223C37.936 5.31732 36.821 10.9491 35.6775 16.8954C34.5912 22.8416 33.5906 28.6735 32.6758 34.3911C31.8182 40.1086 31.1321 45.3116 30.6175 50H1.28645Z" fill="#FF6F45"/>
</g>
</svg>
